<svg width="22" height="21" viewBox="0 0 22 21" fill="none" xmlns="http://www.w3.org/2000/svg">
<path d="M9.29102 0.988194C9.71902 -0.329398 11.588 -0.329398 12.016 0.988194L13.549 5.69773C13.741 6.28714 14.29 6.68629 14.912 6.68629H19.871C21.26 6.68629 21.836 8.45879 20.714 9.27424L16.7 12.1841C16.199 12.5489 15.988 13.1941 16.18 13.7835L17.713 18.4931C18.142 19.8107 16.632 20.908 15.508 20.0925L11.496 17.1827C10.993 16.8178 10.314 16.8178 9.81103 17.1827L5.79903 20.0925C4.67503 20.908 3.16502 19.8107 3.59302 18.4931L5.12703 13.7835C5.31903 13.1941 5.10803 12.5489 4.60603 12.1841L0.593025 9.27424C-0.528975 8.45879 0.0470276 6.68629 1.43503 6.68629H6.39503C7.01703 6.68629 7.56503 6.28714 7.75703 5.69773L9.29102 0.988194Z" fill="#FFA006" fill-opacity="0.7"/>
</svg>
