<svg width="52" height="52" viewBox="0 0 52 52" fill="none" xmlns="http://www.w3.org/2000/svg">
<mask id="mask0_102_6259" style="mask-type:luminance" maskUnits="userSpaceOnUse" x="0" y="0" width="52" height="52">
<path d="M52 0H0V52H52V0Z" fill="white"/>
</mask>
<g mask="url(#mask0_102_6259)">
<mask id="mask1_102_6259" style="mask-type:luminance" maskUnits="userSpaceOnUse" x="0" y="0" width="52" height="52">
<path d="M52 0H0V52H52V0Z" fill="white"/>
</mask>
<g mask="url(#mask1_102_6259)">
<path d="M30.9765 26C30.9765 28.7486 28.7486 30.9765 26 30.9765C23.2514 30.9765 21.0234 28.7486 21.0234 26C21.0234 23.2514 23.2514 21.0234 26 21.0234C28.7486 21.0234 30.9765 23.2514 30.9765 26Z" fill="white"/>
<path d="M37.6385 17.1952C37.3993 16.547 37.0176 15.9602 36.5218 15.4786C36.0401 14.9827 35.4537 14.601 34.8051 14.3618C34.279 14.1575 33.4887 13.9143 32.0332 13.848C30.4586 13.7762 29.9865 13.7607 26.0001 13.7607C22.0134 13.7607 21.5414 13.7758 19.9671 13.8476C18.5115 13.9143 17.7208 14.1575 17.1952 14.3618C16.5465 14.601 15.9597 14.9827 15.4785 15.4786C14.9825 15.9602 14.6009 16.5466 14.3613 17.1952C14.157 17.7213 13.9138 18.512 13.8475 19.9676C13.7757 21.5418 13.7603 22.0139 13.7603 26.0006C13.7603 29.9869 13.7757 30.4591 13.8475 32.0337C13.9138 33.4892 14.157 34.2795 14.3613 34.8056C14.6009 35.4542 14.9822 36.0406 15.4782 36.5223C15.9597 37.0181 16.5461 37.3998 17.1947 37.639C17.7208 37.8437 18.5115 38.0869 19.9671 38.1532C21.5414 38.2251 22.0131 38.2401 25.9997 38.2401C29.9869 38.2401 30.4589 38.2251 32.0327 38.1532C33.4884 38.0869 34.279 37.8437 34.8051 37.639C36.1072 37.1368 37.1363 36.1076 37.6385 34.8056C37.8429 34.2795 38.0861 33.4892 38.1527 32.0337C38.2246 30.4591 38.2396 29.9869 38.2396 26.0006C38.2396 22.0139 38.2246 21.5418 38.1527 19.9676C38.0864 18.512 37.8432 17.7213 37.6385 17.1952ZM26.0001 33.6666C21.7658 33.6666 18.3334 30.2345 18.3334 26.0002C18.3334 21.7659 21.7658 18.3339 26.0001 18.3339C30.234 18.3339 33.6666 21.7659 33.6666 26.0002C33.6666 30.2345 30.234 33.6666 26.0001 33.6666ZM33.9697 19.8224C32.9802 19.8224 32.178 19.0201 32.178 18.0307C32.178 17.0413 32.9802 16.239 33.9697 16.239C34.959 16.239 35.7613 17.0413 35.7613 18.0307C35.7608 19.0201 34.959 19.8224 33.9697 19.8224Z" fill="white"/>
<path d="M26 0C11.6428 0 0 11.6428 0 26C0 40.3572 11.6428 52 26 52C40.3572 52 52 40.3572 52 26C52 11.6428 40.3572 0 26 0ZM40.8396 32.1553C40.7674 33.7446 40.5147 34.8296 40.1458 35.7794C39.3701 37.7848 37.7848 39.3701 35.7794 40.1458C34.83 40.5147 33.7446 40.767 32.1556 40.8396C30.5635 40.9123 30.055 40.9296 26.0004 40.9296C21.9455 40.9296 21.4372 40.9123 19.8447 40.8396C18.2559 40.767 17.1704 40.5147 16.221 40.1458C15.2244 39.7708 14.3223 39.1833 13.5764 38.4235C12.8171 37.6782 12.2296 36.7756 11.8546 35.7794C11.4857 34.83 11.233 33.7446 11.1608 32.1556C11.0874 30.5632 11.0703 30.0545 11.0703 26C11.0703 21.9455 11.0874 21.4368 11.1604 19.8447C11.2326 18.2554 11.4849 17.1704 11.8538 16.2206C12.2288 15.2244 12.8167 14.3219 13.5764 13.5764C14.3219 12.8167 15.2244 12.2292 16.2206 11.8542C17.1704 11.4853 18.2554 11.233 19.8447 11.1604C21.4368 11.0878 21.9455 11.0703 26 11.0703C30.0545 11.0703 30.5632 11.0878 32.1553 11.1608C33.7446 11.233 34.8296 11.4853 35.7794 11.8538C36.7756 12.2288 37.6782 12.8167 38.424 13.5764C39.1833 14.3223 39.7712 15.2244 40.1458 16.2206C40.5151 17.1704 40.7674 18.2554 40.8401 19.8447C40.9126 21.4368 40.9296 21.9455 40.9296 26C40.9296 30.0545 40.9126 30.5632 40.8396 32.1553Z" fill="white"/>
</g>
</g>
</svg>
