<svg width="52" height="52" viewBox="0 0 52 52" fill="none" xmlns="http://www.w3.org/2000/svg">
<mask id="mask0_102_6235" style="mask-type:luminance" maskUnits="userSpaceOnUse" x="0" y="0" width="52" height="52">
<path d="M52 0H0V52H52V0Z" fill="white"/>
</mask>
<g mask="url(#mask0_102_6235)">
<mask id="mask1_102_6235" style="mask-type:luminance" maskUnits="userSpaceOnUse" x="0" y="0" width="52" height="52">
<path d="M52 0H0V52H52V0Z" fill="white"/>
</mask>
<g mask="url(#mask1_102_6235)">
<path d="M26 0C11.6428 0 0 11.6428 0 26C0 40.3572 11.6428 52 26 52C40.3572 52 52 40.3572 52 26C52 11.6428 40.3572 0 26 0ZM18.4447 39.3047H12.1125V20.2541H18.4447V39.3047ZM15.2788 17.6528H15.2375C13.1127 17.6528 11.7384 16.1901 11.7384 14.362C11.7384 12.4926 13.1547 11.0703 15.3208 11.0703C17.487 11.0703 18.82 12.4926 18.8613 14.362C18.8613 16.1901 17.487 17.6528 15.2788 17.6528ZM41.2772 39.3047H34.9458V29.1132C34.9458 26.5518 34.0289 24.805 31.7378 24.805C29.9887 24.805 28.9469 25.9834 28.489 27.1208C28.3217 27.5278 28.2807 28.0966 28.2807 28.666V39.3047H21.9491C21.9491 39.3047 22.032 22.0415 21.9491 20.2541H28.2807V22.9516C29.1222 21.6534 30.6279 19.8071 33.9874 19.8071C38.1534 19.8071 41.2772 22.5298 41.2772 28.3812V39.3047Z" fill="white"/>
</g>
</g>
</svg>
