<svg width="22" height="21" viewBox="0 0 22 21" fill="none" xmlns="http://www.w3.org/2000/svg">
<path d="M9.29083 0.988194C9.71924 -0.329398 11.5878 -0.329398 12.0162 0.988194L13.5495 5.69773C13.7415 6.28714 14.2903 6.68629 14.9122 6.68629H19.8715C21.26 6.68629 21.8361 8.45879 20.7141 9.27424L16.7005 12.1841C16.1989 12.5489 15.9883 13.1941 16.1803 13.7835L17.7135 18.4931C18.142 19.8107 16.6317 20.908 15.5083 20.0925L11.4961 17.1827C10.9931 16.8178 10.3139 16.8178 9.81104 17.1827L5.7988 20.0925C4.67538 20.908 3.16507 19.8107 3.59352 18.4931L5.12676 13.7835C5.31877 13.1941 5.10812 12.5489 4.6066 12.1841L0.592977 9.27424C-0.529005 8.45879 0.0470284 6.68629 1.43554 6.68629H6.39489C7.01678 6.68629 7.5656 6.28714 7.75761 5.69773L9.29083 0.988194Z" fill="#FFA006"/>
</svg>
