<svg width="34" height="34" viewBox="0 0 34 34" fill="none" xmlns="http://www.w3.org/2000/svg">
<g clip-path="url(#clip0_138_6249)">
<path d="M17 34C26.3888 34 34 26.3888 34 17C34 7.61116 26.3888 0 17 0C7.61116 0 0 7.61116 0 17C0 26.3888 7.61116 34 17 34Z" fill="#012169"/>
<path d="M14.8693 0.147333L8.5 6.5178L6.018 4.03467C5.30424 4.64057 4.64129 5.3039 4.0358 6.018L6.5178 8.5L0.147333 14.8693C0.0540231 15.5758 0.00481665 16.2874 0 17H1.9822L8.5 10.4822L15.0178 17H17V15.0178L10.4822 8.5L17 1.9822V0C16.2874 0.00481665 15.5758 0.0540231 14.8693 0.147333Z" fill="white"/>
<path d="M10.2 1.42346C8.99288 1.95554 7.85185 2.62646 6.80001 3.42266V5.66666H4.35428C2.8725 7.31725 1.72891 9.24249 0.988281 11.3333H6.80001V17H10.2V11.3333H17V5.66666H10.2V1.42346Z" fill="white"/>
<path d="M17 0C16.5297 0 16.0684 0.0328667 15.6071 0.0702667L7.83927 7.83927L4.97873 4.97873C4.75887 5.2054 4.55827 5.43887 4.34973 5.6712L7.83927 9.16073L0 17H1.32147L9.16073 9.16073L17 17V15.6774L9.16073 7.83927L17 0Z" fill="#C8102E"/>
<path d="M9.51987 1.75214C8.81359 2.0917 8.13193 2.48024 7.47987 2.91494V6.8H3.42254C2.62634 7.85184 1.95542 8.99286 1.42334 10.2H7.47987V17H9.51987V10.2H16.9999V6.8H9.51987V1.75214Z" fill="#C8102E"/>
<path d="M9.01132 24.7633L10.0449 25.8513L9.83865 24.3655L11.3335 24.2352L10.0427 23.4691L10.8734 22.2201L9.47032 22.7505L9.01132 21.3225L8.55119 22.7505L7.14812 22.2201L7.97885 23.4691L6.68799 24.2352L8.18285 24.3655L7.97772 25.8513L9.01132 24.7633ZM20.2234 16.9898L20.8796 17.6811L20.7493 16.7371L21.699 16.6543L20.8796 16.1681L21.4066 15.3737L20.5158 15.7114L20.2234 14.8047L19.9321 15.7114L19.0402 15.3737L19.5683 16.1681L18.7489 16.6543L19.6975 16.7371L19.5672 17.6811L20.2234 16.9898ZM25.5195 11.2529L26.1768 11.9431L26.0453 10.999L26.9951 10.9163L26.1757 10.4301L26.7027 9.63672L25.8119 9.97445L25.5195 9.06665L25.2282 9.97445L24.3374 9.63672L24.8644 10.4301L24.045 10.9163L24.9947 10.999L24.8633 11.9431L25.5195 11.2529ZM30.2273 15.5777L30.8847 16.269L30.7532 15.3249L31.7029 15.2422L30.8835 14.756L31.4105 13.9615L30.5197 14.2993L30.2273 13.3915L29.9361 14.2993L29.0453 13.9615L29.5723 14.756L28.7529 15.2422L29.7026 15.3249L29.5711 16.269L30.2273 15.5777ZM25.5195 25.3753L26.1768 26.0667L26.0453 25.1226L26.9951 25.0399L26.1757 24.5537L26.7027 23.7603L25.8119 24.0969L25.5195 23.1903L25.2282 24.0969L24.3374 23.7603L24.8644 24.5537L24.045 25.0399L24.9947 25.1226L24.8633 26.0667L25.5195 25.3753ZM27.6388 18.9165L28.1567 19.2383L28.0117 18.6456L28.4775 18.2512L27.8689 18.207L27.6388 17.6414L27.4076 18.207L26.799 18.2512L27.2659 18.6456L27.1197 19.2383L27.6388 18.9165Z" fill="white"/>
</g>
<defs>
<clipPath id="clip0_138_6249">
<rect width="34" height="34" fill="white"/>
</clipPath>
</defs>
</svg>
