<svg width="244" height="283" viewBox="0 0 244 283" fill="none" xmlns="http://www.w3.org/2000/svg">
<path d="M150.768 93.5414C151.944 93.0491 152.193 92.0645 152.469 91.0527C152.591 91.6008 152.727 92.1428 152.934 92.6726C153.244 93.4692 154.242 93.5292 153.949 94.6956C153.816 95.2233 153.655 95.9069 153.581 96.598C154.003 96.8595 154.359 96.9065 154.609 96.024C155.09 94.3258 157.125 93.5789 157.006 91.5947C156.928 90.2826 157.109 89.4798 158.147 88.6375C159.616 87.4445 162.009 86.8487 161.895 84.4948C161.826 83.0649 161.222 81.7242 161.154 80.3004C161.107 79.2933 161.25 78.0725 162.03 77.3337C163.143 76.2783 162.608 75.231 161.484 74.497C161.187 74.3029 160.698 74.0687 160.502 73.7439C159.88 72.7082 160.538 71.0169 160.811 69.956C161.323 67.963 161.918 66.0006 162.244 63.9653C162.571 61.9144 161.985 56.6626 164.671 55.7794C166.091 55.3137 167.929 56.2853 169.181 55.3239C171.419 53.6046 168.992 51.9901 169.106 50.1156C169.171 49.0534 169.995 48.0306 170.665 47.2673C171.213 46.6436 172.167 45.8374 172.372 45.0305C172.59 44.1678 172.637 43.2554 172.674 42.3675C172.733 41.0009 172.846 40.0313 173.924 39.1025C174.759 38.3835 175.647 37.7039 176.5 37.0067C177.13 36.4919 178.656 35.6735 178.993 34.9313C179.487 33.8405 179.034 32.3459 179.431 31.1529C179.71 30.312 180.054 29.4942 180.575 28.7711C181.725 27.1736 183.253 26.0474 184.566 24.6168C184.932 24.2192 185.782 22.1696 186.68 22.5966C187.274 22.8778 186.828 21.9245 186.948 21.4908C187.023 21.2177 187.323 20.9617 187.588 20.8888C187.971 20.784 188.253 21.0345 188.481 21.2987C189.164 22.0906 190.12 22.9193 190.711 21.5187C191.264 20.21 191.095 18.7944 191.548 17.4836C191.804 16.7414 192.238 16.2246 193.009 16.7019C193.056 16.7312 193.098 16.768 193.142 16.802C193.196 15.449 193.357 13.601 194.162 13.4444C195.472 13.1918 196.252 15.5907 196.84 16.3873C197.734 17.6 198.955 18.1386 199.929 19.1927C201.593 20.9957 202.503 18.8073 203.565 18.0603C204.36 17.502 205.299 17.4577 205.952 18.0086C206.21 15.3673 206.046 12.5034 207.615 10.2523C208.205 9.40526 209.1 8.8333 210.004 8.37709C211.172 7.79014 211.553 8.65081 212.787 8.68009C213.62 8.69848 214.022 9.02191 214.171 9.86147C214.466 11.5406 214.957 12.8929 216.726 13.4717C216.852 13.5132 216.979 13.552 217.107 13.5901C216.618 12.5157 217.908 11.6332 217.703 10.5124C217.701 10.5043 217.697 10.4988 217.696 10.4927C217.747 10.3368 217.752 10.1829 217.669 10.0426C217.592 9.91118 217.481 9.76547 217.33 9.71712C216.579 9.4788 216.445 9.10702 216.238 8.36415C216.183 8.16601 215.981 7.97058 215.819 7.86368C215.618 7.71728 215.404 7.58927 215.179 7.47965C214.154 6.92402 217.011 7.01731 216.491 6.90359C217.357 7.09289 218.04 7.48237 218.82 6.88385C220.011 5.97007 218.2 3.77889 217.421 3.20556C216.961 2.86511 214.549 4.02811 215.189 2.86919C215.475 2.35034 214.88 2.23118 214.773 1.82195C214.737 1.68236 214.599 1.57478 214.453 1.57819C213.815 1.59521 213.246 1.78246 212.635 1.85123C213.085 0.448553 210.335 -0.858116 209.239 0.720917C209.035 1.01711 209.15 1.44745 209.242 1.7525C209.295 1.93022 210.137 3.52764 210.082 3.52627C209.154 3.5147 208.861 4.10777 208.665 4.80298C208.585 3.15654 208.409 0.798543 207.33 1.62994C206.65 2.15628 206.408 3.48542 206.18 4.24872C205.702 5.84001 205.478 7.38704 204.48 8.77882C204.227 9.13085 204.137 7.22771 204.137 7.22498C204.175 6.56382 204.355 5.93193 204.545 5.30345C204.846 4.30592 205.393 3.41256 205.924 2.52669C206.318 1.87302 206.697 0.69164 205.693 0.457406C205.367 0.380463 205.036 0.712748 204.816 0.897275C203.958 1.61291 203.131 2.18828 202.172 2.77046C201.415 3.23076 200.681 3.76595 200.006 4.34064C199.001 5.19791 199.553 7.05816 197.74 7.13442C196.274 7.19502 195.354 6.95739 194.024 7.75814C193.252 8.2232 193.402 9.00557 194.104 9.38756C194.142 9.6858 194.18 9.98472 194.218 10.2823C194.111 10.1951 194.003 10.108 193.892 10.0229C193.76 9.94591 193.581 9.91731 193.428 9.91731C192.048 9.91731 191.367 11.623 189.772 10.1849C189.31 9.76887 188.012 8.93611 187.536 9.80972C187.3 10.2421 187.235 10.7051 187.142 11.1845C186.9 12.4421 185.393 12.6375 184.383 12.9201C183.904 13.0536 183.653 13.249 183.446 13.6991C183.048 14.5645 182.257 14.9506 181.743 15.7098C181.047 16.736 183.89 18.8304 182.011 19.3404C181.319 19.5277 180.17 19.9144 180.348 20.8847C180.411 21.2286 180.568 21.4744 180.767 21.7618C180.996 22.0906 179.876 22.6299 179.757 22.9179C179.655 23.1638 179.593 23.3142 179.704 23.5641C180.057 24.3567 179.235 24.6005 178.707 25.0805C178.731 24.8068 178.622 24.2239 178.537 24.0775C178.385 23.8208 177.945 23.5635 177.637 23.5635C177.367 23.5635 177.085 23.6928 176.933 23.9237C176.438 24.6767 176.311 25.3645 175.541 25.9473C175.083 26.2946 174.886 26.6664 174.777 27.2152C174.584 28.1794 174.698 28.9161 173.856 29.627C173.089 30.2725 172.644 31.238 171.94 31.9448C171.165 32.7217 170.445 33.5334 169.795 34.4179C169.107 35.3528 168.473 36.2488 167.672 37.0904C167.456 37.3192 167.351 37.6767 167.393 37.9831C167.551 39.1495 166.69 39.9469 166.305 40.9213C165.859 42.0597 165.086 42.9197 164.581 44.0194C164.164 44.9277 164.169 45.9225 163.401 46.6552C162.778 47.2469 161.932 47.6691 161.252 48.2077C160.419 48.8682 159.72 49.7043 159.014 50.4942C158.141 51.4713 157.115 52.2986 156.193 53.2308C155.563 53.8695 155.009 54.6048 154.477 55.3259C153.931 56.0627 153.72 57.8705 153.076 58.3458C152.008 59.1349 150.414 58.0441 149.874 59.6375C149.448 60.8917 146.661 62.4714 145.375 61.9696C144.801 61.7449 142.831 61.0224 142.523 62.1126C142.437 62.419 142.47 62.6859 142.614 62.9753C142.736 63.2197 142.867 63.4594 142.994 63.6998C143.263 64.2091 142.979 63.8816 142.693 63.8421C141.738 63.7154 141.125 64.2792 140.214 64.5271C139.03 64.8505 138.43 64.777 137.405 65.5348C136.072 66.5215 135.103 66.8708 134.445 68.4308C133.682 70.2365 132.298 71.0945 132.903 73.193C133.17 74.115 131.878 74.5726 131.633 75.2787C131.334 76.1373 131.444 76.9054 131.612 77.7824C131.75 78.5028 131.889 78.8807 131.298 79.7169C131.13 79.9552 130.995 80.1418 130.995 80.4523C130.995 81.2523 131.941 81.5029 132.171 82.1906C132.35 82.7279 132.522 84.027 133.429 83.5429C133.996 83.2392 134.411 82.736 134.838 82.2662C135.067 82.0149 135.3 81.7739 135.547 81.5417C136.178 81.6043 136.296 81.8066 135.899 82.1484C135.579 82.4133 135.235 82.6386 134.866 82.8239C134.334 83.1194 134.032 83.5592 133.767 84.0931C133.132 85.3596 132.453 85.6646 131.155 86.2468C130.645 86.4749 128.488 87.7312 129.33 88.5742C130.253 89.4948 132.052 88.76 133.098 88.4945C134.224 88.2092 134.068 89.5179 133.473 90.0912C133.044 90.5059 132.615 90.8981 132.207 91.3366C131.325 92.2831 130.342 93.1329 129.355 93.9643C129.213 94.0841 129.238 94.3122 129.355 94.4348C130.073 95.1919 130.304 96.2623 130.959 97.0815C131.601 97.8836 132.316 98.5093 133.177 99.0643C134.997 100.24 137.226 100.658 139.354 100.781C141.307 100.895 143.014 99.8303 144.374 98.5359C145.634 97.3389 147.284 96.4387 147.868 94.7514C148.319 94.9652 148.79 95.213 149.298 95.0728C150.134 94.8406 149.971 93.8764 150.768 93.5414Z" fill="#5D59EA"/>
<path d="M231.624 62.9535C230.366 62.0996 229.788 60.6323 228.565 59.79C227.257 58.8905 226.302 58.0584 227.31 56.2029C227.574 55.7161 227.689 55.2674 227.72 54.7199C227.801 53.3023 225.631 53.0884 225.216 52.0466C224.945 51.3617 225.496 49.9678 224.461 49.658C224.248 49.5865 224.032 49.53 223.812 49.4871C223.456 49.4068 223.787 48.3752 223.855 48.0912C223.966 47.6214 223.606 46.982 223.464 46.5483C223.153 45.5998 222.198 44.5355 222.837 43.4604C223.101 43.0184 223.538 42.6773 223.734 42.1905C224.121 41.2311 223.705 40.5229 223.058 39.7848C222.595 39.2571 222.053 38.8499 221.621 38.2854C221.009 37.4854 220.746 36.3802 220.373 35.4562C219.524 33.3509 218.864 31.8501 219.561 29.5555C220.281 27.1838 221.151 24.8933 218.429 23.6935C217.841 23.4341 217.59 22.8444 217.061 22.5216C216.078 21.9204 215.758 21.5085 215.91 20.2944C215.995 19.6128 215.895 19.1573 215.697 18.4988C215.318 17.2378 215.778 16.5044 216.732 15.7268C217.198 15.3455 217.472 14.89 217.428 14.4011C216.935 14.2595 216.446 14.1042 215.984 13.8952C214.494 13.2231 213.873 11.9975 213.597 10.4205C213.441 9.52781 212.862 9.5496 212.215 9.29358C211.863 9.15399 210.893 8.72978 210.628 8.83601C209.239 9.3964 207.964 10.4246 207.471 11.8892C206.707 14.1703 206.832 16.5984 206.504 18.9578C206.464 19.2383 206.012 19.2839 205.897 19.0367C204.842 16.77 202.632 20.3741 201.421 20.7554C200.358 21.0883 199.457 19.5079 198.778 19.0653C197.417 18.1768 196.509 17.2351 195.649 15.8392C195.359 15.37 195.077 14.5999 194.659 14.2411C194.252 14.4733 194.046 14.8103 194.037 15.2509C193.919 16.0414 193.87 16.8388 193.797 17.6334C193.971 17.9337 194.13 18.2435 194.312 18.4893C194.896 19.2832 195.55 19.7742 195.986 20.6553C196.552 21.8019 197.882 21.9313 198.847 22.5714C199.513 23.0099 200.444 23.4409 201.002 24.0162C202.112 25.1595 201.308 27.1927 201.31 28.6356C201.31 30.9071 202.699 32.5576 202.478 34.8856C202.36 36.1446 202.178 37.5991 202.825 38.7553C203.32 39.6404 203.878 40.5358 204.215 41.4973C204.601 42.6051 204.622 43.5012 204.534 44.6554C204.602 44.6983 204.67 44.7405 204.739 44.784C205.896 45.5249 206.984 45.3928 207.545 46.9963C207.941 48.128 207.05 49.6063 206.709 50.6508C206.336 51.7974 206.226 52.7562 205.516 53.8054C204.717 54.9875 203.665 56.0102 202.693 57.0473C199.392 60.5676 196.875 64.4324 194.536 68.6384C194.125 69.3765 193.414 70.3237 193.807 71.2218C194.037 71.7488 194.385 72.1179 194.713 72.5959C195.33 73.494 195.488 74.7571 195.667 75.803C196.248 79.1735 195.708 82.8627 197.145 86.0527C197.511 86.8678 198.461 87.8102 199.349 88.0233C199.876 88.1499 200.333 88.1833 200.881 88.167C202.424 88.122 202.121 89.4539 202.299 90.2683C202.866 92.8625 207.03 89.9339 207.917 89.5969C209.57 88.9677 211.155 88.25 212.85 87.7251C214.178 87.3138 215.334 86.1583 216.475 85.4025C217.165 84.9456 218.263 84.3334 219.105 84.7182C219.448 84.8755 219.68 85.0954 220.095 84.9367C221.057 84.5704 221.542 84.0863 221.663 83.0608C221.859 81.3892 223.7 79.9599 224.821 78.8235C225.901 77.7265 226.865 76.5282 227.722 75.2528C229.755 72.2255 230.594 68.5417 232.122 65.2625C232.183 65.1317 232.153 65.0092 232.085 64.9152C232.132 64.8628 232.166 64.7947 232.166 64.7034C232.167 64.0654 232.22 63.3586 231.624 62.9535Z" fill="#5D59EA"/>
<path d="M194.568 54.8118C194.386 54.4135 194.279 54.1983 194.018 53.8627C193.298 52.9373 194.414 51.8812 194.813 51.1758C195.889 49.2733 195.82 46.9099 197.175 45.1681C197.86 44.2877 199.261 43.9997 200.282 43.7355C201.689 43.3705 202.797 43.683 203.923 44.2972C203.968 43.9384 203.998 43.5795 203.958 43.2248C203.752 41.3972 202.506 40.2213 202.01 38.5558C201.697 37.5085 201.666 36.4715 201.769 35.3861C201.849 34.5343 201.987 33.4482 201.697 32.6312C201.484 32.0279 201.098 31.5492 200.916 30.9384C200.647 30.0335 200.605 29.0904 200.664 28.1494C200.756 26.6895 201.305 24.8824 199.73 23.9897C198.591 23.3435 197.611 22.664 196.371 22.1751C195.357 21.7761 195.537 20.7166 194.78 20.022C194.39 19.6632 194.029 19.2744 193.74 18.8264C193.737 18.8223 193.619 18.6337 193.451 18.3974C193.264 18.4267 193.067 18.3272 193.093 18.0896C193.097 18.0501 193.101 17.9977 193.104 17.9446C192.731 17.5033 192.313 17.1581 192.189 17.6606C191.852 19.0347 191.962 20.5688 191.286 21.8544C190.766 22.8431 189.822 23.5022 188.757 22.7995C188.458 22.6027 187.633 21.1129 187.587 22.1907C187.563 22.7641 187.416 22.9929 186.951 23.3245C186.822 23.4157 186.657 23.3612 186.548 23.272C186.7 23.3966 182.068 27.9111 181.709 28.3646C180.682 29.6603 179.809 31.2435 179.784 32.9464C179.774 33.5926 179.967 34.3825 179.686 35.0014C179.476 35.4671 179.159 35.779 178.747 36.0854C177.681 36.878 176.671 37.7325 175.647 38.5769C174.845 39.2387 173.583 39.8999 173.429 41.0234C173.305 41.9345 173.323 42.8659 173.242 43.7818C173.094 45.42 172.469 46.2181 171.418 47.4151C170.693 48.2411 169.159 49.8909 169.934 51.0995C170.384 51.8036 170.645 52.3279 170.783 53.1579C170.993 54.4183 170.237 55.5064 169.177 56.0804C167.683 56.8893 165.041 55.3716 164.104 57.1011C162.954 59.2228 163.238 61.8198 162.883 64.1424C162.495 66.6876 161.648 69.1314 161.133 71.6508C160.792 73.3143 161.626 73.6479 162.64 74.4766C163.171 74.9117 163.435 75.2678 163.534 75.9446C163.606 76.4287 163.365 77 163.01 77.3248C162.13 78.1344 161.677 79.0816 161.819 80.2997C161.998 81.8256 162.763 83.4319 162.531 84.9871C162.277 86.6962 161.083 87.6114 159.672 88.4461C158.381 89.2101 157.615 90.0014 157.671 91.594C157.693 92.2266 157.566 92.8877 157.239 93.444C156.676 94.4021 155.56 95.1164 155.25 96.1997C155.15 96.5524 155.021 97.1707 154.667 97.3824C154.406 97.539 154.193 97.6725 153.889 97.537C153.801 97.4975 153.682 97.4233 153.542 97.332C153.543 97.4648 153.549 97.5969 153.561 97.7243C153.407 97.8039 153.308 97.9837 153.423 98.1736C154.107 99.304 153.481 100.844 154.617 101.711C155.995 102.763 156.346 103.692 155.523 105.31C155.216 105.912 155.113 106.416 155.246 107.079C155.431 108.012 156.286 108.318 156.232 109.407C156.187 110.294 156.307 111.093 156.563 111.938C157.182 113.974 160.241 116.359 157.615 118.043C156.711 118.624 157.678 120.335 157.857 121.032C158.099 121.977 158.528 122.725 159.044 123.544C160.049 125.138 158.188 125.239 158.5 126.374C158.791 127.432 161.269 127.339 162.084 127.318C162.606 127.304 165.129 127.602 165.116 126.507C165.111 126.09 164.945 125.744 164.774 125.37C163.965 123.6 165.768 121.762 167.445 121.715C168.487 121.686 169.558 121.73 170.606 121.739C171.272 121.744 172.094 122.02 172.745 121.724C173.098 121.562 173.431 121.338 173.57 120.951C173.985 119.786 174.075 118.617 174.581 117.447C175.443 115.447 176.242 113.902 176.387 111.698C176.463 110.551 176.414 109.418 176.397 108.272C176.381 107.16 176.8 105.918 177.02 104.83C177.131 104.276 177.042 103.65 177.042 103.086C177.044 101.744 177.87 102.504 178.448 102.124C178.956 101.791 179.059 101.518 179.176 100.914C179.445 99.5457 180.627 99.5416 181.683 99.3326C182.295 99.2114 182.838 98.6673 183.279 98.271C183.838 97.7665 185.033 96.9555 185.35 96.2834C185.492 95.9832 185.519 95.8933 185.375 95.5937C185.236 95.305 183.656 94.3626 184.74 94.3224C185.59 94.2891 186.691 93.8328 186.376 92.757C186.082 91.7554 186.618 91.0132 186.586 90.0592C186.568 89.4764 186.034 88.8111 185.773 88.329C185.348 87.5514 184.675 87.0244 184.271 86.2168C184.015 85.7068 183.149 85.5591 182.672 85.4712C181.019 85.1676 180.576 84.3348 180.438 82.7462C180.35 81.7385 180.42 80.709 180.509 79.7046C180.757 76.953 181.348 73.639 182.596 71.1632C183.626 69.1192 185.464 67.3508 187.024 65.7057C188.699 63.9401 190.505 62.306 192.264 60.6241C193.255 59.6776 194.523 58.5003 194.707 57.052C194.799 56.3194 194.885 55.5105 194.568 54.8118Z" fill="#5D59EA"/>
<path d="M159.062 268.103C155.96 269.023 153.09 268.081 149.997 267.798C148.141 267.627 146.77 267.928 145.075 266.903C144.27 266.417 143.549 266.763 142.87 267.286C141.387 268.425 142.456 270.137 143.467 271.132C144.431 272.08 145.65 272.62 146.836 273.223C148.524 274.08 149.964 275.478 151.423 276.653C152.793 277.757 154.228 280.273 156.238 279.778C157.704 279.417 157.853 279.597 158.825 278.423C159.434 277.689 159.609 277.079 159.4 276.147C159.392 276.115 159.377 276.093 159.364 276.069C159.405 275.983 159.417 275.881 159.366 275.774C158.574 274.093 158.649 272.627 160.097 271.314C160.895 270.59 161.63 270.002 161.84 268.901C162.157 267.247 159.829 267.877 159.062 268.103Z" fill="#5D59EA"/>
<path d="M127.641 239.506C126.928 238.793 125.365 238.778 124.446 238.861C123.361 238.958 122.597 239.839 121.953 240.618C121.303 241.404 120.312 242.384 119.385 241.224C119.073 240.835 118.894 240.629 118.443 240.464C117.775 240.221 117.24 241.548 116.995 241.886C116.909 242.005 116.948 242.192 117.048 242.289C118.407 243.623 118.346 246.243 118.281 248.008C118.248 248.888 118.221 249.755 118.244 250.636C118.271 251.696 117.502 252.501 117.255 253.489C116.835 255.161 118.39 257.631 120.202 257.316C120.358 257.288 120.428 257.132 120.445 256.995C120.823 254.049 122.552 255.555 124.048 256.208C124.324 256.328 124.571 256.073 124.55 255.854C124.585 255.818 124.613 255.774 124.632 255.717C124.665 255.619 124.698 255.521 124.73 255.423C124.751 255.359 124.748 255.303 124.736 255.251C125.079 253.94 125.876 252.91 126.637 251.778C127.41 250.63 127.693 249.446 127.758 248.079C127.847 246.216 127.431 244.362 127.497 242.494C127.526 241.668 128.37 240.235 127.641 239.506Z" fill="#5D59EA"/>
<path d="M127.368 224.969C126.906 225.303 126.821 225.693 126.721 226.25C126.563 227.127 125.233 226.996 124.537 227.411C123.201 228.204 120.992 228.047 121.453 230.229C121.715 231.461 122.133 232.598 122.315 233.856C122.415 234.559 122.67 235.219 122.94 235.87C123.133 236.335 123.483 237.262 124.053 237.476C124.181 237.631 124.447 237.626 124.58 237.449C124.697 237.378 124.74 237.257 124.725 237.137C125.574 235.153 127.74 234.076 128.031 231.77C128.094 231.278 127.978 230.71 127.947 230.217C127.898 229.402 128.125 228.565 128.243 227.763C128.387 226.781 128.29 225.951 127.823 225.089C127.742 224.941 127.511 224.866 127.368 224.969Z" fill="#5D59EA"/>
<path d="M77.1922 126.118C76.6685 125.79 76.2212 125.337 75.6976 125.002C75.4266 124.829 75.0902 124.737 74.7892 124.641C73.9136 124.359 73.8516 123.802 73.5234 123.133C73.3927 122.866 72.9909 122.951 72.9167 123.211C72.6314 124.213 72.37 125.012 71.7776 125.867C71.2226 126.67 70.6718 127.496 70.1175 128.309C70.0038 128.474 70.1114 128.762 70.3156 128.796C71.3234 128.965 73.1401 128.678 72.8398 130.322C72.4939 132.209 70.8604 132.914 69.1527 133.106C68.2191 133.212 66.3861 132.911 65.8087 133.931C65.2211 134.968 66.143 136.173 66.8369 136.939C67.3462 137.499 68.2348 137.716 68.8987 138.019C69.7233 138.395 69.8635 139.548 70.4185 140.221C71.4555 141.478 74.043 141.138 75.4123 141.105C76.4731 141.081 75.1106 142.044 75.1494 142.011C74.2935 142.721 73.5643 143.266 72.3768 142.832C71.6087 142.553 70.4988 141.647 69.63 141.732C67.9229 141.901 65.823 142.116 64.4271 143.229C63.4895 143.976 62.7024 144.866 61.8676 145.722C61.3092 146.296 60.3042 146.287 59.5729 146.417C58.7109 146.571 58.1546 147.056 57.2197 146.992C56.9684 146.975 56.8057 147.287 56.933 147.491C57.5356 148.457 58.4501 149.879 59.6703 150.085C60.0012 150.141 60.2729 149.81 60.4812 149.61C61.4291 148.702 62.2543 147.833 63.6168 148.991C64.4918 149.734 66.3384 150.795 67.5654 150.497C69.3004 150.073 69.0206 147.975 70.62 147.344C70.6445 147.351 70.6663 147.361 70.6956 147.363C71.8123 147.421 73.7359 147.135 73.9844 148.829C74.0314 149.147 74.141 149.558 74.4474 149.737C74.7252 149.9 75.0017 149.805 75.2754 149.718C76.1987 149.419 76.7891 149.357 77.694 149.718C78.8965 150.197 79.3214 150.079 80.3407 149.397C80.9944 148.96 84.1559 151.24 84.5889 151.446C85.5606 151.904 87.1308 151.842 88.18 151.971C89.2014 152.097 91.1965 152.768 92.1225 151.953C92.9743 151.202 93.6198 150.496 94.8816 150.642C95.1274 150.671 95.4576 150.543 95.634 150.367C95.9309 150.07 96.1508 149.569 96.0609 149.153C96.0807 149.128 96.1011 149.105 96.1133 149.072C96.4272 148.275 95.8151 148.058 95.1097 148.045C94.6589 148.037 94.454 148.054 93.9528 147.957C91.968 147.574 93.7131 145.912 94.3593 145.529C95.3167 144.96 96.4347 143.874 97.4813 143.59C98.886 143.21 99.2476 142.126 99.6541 140.833C100.056 139.555 101.386 137.5 100.069 136.271C99.0787 135.347 97.644 134.735 96.3067 134.577C95.6285 134.498 95.0321 134.907 94.4955 135.246C93.2692 136.023 94.1414 132.99 93.98 133.181C94.2299 132.727 94.6541 132.31 94.9435 131.872C95.9091 130.407 94.2939 128.862 94.2538 127.413C94.2109 125.787 95.6762 123.451 94.2156 122.006C93.5225 121.322 93.1582 120.742 92.721 119.842C92.1777 118.724 90.9125 118.464 91.2734 116.869C91.7208 114.891 91.4859 112.533 91.3156 110.506C91.206 109.204 90.0975 108.1 89.0904 107.388C88.3108 106.838 87.2615 106.586 86.4029 106.203C85.9364 105.995 85.4809 105.76 85.024 105.532C84.8776 105.459 83.8951 104.768 84.0333 104.755C84.7891 104.689 85.6171 104.99 86.4063 104.942C87.1451 104.898 87.8566 104.629 88.4762 104.24C88.6213 104.149 88.7935 103.869 88.722 103.691C88.3605 102.778 88.7016 102.807 89.5773 102.589C91.0705 102.216 92.4834 101.025 93.3529 99.7956C93.963 98.9322 94.1755 97.9564 94.9429 97.1706C95.2602 96.8459 96.0044 96.389 96.0078 95.8504C96.0139 94.5839 93.7553 93.7593 92.7537 93.4937C91.4838 93.158 90.1309 93.1934 88.8507 92.9007C88.3666 92.789 87.8736 92.7052 87.3861 92.6079C87.2717 92.584 85.5694 92.7822 86.3606 91.9297C86.8346 91.4203 87.4195 91.1773 87.826 90.6114C87.9172 90.4834 87.9267 90.2975 87.9472 90.1443C88.0609 89.2884 89.8122 89.1393 90.4284 88.9902C91.1577 88.8131 92.2226 88.4965 92.7701 87.9497C93.3482 87.3716 93.2161 86.6152 93.3795 85.8866C93.4163 85.7245 93.3325 85.5087 93.148 85.478C92.0606 85.2983 91.0589 85.7497 89.9354 85.5495C88.4463 85.2847 87.1335 84.2184 85.9358 83.3754C85.0363 82.7421 84.3547 84.0059 84.0905 84.6426C83.5886 85.8498 83.1393 86.1841 82.0825 87.0285C81.5241 87.4738 80.8739 87.7863 80.1555 87.7543C80.0064 87.7468 79.8402 87.8694 79.7435 87.9661C79.3711 88.3392 79.5706 89.0324 79.702 89.4511C80.0677 90.6094 78.5547 91.4612 78.3 92.5718C77.9276 94.1951 77.4659 94.6806 75.9441 95.149C75.3857 95.322 75.1406 95.5787 75.0623 96.1595C74.9867 96.7253 75.4545 98.2172 76.2484 98.0626C76.4479 98.0225 76.6291 97.9741 76.8122 97.8842C77.0015 97.7944 77.1894 97.6984 77.3733 97.5976C77.9221 97.1945 78.1999 97.556 78.2074 98.6823C77.5905 99.8058 76.3192 100.551 75.509 101.526C74.939 102.211 74.7068 103.116 74.4515 103.948C74.1383 104.972 72.9399 105.237 72.7179 106.317C72.673 106.539 72.8725 106.823 73.1271 106.725C74.2922 106.274 75.1501 105.158 75.7302 104.094C76.2702 103.105 77.1779 103.21 77.7948 104.034C78.4001 104.842 77.3658 105.479 77.2112 106.121C77.0778 106.673 77.0546 106.819 76.9824 107.381C76.8054 108.74 76.1157 108.604 75.4102 109.202C74.7879 109.729 73.7141 111.803 74.4399 112.573C74.843 113 75.5389 113.026 76.0782 113.159C77.1874 113.43 77.4884 114.285 78.3511 114.774C78.7222 114.983 79.2662 114.833 79.6462 114.75C79.9669 115.246 80.2862 115.74 80.6069 116.237C80.4912 116.323 80.3918 116.424 80.308 116.539C80.1385 116.765 79.9219 117.035 79.9328 117.343C79.9478 117.785 79.9955 118.21 80.3945 118.48C81.0141 118.9 81.1755 118.899 81.5057 119.931C81.5214 119.98 82.0552 122.161 81.232 122.04C80.8425 121.982 80.402 122.312 80.2147 122.633C79.6475 123.6 80.5579 124.376 79.6278 125.409C79.0974 126.002 77.98 126.615 77.1922 126.118Z" fill="#5D59EA"/>
<path d="M211.208 272.937C210.774 273.024 210.377 273.163 209.933 273.217C209.73 273.242 209.745 272.188 209.74 272.112C209.704 271.672 209.401 271.263 209.041 271.028C207.382 269.952 205.725 268.67 203.835 268.036C201.86 267.374 200.458 268.359 198.662 268.95C197.707 269.265 196.356 269.908 196.945 271.201C197.601 272.643 200.603 273.41 200.159 275.149C199.648 277.14 200.635 277.509 201.731 278.941C201.975 279.262 202.663 278.975 202.486 278.652C202.573 278.602 202.798 278.514 202.798 278.383V278.252C202.798 278.135 202.586 278.053 202.514 278C202.605 277.836 202.616 277.67 202.708 277.507C203.072 276.867 203.854 279.182 203.891 279.362C204.078 280.281 204.041 281.284 204.615 282.066C204.722 282.213 204.89 282.283 205.059 282.187C205.882 281.711 206.034 280.601 206.292 279.768C206.8 278.138 207.795 280.147 208.123 280.742C208.373 281.194 208.691 281.547 209.143 281.795C209.314 281.89 209.489 281.826 209.596 281.675C210.702 280.138 210.001 278.495 209.075 277.044C208.663 276.399 208.215 275.783 207.833 275.117C207.602 274.715 207.427 274.292 207.295 273.849C207.777 273.781 208.087 273.948 208.224 274.352C208.352 274.584 208.488 274.812 208.632 275.035C208.715 275.17 208.856 275.217 209.007 275.188C209.738 275.045 211.89 276.073 212.16 274.583C212.282 273.904 212.225 272.731 211.208 272.937Z" fill="#5D59EA"/>
<path d="M193.125 266.187C192.315 266.011 191.567 266.381 191.9 267.291C192.102 267.845 192.503 268.394 192.959 268.834C192.956 269.218 193.165 269.552 193.597 269.526C194.041 269.5 194.427 269.129 194.652 268.776C195.313 267.742 194.099 266.398 193.125 266.187Z" fill="#5D59EA"/>
<path d="M218.658 267.862C218.006 267.278 217.109 267.427 216.377 267.028C216.255 266.962 216.069 266.963 215.975 267.08C215.356 267.846 216.676 268.715 217.324 268.894C217.666 268.988 218.12 269.114 218.468 268.984C218.835 268.846 218.823 268.54 218.696 268.264C218.782 268.148 218.799 267.989 218.658 267.862ZM217.962 268.355C217.761 268.327 217.562 268.273 217.367 268.216C217.322 268.203 217.299 268.199 217.288 268.199C217.285 268.193 217.278 268.185 217.256 268.167C217.168 268.096 217.075 268.03 216.982 267.962C216.96 267.947 216.906 267.904 216.843 267.855C217.246 267.934 217.658 267.996 217.988 268.19C217.98 268.245 217.987 268.302 218.007 268.359C217.992 268.358 217.977 268.356 217.962 268.355Z" fill="#5D59EA"/>
<path d="M220.804 269.502C220.754 269.466 220.695 269.458 220.637 269.46C220.626 269.449 220.623 269.435 220.611 269.423C220.36 269.181 220.074 269.006 219.762 268.851C219.595 268.766 219.412 268.811 219.308 268.97C219.032 269.396 219.005 269.891 219.325 270.298C219.571 270.61 219.986 270.795 220.369 270.867C220.724 270.934 221.158 270.939 221.39 270.614C221.697 270.183 221.097 269.715 220.804 269.502ZM220.6 270.235C220.588 270.234 220.588 270.234 220.582 270.234C220.58 270.233 220.581 270.232 220.57 270.231C220.529 270.224 220.489 270.217 220.449 270.207C220.382 270.192 220.317 270.17 220.251 270.148C220.242 270.145 220.208 270.13 220.191 270.124C220.165 270.112 220.14 270.1 220.116 270.087C220.061 270.059 220.01 270.025 219.959 269.991C219.946 269.98 219.918 269.959 219.911 269.952C219.88 269.925 219.853 269.896 219.826 269.865C219.823 269.863 219.824 269.863 219.822 269.861C219.821 269.857 219.818 269.852 219.807 269.836C219.794 269.82 219.787 269.8 219.777 269.782C219.774 269.774 219.76 269.735 219.756 269.723C219.752 269.705 219.749 269.703 219.747 269.698C219.749 269.694 219.749 269.687 219.749 269.667C219.748 269.656 219.751 269.618 219.752 269.603C219.752 269.602 219.752 269.601 219.752 269.601C219.89 269.684 220.022 269.777 220.142 269.893C220.215 269.963 220.298 269.989 220.378 269.985C220.404 270.019 220.434 270.049 220.47 270.075C220.54 270.126 220.599 270.173 220.669 270.236C220.645 270.236 220.623 270.237 220.6 270.235Z" fill="#5D59EA"/>
<path d="M228.058 256.693C227.406 256.416 226.809 256.644 226.406 257.115C226.264 257.106 226.112 257.167 226.046 257.331C225.831 257.862 225.935 258.81 226.46 259.138C227.061 259.515 227.343 259.044 227.617 258.592C227.635 258.968 227.328 259.343 227.341 259.776C227.352 260.141 227.498 260.489 227.897 260.521C228.253 260.55 228.551 260.109 228.728 259.867C228.979 259.522 229.207 259.102 229.241 258.669C229.307 257.844 228.827 257.02 228.058 256.693Z" fill="#5D59EA"/>
<path d="M186.745 107.291C185.507 107.147 184.241 107.981 183.542 108.946C183.105 109.548 183.201 110.274 183.329 110.959C183.471 111.719 183.064 112.264 183.064 112.949C183.064 113.009 183.079 113.064 183.109 113.117C183.444 113.565 183.45 113.978 183.455 114.511C183.459 114.891 183.977 114.933 184.094 114.64C184.161 114.82 184.346 114.944 184.541 114.798C185.169 114.325 185.655 114.088 185.929 113.286C186.325 112.136 186.649 111.166 187.263 110.105C187.77 109.226 188.274 107.467 186.745 107.291Z" fill="#5D59EA"/>
<path d="M70.9842 111.749C71.1504 111.455 71.2736 111.278 71.2736 110.935C71.2736 110.654 71.0087 110.265 70.8869 110.047C70.6165 109.563 70.9958 108.874 70.9931 108.335C70.989 107.647 70.0071 107.265 69.5237 107.045C69.1458 106.872 68.8659 106.605 68.4295 106.554C67.9242 106.496 67.1167 106.742 66.5202 106.737C66.7599 106.394 67.1064 106.16 67.5633 106.042C67.7656 105.963 67.8704 105.758 67.7622 105.554C67.7499 105.534 67.739 105.513 67.7281 105.492C67.3025 105.802 66.9212 106.23 66.4405 106.708C65.8243 107.326 65.0392 107.771 64.2834 108.199C62.9971 108.928 61.7722 109.448 60.3389 109.253C60.5132 110.401 61.094 112.957 62.3094 112.336C62.976 111.996 63.6086 111.579 64.3828 111.639C64.5762 111.654 64.6967 111.78 64.7144 111.971C64.8424 113.374 66.0272 113.647 66.7313 114.684C67.118 115.256 67.4176 115.904 67.7662 116.513C68.2667 116.551 68.7597 116.539 68.9667 116.186C69.4924 115.289 69.6646 115.591 70.4892 115.356C71.1402 115.173 71.13 114.239 71.07 113.736C70.9693 112.904 70.255 113.039 70.9842 111.749Z" fill="#5D59EA"/>
<path d="M64.8331 113.967C64.494 113.812 64.2734 113.232 64.1972 112.899C63.9629 111.882 63.3624 112.597 62.6447 112.91C61.8208 113.269 61.097 113.36 60.5454 112.547C60.2206 112.069 60.3589 111.406 60.156 110.888C59.8884 110.205 59.6902 109.576 59.6235 108.847C59.603 108.624 59.8502 108.48 60.0436 108.528C62.3294 109.075 65.0932 107.301 66.4877 105.581C66.7485 105.258 67.0263 105.011 67.3205 104.817C66.9228 104.24 66.4026 103.736 65.7061 103.725C65.0762 103.715 64.4845 104.307 64.0263 104.894C63.9016 104.187 63.5646 103.608 62.6535 103.682C62.1095 103.726 61.6437 104.372 61.2829 104.706C60.4569 105.471 58.5279 105.971 57.5235 106.379C57.3172 106.462 57.2226 106.657 57.3247 106.865C57.7625 107.752 59.2476 108.605 57.3526 108.796C56.7589 108.855 56.3354 109.048 56.0569 109.456C54.8918 108.305 53.5593 107.435 51.9755 106.94C51.3313 106.74 49.7509 106.583 49.7509 107.663C49.7509 108.5 49.9075 109.176 49.674 110.03C49.4425 110.875 48.7051 110.994 47.9479 111.426C47.4903 111.688 45.8452 112.843 46.3416 113.478C46.7141 113.953 47.3473 114.324 47.8063 114.747C48.605 115.482 51.2517 116.472 48.8678 117.983C48.0786 118.483 47.3541 118.839 46.6862 119.515C45.9658 120.243 45.4639 121.166 44.7517 121.91C44.0095 122.682 43.3068 121.487 42.6688 121.408C42.1159 121.339 41.7196 121.634 41.3063 121.967C40.1903 122.868 41.3928 123.471 42.0369 124.07C41.3117 124.373 40.3741 124.574 39.9785 125.249C39.5128 126.045 40.5913 126.392 41.1558 126.466C42.5986 126.656 41.7305 127.971 42.2384 128.649C42.6034 129.136 43.1788 129.357 43.6854 129.68C44.1334 129.965 44.6543 130.187 45.1997 130.083C46.6208 129.809 47.9826 129.955 49.4084 129.812C51.2537 129.626 53.052 129.378 54.7522 128.667C55.6231 128.303 57.4316 129.099 58.327 129.309C58.9916 129.466 59.6194 129.232 60.1811 128.903C60.7803 128.552 61.291 127.92 61.7037 127.376C62.2845 126.611 63.2337 126.077 63.8771 125.319C64.3626 124.746 64.7038 124.169 64.9394 123.463C65.032 123.185 65.0755 122.637 65.1096 122.349C65.2076 121.53 65.5501 120.856 65.7456 120.069C65.7721 119.959 65.7462 119.869 65.6938 119.799C65.9553 118.789 66.229 117.8 66.387 116.76C66.4251 116.509 66.6716 116.453 66.9991 116.457C66.468 115.469 65.9655 114.484 64.8331 113.967Z" fill="#5D59EA"/>
<path d="M184.813 177.902C184.152 178.372 183.953 178.961 183.591 179.643C183.229 180.324 182.767 181.263 181.87 181.216C181.617 181.201 181.281 180.975 181.156 180.761C180.724 180.024 180.314 179.706 179.403 179.818C178.399 179.94 178.4 180.782 177.617 180.998C177.342 181.073 177.032 181.062 176.75 181.041C175.824 180.97 175.338 181.976 175.124 182.822C175.172 183.004 175.171 183.165 175.07 183.356C175.042 183.41 175.015 183.461 174.987 183.512C174.972 183.565 174.948 183.611 174.916 183.647C174.458 184.519 174.19 185.191 174.797 186.248C174.975 186.559 175.119 186.95 175.218 187.379C177.129 188.35 178.249 190.496 180.768 189.73C181.524 189.5 182.25 189.427 183.028 189.6C183.966 189.807 186.502 189.786 187.078 188.633C187.379 188.031 188.156 186.207 189.083 186.393C189.383 186.453 189.713 186.514 189.814 186.862C189.945 187.304 190.529 187.065 190.87 186.948C191.627 186.689 192.027 186.331 192.306 185.569C192.799 184.218 194.672 183.956 195.906 183.675C197.782 183.25 197.93 183.842 199.254 184.916C200.052 185.562 201.538 183.842 202.662 183.483C202.714 183.089 202.773 182.695 202.788 182.323C202.805 181.869 202.832 181.476 202.908 181.117C202.556 181.019 202.204 180.859 201.847 180.619C201.507 180.39 201.45 179.935 201.237 179.622C200.66 178.775 200.335 178.955 199.828 178.354C199.033 177.41 198.514 176.404 196.978 176.673C196.015 176.843 195.436 176.545 194.506 176.372C193.047 176.101 191.925 177.703 190.922 178.484C190.777 178.598 190.595 178.621 190.453 178.484C189.942 177.991 188.791 177.74 188.627 176.93C188.536 176.476 188.499 176.073 188.528 175.607C188.614 174.197 186.54 174.911 185.974 175.36C185.947 175.38 185.92 175.39 185.892 175.403C185.937 175.897 185.899 176.413 185.799 176.777C185.656 177.296 185.225 177.609 184.813 177.902Z" fill="#5D59EA"/>
<path d="M150.281 197.202C151.288 197.408 152.307 197.393 153.309 197.597C154.378 197.813 154.686 198.176 155.025 198.697C156.272 199.087 157.845 199.378 159.011 199C160.298 198.584 161.452 198.141 162.8 197.934C163.388 197.843 163.95 197.837 164.54 197.884C165.19 197.934 165.876 198.347 166.532 198.262C167.794 198.097 168.744 197.136 169.866 196.624C169.855 196.231 169.909 195.846 170.209 195.547C170.63 195.125 171.525 195.111 171.427 194.201C171.38 193.758 171.344 193.374 171.392 192.931C171.428 192.613 172.509 191.196 172.282 191.033C171.899 190.755 171.762 190.404 171.758 189.94C171.758 189.785 171.862 189.67 172.002 189.62C172.628 189.405 173.822 190.014 174.275 190.432C174.352 190.504 174.634 188.883 174.64 188.648C174.645 188.447 174.647 188.245 174.638 188.044C174.615 188.028 174.59 188.016 174.568 187.991C174.411 187.812 174.369 187.729 174.34 187.496C174.325 187.378 174.406 187.269 174.51 187.208C174.447 186.993 174.357 186.783 174.224 186.584C173.493 185.492 173.45 184.839 174.124 183.682C175.294 181.681 170.871 182.579 169.931 182.283C168.463 181.823 167.355 181.157 166.024 180.42C165.353 180.047 164.522 179.819 164.152 180.633C164.067 180.858 163.954 181.071 163.813 181.267C163.588 181.632 163.195 181.93 162.861 182.184C161.814 182.977 160.917 183.662 159.571 183.384C158.738 183.211 158.051 182.416 157.387 181.681C157.337 182.423 156.976 183.236 156.533 183.743C155.813 184.566 154.684 184.702 153.745 185.18C152.389 185.868 152.822 187.372 152.53 188.608C152.413 189.098 152.29 190.077 151.713 190.29C150.669 190.677 149.892 189.552 148.924 189.365C147.149 189.019 145.488 189.962 143.899 190.648C142.017 191.459 140.912 191.098 139.858 189.471C138.402 187.221 138.46 191.14 136.913 190.917C136.391 190.842 136.121 189.75 135.983 189.369C135.91 189.141 135.82 188.921 135.712 188.706C135.18 188.561 134.648 188.417 134.114 188.272C133.97 188.602 133.842 188.938 133.729 189.28C133.654 189.485 133.578 189.683 133.49 189.876C133.609 190.752 134.237 191.722 134.852 192.28C135.652 193.005 136.605 192.953 137.468 193.459C137.698 193.593 137.862 193.769 137.977 193.969C138.077 194.015 138.153 194.107 138.153 194.25C138.153 194.275 139.761 194.433 139.993 194.466C141.204 194.644 142.48 195.152 143.644 194.5C144.777 193.866 146.454 192.346 147.842 192.368C148.849 192.383 149.021 193.188 148.52 193.951C147.655 195.272 148.876 196.915 150.281 197.202Z" fill="#5D59EA"/>
<path d="M135.513 195.599C136.128 195.142 136.771 195.454 137.382 195.761C137.608 195.094 137.752 194.185 136.804 193.898C136.367 193.766 135.929 193.643 135.496 193.497C134.977 193.321 134.495 192.921 134.153 192.5C133.65 191.879 133.146 191.184 132.922 190.409C132.84 190.39 132.763 190.349 132.716 190.267C132.243 189.404 131.768 188.382 130.803 187.97C129.532 187.427 128.191 187.226 126.819 187.12C125.072 186.986 123.187 186.887 121.499 186.395C120.956 186.65 120.194 186.416 119.542 186.461C118.309 186.542 119.437 187.4 119.044 187.86C118.493 188.505 117.814 188.386 117.146 188.866C116.484 189.342 116.155 190.126 115.494 190.609C114.35 191.445 113.379 191.978 112.904 193.443C112.818 193.653 112.712 193.853 112.586 194.042C112.181 194.559 112.239 195.116 112.759 195.714C112.948 195.455 112.98 195.419 113.236 195.203C113.631 194.869 114.07 194.81 114.569 194.831C115.492 194.871 116.36 194.718 116.59 195.806C116.659 196.126 116.608 196.465 116.627 196.789C116.665 197.434 116.953 197.761 117.201 198.313C117.246 198.417 117.302 198.539 117.336 198.665C118.083 198.739 118.827 198.698 119.591 198.752C120.485 198.815 121.333 199.297 122.245 199.252C124.191 199.158 123.844 198.236 124.512 197.093C124.625 196.901 124.897 196.764 125.098 196.708C125.814 196.512 126.337 197.232 126.648 197.745C127.133 198.547 126.755 199.087 127.587 199.877C127.873 200.149 128.163 200.415 128.447 200.688C128.508 200.614 128.576 200.54 128.658 200.465C129.917 199.324 129.294 197.419 129.981 196.053C130.095 195.827 130.436 195.846 130.554 196.053C130.932 196.71 131.134 197.624 132.053 197.105C132.28 196.977 132.834 196.957 133.082 197.05C133.613 197.249 134.023 197.523 134.388 197.973C134.922 198.633 135.367 199.244 135.14 197.868C135.025 197.15 134.81 196.119 135.513 195.599Z" fill="#5D59EA"/>
<path d="M152.291 171.542C152.581 173.105 152.554 174.538 154.049 175.461C155.718 176.489 156.733 178.566 157.218 180.485C157.639 180.807 158.025 181.155 158.371 181.589C159.41 182.892 160.839 182.886 162.128 181.911C162.968 181.273 163.261 180.776 163.756 179.895C163.882 179.669 164.027 179.357 164.297 179.265C165.267 178.933 166.403 179.874 167.156 180.357C167.93 180.852 168.756 181.22 169.633 181.495C170.634 181.809 171.354 181.513 172.329 181.564C172.911 181.594 173.977 181.706 174.618 182.142C174.878 181.352 175.33 180.623 176.114 180.371C176.304 180.31 176.558 180.369 176.75 180.377C177.328 180.399 177.531 180.166 177.954 179.839C178.297 179.572 178.664 179.242 179.116 179.188C179.66 179.121 181.455 178.947 181.59 179.859C181.807 181.331 182.956 179.438 183.163 179.02C183.348 178.644 183.512 178.187 183.813 177.886C184.411 177.287 185.149 176.925 185.149 175.99C185.149 175.036 185.403 174.638 184.101 174.459C183.413 174.364 182.941 174.018 182.428 173.569C181.981 173.177 181.15 172.472 180.54 172.388C180.164 172.337 179.76 172.382 179.385 172.322C179.065 172.27 178.916 172.159 178.743 171.893C178.632 171.722 178.549 171.358 178.52 171.177C178.349 170.111 177.561 169.699 176.588 169.586C175.964 169.513 175.167 169.476 174.596 169.159C174.488 169.9 174.127 170.687 173.349 170.473C172.791 170.319 172.377 169.74 172.073 169.284C171.648 168.647 171.032 168.399 170.749 167.667C170.361 166.669 171.356 165.691 169.956 165.064C169.068 164.668 167.984 164.563 167.157 164.036C166.111 163.37 165.563 162.608 165.343 161.564C165.197 161.952 164.996 162.322 164.726 162.67C163.783 163.878 162.701 164.778 161.529 163.346C161.603 163.438 156.005 166.27 155.344 166.46C154.254 166.773 153.05 167.232 151.903 167.123C151.314 167.068 151.224 167.094 151.425 167.614C151.62 168.117 151.476 168.762 151.686 169.308C151.734 169.434 151.698 169.533 151.628 169.604C152.138 170.066 152.164 170.859 152.291 171.542Z" fill="#5D59EA"/>
<path d="M163.53 140.852C163.446 140.813 163.364 140.774 163.271 140.723C162.997 140.569 162.699 140.48 162.396 140.413C162.657 140.658 163.113 140.774 163.53 140.852Z" fill="#5D59EA"/>
<path d="M136.096 123.156C136.777 123.531 137.482 123.508 137.856 124.497C138.169 125.326 137.708 125.913 137.47 126.631C137.448 126.698 137.436 126.777 137.421 126.85C139.238 127.779 141.226 128.493 143.215 128.572C143.199 128.527 143.179 128.482 143.164 128.437C142.796 127.346 143.85 126.101 143.739 124.964C143.573 123.245 144.768 123.07 145.771 122.415C146.308 122.064 146.513 121.372 146.693 120.8C147.338 118.739 149.271 120.165 150.09 118.585C150.591 117.614 150.128 116.348 149.173 115.913C149.008 115.838 148.802 115.852 148.63 115.839C147.671 115.766 147.849 114.822 147.973 114.111C148.065 113.589 147.951 113.218 147.706 112.77C147.572 112.524 147.525 112.323 147.537 112.147C147.497 112.14 147.461 112.134 147.419 112.127C145.223 111.718 143.438 110.764 141.259 111.97C140.922 112.155 140.426 112.507 139.908 112.8C140.538 112.984 139.896 114.373 139.7 114.753C139.731 114.692 139.105 113.753 138.933 113.638C138.123 113.096 137.728 113.52 137.655 114.398C137.629 114.723 137.692 115.039 137.739 115.36C137.906 116.483 137.675 117.355 137.111 118.344C136.74 118.995 136.472 119.408 136.512 120.156C136.553 120.918 136.815 121.131 136.33 121.863C136.211 122.044 136.006 122.287 135.936 122.503C135.861 122.727 135.847 123.019 136.096 123.156Z" fill="#5D59EA"/>
<path d="M140.925 111.396C141.571 111.088 142.205 110.857 142.909 110.702C144.406 110.373 145.631 111.123 147.068 111.389C147.343 111.44 147.618 111.474 147.891 111.497C148.158 111.236 148.523 110.987 148.807 110.627C149.257 110.056 149.353 109.352 149.352 108.652C149.35 107.794 148.999 107.019 148.074 107.219C147.511 107.341 146.992 107.879 146.508 108.17C145.294 108.905 144.108 109.477 142.665 109.567C141.612 109.634 139.914 109.515 139.272 110.611C139.097 110.911 138.958 111.859 139.186 112.397C139.915 112.106 140.834 111.438 140.925 111.396Z" fill="#5D59EA"/>
<path d="M128.439 141.03C128.165 142.005 127.754 142.886 126.959 143.548C125.935 144.402 126.545 145.204 126.146 146.281C125.757 147.333 125.188 148.138 124.951 149.274C124.8 150.003 124.622 150.528 123.882 150.777C123.717 150.833 123.47 150.746 123.331 150.672C122.314 150.121 121.566 150.801 121.389 151.736C121.209 152.685 121.362 153.725 121.081 154.648C120.724 155.823 120.137 156.861 119.423 157.857C119.35 157.958 119.262 158.048 119.16 158.128C119.262 159.49 119.695 161.306 119.002 162.538C119.016 162.59 119.02 162.646 119.001 162.712C118.961 162.945 118.923 163.174 118.882 163.406C118.877 163.523 118.822 163.606 118.746 163.659C118.59 164.435 118.543 165.272 118.622 166.01C118.729 166.996 119.599 167.172 119.782 168.005C119.907 168.574 119.556 169.349 118.998 169.624C119.69 170.117 119.858 171.511 120.574 171.827C121.345 172.168 121.833 172.496 122.478 173.024C123.526 173.883 124.953 174.171 126.266 174.31C127.05 174.394 127.541 175.523 127.11 176.19C126.814 176.649 126.445 176.698 126.026 177.022C125.079 177.751 124.471 178.807 123.85 179.81C123.118 180.994 122.298 182.407 122.23 183.838C122.202 184.467 122.269 185.239 122.015 185.834C122.013 185.838 122.011 185.842 122.009 185.846C124.489 186.477 127.165 186.189 129.635 186.862C131.264 187.307 132.134 188.048 132.932 189.324C132.959 189.308 132.985 189.288 133.015 189.278C133.525 188.058 134.362 186.026 135.704 187.551C136.383 188.322 136.44 189.229 136.98 190.058C137.28 190.52 137.9 188.48 138.107 188.304C139.143 187.428 139.82 188.189 140.431 189.137C140.98 189.986 141.421 190.709 142.671 190.359C143.337 190.174 143.952 189.892 144.588 189.627C145.537 189.231 146.678 188.617 147.729 188.592C148.875 188.565 149.613 188.921 150.582 189.444C152.17 190.298 151.997 186.991 152.047 186.446C152.108 185.782 152.336 185.151 152.976 184.826C153.524 184.548 154.015 184.199 154.581 183.956C154.869 183.83 155.373 183.877 155.622 183.694C156.648 182.944 156.775 181.904 156.558 180.842C156.463 180.762 156.369 180.687 156.273 180.622C156.019 180.452 156.121 180.11 156.329 180.019C156.112 179.388 155.823 178.775 155.574 178.237C154.963 176.911 154.109 176.393 152.961 175.578C152.248 175.074 152.022 173.996 151.896 173.199C151.792 172.537 151.751 170.723 151.156 170.108C151.101 170.096 151.047 170.073 150.998 170.023C150.954 169.98 150.91 169.937 150.867 169.893C150.663 169.689 150.789 169.442 150.997 169.367C150.678 168.515 149.947 166.278 151.51 166.426C152.895 166.556 154.374 166.129 155.68 165.659C157.105 165.145 159.244 164.37 160.19 163.112C161.63 161.195 162.416 164.354 163.735 162.834C166.136 160.065 164.436 156.848 163.379 153.888C162.874 152.477 163.288 151.217 162.944 149.826C162.692 148.81 162.384 147.809 162.78 146.793C163.204 145.705 164.727 146.108 164.715 144.509C164.711 143.924 164.855 142.986 164.658 142.457C164.19 141.198 163.541 141.608 162.797 141.437C162.156 141.29 161.6 141.091 161.459 140.401C161.426 140.242 161.44 140.12 161.471 140.016C161.137 139.507 160.976 138.478 160.654 137.92C160.397 137.707 160.132 137.509 159.862 137.318C159.789 137.288 159.719 137.262 159.653 137.243C158.546 136.904 158.036 136.439 157.64 135.424C157.124 134.103 155.455 134.293 154.399 134.703C154.202 134.779 154.015 134.899 153.861 135.04C153.186 135.651 152.534 136.119 151.664 136.461C150.755 136.818 150.28 137.037 149.348 136.674C148.888 136.494 148.164 136.472 147.654 136.326C148.053 135.697 148.597 134.845 148.21 134.186C147.982 133.798 147.557 133.711 147.153 133.628C146.806 133.558 146.41 133.55 146.066 133.499C144.945 133.326 144.719 132.204 144.455 131.322C144.244 130.618 143.845 129.953 143.513 129.271C141.395 129.265 139.291 128.545 137.348 127.57C137.348 128.472 137.573 129.545 137.67 130.228C137.804 131.186 138.113 132.124 137.949 133.094C137.826 133.819 137.356 134.508 137.012 135.149C136.779 135.58 136.687 136.147 136.535 136.612C136.029 138.168 135.19 137.624 134.358 138.466C134.125 138.703 132.921 140.49 132.83 138.503C132.812 138.078 132.962 137.634 132.855 137.21C132.709 136.629 132.459 136.145 131.805 136.087C130.835 136.002 128.796 136.27 128.338 137.347C128.197 137.337 128.05 137.4 127.994 137.572C127.939 137.742 127.882 137.91 127.824 138.078C128.114 139.026 128.755 139.906 128.439 141.03Z" fill="#5D59EA"/>
<path d="M158.817 207.331C158.934 207.335 159.319 205.617 159.791 205.308C160.375 204.924 160.898 204.995 161.4 205.496C161.866 205.961 162.675 206.896 163.166 205.851C163.414 205.322 163.626 204.782 163.93 204.281C164.138 203.94 164.439 203.761 164.789 203.606C165.91 203.108 165.515 202.474 165.922 201.78C166.298 201.139 167.717 200.951 168.345 200.848C169.67 200.628 170.383 201.908 171.85 201.498C172.807 201.229 171.04 198.748 170.21 197.589C170.082 197.57 169.971 197.472 169.931 197.336C168.964 197.861 168.046 198.727 166.961 198.868C166.221 198.965 165.671 198.789 164.949 198.638C163.915 198.423 162.895 198.529 161.87 198.752C160.641 199.019 159.432 199.829 158.151 199.813C157.309 199.802 156.432 199.697 155.584 199.511C155.684 199.637 155.796 199.768 155.929 199.906C156.736 200.748 155.704 201.426 155.155 201.99C154.629 202.527 155.625 203.794 155.721 204.463C155.793 204.969 155.77 205.493 155.527 205.957C155.442 206.12 155.288 206.278 155.202 206.434C155.202 206.438 155.133 206.441 155.133 206.443V206.445C155.814 206.526 155.528 206.629 155.765 206.71C156.724 207.038 157.796 207.303 158.817 207.331Z" fill="#5D59EA"/>
<path d="M216.173 122.676C215.309 122.1 214.868 120.117 213.917 120.299C212.273 120.61 210.605 120.544 208.947 120.747C208.363 120.819 207.748 120.916 207.161 120.809C206.241 120.641 205.476 120.119 204.573 119.922C202.311 119.425 200.067 120.478 198.112 121.53C196.963 122.149 195.773 123.09 194.421 122.986C194.511 123.333 194.629 123.675 194.708 123.984C194.91 124.78 194.844 125.67 194.962 126.489C194.964 126.502 194.968 126.514 194.969 126.526C195.719 126.959 196.316 127.552 196.705 128.527C197.924 131.595 200.019 128.381 201.742 129.788C202.357 130.29 203.275 131.16 203.647 131.843C204.198 132.859 203.953 133.951 204.161 135.061C204.167 135.096 204.161 135.125 204.159 135.156C205.081 135.215 205.933 135.483 206.452 136.3C206.934 137.061 206.847 138.211 207.063 139.061C207.148 139.395 207.242 139.726 207.343 140.051C207.92 139.759 208.959 139.814 209.415 139.774C210.152 139.708 210.906 139.384 211.612 139.174C212.449 138.926 213.303 138.916 214.154 138.75C214.665 138.649 215.245 138.524 215.664 138.186C216.225 137.733 216.952 136.63 217.773 136.721C217.939 136.738 218.126 136.555 218.105 136.388C217.966 135.249 217.805 134.293 217.972 133.138C218.145 131.939 219.113 131.02 219.883 130.168C220.313 129.692 220.825 129.105 221.004 128.481C221.245 127.652 220.711 126.122 221.328 125.49C221.401 125.416 221.428 125.322 221.42 125.232C221.204 125.108 220.983 124.973 220.761 124.809C219.354 123.774 217.579 123.611 216.173 122.676Z" fill="#5D59EA"/>
<path d="M192.837 134.596C194.41 134.754 195.955 135.091 197.525 135.258C198.906 135.405 200.212 135.311 201.593 135.256C202.175 135.232 202.843 135.155 203.505 135.142C203.253 133.709 203.364 132.427 202.173 131.349C201.981 131.102 201.807 130.841 201.652 130.567C201.024 130.171 200.405 130.096 199.796 130.341C199.388 130.452 198.981 130.522 198.564 130.595C196.913 130.883 196.58 129.543 195.914 128.401C195.741 128.105 195.543 127.858 195.329 127.639C195.503 128.034 195.702 128.418 195.855 128.783C196.372 130.016 196.012 130.795 195.317 131.826C194.621 132.856 192.29 131.177 191.316 131.574C190.716 131.82 190.57 132.158 190.562 132.81C190.558 133.137 190.52 133.405 190.449 133.631C190.983 134.237 191.67 134.479 192.837 134.596Z" fill="#5D59EA"/>
<path d="M165.36 142.726C165.476 143.578 165.453 144.607 165.206 145.433C164.954 146.281 164.006 146.249 163.546 146.843C162.694 147.944 163.806 149.864 163.674 151.166C163.496 152.958 164.388 154.225 164.92 155.852C165.361 157.205 165.768 158.775 165.639 160.236C165.769 160.269 165.884 160.368 165.889 160.542C165.957 162.928 167.504 163.451 169.43 164.145C170.128 164.396 170.899 164.692 171.297 165.37C171.832 166.282 170.852 167.279 171.839 168.115C172.154 168.382 172.408 168.619 172.645 168.95C173.32 169.887 174.089 169.398 173.95 168.355C173.896 167.96 174.481 167.941 174.601 168.267C175.092 169.603 178.189 168.342 178.834 169.797C179.055 170.294 179.029 171.682 179.755 171.673C180.457 171.666 181.129 171.8 181.718 172.209C182.655 172.859 183.394 173.722 184.59 173.849C184.904 173.884 185.356 173.98 185.553 174.263C185.639 174.387 185.706 174.542 185.76 174.712C186.62 174.14 187.637 173.978 188.66 174.249C189.42 174.449 189.148 175.477 189.176 175.997C189.253 177.481 189.924 177.051 190.627 177.729C190.819 177.914 192.063 176.614 192.246 176.459C193.157 175.689 193.988 175.501 195.107 175.866C196.218 176.227 197.153 175.811 198.241 175.836C198.529 175.841 198.935 176.047 199.123 176.262C199.634 176.855 199.982 177.733 200.652 178.156C201.107 178.445 201.582 178.772 201.813 179.288C202.138 180.017 202.579 180.408 203.094 180.554C203.253 180.192 203.496 179.851 203.89 179.494C204.44 178.997 204.69 178.53 204.797 177.81C204.998 176.457 204.255 175.497 204.876 174.054C205.299 173.072 206.655 172.529 207.461 171.876C208.68 170.888 210.388 169.142 210.957 167.636C211.578 165.988 210.903 164.405 209.99 163.013C209.476 162.228 208.907 161.499 208.471 160.663C207.814 159.4 208.808 158.62 208.65 157.433C208.504 156.322 207.717 154.789 206.734 154.185C206.047 153.763 204.792 153.897 205.662 152.049C205.963 151.407 206.743 150.939 207.297 150.541C207.985 150.044 208.468 149.504 208.88 148.763C208.964 148.713 209.026 148.627 209.023 148.496C208.982 146.74 208.559 145.21 208.014 143.563C208.003 143.548 207.99 143.538 207.982 143.52C207.428 142.306 206.887 141.066 206.559 139.769C206.207 138.384 206.367 135.871 204.361 135.871C201.634 135.873 198.977 136.175 196.265 135.745C194.763 135.507 193.198 135.448 191.713 135.154C191.03 135.018 190.507 134.807 190.001 134.323C189.999 134.321 189.996 134.317 189.996 134.317C189.731 134.542 189.369 134.714 188.882 134.885C188.173 135.132 187.467 135.34 186.769 135.624C185.256 136.24 184.535 134.923 184.246 133.759C184.133 133.303 184.524 132.938 184.4 132.489C184.193 131.739 182.899 131.741 182.322 131.768C180.863 131.833 179.358 132.644 178.05 133.239C176.161 134.096 174.234 134.857 172.388 135.806C170.686 136.681 167.177 136.686 166.029 138.539C165.566 138.996 165.209 139.528 164.989 140.143C164.801 140.667 164.593 140.947 164.287 141.008C164.999 141.248 165.271 142.064 165.36 142.726Z" fill="#5D59EA"/>
<path d="M205.272 103.187C205.454 103.786 205.962 104.459 206.367 104.935C207.128 105.833 209.331 103.614 209.432 105.038C209.499 105.961 208.996 106.927 208.969 107.9C209.283 107.58 209.578 107.243 209.87 106.977C210.436 106.46 211.101 106.016 211.793 105.695C212.828 105.213 213.941 105.665 214.535 106.582C216.377 109.426 219.177 109.404 222.195 108.671C222.418 108.617 222.63 108.602 222.835 108.602C222.965 107.674 223.572 106.643 223.963 106.151C224.104 105.973 224.068 105.76 223.893 105.645C223.763 105.813 223.479 105.869 223.344 105.628C223.274 105.502 223.201 105.384 223.125 105.269C222.553 104.935 222.191 104.52 221.928 104.023C221.563 103.776 221.152 103.581 220.678 103.437C220.245 103.307 219.74 102.973 219.511 102.564C219.151 101.918 219.002 101.254 219.002 100.513C219.002 99.5729 218.759 98.7014 218.742 97.778C218.738 97.6439 218.844 97.4791 218.985 97.458C220.301 97.251 221.776 97.4498 222.84 96.9725C223.136 96.0444 222.978 94.8304 222.888 94.0024C222.867 93.809 222.688 93.5959 222.468 93.6817C221.431 94.0814 220.661 94.575 219.471 94.6847C218.063 94.814 217.109 94.4314 215.879 93.7961C214.41 93.0382 212.785 93.5469 211.401 94.2155C210.522 94.6411 209.701 95.196 208.847 95.6699C207.749 96.278 206.51 96.6361 205.396 97.2306C203.93 98.0123 205.016 99.5668 205.133 100.74C205.22 101.594 205.014 102.343 205.272 103.187Z" fill="#5D59EA"/>
<path d="M194.334 122.317C195.983 122.498 198.168 120.694 199.674 120.027C200.812 119.522 202.302 118.963 203.579 119.095C205.133 119.255 206.512 120.319 208.082 120.176C209.824 120.018 211.675 120.051 213.386 119.726C213.861 119.635 214.536 119.336 214.952 119.75C215.349 120.149 215.448 120.79 215.727 121.265C216.296 122.242 217.306 122.445 218.272 122.797C219.608 123.284 220.619 124.073 221.844 124.733C222.391 124.242 222.877 123.745 223.563 123.425C224.166 123.143 224.977 122.897 225.372 122.31C225.619 121.944 225.604 121.947 225.756 121.508C225.99 120.835 226.372 120.363 226.793 119.8C227.275 119.153 227.362 118.658 227.076 117.902C226.731 116.989 225.749 116.084 225.19 115.319C224.746 114.711 224.282 113.926 224.213 113.173C224.16 112.597 224.299 112.019 224.25 111.436C224.194 110.797 223.688 110.393 223.244 110.004C223.031 109.82 222.911 109.586 222.852 109.328C222.228 109.341 221.539 109.62 220.82 109.723C220.045 109.835 219.315 109.858 218.53 109.789C217.378 109.684 215.859 109.273 215.018 108.4C214.523 107.886 214.274 107.141 213.761 106.665C212.529 105.52 210.897 106.876 210.073 107.69C209.734 108.026 209.388 108.422 209.009 108.767C209.124 110.073 209.381 111.33 209.151 112.666C208.971 113.708 207.808 114.462 206.969 114.94C205.154 115.973 204.271 113.315 204.139 112.071C204.124 111.925 204.049 111.787 203.895 111.751C202.879 111.505 202.327 110.934 201.847 110.048C201.708 109.789 201.542 109.515 201.235 109.431C200.934 109.349 200.639 109.581 200.417 109.733C199.578 110.306 199.146 110.995 198.011 111.172C196.842 111.354 196.667 112.845 196.42 113.732C195.985 115.29 194.885 116.414 194.499 117.983C194.378 118.474 194.393 118.99 194.419 119.488C194.463 120.325 194.379 121.101 194.296 121.934C194.283 122.061 194.289 122.19 194.3 122.321C194.312 122.32 194.321 122.316 194.334 122.317Z" fill="#5D59EA"/>
<path d="M173.168 201.469C173.596 202.613 175.556 203.356 176.479 204.094C177.43 204.855 178.254 205.688 179.062 206.593C180.353 208.041 180.795 206.612 181.875 206.316C182.423 206.165 182.985 206.21 183.433 206.543C183.761 206.785 184.129 206.629 184.479 206.338C184.487 206.262 184.493 206.186 184.496 206.116C184.51 205.837 184.796 205.743 184.989 205.829C185.248 205.534 185.474 205.243 185.635 205.099C186.351 204.457 187.679 204.459 188.555 204.261C189.82 203.975 190.826 203.24 192.033 202.841C193.258 202.438 194.785 202.56 195.769 201.608C197.162 200.264 197.6 198.384 198.618 196.795C199.103 196.038 200.061 195.381 200.42 194.598C200.888 193.575 200.961 192.517 201.644 191.599C202.905 189.905 205.095 189.073 206.532 187.535C206.717 187.339 206.863 187.146 206.986 186.954C206.03 186.725 205.054 186.596 204.102 186.356C202.728 186.014 202.532 185.129 202.594 184.141C202.05 184.321 201.644 184.669 201.249 185.076C200.991 185.343 200.466 186.04 200.005 186.008C199.49 185.973 199.172 185.737 198.786 185.386C197.888 184.57 197.472 183.993 196.083 184.316C194.905 184.59 193.362 184.823 192.85 186.051C192.702 186.405 192.591 186.71 192.27 186.955C191.744 187.358 190.18 188.267 189.54 187.731C189.052 187.32 188.955 186.788 188.357 187.744C188.064 188.213 187.8 188.964 187.386 189.326C186.594 190.017 185.095 190.541 184.046 190.431C182.745 190.296 181.757 190.18 180.456 190.544C179.889 190.702 179.363 190.737 178.797 190.517C177.443 189.992 176.531 188.894 175.346 188.192C175.452 189.325 175.264 190.542 174.645 191.245C174.522 191.385 174.302 191.362 174.176 191.245C173.933 191.02 171.658 189.763 172.809 190.599C172.966 190.713 172.982 190.867 173.038 191.052C173.17 191.49 172.552 192.129 172.347 192.442C171.794 193.29 172.515 194.588 171.781 195.282C171.142 195.884 170.622 196.046 170.571 196.881C170.648 196.945 170.702 197.037 170.703 197.137C171.444 198.123 173.133 200.218 173.04 201.311C173.094 201.348 173.141 201.396 173.168 201.469Z" fill="#5D59EA"/>
<path d="M193.521 251.469C193.712 251.509 194.687 252.19 194.762 251.766C194.794 251.531 194.847 251.303 194.924 251.08C195.081 250.533 195.579 249.927 195.87 249.438C196.192 248.897 196.693 248.248 196.794 247.619C196.809 247.522 196.819 247.434 196.825 247.353C196.773 247.3 196.736 247.228 196.736 247.131C196.736 246.994 196.732 246.861 196.725 246.731C196.506 246.398 196 246.533 195.661 246.195C194.039 244.572 193.488 242.546 193.843 240.413C193.711 240.37 193.603 240.251 193.61 240.1C193.665 238.978 194.015 237.675 193.568 236.586C193.256 235.823 192.782 234.683 192.321 233.986C191.651 232.976 190.475 233.32 189.649 232.75C189.385 233.599 189.359 234.448 188.718 235.201C188.137 235.882 187.596 236.143 186.841 236.592C186.515 236.785 186.251 237.105 186.032 237.491C186.062 237.502 186.095 237.507 186.129 237.504C186.342 237.427 186.539 237.455 186.721 237.59C186.621 237.77 186.703 237.94 186.836 238.026C186.993 238.472 187.232 238.862 187.539 239.293C188.64 240.842 187.859 242.29 187.468 243.919C187.145 245.266 187.274 246.923 187.261 248.304C187.251 249.327 187.033 250.524 187.273 251.518C187.423 252.137 188.079 252.431 188.598 252.669C189.368 253.021 190.646 253.283 189.972 254.749C189.829 255.063 189.792 255.081 189.777 255.42C189.769 255.619 189.816 255.766 189.895 255.885C190.015 255.822 190.134 255.759 190.258 255.7C190.713 255.484 191.313 255.387 191.66 254.988C192.565 253.948 191.075 250.944 193.521 251.469Z" fill="#5D59EA"/>
<path d="M106.367 151.438C106.338 152.413 106.598 153.564 108.063 153.255C108.362 153.192 108.81 153.059 109.119 153.116C110.216 153.316 110.482 153.588 111.556 152.916C112.048 152.606 112.326 152.664 112.858 152.879C113.806 153.265 114.689 152.706 115.628 153.077C116.405 153.383 116.851 154.194 117.652 154.539C118.206 154.778 118.399 155.04 118.48 155.634C118.523 155.952 118.483 156.196 118.361 156.49C118.037 157.274 118.932 157.459 119.337 156.803C120.113 155.544 120.486 154.45 120.574 152.98C120.644 151.825 120.782 150.487 121.834 149.805C122.154 149.599 122.741 149.605 123.07 149.78C124.39 150.476 124.468 148.233 124.74 147.448C125.152 146.267 125.829 145.922 125.508 144.48C125.405 144.009 125.809 143.645 126.128 143.379C127.509 142.229 128.272 140.652 127.541 138.945C127.475 139.158 127.414 139.373 127.362 139.587C127.012 138.604 126.597 137.546 125.437 137.537C124.42 137.53 122.962 138.362 122.031 138.019C121.318 137.756 120.624 138.039 119.994 138.367C118.741 139.022 118.513 140.253 119.093 141.388C119.78 142.731 119.23 143.382 118.255 144.124C118.204 144.162 116.527 145.497 116.747 144.429C116.937 143.503 117.282 142.623 117.426 141.685C117.567 140.764 117.21 139.805 116.21 139.703C115.17 139.596 114.308 141.386 113.947 142.092C113.617 142.737 113.434 143.452 113.189 144.131C112.6 145.763 111.31 145.881 110.308 147.09C109.383 148.207 111.06 148.777 111.629 149.694C110.006 149.928 108.426 150.474 106.948 151.174C106.749 151.268 106.557 151.355 106.367 151.438Z" fill="#5D59EA"/>
<path d="M236.318 219.416C235.795 219.512 235.366 219.457 234.887 219.268C233.433 218.7 232.904 216.731 230.981 217.328C228.864 217.983 226.717 218.895 224.962 220.262C224.222 220.839 223.16 222.083 222.117 222.107C220.185 222.151 218.382 221.776 216.429 222.061C214.874 222.288 213.35 223.009 211.765 223.014C210.493 223.018 209.128 222.846 207.97 222.288C207.017 221.831 206.64 221.171 206.192 220.354C206.152 220.372 206.107 220.384 206.054 220.381C202.337 220.173 206.282 224.953 206.774 226.04C207.168 226.911 208.039 228.321 207.44 229.29C207.092 229.851 206.634 230.271 206.093 230.649C204.703 231.619 205.139 232.712 205.065 234.058C205.047 234.373 204.953 234.669 204.796 234.912C204.8 234.92 204.808 234.927 204.81 234.935L204.986 235.179C205.045 235.243 205.066 235.312 205.07 235.381C205.578 235.819 206.72 236.228 207.051 236.493C207.607 236.937 207.948 237.635 207.9 238.353C207.853 239.068 207.996 240.509 207.735 241.523C209.159 240.988 210.896 240.174 212.304 240.29C213.625 240.398 214.581 240.31 215.798 239.717C216.266 239.489 216.77 239.212 217.295 239.163C218.819 239.018 219.577 239.956 220.874 240.547C221.665 240.906 228.049 240.983 226.998 238.74C226.431 237.528 227.254 236.681 228.347 236.269C228.8 235.617 229.519 235.047 229.928 234.751C230.359 234.44 230.65 234.142 231.123 233.845C232.172 233.185 233.023 233.844 233.806 234.304C234.369 234.637 234.99 234.837 235.643 234.784C236.44 234.719 236.764 233.789 236.736 233.117C236.692 232.104 235.259 231.429 234.545 230.987C232.532 229.738 235.705 227.909 235.831 226.463C235.956 225.036 235.681 223.891 236.951 222.855C237.218 222.638 237.506 222.422 237.75 222.173C237.766 222.179 237.781 222.183 237.797 222.187C237.982 222.246 238.142 222.121 238.206 221.956C238.516 221.149 238.637 220.319 238.646 219.478C237.874 219.349 237.214 219.252 236.318 219.416Z" fill="#5D59EA"/>
<path d="M243.094 209.738C242.862 208.506 243.321 206.652 241.976 205.935C240.906 205.363 239.135 206.52 238.181 206.895C234.395 208.38 234.588 202.326 234.389 200.158C234.221 198.337 234.26 196.459 233.076 194.962C231.632 193.134 230.367 191.131 229.02 189.225C228.142 187.985 227.821 185.563 226.436 184.734C224.954 183.846 223.897 184.832 222.524 185.482C219.881 186.732 217.213 187.656 214.284 187.92C211.955 188.13 209.897 187.66 207.7 187.126C207.335 187.708 206.855 188.192 206.294 188.648C205.406 189.367 204.501 190.038 203.589 190.723C202.729 191.369 201.886 192.06 201.592 193.148C201.47 193.599 201.382 194.09 201.187 194.516C200.71 195.559 199.765 196.147 199.193 197.131C198.671 198.024 198.281 198.979 197.799 199.892C197.026 201.363 196.026 202.702 194.303 203.018C193.74 203.121 193.216 203.26 192.709 203.426C193.767 204.143 195.024 206.044 195.427 206.557C195.73 206.944 196.079 207.271 196.345 207.685C196.762 208.336 196.632 209.196 197.095 209.855C197.802 210.866 199.084 210.441 199.255 211.985C199.367 212.992 200.072 213.598 200.208 214.571C200.315 215.336 201.551 215.088 202.146 215.159C202.986 215.261 202.962 214.987 203.632 214.693C203.899 214.575 204.176 214.427 204.483 214.507C205.321 214.725 206.246 215.072 206.348 216.005C206.419 216.657 205.743 217.168 205.458 217.657C205.071 218.325 205.605 218.871 206.015 219.385C206.159 219.296 206.361 219.302 206.469 219.491C206.839 220.135 207.151 221.16 207.872 221.508C208.804 221.956 209.826 222.268 210.865 222.326C212.565 222.42 214.081 221.831 215.718 221.493C217.161 221.195 218.751 221.118 220.212 221.274C221.323 221.393 222.184 221.608 223.136 220.856C223.742 220.376 224.353 219.903 224.96 219.424C226.24 218.41 227.848 217.795 229.36 217.212C230.267 216.862 231.486 216.26 232.491 216.667C233.499 217.074 234.678 218.895 235.741 218.806C236.587 218.735 237.315 218.495 238.161 218.606C238.319 218.627 238.474 218.669 238.629 218.715C238.607 218.367 238.57 218.018 238.523 217.67C238.308 216.115 238.27 214.904 238.504 213.334C238.666 212.241 238.122 211.158 238.952 210.301C239.221 210.023 239.23 210.028 239.444 209.699C239.644 209.39 239.682 210.591 239.683 210.572C239.661 210.88 239.707 211.11 239.915 211.334C240.589 212.057 242.04 209.996 242.685 210.147C242.945 210.207 243.14 209.987 243.094 209.738Z" fill="#5D59EA"/>
<path d="M227.949 237.208C227.935 237.218 227.921 237.224 227.907 237.234C227.153 237.771 227.855 238.894 227.87 239.579C227.876 239.924 227.521 240.208 227.294 240.407C226.274 241.306 224.299 241.475 223.014 241.475C221.251 241.475 220.647 241.075 219.146 240.245C216.972 239.041 215.424 241.299 213.23 241.066C211.93 240.929 210.995 241.2 209.786 241.591C209.481 241.691 207.555 242.074 207.555 242.443C207.555 242.812 207.065 242.861 206.929 242.594C206.183 242.842 205.422 242.019 204.657 242.576C203.58 243.36 202.504 244.263 201.293 244.833C200.304 245.3 199.224 245.688 198.11 245.64C197.747 245.624 197.403 245.467 197.402 245.72C197.4 246.043 197.4 246.365 197.4 246.688C197.466 246.867 197.483 246.988 197.51 247.299C197.598 248.277 196.626 249.524 196.148 250.293C195.73 250.968 195.643 252.04 194.987 252.5C194.45 252.877 192.502 251.452 192.676 253.056C192.76 253.816 192.752 254.514 192.359 255.184C191.977 255.834 191.139 256.043 190.466 256.33C190.867 256.573 191.282 256.874 191.212 257.779C191.143 258.663 191.335 259.207 191.986 259.823C192.626 260.428 193.496 260.802 194.177 261.369C195.059 262.102 195.147 262.915 194.751 263.843C194.668 264.04 194.64 264.3 194.697 264.505C194.905 265.262 195.96 265.892 196.403 266.524C196.71 266.964 197.119 267.491 197.731 267.254C199.126 266.718 200.396 266.338 201.902 266.176C202.615 266.1 202.591 266.868 203.442 266.588C203.876 266.445 204.258 266.21 204.7 266.071C204.875 266.016 205.77 266.463 205.987 266.512C206.949 266.73 207.838 267.331 208.652 267.987C207.481 268.287 207.094 269.69 209.036 269.975C209.439 270.035 209.902 269.759 210.243 269.619C211.252 269.206 213.144 270.712 213.528 271.503C213.833 272.134 214.644 272.699 215.358 272.195C215.982 271.754 215.862 271.267 215.568 270.617C215.167 269.734 214.778 268.871 214.483 267.943C214.398 267.681 214.428 266.791 214.121 266.54C213.97 266.418 213.816 266.327 213.656 266.247C214.095 266.37 214.569 266.472 215.081 266.592C215.266 266.635 215.401 266.53 215.459 266.395C215.484 266.453 215.506 266.512 215.533 266.569C215.711 266.958 216.283 266.622 216.106 266.235C215.821 265.612 216.047 264.467 215.538 263.957C214.72 263.141 213.21 263.472 212.284 262.699C211.578 262.11 210.404 259.894 209.115 260.753C209.13 260.951 208.953 261.161 208.73 261.123C208.519 261.447 208.526 261.876 208.792 262.186C209.471 262.981 210.373 263.255 210.919 264.239C211.364 265.043 211.898 265.511 212.528 265.83C211.983 265.683 211.46 265.582 211.046 265.073C210.858 264.838 210.633 264.561 210.389 264.384C208.802 263.242 206.285 263.927 205.517 261.97C206.281 261.94 207.306 262.073 207.781 261.451C207.948 261.234 208.057 260.97 208.061 260.695C207.716 260.399 207.41 260.042 207.153 259.7C206.827 259.268 206.37 258.581 206.739 258.041C207.148 257.442 207.868 257.41 208.445 257.816C209.191 258.34 209.358 259.202 209.727 259.984C209.734 259.998 209.732 260.01 209.737 260.025C209.745 260.014 209.753 260.004 209.759 259.994C210.49 258.884 208.959 256.725 208.278 255.948C207.529 255.09 206.174 254.759 205.948 253.52C205.701 252.155 205.575 251.064 206.082 249.73C206.249 249.288 206.371 248.881 206.447 248.416C206.806 248.409 207.167 248.403 207.525 248.398C207.641 248.64 207.732 248.892 207.8 249.152C207.95 249.657 207.999 250.3 208.413 250.68C208.96 251.181 209.868 251.469 210.138 252.199C210.313 252.668 210.525 252.977 210.964 253.179C211.624 253.486 211.855 252.653 211.663 252.201C210.725 249.993 213.386 250.857 213.795 249.369C213.944 248.827 213.568 248.276 213.282 247.877C213.114 247.641 212.896 247.452 212.683 247.259C212.566 246.407 212.798 246.019 213.378 246.096C213.714 246.107 214.049 246.132 214.384 246.168C214.876 246.213 215.551 246.29 216.009 246.021C216.815 245.549 217.163 245.148 218.193 245.279C219.354 245.427 220.894 244.8 221.978 245.32C222.764 245.697 223.725 245.656 224.567 245.871C225.61 246.137 226.457 245.804 226.947 244.857C227.219 244.331 227.068 243.282 227.155 242.719C227.339 241.528 228.087 240.545 228.292 239.365C228.349 239.039 228.323 238.304 228.12 237.979C227.962 237.73 227.919 237.468 227.949 237.208Z" fill="#5D59EA"/>
<path d="M185.589 237.005C185.935 236.42 186.372 236.147 187.144 235.711C188.679 234.843 188.62 233.404 189.228 231.991C189.336 231.744 189.678 231.807 189.803 231.991C190.335 232.782 191.43 232.357 192.157 232.782C192.635 233.063 192.954 233.709 193.152 234.19C193.519 235.08 194.258 235.996 194.355 236.986C194.437 237.81 194.375 238.589 194.319 239.39C194.422 239.39 194.526 239.435 194.592 239.514C196.403 238.677 196.841 236.855 197.789 235.176C198.189 234.468 198.692 234.253 199.4 234.703C199.936 235.042 200.324 235.847 200.764 234.961C200.919 234.645 201.101 234.275 201.405 234.071C202.27 233.494 202.865 233.93 203.51 234.563C204.224 234.634 204.526 234.353 204.417 233.721C204.366 233.338 204.285 232.961 204.176 232.59C204.13 232.416 204.113 232.204 204.162 232.029C204.374 231.288 204.703 230.868 205.312 230.391C206.289 229.626 207.283 228.982 206.729 227.618C206.276 226.499 205.727 225.531 205.051 224.537C204.406 223.588 203.393 222.266 203.919 221.018C204.245 220.244 204.756 219.84 205.492 219.741C205.032 219.099 204.426 218.742 204.643 217.761C204.73 217.367 206.22 216.034 205.379 215.599C204.566 215.178 203.968 215.082 203.346 215.813C202.922 216.31 201.174 215.772 200.626 215.682C199.863 215.555 199.742 215.44 199.567 214.748C199.225 213.391 198.25 211.579 197.17 210.856C196.229 210.224 196.262 209.228 195.871 208.265C195.608 207.622 192.509 203.601 191.947 203.832C191.834 203.878 191.744 203.855 191.675 203.802C191.099 204.033 190.525 204.291 189.921 204.567C188.579 205.181 186.703 204.821 185.65 206.019C185.475 206.218 185.303 206.429 185.12 206.629C185.05 207.376 184.94 208.146 185.017 208.881C185.141 210.066 185.939 209.677 186.549 209.982C187.228 210.323 187.578 211.063 187.514 211.836C187.493 212.111 187.371 212.463 187.181 212.782C187.21 212.816 187.235 212.856 187.252 212.906C188.044 215.156 185.41 218.683 188.692 219.6C188.993 219.683 188.992 220.042 188.771 220.206C187.344 221.271 189.051 222.633 188.127 223.807C187.869 224.135 187.598 224.3 187.156 224.281C186.02 224.23 186.765 225.352 187.068 226.002C187.167 226.215 187.053 226.515 186.781 226.501C186.033 226.466 184.819 226.319 185.08 227.475C185.182 227.923 185.15 227.946 184.965 228.382C184.849 228.655 183.884 229.255 183.759 229.349C183.057 229.874 182.672 230.419 182.366 231.157C182.41 231.368 182.423 231.598 182.399 231.862C182.337 232.55 182.303 233.205 182.303 233.86C182.405 233.951 182.508 234.043 182.613 234.131C183.651 235.003 184.742 235.926 185.589 237.005Z" fill="#5D59EA"/>
<path d="M209.152 260.32C208.882 259.749 208.756 258.95 208.266 258.518C208.074 258.346 207.093 257.93 207.28 258.581C207.49 259.317 208.288 260.157 208.955 260.518C209 260.543 209.033 260.572 209.058 260.604C209.138 260.561 209.215 260.513 209.289 260.459C209.235 260.433 209.186 260.393 209.152 260.32Z" fill="#5D59EA"/>
<path d="M197.767 244.963C199.429 245.032 200.913 244.413 202.261 243.481C202.993 242.974 203.936 241.958 204.794 241.715C205.289 241.574 205.255 241.577 205.751 241.701C207.049 242.026 207.088 241.423 207.13 240.52C207.174 239.595 207.542 237.729 206.73 237.08C206.067 236.551 204.678 236.211 204.269 235.375C204.105 235.446 203.919 235.48 203.713 235.467C203.33 235.443 203.074 235.033 202.833 234.797C201.802 233.786 201.336 235.37 201.056 235.853C200.778 236.334 200.307 236.306 199.883 236.061C199.656 235.93 199.493 235.693 199.309 235.518C198.435 234.685 198.195 235.926 198.04 236.329C197.807 236.931 197.536 237.537 197.152 238.059C196.44 239.028 195.635 239.826 194.541 240.255C194.312 241.241 194.184 242.349 194.576 243.29C194.928 244.131 195.537 244.714 195.989 245.467C196.171 245.771 196.442 245.831 196.699 245.913C196.715 245.317 196.897 244.926 197.767 244.963Z" fill="#5D59EA"/>
<path d="M88.2143 222.691C87.2141 222.201 86.2124 222.066 84.9562 221.942C83.452 221.795 81.203 221.838 80.0202 220.728C79.3952 220.14 78.8926 219.163 78.7762 218.312C78.6339 217.267 78.3431 216.41 77.2952 215.999C76.967 215.869 76.6041 215.757 76.3154 215.55C75.9818 215.312 75.6481 215.063 75.292 214.858C74.7044 214.524 73.8771 214.366 74.4681 215.306C74.7622 215.773 75.0775 216.185 74.9903 216.75C74.9617 216.935 74.7418 217.02 74.5818 216.983C72.8639 216.586 71.5116 216.759 70.0238 215.699C68.7954 214.825 67.5827 214.033 66.4919 212.991C65.7606 212.292 64.1032 211.738 63.6573 210.792C63.3808 210.206 63.2827 209.544 62.9123 209.006C62.755 208.777 61.733 207.831 61.5049 207.341C61.4477 207.357 61.3891 207.374 61.3313 207.388C61.2339 207.466 61.1018 207.488 60.9915 207.458C58.6056 207.833 55.2848 206.128 53.6928 205.197C52.7443 204.643 51.8639 204.016 50.8132 203.675C50.0676 203.434 49.3458 203.295 48.6486 202.903C48.1222 202.606 47.6797 201.992 47.2418 201.577C46.7277 201.091 46.1667 200.923 45.4837 200.835C44.8437 200.751 43.9993 201.021 43.4001 201.098C42.3822 201.229 41.4425 200.47 40.6717 199.933C39.6279 199.207 38.614 198.544 37.4626 197.995C36.4221 197.498 35.4464 196.747 34.3862 196.321C33.2654 195.868 32.0248 195.819 30.8584 195.519C29.5041 195.171 28.8879 193.671 27.7984 192.938C25.7877 191.586 24.3741 193.229 22.3463 193.877C21.2113 194.24 20.228 193.217 19.0963 193.351C18.6449 193.404 18.2561 193.616 17.8639 193.616C17.804 193.616 17.7461 193.706 17.6896 193.718C17.6052 193.706 17.5296 193.766 17.4724 193.821C17.3267 193.882 17.1946 193.988 17.0672 194.104C17.0128 194.154 16.9569 194.233 16.9004 194.303C16.7833 194.343 16.6778 194.391 16.5838 194.441C16.4748 194.444 16.3822 194.512 16.3298 194.61C15.7851 195.061 15.8375 195.776 16.276 196.565C16.6812 197.293 16.3707 198.121 16.7499 198.886C16.946 199.28 17.1612 199.653 17.3859 200.033C17.9783 201.033 16.8834 201.47 16.3788 202.056C16.0813 202.402 15.9056 202.846 15.7606 203.285C15.8716 203.294 15.9764 203.302 16.0745 203.31C17.1163 203.389 21.1398 202.382 20.623 204.537C20.5474 204.853 19.4395 205.986 20.9852 205.838C21.2712 205.811 21.5572 205.775 21.8425 205.854C22.3566 205.995 22.665 206.327 22.9387 206.759C23.9015 208.272 24.4776 205.738 25.563 205.961C26.3855 206.13 26.696 207.012 27.4784 207.178C28.098 207.312 29.0097 207.367 29.4557 207.902C29.9617 208.509 29.8902 209.118 29.4333 209.755C28.9335 210.451 28.5699 210.971 29.5497 211.43C29.8364 211.565 30.2708 211.743 30.3825 212.08C30.7182 213.095 29.6369 213.697 28.8674 214.046C26.9725 214.91 24.8752 215.53 24.9862 218.031C25.0291 218.997 24.8773 219.843 23.9587 220.358C23.0211 220.883 21.4067 221.235 21.6409 222.565C21.7526 223.194 21.7907 223.833 21.5578 224.451C21.3039 225.129 20.689 226.228 19.7555 225.869C19.3142 225.7 19.0221 225.455 18.6231 225.204C17.7924 224.68 18.3739 226.5 18.4222 226.639C18.6415 227.257 18.7021 227.93 18.5639 228.581C18.201 230.287 17.1878 231.764 16.0105 233.032C14.3592 234.809 11.6751 235.663 11.5226 238.371C11.4531 239.599 11.2516 240.826 11.2502 242.055C11.2502 242.713 10.7817 243.346 10.7817 244.005C10.7817 244.006 10.7817 244.007 10.7817 244.008C10.7817 244.019 10.9581 244.032 10.9581 244.043C11.3939 244.025 11.9161 244.018 12.3533 244.043C14.2489 244.156 15.3513 245.968 15.5842 247.729C15.5536 247.777 15.5515 247.836 15.559 247.914C15.7218 249.855 15.815 252.185 16.6403 253.966C17.3907 255.585 18.2261 256.386 19.8351 257.061C21.3713 257.705 22.2565 255.632 23.7252 255.474C25.1932 255.316 26.745 256.255 28.004 255.2C30.1155 253.431 32.8569 256.187 34.8962 256.872C35.5288 257.085 35.9598 257 36.5951 257.356C37.0425 257.61 37.4292 257.871 37.9065 258.076C38.8598 258.485 39.9649 258.396 40.9618 258.595C41.6856 258.739 42.1221 259.299 42.8738 259.341C43.4219 259.372 44.4875 259.364 44.988 259.14C45.6281 258.851 46.2211 258.517 46.7148 258.014C46.947 257.776 47.0743 257.411 47.2071 257.117C47.7035 255.995 48.6581 255.489 49.847 255.399C50.7295 255.333 51.5901 255.702 52.4808 255.529C53.3401 255.362 54.0053 254.999 54.7537 254.551C55.3413 254.198 55.6811 253.709 55.9718 253.1C56.1073 252.814 56.2019 252.495 56.3068 252.196C56.7208 251.014 57.4848 250.499 58.5947 250.067C59.7597 249.612 61.4409 249.283 62.3492 248.353C63.4012 247.274 62.9654 246.224 62.226 245.069C60.4883 242.352 62.3438 240.556 64.1911 238.641C65.0436 237.757 65.9649 236.871 66.9426 236.129C67.8312 235.456 68.9724 235.152 69.9298 234.583C70.2675 234.381 70.8552 233.945 70.9239 233.518C70.9805 233.162 70.9947 233.033 70.9995 232.671C71.0159 231.261 72.5786 231.355 73.4644 231.3C74.4551 231.238 75.4649 231.367 76.4475 231.18C77.8005 230.925 79.0622 230.424 80.358 229.974C82.1699 229.344 83.9532 228.751 85.7256 228.013C86.6189 227.642 88.4404 226.967 88.8333 225.947C89.0246 225.45 89.0471 225.144 88.8544 224.646C88.58 223.937 88.3246 223.333 88.2143 222.691Z" fill="#5D59EA"/>
<path d="M10.7932 241.44C10.7993 240.208 10.8273 238.985 10.9233 237.757C11.0295 236.397 11.8568 235.49 12.9326 234.74C14.8726 233.392 17.2987 231.351 17.8216 228.896C18.0892 227.645 17.6255 227.075 17.4879 225.958C17.4464 225.624 17.3245 224.816 17.6759 224.545C18.0034 224.291 18.2138 224.27 18.6135 224.428C18.8504 224.524 19.0288 224.698 19.2358 224.84C21.1104 226.131 21.1152 223.237 21.0001 222.741C20.6705 221.315 21.44 220.919 22.6247 220.337C23.691 219.813 24.3488 219.267 24.3216 218.03C24.3066 217.347 24.4183 216.773 24.6116 216.121C25.0073 214.787 26.4719 214.539 27.5246 213.967C27.9352 213.745 30.6193 212.628 29.2132 212.004C28.8408 211.838 28.4173 211.671 28.2 211.3C27.8024 210.621 28.5242 209.934 28.8592 209.42C29.775 208.011 27.4796 208.023 26.7136 207.574C26.0654 207.194 25.3252 206.396 24.7744 207.521C24.483 208.115 23.7019 208.63 23.0946 208.04C22.287 207.254 21.92 206.443 20.6181 206.526C20.3165 206.543 19.7302 206.338 19.5906 206.045C19.4462 205.739 19.3373 205.504 19.5123 205.166C19.5838 205.026 20.1946 204.114 19.9188 203.995C19.5518 203.838 19.1235 203.826 18.7313 203.839C17.6582 203.876 16.6068 203.985 15.5337 203.956C15.2035 204.894 14.7405 205.756 14.3857 206.684C14.2625 207.006 14.3074 207.326 14.3319 207.655C14.4014 208.596 14.7623 209.44 14.5001 210.422C14.1324 211.802 13.5073 213.164 12.8891 214.445C11.7315 216.842 10.0592 218.741 8.07025 220.465C7.4159 221.032 6.5457 222.77 5.60536 222.509C5.35682 222.44 4.70928 222.033 4.45394 222.331C4.15161 222.684 4.12233 223.276 4.0059 223.704C3.75941 224.615 3.03015 225.322 2.66994 226.182C2.49359 226.602 2.27979 227.132 2.53853 227.573C2.68289 227.82 2.91848 227.99 3.13501 228.164C3.83635 228.73 3.54424 229.33 3.38286 230.052C3.31681 230.351 3.6062 230.55 3.87107 230.427C4.67523 230.421 5.19613 230.778 5.43377 231.498C5.51956 232.152 5.44058 232.778 5.19885 233.372C4.93602 234.179 4.48594 234.964 4.10667 235.724C3.30728 237.321 2.38805 238.684 1.22233 240.037C0.613592 240.745 -0.136092 240.618 0.0211988 241.624C0.127421 242.306 1.12632 242.576 1.67513 242.602C2.10275 242.622 2.59573 242.361 2.98385 242.214C3.98343 241.833 4.56969 242.318 5.1471 243.053C5.74971 243.819 6.77584 244.089 7.71482 244.156C8.65584 244.224 9.58937 244.138 10.5229 244.077C10.5352 243.19 10.7898 242.337 10.7932 241.44Z" fill="#5D59EA"/>
<path d="M101.65 154.644C102.059 155.532 103.229 155.387 104.003 155.827C104.749 156.251 104.146 157.267 105.2 157.842C106.38 158.483 107.911 158.914 108.037 160.485C108.079 161.01 108.004 161.773 108.177 162.256C108.677 163.657 110.05 163.852 110.677 162.23C110.842 161.804 110.994 161.571 111.352 161.296C111.461 161.212 111.667 161.246 111.754 161.349C113.367 163.248 110.669 166.363 113.929 167.384C114.814 167.661 114.954 168.435 115.627 169.031C116.133 169.48 116.803 170.712 117.536 169.936C117.692 169.773 117.871 169.565 118.102 169.501C118.153 169.487 118.198 169.484 118.244 169.476C118.199 169.285 118.298 169.059 118.55 169.064C118.88 169.072 119.231 168.467 119.141 168.182C119.035 167.843 118.725 167.751 118.51 167.508C118.222 167.181 118.045 166.817 117.996 166.368C117.896 165.443 117.914 164.428 118.102 163.481C118.027 163.528 117.949 163.572 117.863 163.611C117.026 164.003 116.832 164.684 116.643 165.482C116.511 166.033 115.337 167.487 115.581 167.926C115.789 168.3 115.216 168.636 115.007 168.261C114.66 167.636 114.994 167.102 115.378 166.562C115.944 165.767 115.689 164.477 116.361 163.823C117.394 162.817 118.669 162.629 118.671 160.873C118.671 160.056 118.57 159.247 118.514 158.435C117.97 158.551 117.43 158.335 117.436 157.546C117.44 157.062 117.569 156.777 117.72 156.314C118.103 155.149 117.343 155.162 116.689 154.838C115.695 154.348 116.107 153.355 114.276 153.684C113.894 153.752 113.506 153.857 113.123 153.699C112.304 153.366 111.997 153.415 111.282 154.045C111.148 154.164 110.966 154.269 110.785 154.286C110.557 154.307 110.397 154.303 110.187 154.193C109.36 153.762 108.689 153.821 107.778 153.972C106.377 154.202 105.78 152.881 105.713 151.701C105.073 151.935 104.43 152.092 103.662 152.154C102.973 152.209 102.211 152.296 101.585 152.604C101.45 152.671 101.316 152.722 101.18 152.766C101.242 153.432 101.383 154.067 101.65 154.644Z" fill="#5D59EA"/>
<path d="M175.871 246.581C173.973 245.461 172.048 244.048 170.042 243.158C169.069 242.726 165.886 242.363 166.886 240.269C167.127 239.761 167.695 239.391 167.847 238.835C168.132 237.786 167.108 237.491 166.255 237.349C165.417 237.213 164.396 237.566 163.571 237.621C162.32 237.703 160.849 236.329 160.03 235.543C159.445 234.982 159.137 234.14 158.465 233.662C157.428 232.923 156.477 232.637 155.996 231.314C155.269 229.317 154.923 227.187 154.224 225.17C153.768 223.854 153.058 223.194 151.922 222.43C149.693 220.936 148.818 218.66 147.572 216.398C147.128 215.591 146.308 213.363 147.502 212.819C147.931 212.623 148.234 212.342 148.364 211.869C148.445 211.573 148.43 211.242 148.2 211.013C148.05 210.862 146.27 208.796 147.252 208.487C148.017 208.247 148.678 208.15 149.295 207.634C149.606 207.376 150.211 206.521 150.654 206.637C151.025 206.734 151.055 206.733 151.462 206.741C151.957 206.752 152.279 206.476 152.602 206.15C153.18 205.566 153.536 205.627 154.313 205.726C154.539 205.754 154.718 205.805 154.858 205.875C155.18 204.995 155.206 204.113 154.656 203.357C154.017 202.476 154.072 201.987 155.003 201.273C155.899 200.585 154.832 199.862 154.55 199.29C154.536 199.264 154.522 199.242 154.508 199.218C154.431 199.192 154.348 199.173 154.272 199.145C154.049 199.064 154.008 198.833 154.081 198.666C153.434 198.103 152.532 198.225 151.547 198.093C149.945 197.88 148.892 197.5 147.852 196.203C147.128 195.3 147.437 194.539 147.948 193.617C148.447 192.716 146.656 193.52 146.534 193.586C146.219 193.753 145.856 193.9 145.555 194.088C144.926 194.478 144.245 195.108 143.53 195.319C142.19 195.713 140.271 195.357 138.94 195.07C138.73 195.025 138.453 194.991 138.196 194.924C138.187 195.402 138.05 195.9 137.881 196.309C137.796 196.518 137.605 196.606 137.394 196.507C136.626 196.151 135.543 196.234 135.726 197.35C135.784 197.702 135.885 198.098 135.867 198.458C135.842 198.997 135.743 199.368 135.255 199.633C135.128 199.702 134.955 199.693 134.853 199.581C134.444 199.131 134.12 198.569 133.664 198.164C131.382 196.14 132.427 198.315 131.388 198.25C130.629 198.202 130.455 197.751 130.297 197.225C130.16 197.995 130.208 198.831 129.929 199.565C129.877 199.7 129.116 201.185 129.015 201.265C129.033 201.285 129.053 201.305 129.071 201.326C129.317 201.597 129.002 202.051 128.67 201.847C128.468 201.723 128.344 201.591 128.275 201.455C127.434 200.625 126.476 199.949 126.235 198.718C126.11 198.089 125.241 196.988 124.957 197.939C124.928 198.079 124.885 198.212 124.827 198.342C124.598 198.777 124.339 199.094 123.993 199.45C123.338 200.128 121.907 199.95 121.108 199.768C119.797 199.469 118.453 199.527 117.148 199.328C116.642 199.905 115.939 200.366 116.038 201.232C116.106 201.819 116.34 202.625 116.203 203.229C116.058 203.86 115.753 204.337 115.203 204.711C113.762 205.692 114.8 206.207 115.372 207.162C115.749 207.793 115.944 208.449 116.019 209.183C116.164 210.571 116.054 212.02 117.835 211.778C118.611 211.673 119.771 211.928 119.862 212.892C120 214.325 118.849 215.218 118.707 216.571C119.173 216.348 119.624 216.109 120.051 215.877C121.611 215.028 122.528 213.395 124.453 213.182C125.364 213.081 126.321 213.789 127.133 214.136C128.096 214.546 128.94 215.004 129.758 215.667C130.743 216.466 131.483 217.52 132.481 218.282C133.145 218.788 133.811 218.918 133.845 219.986C133.864 220.614 133.358 221.376 133.563 222.027C133.86 222.977 134.418 223.587 134.398 224.624C134.381 225.481 134.549 227.266 135.809 226.522C135.838 226.505 135.855 226.483 135.876 226.462C137.613 229.663 140.56 231.615 142.77 234.471C143.916 235.949 145.364 237.168 146.469 238.659C147.403 239.916 148.076 241.316 149.245 242.389C149.569 242.686 149.992 242.961 150.402 243.112C151.352 243.465 152.664 243.187 153.323 244.177C153.701 244.743 153.592 245.393 154.034 245.951C154.399 246.412 154.918 247.231 155.554 247.381C156.21 247.534 156.839 247.506 157.511 247.509C158.931 247.514 158.205 248.688 157.978 249.39C157.646 250.419 158.6 251.033 159.419 251.255C160.243 251.477 160.93 251.593 161.629 252.123C162.467 252.76 163.63 252.873 164.281 253.727C164.908 254.548 164.905 255.913 165.002 256.87C165.096 257.797 165.421 258.643 165.772 259.497C166.273 260.72 166.516 261.731 165.825 262.982C165.379 263.788 164.602 264.175 164.192 264.967C163.815 265.696 164.722 266.286 164.166 267.172C163.891 267.612 163.336 268.035 163.27 268.578C163.038 270.468 166.127 268.996 166.763 268.413C167.472 267.76 168.57 266.555 168.57 265.514C168.57 264.059 168.89 263.558 170.068 262.814C170.974 262.241 171.416 262.609 172.195 263.046C172.386 263.154 172.617 263.054 172.682 262.847C173.127 261.443 172.488 259.37 172.157 257.971C172.058 257.553 171.697 257.116 171.299 256.947C170.846 256.758 170.401 256.681 169.925 256.569C168.611 256.257 169.598 254.774 170.067 254.092C170.685 253.197 171.051 252.193 171.594 251.256C172.695 249.358 175.376 250.154 176.286 251.757C176.687 252.46 176.896 253.146 177.675 253.487C178.41 253.808 178.877 254.479 179.598 254.778C179.767 254.848 179.959 254.704 180.006 254.547C180.371 253.314 180.258 251.326 179.746 250.141C178.972 248.35 177.494 247.539 175.871 246.581Z" fill="#5D59EA"/>
<path d="M118.132 215.531C118.436 214.858 119.086 214.127 119.194 213.389C119.432 211.771 117.253 212.712 116.616 212.522C116.203 212.398 116.017 212.232 115.783 211.878C115.252 211.071 115.505 209.62 115.287 208.741C115.054 207.801 114.284 207.35 113.95 206.554C113.283 204.966 114.323 204.936 115.165 203.876C116.207 202.565 114.563 200.639 115.934 199.51C116.102 199.371 116.224 199.258 116.31 199.157C116.29 199.152 116.269 199.148 116.249 199.143C115.844 199.032 116.008 198.414 116.405 198.502C116.336 198.345 116.232 198.151 116.147 197.869C115.969 197.288 115.999 196.767 115.958 196.169C115.828 194.279 113.274 196.702 112.37 196.309C111.124 195.768 111.542 194.568 112.013 193.708C112.596 192.64 112.664 191.896 113.608 191.113C114.417 190.443 115.276 190.048 115.934 189.18C116.312 188.68 116.623 188.375 117.211 188.119C117.422 188.027 118.505 187.658 118.431 187.457C118.356 187.249 118.191 186.937 118.204 186.709C118.271 185.494 119.813 185.87 120.633 185.861C121.835 185.846 121.435 184.087 121.631 183.305C121.846 182.449 122.099 181.602 122.508 180.818C123.233 179.434 124.22 177.215 125.691 176.447C125.879 176.346 126.069 176.249 126.26 176.156C126.157 175.751 126.053 175.345 125.949 174.94C125.536 174.935 125.361 174.929 124.928 174.803C124.058 174.552 123.174 174.313 122.408 173.818C121.913 173.498 121.578 173 121.024 172.751C120.646 172.58 120.213 172.439 119.863 172.213C119.502 171.981 119.058 171.703 118.987 171.23C118.96 171.056 118.828 169.449 118.006 170.407C117.882 170.55 117.719 170.793 117.537 170.873C117.239 171.006 116.9 171.14 116.577 170.963C115.205 170.211 114.651 168.564 113.153 168.041C112.261 167.728 111.501 166.275 111.449 165.359C111.398 164.484 111.642 163.614 111.578 162.742C111.509 161.786 110.996 163.369 110.875 163.521C110.266 164.285 108.994 164.686 108.28 163.78C107.838 163.219 107.498 162.639 107.455 161.901C107.415 161.212 107.494 160.01 106.928 159.555C106.51 159.218 106.085 159.06 105.62 158.817C105.126 158.559 104.477 158.298 104.161 157.8C104 157.547 103.801 157.26 103.749 156.955C103.529 155.681 103.008 156.329 102.447 156.174C101.232 155.838 100.542 154.465 100.508 153.243C100.505 153.133 100.508 153.022 100.507 152.913C99.1068 153.078 97.6613 152.499 96.1966 153.059C95.308 153.4 94.5373 153.946 94.2295 154.883C94.0075 155.561 93.8999 156.244 93.7903 156.946C93.5533 158.458 91.9607 159.109 90.6792 159.562C89.651 159.924 88.8823 159.606 87.8684 159.584C87.3802 159.573 86.8675 159.601 86.4862 159.96C86.1341 160.291 85.9115 160.649 85.7011 161.086C84.9418 162.653 83.7339 162.934 82.1787 162.111C81.1362 161.556 80.2129 160.961 79.6158 159.914C79.4449 159.615 79.295 159.534 79.0281 159.504C79.0397 159.456 79.0411 159.405 79.0268 159.346C78.6577 157.869 78.8865 157.398 77.2455 157.316C76.664 157.287 74.6853 156.624 74.8712 157.96C75.0169 159.005 75.5208 159.854 75.5827 160.943C75.6576 162.269 74.7336 163.345 74.3142 164.528C74.1521 164.987 74.0554 165.984 73.5087 166.19C73.0947 166.345 72.522 166.135 72.1203 166.029C70.8688 165.694 69.3313 165.418 68.5632 164.28C67.8884 163.28 67.5357 162.068 66.2944 161.654C65.8961 161.522 65.508 161.669 65.1505 161.83C64.5887 162.083 64.4233 162.651 63.5415 162.177C63.0934 161.934 62.7053 161.695 62.23 161.509C60.6891 160.91 56.1264 160.647 57.2642 163.338C57.7197 164.415 58.0445 165.122 57.6863 166.332C57.5011 166.957 57.5665 167.586 57.7156 168.209C57.7803 168.478 58.1269 168.931 58.4197 168.978C59.7604 169.196 60.57 169.537 61.5028 170.587C61.9304 171.069 62.258 171.965 62.8156 172.32C63.4938 172.753 64.2912 172.647 65.0252 172.992C65.7531 173.333 65.4085 174.519 65.9716 175.003C67.0039 175.89 68.5918 176.01 67.6991 178.018C67.1823 179.181 66.9712 180.655 67.5984 181.815C67.8864 182.348 68.5455 182.718 68.9935 183.102C70.0612 184.015 70.4725 185.445 70.5508 186.792C70.7823 190.738 68.0852 194.718 66.656 198.264C65.5883 200.912 64.5601 203.605 63.1071 206.073C62.8374 206.531 62.4895 206.859 62.0877 207.088C62.7612 207.627 63.3719 208.3 63.7131 209.07C64.061 209.85 64.0828 210.577 64.9421 211.038C65.3868 211.277 65.8321 211.52 66.2188 211.85C67.5738 213.004 68.9438 214.046 70.3581 215.127C71.583 216.063 72.902 216.009 74.2944 216.251C73.9819 215.399 72.6017 213.848 74.2856 213.748C75.0169 213.705 75.9062 214.444 76.4529 214.835C77.2707 215.419 78.2798 215.553 79.0309 216.253C79.2862 216.491 79.3591 216.931 79.3618 217.251C79.3686 218.042 79.6158 219.437 80.2368 220.019C81.3167 221.035 82.8855 221.041 84.2739 221.195C85.5942 221.342 86.9158 221.391 88.1666 221.845C88.1796 221.612 88.2075 221.371 88.2708 221.111C88.4799 220.262 88.8482 219.45 89.0852 218.607C89.4222 217.414 89.4944 216.133 91.1089 216.019C91.1858 216.012 91.2444 215.982 91.2934 215.943C91.2559 216.135 91.3526 216.342 91.5971 216.311C92.0424 216.256 92.3311 216.236 92.741 216.035C94.0368 215.399 94.9744 215.169 96.3921 215.519C96.8169 215.623 97.2881 215.874 97.7403 215.812C98.0249 215.792 98.3013 215.735 98.571 215.641C99.702 215.326 99.4493 216.074 99.4691 216.566C99.4909 217.115 99.9655 217.341 100.426 217.369C100.765 217.39 101.186 217.17 101.496 217.064C102.932 216.573 102.936 217.888 103.179 218.778C103.428 219.692 104.094 219.862 104.966 220.046C106.38 220.344 106.923 221.366 108.482 220.889C109.553 220.563 110.323 219.821 111.092 219.056C112.381 217.774 114.525 217.793 116.192 217.466C116.791 217.347 117.398 217.14 117.992 216.89C117.932 216.43 117.933 215.967 118.132 215.531Z" fill="#5D59EA"/>
<path d="M181.443 233.209C181.443 232.798 181.593 232.326 181.544 231.884C181.447 231.815 181.428 231.698 181.478 231.549C181.486 231.525 181.512 231.5 181.521 231.476C181.387 231.005 181.104 230.613 180.503 230.437C179.399 230.117 178.187 229.734 177.253 229.041C176.394 228.403 175.638 227.629 175.248 226.611C174.551 224.791 174.088 223.296 172.633 221.913C171.711 221.035 170.867 220.133 170.496 218.888C170.198 217.889 169.996 216.835 169.17 216.103C168.747 215.727 168.267 215.391 167.875 214.983C166.671 213.729 165.594 211.438 167.238 210.113C169.299 208.45 172.224 209.341 174.408 210.131C175.356 210.474 176.274 210.963 177.317 210.828C178.006 210.74 178.681 210.72 179.375 210.738C180.629 210.771 181.921 210.745 183.006 211.434C183.277 211.605 183.561 211.893 183.646 212.215C183.847 212.981 184.455 212.848 185.115 212.826C185.481 212.815 185.974 213.056 186.176 212.845C186.465 212.544 186.901 212.333 186.853 211.835C186.695 210.15 185.21 210.888 184.564 209.783C184.179 209.124 184.261 208.152 184.369 207.271C184.217 207.361 184.056 207.433 183.876 207.478C182.95 207.704 182.464 206.505 181.387 207.489C179.795 208.946 178.618 206.941 177.573 205.937C176.443 204.85 175.213 203.931 173.855 203.147C173.267 202.807 172.902 202.472 172.637 201.901C172.041 202.241 171.069 202.5 170.418 202.269C169.931 202.095 169.214 201.443 168.726 201.479C168.168 201.521 167.585 201.649 167.065 201.863C166.113 202.257 166.493 203.608 165.45 204.091C164.143 204.695 164.208 205.647 163.41 206.69C163.132 207.053 162.647 207.201 162.222 207.005C161.784 206.802 161.494 206.524 161.155 206.186C160.149 205.186 159.647 206.977 159.641 207.678C159.639 207.854 159.491 208.015 159.309 208.009C158.42 207.984 157.51 207.901 156.65 207.658C156.253 207.546 155.683 207.218 155.201 207.058C155.046 207.59 154.706 208.174 154.544 208.614C154.316 209.234 154.204 209.749 154.32 210.399C154.585 211.889 156.807 212.627 156.222 214.327C156.088 214.715 156.618 214.857 156.829 214.584C157.478 213.743 157.638 212.607 157.949 211.609C158.285 210.532 159.047 208.216 160.693 210.41C161.092 210.942 161.395 211.656 161.724 212.239C162.488 213.592 160.439 215.077 161.386 216.214C161.717 216.613 162.085 216.828 162.539 217.072C162.934 217.218 163.175 217.498 163.263 217.909C163.278 218.026 163.19 218.977 162.96 218.816C162.684 218.625 162.332 218.998 162.505 219.271C163.136 220.263 163.909 221 164.869 221.671C165.793 222.32 166.581 222.916 167.249 223.839C167.518 224.21 167.657 224.869 168.002 225.17C168.423 225.536 169.044 225.644 169.475 225.176C170.08 224.52 170.556 223.998 171.555 224.581C172.193 224.955 172.624 225.541 173.105 226.077C173.798 226.85 174.436 227.566 174.777 228.568C174.912 228.969 175.048 229.444 175.362 229.751C176.201 230.575 177.172 230.349 178.249 230.58C179.135 230.769 179.807 231.722 180.477 232.283C180.831 232.581 181.053 232.895 181.443 233.209Z" fill="#5D59EA"/>
<path d="M187.901 220.048C187.036 219.744 186.474 219.311 186.395 218.195C186.34 217.4 186.313 216.582 186.461 215.793C186.6 215.056 186.843 214.147 186.686 213.363C186.419 213.577 186.105 213.684 185.772 213.583C185.2 213.408 183.621 213.836 183.239 213.184C182.48 211.888 182.063 211.524 180.484 211.443C179.771 211.408 179.032 211.348 178.317 211.396C176.686 211.502 175.775 211.313 174.23 210.771C172.737 210.247 170.993 209.524 169.389 209.925C168.243 210.212 166.62 210.698 167.13 212.391C167.371 213.186 167.715 213.944 168.343 214.511C169.096 215.194 170.104 215.813 170.512 216.79C170.879 217.668 170.977 218.751 171.479 219.562C171.919 220.271 172.496 220.879 173.103 221.444C173.868 222.157 174.598 222.876 174.992 223.867C175.726 225.714 176.069 227.673 177.981 228.713C179.102 229.325 180.397 229.499 181.499 230.091C181.667 230.181 181.805 230.28 181.924 230.388C182.115 229.95 182.368 229.556 182.805 229.235C183.033 229.067 184.558 227.985 184.441 227.65C184.346 227.385 184.235 227.108 184.235 226.819C184.235 225.753 185.386 225.744 186.244 225.8C185.808 224.831 185.375 223.536 186.878 223.602C188.169 223.659 187.371 221.562 187.456 220.791C187.49 220.486 187.676 220.25 187.901 220.048Z" fill="#5D59EA"/>
<path d="M157.615 122.969C156.453 122.932 155.083 122.798 154.006 122.322C153.618 122.151 154.163 119.892 153.542 119.311C153.065 118.862 152.088 118.822 151.531 119.113C150.927 119.431 150.438 120.166 149.907 120.644C149.9 120.642 149.896 120.638 149.89 120.637C148.422 120.287 147.114 122.112 146.39 123.133C146.271 123.3 146.388 123.583 146.588 123.621C147.927 123.874 148.065 124.401 148.202 125.589C148.282 126.292 148.624 126.807 148.991 127.396C149.848 128.774 152.267 128.496 153.588 128.902C154.489 129.178 155.391 129.701 156.198 128.896C157.734 127.367 157.383 125.36 157.935 123.388C157.994 123.176 157.828 122.975 157.615 122.969Z" fill="#5D59EA"/>
<path d="M203.104 102.395C202.738 101.81 202.162 101.789 201.602 101.96C201.548 101.903 201.471 101.868 201.365 101.874C199.551 101.98 198.405 103.505 197.225 104.705C197.109 104.823 197.081 105.062 197.225 105.175C198.941 106.523 201.034 107.451 202.422 105.201C202.83 104.538 203.608 103.202 203.104 102.395Z" fill="#5D59EA"/>
<path d="M202.083 99.526C202.151 99.2856 202.135 99.0255 202.016 98.7913C201.909 98.5788 201.725 98.459 201.514 98.3936C200.353 97.2967 197.965 97.8816 197.172 99.3047C197.051 99.5225 197.204 99.8031 197.459 99.8031C197.857 99.8031 197.795 99.9406 198.142 100.177C198.543 100.448 198.933 100.555 199.412 100.584C200.26 100.639 201.051 100.628 201.735 100.063C201.906 99.9202 202.022 99.7343 202.081 99.5328C202.081 99.5307 202.082 99.5287 202.083 99.526Z" fill="#5D59EA"/>
</svg>
