<svg width="34" height="34" viewBox="0 0 34 34" fill="none" xmlns="http://www.w3.org/2000/svg">
<g clip-path="url(#clip0_138_5718)">
<path d="M17 34C26.3888 34 34 26.3888 34 17C34 7.61116 26.3888 0 17 0C7.61116 0 0 7.61116 0 17C0 26.3888 7.61116 34 17 34Z" fill="#0052B4"/>
<path d="M17.0002 6.65218L17.5506 8.34613H19.3316L17.8907 9.39303L18.4411 11.087L17.0002 10.04L15.5591 11.087L16.1096 9.39303L14.6686 8.34613H16.4497L17.0002 6.65218ZM9.68306 9.68296L11.2702 10.4915L12.5296 9.23219L12.2509 10.9913L13.8379 11.7999L12.0787 12.0786L11.8001 13.8378L10.9915 12.2508L9.23236 12.5295L10.4918 11.2701L9.68306 9.68296ZM6.65234 17L8.3463 16.4496V14.6685L9.39313 16.1095L11.0872 15.559L10.0401 17L11.0872 18.4409L9.39313 17.8906L8.3463 19.3315V17.5504L6.65234 17ZM9.68306 24.317L10.4917 22.7299L9.23236 21.4705L10.9915 21.7493L11.8 20.1623L12.0787 21.9214L13.8378 22.2001L12.251 23.0087L12.5296 24.7678L11.2702 23.5084L9.68306 24.317ZM17.0002 27.3478L16.4497 25.6539H14.6686L16.1097 24.607L15.5591 22.9131L17.0002 23.96L18.4411 22.9131L17.8907 24.607L19.3316 25.6539H17.5505L17.0002 27.3478ZM24.3172 24.317L22.7302 23.5085L21.4707 24.7679L21.7494 23.0086L20.1625 22.2001L21.9216 21.9214L22.2002 20.1623L23.0088 21.7493L24.7679 21.4705L23.5085 22.7301L24.3172 24.317ZM27.3479 17L25.654 17.5504V19.3315L24.6071 17.8905L22.9132 18.4409L23.9601 17L22.9132 15.559L24.6071 16.1095L25.654 14.6685V16.4496L27.3479 17ZM24.3172 9.68296L23.5086 11.2701L24.768 12.5295L23.0087 12.2507L22.2002 13.8377L21.9216 12.0786L20.1625 11.7999L21.7494 10.9913L21.4707 9.23226L22.7302 10.4916L24.3172 9.68296Z" fill="#FFDA44"/>
</g>
<defs>
<clipPath id="clip0_138_5718">
<rect width="34" height="34" fill="white"/>
</clipPath>
</defs>
</svg>
