<svg width="34" height="34" viewBox="0 0 34 34" fill="none" xmlns="http://www.w3.org/2000/svg">
<mask id="mask0_157_6488" style="mask-type:luminance" maskUnits="userSpaceOnUse" x="1" y="1" width="32" height="32">
<path d="M32.9339 17.0008C32.9339 19.094 32.5216 21.1667 31.7206 23.1006C30.9196 25.0345 29.7455 26.7917 28.2653 28.2718C26.7852 29.7519 25.028 30.926 23.0941 31.7271C21.1603 32.5281 19.0875 32.9404 16.9943 32.9404C14.9011 32.9404 12.8284 32.5281 10.8945 31.7271C8.9606 30.926 7.20343 29.7519 5.7233 28.2718C4.24316 26.7917 3.06906 25.0345 2.26802 23.1006C1.46698 21.1667 1.05469 19.094 1.05469 17.0008C1.05469 12.7733 2.73404 8.71903 5.7233 5.72977C8.71255 2.74051 12.7669 1.06116 16.9943 1.06116C21.2218 1.06116 25.2761 2.74051 28.2653 5.72977C31.2546 8.71903 32.9339 12.7733 32.9339 17.0008Z" fill="white"/>
</mask>
<g mask="url(#mask0_157_6488)">
<path d="M1.0625 32.9375V22.3125H32.9375V32.9375H1.0625Z" fill="#27AE60"/>
<path d="M1.0625 22.3125V11.6875H32.9375V22.3125H1.0625Z" fill="white"/>
<path d="M1.0625 11.6875V1.0625H32.9375V11.6875H1.0625Z" fill="#F39C12"/>
<path d="M16.9944 21.652C19.5608 21.652 21.6412 19.5715 21.6412 17.0052C21.6412 14.4388 19.5608 12.3584 16.9944 12.3584C14.4281 12.3584 12.3477 14.4388 12.3477 17.0052C12.3477 19.5715 14.4281 21.652 16.9944 21.652Z" fill="#000088"/>
<path d="M16.9946 21.07C19.2402 21.07 21.0606 19.2496 21.0606 17.004C21.0606 14.7585 19.2402 12.9381 16.9946 12.9381C14.7491 12.9381 12.9287 14.7585 12.9287 17.004C12.9287 19.2496 14.7491 21.07 16.9946 21.07Z" fill="white"/>
<path d="M16.9948 17.8185C17.4439 17.8185 17.808 17.4544 17.808 17.0053C17.808 16.5562 17.4439 16.1921 16.9948 16.1921C16.5457 16.1921 16.1816 16.5562 16.1816 17.0053C16.1816 17.4544 16.5457 17.8185 16.9948 17.8185Z" fill="#000088"/>
<path d="M21.0003 17.7369C21.1116 17.7516 21.2138 17.6733 21.2285 17.562C21.2432 17.4506 21.1649 17.3485 21.0536 17.3338C20.9423 17.3191 20.8401 17.3974 20.8254 17.5087C20.8107 17.62 20.889 17.7221 21.0003 17.7369Z" fill="#000088"/>
<path d="M16.9944 21.0704L17.1338 18.6308L16.9944 17.4691L16.855 18.6308L16.9944 21.0704Z" fill="#000088"/>
<path d="M20.675 18.75C20.7788 18.793 20.8977 18.7438 20.9408 18.6401C20.9838 18.5363 20.9346 18.4173 20.8309 18.3743C20.7272 18.3313 20.6082 18.3805 20.5651 18.4842C20.5221 18.5879 20.5713 18.7069 20.675 18.75Z" fill="#000088"/>
<path d="M15.9415 20.9334L16.7078 18.6125L16.8739 17.4541L16.4385 18.5403L15.9415 20.9334Z" fill="#000088"/>
<path d="M20.0966 19.6393C20.1857 19.7077 20.3133 19.6909 20.3817 19.6019C20.4501 19.5129 20.4334 19.3852 20.3443 19.3168C20.2553 19.2484 20.1277 19.2652 20.0593 19.3542C19.9909 19.4433 20.0076 19.5709 20.0966 19.6393Z" fill="#000088"/>
<path d="M14.9607 20.5234L16.3012 18.4804L16.7614 17.4047L16.0598 18.341L14.9607 20.5234Z" fill="#000088"/>
<path d="M19.3082 20.3557C19.3765 20.4448 19.5041 20.4617 19.5932 20.3934C19.6824 20.3251 19.6992 20.1975 19.631 20.1084C19.5627 20.0193 19.4351 20.0024 19.346 20.0707C19.2568 20.1389 19.2399 20.2665 19.3082 20.3557Z" fill="#000088"/>
<path d="M14.1186 19.8797L15.9424 18.2536L16.6654 17.3338L15.7453 18.0565L14.1186 19.8797Z" fill="#000088"/>
<path d="M18.3641 20.8394C18.407 20.9431 18.5259 20.9924 18.6296 20.9495C18.7334 20.9066 18.7827 20.7877 18.7398 20.684C18.6969 20.5802 18.578 20.5309 18.4742 20.5738C18.3705 20.6167 18.3212 20.7356 18.3641 20.8394Z" fill="#000088"/>
<path d="M13.4739 19.0362L15.6563 17.9372L16.5927 17.2356L15.5169 17.6957L13.4739 19.0362Z" fill="#000088"/>
<path d="M17.3234 21.0631C17.3379 21.1745 17.44 21.2529 17.5514 21.2383C17.6627 21.2238 17.7412 21.1217 17.7266 21.0103C17.712 20.899 17.6099 20.8205 17.4986 20.8351C17.3872 20.8497 17.3088 20.9518 17.3234 21.0631Z" fill="#000088"/>
<path d="M13.0665 18.0552L15.4595 17.5589L16.5458 17.1237L15.3874 17.2895L13.0665 18.0552Z" fill="#000088"/>
<path d="M16.2622 21.0111C16.2475 21.1224 16.3258 21.2245 16.4371 21.2392C16.5484 21.254 16.6505 21.1756 16.6653 21.0643C16.68 20.953 16.6017 20.8509 16.4904 20.8362C16.379 20.8214 16.2769 20.8997 16.2622 21.0111Z" fill="#000088"/>
<path d="M12.9285 17.0052L15.3681 17.1447L16.5298 17.0052L15.3681 16.8658L12.9285 17.0052Z" fill="#000088"/>
<path d="M15.2502 20.6844C15.2071 20.7881 15.2563 20.907 15.36 20.9501C15.4637 20.9931 15.5827 20.9439 15.6257 20.8402C15.6687 20.7365 15.6195 20.6176 15.5158 20.5745C15.4121 20.5315 15.2932 20.5807 15.2502 20.6844Z" fill="#000088"/>
<path d="M13.0676 15.9518L15.3878 16.7181L16.5459 16.8843L15.46 16.4488L13.0676 15.9518Z" fill="#000088"/>
<path d="M14.3564 20.1095C14.2881 20.1985 14.3048 20.3261 14.3938 20.3945C14.4829 20.4629 14.6105 20.4462 14.6789 20.3571C14.7473 20.2681 14.7306 20.1405 14.6415 20.0721C14.5525 20.0037 14.4248 20.0204 14.3564 20.1095Z" fill="#000088"/>
<path d="M13.4722 14.9731L15.5152 16.3136L16.5909 16.7737L15.6546 16.0721L13.4722 14.9731Z" fill="#000088"/>
<path d="M13.6425 19.319C13.5533 19.3873 13.5365 19.515 13.6048 19.6041C13.6731 19.6932 13.8007 19.7101 13.8899 19.6418C13.979 19.5735 13.9959 19.4458 13.9276 19.3567C13.8592 19.2675 13.7316 19.2507 13.6425 19.319Z" fill="#000088"/>
<path d="M14.1174 14.1282L15.7443 15.9523L16.6646 16.6754L15.9415 15.7551L14.1174 14.1282Z" fill="#000088"/>
<path d="M13.1597 18.3733C13.0559 18.4162 13.0066 18.5351 13.0495 18.6389C13.0924 18.7427 13.2113 18.792 13.315 18.7491C13.4188 18.7062 13.4681 18.5873 13.4252 18.4835C13.3823 18.3797 13.2634 18.3304 13.1597 18.3733Z" fill="#000088"/>
<path d="M14.9619 13.4831L16.061 15.6658L16.7626 16.6023L16.3025 15.5264L14.9619 13.4831Z" fill="#000088"/>
<path d="M12.9351 17.333C12.8237 17.3476 12.7453 17.4497 12.7598 17.561C12.7744 17.6724 12.8765 17.7508 12.9878 17.7362C13.0992 17.7217 13.1776 17.6196 13.1631 17.5082C13.1485 17.3969 13.0464 17.3184 12.9351 17.333Z" fill="#000088"/>
<path d="M15.9431 13.0769L16.4394 15.4699L16.8746 16.5562L16.7088 15.3978L15.9431 13.0769Z" fill="#000088"/>
<path d="M12.9885 16.2729C12.8771 16.2582 12.775 16.3365 12.7603 16.4478C12.7456 16.5591 12.8239 16.6613 12.9352 16.676C13.0465 16.6907 13.1486 16.6124 13.1634 16.5011C13.1781 16.3898 13.0998 16.2876 12.9885 16.2729Z" fill="#000088"/>
<path d="M16.9944 12.9394L16.855 15.379L16.9944 16.5406L17.1338 15.379L16.9944 12.9394Z" fill="#000088"/>
<path d="M13.3142 15.2599C13.2105 15.2169 13.0915 15.2661 13.0485 15.3698C13.0054 15.4736 13.0546 15.5925 13.1584 15.6356C13.2621 15.6786 13.3811 15.6294 13.4241 15.5257C13.4672 15.422 13.418 15.303 13.3142 15.2599Z" fill="#000088"/>
<path d="M18.0478 13.0765L17.2814 15.3974L17.1153 16.5558L17.5508 15.4696L18.0478 13.0765Z" fill="#000088"/>
<path d="M13.8912 14.3693C13.8021 14.3009 13.6745 14.3176 13.6061 14.4066C13.5377 14.4957 13.5544 14.6233 13.6435 14.6917C13.7325 14.7601 13.8601 14.7434 13.9285 14.6543C13.9969 14.5653 13.9802 14.4377 13.8912 14.3693Z" fill="#000088"/>
<path d="M19.0271 13.4851L17.6866 15.5281L17.2264 16.6039L17.928 15.6675L19.0271 13.4851Z" fill="#000088"/>
<path d="M14.6795 13.654C14.6112 13.5649 14.4836 13.548 14.3945 13.6163C14.3053 13.6846 14.2885 13.8122 14.3568 13.9014C14.4251 13.9905 14.5527 14.0074 14.6418 13.9391C14.731 13.8707 14.7478 13.7431 14.6795 13.654Z" fill="#000088"/>
<path d="M19.8701 14.1291L18.0463 15.7558L17.3233 16.676L18.2434 15.953L19.8701 14.1291Z" fill="#000088"/>
<path d="M15.6257 13.1677C15.5828 13.0639 15.4639 13.0146 15.3601 13.0575C15.2564 13.1004 15.207 13.2193 15.2499 13.3231C15.2929 13.4269 15.4118 13.4762 15.5155 13.4333C15.6193 13.3904 15.6686 13.2715 15.6257 13.1677Z" fill="#000088"/>
<path d="M20.5158 14.9708L18.3331 16.0699L17.3966 16.7715L18.4725 16.3114L20.5158 14.9708Z" fill="#000088"/>
<path d="M16.6664 12.9453C16.6518 12.834 16.5497 12.7555 16.4384 12.7701C16.327 12.7847 16.2486 12.8868 16.2632 12.9981C16.2777 13.1094 16.3798 13.1879 16.4912 13.1733C16.6025 13.1587 16.681 13.0567 16.6664 12.9453Z" fill="#000088"/>
<path d="M20.9232 15.9532L18.5302 16.4496L17.4439 16.8847L18.6023 16.7189L20.9232 15.9532Z" fill="#000088"/>
<path d="M17.7271 12.9987C17.7418 12.8874 17.6635 12.7852 17.5522 12.7705C17.4409 12.7558 17.3387 12.8341 17.324 12.9454C17.3093 13.0567 17.3876 13.1589 17.4989 13.1736C17.6102 13.1883 17.7124 13.11 17.7271 12.9987Z" fill="#000088"/>
<path d="M21.0607 17.0045L18.6212 16.8651L17.4595 17.0045L18.6212 17.1439L21.0607 17.0045Z" fill="#000088"/>
<path d="M18.7402 13.3242C18.7833 13.2205 18.7341 13.1015 18.6304 13.0584C18.5267 13.0154 18.4077 13.0645 18.3646 13.1683C18.3215 13.272 18.3707 13.391 18.4744 13.4341C18.5782 13.4771 18.6972 13.428 18.7402 13.3242Z" fill="#000088"/>
<path d="M20.9227 18.059L18.6018 17.292L17.4434 17.1256L18.5296 17.5614L20.9227 18.059Z" fill="#000088"/>
<path d="M19.6314 13.9018C19.6998 13.8127 19.683 13.6851 19.594 13.6167C19.5049 13.5483 19.3773 13.565 19.3089 13.6541C19.2405 13.7431 19.2572 13.8708 19.3463 13.9392C19.4354 14.0076 19.563 13.9908 19.6314 13.9018Z" fill="#000088"/>
<path d="M20.5155 19.0383L18.4722 17.6978L17.3964 17.2377L18.3328 17.9392L20.5155 19.0383Z" fill="#000088"/>
<path d="M20.3463 14.6894C20.4354 14.6211 20.4523 14.4934 20.384 14.4043C20.3157 14.3151 20.1881 14.2982 20.0989 14.3666C20.0098 14.4349 19.9929 14.5625 20.0612 14.6517C20.1295 14.7408 20.2571 14.7577 20.3463 14.6894Z" fill="#000088"/>
<path d="M19.87 19.8807L18.2434 18.0562L17.3232 17.3329L18.0462 18.2534L19.87 19.8807Z" fill="#000088"/>
<path d="M20.8291 15.6338C20.9329 15.5909 20.9822 15.472 20.9393 15.3683C20.8964 15.2645 20.7775 15.2152 20.6737 15.2581C20.5699 15.301 20.5206 15.4199 20.5635 15.5237C20.6065 15.6274 20.7253 15.6768 20.8291 15.6338Z" fill="#000088"/>
<path d="M19.0273 20.5237L17.9283 18.3413L17.2267 17.4049L17.6868 18.4807L19.0273 20.5237Z" fill="#000088"/>
<path d="M21.0537 16.6769C21.1651 16.6623 21.2435 16.5602 21.2289 16.4489C21.2144 16.3375 21.1123 16.2591 21.0009 16.2737C20.8896 16.2882 20.8111 16.3903 20.8257 16.5017C20.8403 16.613 20.9424 16.6914 21.0537 16.6769Z" fill="#000088"/>
<path d="M18.0457 20.933L17.5493 18.54L17.1142 17.4537L17.28 18.6121L18.0457 20.933Z" fill="#000088"/>
</g>
</svg>
