<svg width="34" height="34" viewBox="0 0 34 34" fill="none" xmlns="http://www.w3.org/2000/svg">
<g clip-path="url(#clip0_138_6383)">
<mask id="mask0_138_6383" style="mask-type:luminance" maskUnits="userSpaceOnUse" x="0" y="0" width="34" height="34">
<path d="M16.9999 33.2531C25.9761 33.2531 33.2528 25.9764 33.2528 17.0002C33.2528 8.02403 25.9761 0.747375 16.9999 0.747375C8.02372 0.747375 0.74707 8.02403 0.74707 17.0002C0.74707 25.9764 8.02372 33.2531 16.9999 33.2531Z" fill="white"/>
</mask>
<g mask="url(#mask0_138_6383)">
<path d="M0.744141 0.745911H49.5056V33.2516H0.744141V0.745911Z" fill="#162B74"/>
<path d="M25.1248 0.747375H22.1934L12.9344 6.91958L3.67275 0.747375H0.744141V2.70094L10.003 8.87374L0.744141 15.0467V17.0002H3.67275L12.9344 10.826L22.1934 17.0002H25.1248V15.0467L15.863 8.87374L25.1248 2.70094V0.747375Z" fill="white"/>
<path d="M0.744141 0.747375V1.72314L12.9344 9.85023V8.87374L0.744141 0.747375ZM25.1248 16.0239L12.9344 7.89738V8.87374L25.1248 17.0002V16.0239Z" fill="#CB152B"/>
<path d="M0.744141 17.0002H2.20905L12.9344 9.85023V8.87374L0.744141 17.0002ZM23.6612 0.747375L12.9344 7.89738V8.87518L25.122 0.747375H23.6612Z" fill="#CB152B"/>
<path d="M25.1248 7.4501H13.9508V0.747375H11.9181V7.4501H0.744141V10.2955H11.9181V17.0002H13.9508V10.2955H25.1248V7.4501Z" fill="#CB152B"/>
<path d="M11.1041 0.747375V6.63746H0.744141V7.4501H11.9181V0.747375H11.1041ZM0.744141 11.1088H11.1041V17.0002H11.9181V10.2955H0.744141V11.1088ZM25.1248 10.2955H13.9508V17.0002H14.7635V11.1088H25.1248V10.2955ZM25.1248 6.63746H14.7635V0.747375H13.9508V7.4501H25.1248V6.63746Z" fill="white"/>
<path d="M22.6666 21.6745C22.6652 21.6718 22.6624 21.6661 22.6555 21.6661H22.0632L21.8812 21.1035C21.8785 21.0951 21.8608 21.0951 21.8582 21.1035L21.6761 21.6661H21.0839C21.0783 21.6661 21.0741 21.6718 21.0727 21.6745C21.0712 21.6802 21.0727 21.6858 21.0769 21.6886L21.5556 22.0358L21.3736 22.5985C21.3722 22.6056 21.3736 22.611 21.3762 22.6138C21.3819 22.6166 21.3861 22.6166 21.3903 22.6138L21.869 22.2666L22.3478 22.6138C22.3498 22.6166 22.3526 22.6166 22.3554 22.6166C22.3568 22.6166 22.3596 22.6166 22.3624 22.6138C22.3653 22.6111 22.3666 22.6056 22.3666 22.5985L22.1846 22.0358L22.6633 21.6886C22.6666 21.6857 22.6681 21.6802 22.6666 21.6745ZM18.0939 18.8047L17.8734 19.4822C17.8734 19.4878 17.8734 19.4906 17.8775 19.4962C17.8803 19.5004 17.8874 19.5004 17.8901 19.4962L18.4662 19.0763L19.043 19.4962C19.0458 19.4962 19.0472 19.5004 19.05 19.5004C19.0514 19.5004 19.0542 19.4962 19.0556 19.4962C19.0598 19.4906 19.0613 19.4878 19.0598 19.4822L18.8394 18.8047L19.4168 18.3848C19.4196 18.382 19.4224 18.3764 19.421 18.3735C19.4196 18.3679 19.4154 18.3623 19.4097 18.3623H18.6958L18.4767 17.6848C18.4739 17.6764 18.4578 17.6764 18.4536 17.6848L18.2332 18.3623H17.5207C17.515 18.3623 17.5101 18.3679 17.5087 18.3735C17.5072 18.3763 17.5101 18.3819 17.5136 18.3848L18.0939 18.8047ZM14.5431 22.7551L14.324 22.0777C14.3212 22.0664 14.3037 22.0664 14.301 22.0777L14.0818 22.7551H13.3693C13.3638 22.7551 13.3589 22.7579 13.3575 22.7635C13.356 22.7663 13.3575 22.7719 13.3624 22.7748L13.9384 23.1947L13.7172 23.8736C13.7172 23.8793 13.7172 23.8849 13.7221 23.8891C13.7242 23.8905 13.7266 23.8912 13.7291 23.8912C13.7316 23.8912 13.734 23.8905 13.7361 23.8891L14.3121 23.4692L14.8903 23.8891C14.8917 23.8891 14.8945 23.8919 14.8958 23.8919C14.8972 23.8919 14.9 23.8891 14.9014 23.8891C14.9034 23.8871 14.9049 23.8847 14.9056 23.8819C14.9064 23.8792 14.9064 23.8764 14.9056 23.8736L14.6852 23.1947L15.2613 22.7748C15.2655 22.7721 15.2682 22.7664 15.2655 22.7635C15.264 22.7579 15.2598 22.7551 15.2543 22.7551H14.5431Z" fill="#CB152B"/>
<path d="M23.151 21.5177C23.1496 21.5121 23.1454 21.5093 23.1398 21.5093H22.1767L21.8798 20.5923C21.8771 20.5839 21.8595 20.5839 21.8568 20.5923L21.56 21.5093H20.5968C20.5913 21.5093 20.5863 21.5121 20.5849 21.5177C20.5849 21.5204 20.5849 21.5289 20.5898 21.5316L21.3682 22.0972L21.07 23.0127C21.0685 23.0155 21.0714 23.0226 21.0742 23.0282H21.0882L21.8665 22.4612L22.6449 23.0282H22.6525C22.6582 23.0282 22.6637 23.0226 22.6637 23.0156C22.6637 23.0129 22.6637 23.0101 22.6623 23.0073L22.3655 22.0973L23.1438 21.5318C23.151 21.5289 23.1525 21.5204 23.151 21.5177ZM22.6638 21.6885L22.1851 22.0358L22.3672 22.5984C22.3686 22.6055 22.3672 22.6109 22.363 22.6138C22.3616 22.6166 22.3588 22.6166 22.3559 22.6166C22.353 22.6166 22.351 22.6166 22.3484 22.6138L21.8695 22.2666L21.3908 22.6138C21.3887 22.6152 21.3863 22.6159 21.3838 22.6159C21.3813 22.6159 21.3789 22.6152 21.3768 22.6138C21.3742 22.611 21.3727 22.6055 21.3727 22.5984L21.556 22.0358L21.0773 21.6885C21.0731 21.6858 21.0716 21.6801 21.0731 21.6745C21.0745 21.6717 21.0787 21.6661 21.0844 21.6661H21.6765L21.8586 21.1034C21.8613 21.095 21.8789 21.095 21.8816 21.1034L22.0649 21.6661H22.6572C22.6627 21.6661 22.6669 21.6717 22.6684 21.6745C22.668 21.6801 22.6666 21.6857 22.6638 21.6885ZM19.9075 18.2139C19.906 18.2112 19.9018 18.2055 19.8955 18.2055H18.812L18.478 17.1781C18.4753 17.1668 18.4578 17.1668 18.455 17.1781L18.1198 18.2055H17.0377C17.0315 18.2055 17.0273 18.2112 17.0259 18.2139C17.0259 18.2194 17.0259 18.2251 17.0286 18.2278L17.9048 18.8662L17.5703 19.8937C17.5675 19.8993 17.5703 19.9049 17.5752 19.9077C17.578 19.9105 17.585 19.9105 17.5878 19.9077L18.4634 19.2735L19.3397 19.9077C19.3412 19.9105 19.3439 19.9105 19.3454 19.9105H19.3468C19.3497 19.9103 19.3525 19.909 19.3546 19.9069C19.3566 19.9049 19.3579 19.9021 19.3581 19.8992C19.3581 19.8964 19.3567 19.8908 19.3553 19.8908L19.0215 18.8661L19.8986 18.2277C19.9075 18.2251 19.9075 18.2194 19.9075 18.2139ZM19.4182 18.3847L18.8408 18.8047L19.0627 19.4821C19.0627 19.4878 19.0612 19.4905 19.057 19.4962C19.0556 19.4962 19.0528 19.5004 19.0514 19.5004C19.0486 19.5004 19.0473 19.4962 19.0444 19.4962L18.4683 19.0762L17.8915 19.4962C17.8873 19.5004 17.8817 19.5004 17.8775 19.4962C17.8734 19.4905 17.872 19.4878 17.8734 19.4821L18.0939 18.8047L17.5164 18.3847C17.515 18.382 17.5122 18.3763 17.5137 18.3735C17.5151 18.3678 17.5193 18.3623 17.525 18.3623H18.2361L18.4566 17.6847C18.4593 17.6763 18.4754 17.6763 18.4796 17.6847L18.6988 18.3623H19.4127C19.4183 18.3623 19.4232 18.3678 19.4245 18.3735C19.4244 18.3763 19.4209 18.3819 19.4182 18.3847ZM15.7532 22.6068C15.7523 22.6044 15.7507 22.6024 15.7486 22.6009C15.7464 22.5994 15.7439 22.5985 15.7414 22.5984H14.6592L14.3239 21.5681C14.3212 21.5568 14.3037 21.5568 14.3009 21.5681L13.967 22.5984H12.8828C12.8772 22.5984 12.873 22.6012 12.8716 22.6068C12.8702 22.6096 12.8716 22.6151 12.8758 22.618L13.7522 23.2564L13.4162 24.2867C13.4162 24.2895 13.4176 24.2951 13.4224 24.298C13.4252 24.3006 13.4308 24.3006 13.435 24.298L14.3108 23.6624L15.1871 24.298C15.1885 24.3006 15.1913 24.3006 15.1942 24.3006H15.1956C15.2011 24.3006 15.2068 24.2951 15.2068 24.2867C15.2068 24.2867 15.2068 24.2839 15.2053 24.2811L14.8714 23.2564L15.7484 22.618C15.7532 22.6151 15.7547 22.6097 15.7532 22.6068ZM15.2626 22.7748L14.6865 23.1947L14.907 23.8722C14.9084 23.8778 14.907 23.8834 14.9028 23.8862C14.9014 23.8862 14.8986 23.889 14.8972 23.889C14.8957 23.889 14.893 23.8862 14.8917 23.8862L14.3135 23.4663L13.7374 23.8862C13.7353 23.8875 13.7329 23.8883 13.7304 23.8883C13.7279 23.8883 13.7255 23.8875 13.7234 23.8862C13.7201 23.8823 13.7184 23.8773 13.7185 23.8722L13.9396 23.1947L13.3637 22.7748C13.3587 22.772 13.3573 22.7664 13.3587 22.7635C13.3609 22.7579 13.365 22.7551 13.3706 22.7551H14.0831L14.3022 22.0762C14.3028 22.0736 14.3042 22.0712 14.3063 22.0695C14.3084 22.0677 14.311 22.0668 14.3138 22.0668C14.3165 22.0668 14.3191 22.0677 14.3212 22.0695C14.3233 22.0712 14.3247 22.0736 14.3253 22.0762L14.5444 22.7551H15.2583C15.2625 22.7551 15.2682 22.7579 15.2695 22.7635C15.2696 22.7664 15.2668 22.772 15.2626 22.7748Z" fill="white"/>
<path d="M18.7091 28.94L18.4522 28.1504C18.4495 28.1392 18.432 28.1392 18.4292 28.1504L18.173 28.94H17.3401C17.3344 28.94 17.3296 28.9456 17.3282 28.9512C17.3268 28.9539 17.3282 28.9596 17.331 28.9624L18.0049 29.4524L17.7453 30.2447C17.7453 30.2517 17.7467 30.2573 17.7509 30.2601C17.7544 30.2629 17.76 30.2629 17.7641 30.2601L18.4389 29.7687L19.1129 30.2601C19.1143 30.2601 19.1171 30.2629 19.12 30.2629C19.1228 30.2629 19.1242 30.2601 19.1276 30.2601C19.1304 30.2574 19.1318 30.2517 19.1304 30.2447L18.8722 29.4524L19.5461 28.9624C19.5503 28.9597 19.5518 28.954 19.5503 28.9512C19.5489 28.9456 19.5447 28.94 19.5383 28.94H18.7091Z" fill="#CB152B"/>
<path d="M20.0389 28.7917C20.0375 28.7889 20.0333 28.7833 20.0277 28.7833H18.8245L18.4522 27.641C18.4494 27.6297 18.4333 27.6297 18.4291 27.641L18.0581 28.7833H16.855C16.8493 28.7833 16.8451 28.7889 16.8438 28.7917C16.8424 28.7973 16.8438 28.8029 16.848 28.8057L17.8216 29.514L17.4486 30.6591C17.4473 30.6619 17.4486 30.6688 17.4535 30.6716C17.4556 30.6729 17.458 30.6737 17.4605 30.6737C17.463 30.6737 17.4654 30.6729 17.4675 30.6716L18.4411 29.9661L19.414 30.6716C19.4168 30.6743 19.4182 30.6743 19.4211 30.6743C19.4286 30.6743 19.4343 30.6687 19.4343 30.6619C19.4343 30.6591 19.4328 30.6562 19.4328 30.6535L19.0611 29.514L20.0347 28.8057C20.0389 28.8028 20.0389 28.7972 20.0389 28.7917ZM19.5504 28.9624L18.875 29.4523L19.1332 30.2446C19.1347 30.2517 19.1332 30.2572 19.129 30.2601C19.1276 30.2601 19.1241 30.2628 19.1213 30.2628C19.1186 30.2628 19.1171 30.2601 19.1143 30.2601L18.441 29.7686L17.7669 30.2601C17.7627 30.2628 17.7572 30.2628 17.7544 30.2601C17.7495 30.2573 17.7481 30.2517 17.7495 30.2446L18.0078 29.4523L17.3337 28.9624C17.3296 28.9596 17.3281 28.954 17.3296 28.9511C17.331 28.9456 17.3351 28.9399 17.3415 28.9399H18.1744L18.4306 28.1503C18.4348 28.1392 18.4508 28.1392 18.4536 28.1503L18.7105 28.9399H19.5427C19.5491 28.9399 19.5533 28.9456 19.5547 28.9511C19.5559 28.954 19.5532 28.9596 19.5504 28.9624Z" fill="white"/>
</g>
</g>
<defs>
<clipPath id="clip0_138_6383">
<rect width="34" height="34" fill="white"/>
</clipPath>
</defs>
</svg>
