<svg width="34" height="34" viewBox="0 0 34 34" fill="none" xmlns="http://www.w3.org/2000/svg">
<g clip-path="url(#clip0_138_5868)">
<path d="M17 34C26.3888 34 34 26.3888 34 17C34 7.61116 26.3888 0 17 0C7.61116 0 0 7.61116 0 17C0 26.3888 7.61116 34 17 34Z" fill="#F0F0F0"/>
<path d="M16.2612 16.9996H34.0003C34.0003 15.4652 33.7958 13.9788 33.4147 12.5648H16.2612V16.9996ZM16.2612 8.13003H31.5051C30.4656 6.4348 29.1381 4.93401 27.5825 3.69522H16.2612V8.13003ZM17.0003 33.9996C21.0012 33.9996 24.6786 32.6167 27.5825 30.3039H6.41807C9.32201 32.6167 12.9994 33.9996 17.0003 33.9996ZM2.49545 25.8691H31.5051C32.3507 24.4899 32.9937 22.9964 33.4147 21.4343H0.585938C1.00688 22.9964 1.64995 24.4899 2.49545 25.8691Z" fill="#D80027"/>
<path d="M7.87472 2.65479H9.42391L7.98289 3.70168L8.53334 5.39564L7.09239 4.34875L5.65144 5.39564L6.12691 3.93225C4.8558 4.99114 3.74515 6.22896 2.8297 7.60697H3.32609L2.40882 8.27336C2.26578 8.51206 2.12863 8.75425 1.9975 8.99971L2.43552 10.3478L1.61832 9.75408C1.41437 10.1859 1.22889 10.6262 1.06237 11.0738L1.54494 12.5591H3.32609L1.88507 13.606L2.43552 15.3L0.994566 14.2531L0.131418 14.8802C0.0438964 15.5834 6.42705e-06 16.2914 0 17H17V0C13.6417 0 10.5111 0.97418 7.87472 2.65479ZM8.53334 15.3L7.09239 14.2531L5.65144 15.3L6.20188 13.606L4.76086 12.5591H6.54201L7.09239 10.8652L7.64276 12.5591H9.42391L7.98289 13.606L8.53334 15.3ZM7.98289 8.65386L8.53334 10.3478L7.09239 9.30093L5.65144 10.3478L6.20188 8.65386L4.76086 7.60697H6.54201L7.09239 5.91301L7.64276 7.60697H9.42391L7.98289 8.65386ZM14.6312 15.3L13.1902 14.2531L11.7493 15.3L12.2997 13.606L10.8587 12.5591H12.6398L13.1902 10.8652L13.7406 12.5591H15.5217L14.0807 13.606L14.6312 15.3ZM14.0807 8.65386L14.6312 10.3478L13.1902 9.30093L11.7493 10.3478L12.2997 8.65386L10.8587 7.60697H12.6398L13.1902 5.91301L13.7406 7.60697H15.5217L14.0807 8.65386ZM14.0807 3.70168L14.6312 5.39564L13.1902 4.34875L11.7493 5.39564L12.2997 3.70168L10.8587 2.65479H12.6398L13.1902 0.960832L13.7406 2.65479H15.5217L14.0807 3.70168Z" fill="#0052B4"/>
</g>
<defs>
<clipPath id="clip0_138_5868">
<rect width="34" height="34" fill="white"/>
</clipPath>
</defs>
</svg>
