<svg width="54" height="54" viewBox="0 0 54 54" fill="none" xmlns="http://www.w3.org/2000/svg">
<g clip-path="url(#clip0_132_2074)">
<mask id="mask0_132_2074" style="mask-type:luminance" maskUnits="userSpaceOnUse" x="0" y="0" width="54" height="54">
<path d="M53.9862 0H0V53.9862H53.9862V0Z" fill="white"/>
</mask>
<g mask="url(#mask0_132_2074)">
<path d="M20.5436 36.0569C19.41 36.0569 18.4877 35.1345 18.4877 34.0009C18.4877 32.8673 19.41 31.945 20.5436 31.945C21.6772 31.945 22.5995 32.8673 22.5995 34.0009C22.5995 34.6414 23.1188 35.1608 23.7593 35.1608C24.4 35.1608 24.9192 34.6414 24.9192 34.0009C24.9192 31.9961 23.5632 30.3028 21.7207 29.7875V27.0986C21.7207 26.458 21.2013 25.9387 20.5608 25.9387C19.9202 25.9387 19.401 26.458 19.401 27.0986V29.7777C17.5407 30.2817 16.168 31.9836 16.168 34.001C16.168 36.4137 18.1309 38.3766 20.5436 38.3766C21.6772 38.3766 22.5995 39.299 22.5995 40.4326C22.5995 41.5662 21.6772 42.4884 20.5436 42.4884C19.41 42.4884 18.4877 41.5662 18.4877 40.4326C18.4877 39.792 17.9684 39.2726 17.3278 39.2726C16.6872 39.2726 16.168 39.792 16.168 40.4326C16.168 42.45 17.5407 44.1519 19.401 44.6559V46.3931C19.401 47.0336 19.9202 47.5529 20.5608 47.5529C21.2013 47.5529 21.7207 47.0336 21.7207 46.3931V44.646C23.5632 44.1305 24.9192 42.4375 24.9192 40.4326C24.9192 38.0197 22.9563 36.0569 20.5436 36.0569Z" fill="#5D59EA"/>
<path d="M53.9862 36.7476C53.9862 35.4772 53.4415 34.332 52.5739 33.5319C53.4415 32.7317 53.9862 31.5866 53.9862 30.3161C53.9862 27.9033 52.0234 25.9405 49.6106 25.9405H36.6404C36.4179 25.9405 36.1993 25.9575 35.9858 25.9896C34.2439 23.8336 32.1626 22.0602 29.8569 20.7571C30.7819 19.9542 31.3687 18.7712 31.3687 17.4531C31.3687 15.571 30.1741 13.9629 28.5036 13.3463L31.3116 4.73519C31.4267 4.38195 31.3658 3.99498 31.1475 3.69437C30.9293 3.39375 30.5804 3.21577 30.2089 3.21577H24.78C24.2703 1.36431 22.5727 0 20.5616 0C18.5502 0 16.8515 1.36421 16.3419 3.21577H10.9143C10.5428 3.21577 10.1938 3.39375 9.97564 3.69437C9.75748 3.99498 9.69653 4.38195 9.81158 4.73519L12.6195 13.3463C10.9489 13.9627 9.75442 15.5709 9.75442 17.4531C9.75442 18.7719 10.3417 19.9554 11.2676 20.7584C8.38516 22.3893 5.81712 24.7646 3.87457 27.6306C1.37602 31.3166 0 35.6965 0 39.9633C0 45.3167 2.12539 49.1691 6.31723 51.4134C9.59574 53.1687 14.122 53.9862 20.5616 53.9862C25.9864 53.9862 30.0126 53.409 33.1013 52.1794C33.8975 53.2733 35.187 53.9862 36.6404 53.9862H49.6106C52.0234 53.9862 53.9862 52.0234 53.9862 49.6106C53.9862 48.3402 53.4415 47.1949 52.5739 46.3949C53.4415 45.5947 53.9862 44.4496 53.9862 43.1791C53.9862 41.9087 53.4415 40.7634 52.574 39.9633C53.4415 39.1632 53.9862 38.018 53.9862 36.7476ZM51.6665 30.3161C51.6665 31.4497 50.7442 32.3721 49.6106 32.3721H36.6404C35.5068 32.3721 34.5845 31.4497 34.5845 30.3161C34.5845 29.1825 35.5068 28.2602 36.6404 28.2602H49.6106C50.7442 28.2602 51.6665 29.1825 51.6665 30.3161ZM17.3458 5.53549C17.9864 5.53549 18.5057 5.01619 18.5057 4.37563C18.5057 3.24202 19.428 2.31972 20.5616 2.31972C21.6952 2.31972 22.6175 3.24202 22.6175 4.37563V7.5914C22.6175 8.23195 23.1368 8.75126 23.7773 8.75126C24.4179 8.75126 24.9372 8.23195 24.9372 7.5914V5.53549H28.6107L26.1514 13.0774H14.9718L12.5125 5.53549H17.3458ZM14.1265 15.3972L14.1298 15.3973C14.1324 15.3973 14.1351 15.3971 14.1376 15.3971H26.9853C26.9879 15.3971 26.9906 15.3973 26.9932 15.3973L26.9965 15.3972C28.1285 15.3991 29.0489 16.3206 29.0489 17.453C29.0489 18.5859 28.1276 19.5078 26.9948 19.5087C26.9821 19.5087 26.9695 19.5085 26.9569 19.5088H14.1638C14.1532 19.5085 14.1425 19.5088 14.1318 19.5088H14.13C12.9964 19.5088 12.0742 18.5866 12.0742 17.453C12.0742 16.3206 12.9946 15.3991 14.1265 15.3972ZM20.5616 51.6665C14.5189 51.6665 10.3406 50.9362 7.41214 49.3683C3.98549 47.5337 2.31972 44.4572 2.31972 39.9633C2.31972 36.1558 3.55381 32.238 5.79467 28.932C7.96771 25.726 11.0016 23.2111 14.3559 21.8287H26.7628C29.4199 22.9222 31.8295 24.6908 33.801 26.991C32.8619 27.7941 32.2649 28.9864 32.2649 30.3161C32.2649 31.5866 32.8096 32.7317 33.6772 33.5319C32.8096 34.332 32.2649 35.4772 32.2649 36.7476C32.2649 38.018 32.8096 39.1632 33.6771 39.9633C32.8095 40.7634 32.2649 41.9086 32.2649 43.1791C32.2649 44.4496 32.8096 45.5947 33.6772 46.3949C32.7159 47.2679 32.1474 48.6337 32.2839 50.0088C29.4761 51.1374 25.7151 51.6665 20.5616 51.6665ZM51.6665 49.6106C51.6665 50.7442 50.7442 51.6665 49.6106 51.6665H36.6404C35.5068 51.6665 34.5845 50.7442 34.5845 49.6106C34.5845 48.477 35.5068 47.5547 36.6404 47.5547H49.6106C50.7442 47.5547 51.6665 48.477 51.6665 49.6106ZM51.6665 43.1791C51.6665 44.3127 50.7442 45.2349 49.6106 45.2349H36.6404C35.5068 45.2349 34.5845 44.3127 34.5845 43.1791C34.5845 42.0455 35.5068 41.1231 36.6404 41.1231H49.6106C50.7442 41.1231 51.6665 42.0455 51.6665 43.1791ZM36.6404 38.8034C35.5068 38.8034 34.5845 37.8812 34.5845 36.7476C34.5845 35.614 35.5068 34.6918 36.6404 34.6918H49.6106C50.7442 34.6918 51.6665 35.614 51.6665 36.7476C51.6665 37.8812 50.7442 38.8034 49.6106 38.8034H36.6404Z" fill="black"/>
</g>
</g>
<defs>
<clipPath id="clip0_132_2074">
<rect width="53.9862" height="53.9862" fill="white"/>
</clipPath>
</defs>
</svg>
