<svg width="47" height="49" viewBox="0 0 47 49" fill="none" xmlns="http://www.w3.org/2000/svg">
<path d="M37.2896 40.1251C37.5989 40.8074 37.455 41.6222 36.9243 42.1527C36.2219 42.8552 35.0753 42.8555 34.3727 42.1528L26.6743 34.4545C26.6018 34.3819 26.5157 34.3244 26.4209 34.2851C26.3261 34.2459 26.2246 34.2257 26.122 34.2257C26.0194 34.2257 25.9178 34.2459 25.823 34.2851C25.7283 34.3244 25.6422 34.3819 25.5696 34.4545C25.4971 34.527 25.4395 34.6131 25.4003 34.7079C25.361 34.8027 25.3408 34.9042 25.3408 35.0068C25.3408 35.1094 25.361 35.211 25.4003 35.3058C25.4395 35.4005 25.4971 35.4866 25.5696 35.5592L33.268 43.2575C33.9651 43.9548 33.9651 45.112 33.268 45.8092C32.5674 46.5098 31.417 46.5099 30.7164 45.8093L22.5818 37.6747C22.2768 37.3696 21.7822 37.3696 21.4771 37.6747C21.1721 37.9798 21.1721 38.4744 21.4771 38.7794L27.6173 44.9194C28.3144 45.6166 28.3144 46.7738 27.6173 47.471C26.9167 48.1716 25.7661 48.1717 25.0655 47.4711L18.4894 40.895C18.1844 40.5899 17.6898 40.5899 17.3848 40.895C17.0797 41.2001 17.0797 41.6947 17.3848 41.9997L20.4414 45.0563C21.1438 45.7589 21.1437 46.9055 20.4414 47.6078C19.7389 48.3103 18.5921 48.3103 17.8896 47.6079L7.69394 37.4127L10.8802 21.4189H17.6524L15.2895 23.3918C14.8175 23.7858 14.4518 24.2692 14.2395 24.8154C14.0332 25.3463 13.9749 25.9242 14.1059 26.5248L15.9466 34.9589C16.0437 35.4088 16.5077 35.676 16.945 35.5383C21.8184 34.3159 22.1042 31.0755 22.4143 27.5504C22.418 27.509 22.4594 26.8757 22.4852 26.8329L22.5881 26.8255C22.806 26.8096 23.105 26.8728 23.4724 27.0194C24.2196 27.3176 25.1621 27.9302 26.2133 28.8872L37.2896 40.1251ZM33.0692 22.7537C31.0187 22.5219 28.806 21.6356 26.4046 19.6546C25.7726 19.1332 25.0372 18.8478 24.3115 18.8291C23.6271 18.8115 22.9431 19.0336 22.358 19.5221L16.2904 24.5881C16.0132 24.8195 15.8044 25.0881 15.6921 25.3769C15.5948 25.6273 15.5681 25.9037 15.6317 26.1952L17.2929 33.8071C20.3921 32.7012 20.6162 30.162 20.8578 27.4162C20.8995 26.94 20.8988 26.4489 21.1546 26.0273C21.4327 25.5688 21.8859 25.3125 22.4781 25.2691C22.9196 25.2368 23.4515 25.3357 24.046 25.5729C24.9615 25.9382 26.0739 26.6515 27.2669 27.7372C30.7923 30.9459 34.5305 35.1062 37.9364 38.5618L39.2742 37.2241L36.3604 22.5978C35.3184 22.806 34.224 22.8843 33.0692 22.7537ZM46.9893 36.549L43.6261 19.6669C43.5335 19.2023 43.0776 18.8979 42.613 18.9904L38.2852 19.8526C37.8205 19.9452 37.5161 20.4011 37.6087 20.8656L40.9719 37.7477C41.0644 38.2123 41.5202 38.5168 41.985 38.4241L46.3128 37.562C46.7774 37.4694 47.0818 37.0136 46.9893 36.549ZM8.72069 19.8526L4.39286 18.9904C3.92821 18.8979 3.47235 19.2022 3.37978 19.6669L0.0165928 36.549C-0.0759854 37.0136 0.228312 37.4694 0.693058 37.562L5.02089 38.4241C5.48564 38.5167 5.9414 38.2123 6.03398 37.7477L9.39716 20.8656C9.48974 20.4011 9.18544 19.9452 8.72069 19.8526ZM5.90946 15.6119H14.1537C14.5949 13.5709 15.6886 11.7767 17.1977 10.4502C15.9424 9.29013 14.2671 8.57891 12.4335 8.57891C8.74267 8.57891 5.69208 11.4603 5.42021 15.0847C5.41485 15.1521 5.42355 15.2198 5.44574 15.2837C5.46793 15.3476 5.50313 15.4061 5.54911 15.4557C5.5951 15.5052 5.65087 15.5447 5.7129 15.5716C5.77492 15.5985 5.84186 15.6122 5.90946 15.6119ZM12.4335 7.60234C14.5328 7.60234 16.2347 5.90049 16.2347 3.80117C16.2347 1.70186 14.5328 9.76957e-05 12.4335 9.76957e-05C10.3342 9.76957e-05 8.63232 1.70195 8.63232 3.80117C8.63241 5.90049 10.3343 7.60234 12.4335 7.60234ZM16.0798 17.6286H30.926C31.0029 17.629 31.0791 17.6133 31.1496 17.5827C31.2202 17.5521 31.2837 17.5072 31.336 17.4508C31.3883 17.3944 31.4284 17.3278 31.4536 17.2551C31.4788 17.1824 31.4887 17.1053 31.4826 17.0286C31.1732 12.9048 27.7023 9.62637 23.5028 9.62637C19.3033 9.62637 15.8324 12.9048 15.523 17.0286C15.517 17.1053 15.5269 17.1824 15.5521 17.2551C15.5774 17.3278 15.6174 17.3944 15.6697 17.4508C15.7221 17.5072 15.7855 17.5521 15.8561 17.5827C15.9267 17.6133 16.0028 17.6289 16.0798 17.6286ZM32.8521 15.6119H41.0963C41.3834 15.6119 41.607 15.371 41.5855 15.0846C41.3137 11.4602 38.2631 8.57881 34.5723 8.57881C32.7388 8.57881 31.0634 9.29014 29.808 10.4501C31.3173 11.7767 32.4109 13.5709 32.8521 15.6119ZM34.5724 7.60234C36.6717 7.60234 38.3734 5.90049 38.3734 3.80117C38.3734 1.70186 36.6717 9.76957e-05 34.5724 9.76957e-05C32.473 9.76957e-05 30.7712 1.70195 30.7712 3.80117C30.7712 5.90049 32.473 7.60234 34.5724 7.60234ZM23.5029 8.6499C25.8915 8.6499 27.8278 6.71357 27.8278 4.325C27.8278 1.93643 25.8915 0 23.5029 0C21.1143 0 19.1779 1.93633 19.1779 4.3249C19.1779 6.71348 21.1143 8.6499 23.5029 8.6499Z" fill="white"/>
</svg>
