<svg width="15" height="10" viewBox="0 0 15 10" fill="none" xmlns="http://www.w3.org/2000/svg">
<path d="M14.0604 1.07299C14.0642 0.865371 14.0034 0.66169 13.8865 0.490131C13.7695 0.318571 13.602 0.187617 13.4074 0.115388C13.2127 0.0431592 13.0003 0.0332271 12.7998 0.0869672C12.5992 0.140707 12.4203 0.255462 12.2878 0.415351L7.04935 6.53441L1.81093 0.411571C1.72938 0.299713 1.62554 0.205972 1.50595 0.136264C1.38635 0.0665564 1.25361 0.0223955 1.11609 0.00656836C0.978576 -0.00925876 0.839271 0.00359177 0.706969 0.0443086C0.574668 0.0850255 0.452243 0.152725 0.347421 0.243134C0.242599 0.333543 0.157655 0.444699 0.0979509 0.569587C0.0382471 0.694475 0.00507927 0.830383 0.000540733 0.968734C-0.0039978 1.10708 0.0201893 1.24487 0.071579 1.37341C0.122969 1.50194 0.200445 1.61842 0.299116 1.71551L6.28211 8.71519C6.37613 8.82528 6.49291 8.91367 6.62438 8.97427C6.75586 9.03488 6.89891 9.06627 7.04368 9.06627C7.18845 9.06627 7.33151 9.03488 7.46298 8.97427C7.59446 8.91367 7.71123 8.82528 7.80526 8.71519L13.8071 1.71551C13.9651 1.53813 14.0548 1.31041 14.0604 1.07299Z" fill="#5E5EE9"/>
</svg>
