<svg width="46" height="43" viewBox="0 0 46 43" fill="none" xmlns="http://www.w3.org/2000/svg">
<path d="M31.1959 18.0909C26.4791 13.3741 18.8326 13.3741 14.1158 18.0909C9.39898 22.8077 9.39898 30.4541 14.1158 35.1709C18.8326 39.8877 26.4791 39.8877 31.1959 35.1709C35.9029 30.4541 35.9029 22.8077 31.1959 18.0909ZM17.3482 39.1162C15.4732 38.3155 13.8033 37.1045 12.4752 35.5909L9.41852 40.8838L12.524 40.3955C12.7877 40.3467 13.0611 40.4346 13.2369 40.6592L15.1314 42.9834L17.3482 39.1162ZM32.8365 35.5909C31.4986 37.1045 29.8384 38.3155 27.9537 39.1162L30.1802 42.9737L32.0748 40.6494C32.2505 40.4346 32.524 40.3369 32.7877 40.3858L35.8931 40.8741L32.8365 35.5909ZM27.4654 21.8213C24.8091 19.1651 20.5025 19.1651 17.8463 21.8213C15.19 24.4776 15.19 28.7842 17.8463 31.4405C20.5025 34.0967 24.8091 34.0967 27.4654 31.4405C30.1216 28.7842 30.1216 24.4776 27.4654 21.8213ZM22.6509 18.335C27.231 18.335 30.9517 22.0459 30.9517 26.6358C30.9517 31.2159 27.2408 34.9366 22.6509 34.9366C18.0709 34.9366 14.3502 31.2256 14.3502 26.6358C14.3599 22.0459 18.0709 18.335 22.6509 18.335ZM18.7838 27.1827C18.5787 26.8213 18.6959 26.3721 19.0572 26.167C19.4185 25.9619 19.8677 26.0791 20.0728 26.4405L21.2642 28.501L25.3463 24.419C25.6392 24.126 26.1177 24.126 26.4009 24.419C26.6939 24.7119 26.6939 25.1807 26.4009 25.4737L21.6353 30.2393C21.2935 30.5811 20.7076 30.5127 20.4634 30.083L18.7838 27.1827ZM39.8873 7.46586L41.3619 10.5225L44.7213 10.9815C45.2974 11.0596 45.5025 11.7627 45.1021 12.1534L42.6509 14.4971L43.2564 17.8369C43.3541 18.4034 42.7584 18.8233 42.2603 18.5596L39.272 16.958L36.2838 18.5596C35.7955 18.8233 35.1607 18.4131 35.2974 17.7979L35.8931 14.4971L33.442 12.1534C33.0318 11.7627 33.2564 11.0596 33.8326 10.9815L37.1822 10.5225L38.6568 7.46586C38.9009 6.94828 39.6334 6.95804 39.8873 7.46586ZM6.64508 7.46586L8.11969 10.5225L11.4791 10.9815C12.0455 11.0596 12.2603 11.7627 11.8599 12.1534L9.40875 14.4971L10.0142 17.8369C10.1119 18.4034 9.51617 18.8233 9.02789 18.5596L6.03961 16.958L3.05133 18.5596C2.56305 18.8233 1.93805 18.4131 2.065 17.7979L2.6607 14.4971L0.20953 12.1534C-0.200626 11.7627 0.0239835 11.0596 0.600155 10.9815L3.94977 10.5225L5.42437 7.46586C5.66852 6.94828 6.40094 6.95804 6.64508 7.46586ZM23.2662 0.385778L24.7408 3.44242L28.1002 3.9014C28.6666 3.97953 28.8814 4.68265 28.481 5.07328L26.0298 7.41703L26.6353 10.7569C26.733 11.3233 26.1373 11.7432 25.6392 11.4795L22.6509 9.8682L19.6627 11.4698C19.1744 11.7334 18.5494 11.3233 18.6763 10.708L19.272 7.40726L16.8209 5.06351C16.4107 4.67289 16.6353 3.96976 17.2115 3.89164L20.5611 3.43265L22.0357 0.376012C22.2896 -0.131801 23.022 -0.122035 23.2662 0.385778Z" fill="white"/>
</svg>
