<svg width="253" height="83" viewBox="0 0 253 83" fill="none" xmlns="http://www.w3.org/2000/svg">
<path d="M0 41.2695C0 28.4484 0 22.0104 2.09216 16.9893C3.47564 13.6489 5.50425 10.6138 8.06202 8.05751C10.6198 5.50116 13.6566 3.47369 16.9988 2.09099C22.0227 0 28.4644 0 41.2926 0C54.1209 0 60.5625 0 65.5865 2.09099C68.9287 3.47369 71.9655 5.50116 74.5232 8.05751C77.081 10.6138 79.1096 13.6489 80.4931 16.9893C82.5853 22.0104 82.5853 28.4484 82.5853 41.2695C82.5853 54.0906 82.5853 60.5286 80.4931 65.5497C79.1096 68.8901 77.081 71.9252 74.5232 74.4815C71.9655 77.0378 68.9287 79.0653 65.5865 80.448C60.5625 82.539 54.1209 82.539 41.2926 82.539C28.4644 82.539 22.0227 82.539 16.9988 80.448C13.6566 79.0653 10.6198 77.0378 8.06202 74.4815C5.50425 71.9252 3.47564 68.8901 2.09216 65.5497C0 60.5286 0 54.0906 0 41.2695Z" fill="white"/>
<path d="M106.976 39.8936L98.8549 29.2323V39.8936H92.9775V15.751H98.8549V26.3435L106.907 15.751H113.789L104.429 27.5816L114.064 39.9624L106.976 39.8936Z" fill="white"/>
<path d="M130.664 39.8936L125.64 30.7868H124.263V39.8936H118.372V15.7509H128.255C129.927 15.7005 131.586 16.0445 133.1 16.7552C134.368 17.3397 135.425 18.3003 136.128 19.5065C136.802 20.6775 137.149 22.0076 137.133 23.3583C137.153 24.9548 136.635 26.5116 135.661 27.7772C134.687 29.0427 133.314 29.9431 131.765 30.3328L137.339 39.9624L130.664 39.8936ZM124.236 26.6186H127.883C128.758 26.686 129.625 26.404 130.292 25.8345C130.577 25.5377 130.797 25.1853 130.939 24.7995C131.081 24.4136 131.142 24.0026 131.118 23.5921C131.14 23.1944 131.078 22.7964 130.935 22.4243C130.793 22.0521 130.574 21.7141 130.292 21.4324C129.964 21.1453 129.582 20.9268 129.169 20.7898C128.755 20.6527 128.318 20.5999 127.883 20.6345H124.236V26.6186Z" fill="white"/>
<path d="M148.062 20.4695V25.353H155.935V29.8927H148.062V35.1889H156.912V39.8936H142.171V15.751H156.912V20.4695H148.062Z" fill="white"/>
<path d="M179.54 15.751V20.4695H173.14V39.8936H167.263V20.4695H160.862V15.751H179.54Z" fill="white"/>
<path d="M195.3 40.1408C193.108 40.1452 190.952 39.5862 189.038 38.5175C187.171 37.4728 185.614 35.9543 184.523 34.1154C183.412 32.1682 182.842 29.9598 182.871 27.7186C182.837 25.4855 183.408 23.2847 184.523 21.3494C185.61 19.5077 187.169 17.9883 189.038 16.9473C190.953 15.8871 193.111 15.342 195.3 15.3653C197.477 15.3371 199.623 15.8827 201.522 16.9473C203.394 17.9701 204.943 19.4947 205.995 21.3494C207.111 23.2847 207.681 25.4855 207.647 27.7186C207.676 29.9598 207.106 32.1682 205.995 34.1154C204.927 35.958 203.382 37.4787 201.522 38.5175C199.624 39.5875 197.48 40.1468 195.3 40.1408ZM195.3 34.7757C196.163 34.8112 197.023 34.6571 197.82 34.3243C198.617 33.9916 199.33 33.4882 199.911 32.8498C201.122 31.438 201.748 29.6173 201.659 27.7599C201.76 25.9007 201.134 24.0753 199.911 22.67C199.332 22.0293 198.619 21.5244 197.821 21.1915C197.024 20.8586 196.163 20.7058 195.3 20.7441C194.431 20.7026 193.562 20.8496 192.754 21.1749C191.947 21.5002 191.219 21.9961 190.621 22.6287C189.411 24.0559 188.795 25.8924 188.9 27.7599C188.802 29.6223 189.417 31.4523 190.621 32.8773C191.218 33.5117 191.945 34.0097 192.753 34.3374C193.561 34.665 194.43 34.8145 195.3 34.7757Z" fill="white"/>
<path d="M221.04 40.1411C219.415 40.1662 217.802 39.8717 216.291 39.2744C214.955 38.7497 213.789 37.8696 212.919 36.7295C212.071 35.5455 211.614 34.127 211.611 32.6713H217.874C217.915 33.4494 218.244 34.1846 218.796 34.7348C219.378 35.2073 220.112 35.4518 220.861 35.4226C221.594 35.4658 222.321 35.2624 222.925 34.8448C223.176 34.642 223.375 34.3832 223.506 34.0892C223.638 33.7952 223.698 33.4744 223.682 33.1528C223.69 32.8774 223.639 32.6035 223.532 32.3496C223.426 32.0957 223.265 31.8676 223.063 31.6808C222.643 31.2629 222.142 30.9352 221.59 30.7179C220.784 30.3755 219.956 30.0861 219.113 29.8512C217.803 29.4645 216.524 28.9817 215.286 28.4068C214.283 27.9033 213.411 27.1733 212.74 26.2745C211.993 25.1994 211.621 23.9089 211.68 22.6015C211.634 21.5925 211.831 20.587 212.255 19.6701C212.679 18.7531 213.317 17.9515 214.116 17.3328C216.014 16.0763 218.24 15.4063 220.517 15.4062C222.793 15.4062 225.019 16.0763 226.917 17.3328C227.726 17.9593 228.383 18.7618 228.836 19.6794C229.289 20.5971 229.527 21.6058 229.532 22.6291H223.173C223.172 22.2811 223.093 21.9378 222.943 21.6238C222.794 21.3098 222.576 21.0329 222.306 20.8132C221.743 20.3364 221.02 20.0907 220.283 20.1254C219.657 20.0962 219.043 20.3024 218.562 20.7031C218.335 20.9056 218.158 21.1571 218.044 21.4384C217.929 21.7197 217.881 22.0234 217.901 22.3264C217.9 22.701 218.002 23.0688 218.196 23.3892C218.391 23.7095 218.67 23.9701 219.002 24.1423C220.1 24.7155 221.253 25.1764 222.444 25.5179C223.739 25.9341 225.004 26.4398 226.229 27.0311C227.232 27.5158 228.105 28.2327 228.775 29.1221C229.524 30.15 229.902 31.401 229.849 32.6713C229.859 33.9959 229.486 35.2951 228.775 36.4131C228.045 37.5802 226.994 38.5118 225.747 39.0956C224.281 39.8072 222.669 40.1653 221.04 40.1411Z" fill="white"/>
<path d="M243.626 40.141C242.002 40.1661 240.389 39.8716 238.878 39.2743C237.542 38.7496 236.376 37.8695 235.506 36.7294C234.658 35.5454 234.201 34.1269 234.198 32.6712H240.461C240.501 33.4525 240.835 34.1898 241.397 34.7347C241.976 35.2106 242.712 35.4555 243.461 35.4225C244.194 35.4616 244.92 35.2585 245.526 34.8447C245.774 34.6398 245.971 34.3806 246.102 34.0871C246.234 33.7937 246.295 33.4739 246.283 33.1527C246.288 32.8778 246.235 32.605 246.128 32.3516C246.022 32.0982 245.863 31.8697 245.664 31.6807C245.236 31.2656 244.731 30.9385 244.177 30.7178C243.371 30.3755 242.543 30.086 241.7 29.8511C240.39 29.4644 239.111 28.9816 237.873 28.4067C236.882 27.903 236.023 27.1724 235.368 26.2744C234.611 25.2037 234.233 23.9111 234.294 22.6014C234.247 21.5909 234.446 20.5839 234.872 19.6665C235.299 18.7491 235.941 17.9484 236.744 17.3327C238.582 15.9836 240.826 15.3039 243.103 15.4068C245.403 15.2981 247.671 15.9775 249.531 17.3327C250.34 17.9606 250.997 18.763 251.452 19.6801C251.908 20.5972 252.15 21.6053 252.16 22.629H245.787C245.785 22.2826 245.708 21.9409 245.56 21.6274C245.413 21.3139 245.199 21.036 244.934 20.8131C244.365 20.3378 243.638 20.0925 242.897 20.1253C242.271 20.0961 241.658 20.3023 241.176 20.703C240.952 20.9068 240.778 21.1589 240.666 21.4401C240.554 21.7214 240.507 22.0244 240.53 22.3263C240.525 22.6998 240.625 23.0672 240.817 23.3878C241.009 23.7083 241.286 23.9694 241.617 24.1422C242.715 24.7155 243.867 25.1763 245.058 25.5178C246.353 25.934 247.618 26.4397 248.843 27.031C249.848 27.5192 250.724 28.2352 251.403 29.122C252.142 30.154 252.515 31.4032 252.463 32.6712C252.477 33.9944 252.109 35.2936 251.403 36.413C250.67 37.5771 249.62 38.5078 248.375 39.0955C246.896 39.81 245.269 40.1681 243.626 40.141Z" fill="white"/>
<path d="M103.576 52.4541V55.1091H99.226V68.7831H95.9502V55.1091H91.5869V52.4541H103.576Z" fill="white"/>
<path d="M109.701 55.1082V59.2352H115.206V61.8351H109.701V66.1547H115.908V68.7822H106.425V52.4395H115.908V55.1082H109.701Z" fill="white"/>
<path d="M118.551 60.5978C118.523 59.0913 118.898 57.6046 119.639 56.292C120.335 55.0453 121.364 54.0166 122.612 53.3206C124.009 52.5642 125.584 52.1959 127.171 52.254C128.759 52.3121 130.303 52.7944 131.641 53.6507C133.006 54.5868 134.019 55.9524 134.518 57.5301H130.76C130.424 56.7992 129.872 56.1893 129.177 55.783C128.465 55.3772 127.657 55.1728 126.837 55.1915C125.937 55.1784 125.05 55.4166 124.277 55.8793C123.514 56.3269 122.897 56.9864 122.502 57.7777C122.083 58.6676 121.876 59.6421 121.896 60.6253C121.883 61.5989 122.09 62.5629 122.502 63.4454C122.897 64.2232 123.497 64.8792 124.236 65.3438C125.014 65.7916 125.899 66.0198 126.796 66.0041C127.615 66.0228 128.424 65.8183 129.136 65.4125C129.847 65.0021 130.414 64.3824 130.76 63.638H134.532C134.037 65.2253 133.024 66.6009 131.655 67.5448C130.232 68.4824 128.555 68.9624 126.851 68.9205C125.376 68.9435 123.92 68.5833 122.626 67.875C121.384 67.1711 120.357 66.1442 119.652 64.9036C118.907 63.5923 118.527 62.1055 118.551 60.5978Z" fill="white"/>
<path d="M151.324 52.4541V68.7831H148.048V61.9048H141.056V68.7831H137.78V52.4541H141.056V59.1535H148.048V52.4541H151.324Z" fill="white"/>
<path d="M168.997 68.7822H165.721L158.289 57.5844V68.7822H155.013V52.4395H158.289L165.707 63.6648V52.4395H168.983L168.997 68.7822Z" fill="white"/>
<path d="M180.311 68.9479C178.838 68.9621 177.386 68.5923 176.099 67.8749C174.835 67.1776 173.784 66.1507 173.058 64.9035C172.294 63.5887 171.903 62.0904 171.929 60.5702C171.909 59.068 172.299 57.5888 173.058 56.2919C173.78 55.038 174.832 54.0056 176.099 53.3068C177.389 52.5938 178.838 52.2197 180.311 52.2197C181.785 52.2197 183.234 52.5938 184.523 53.3068C185.783 54.0067 186.826 55.0394 187.538 56.2919C188.255 57.5862 188.612 59.0496 188.57 60.5289C188.593 62.0471 188.208 63.5437 187.455 64.8622C186.745 66.1231 185.702 67.1651 184.441 67.8749C183.178 68.5785 181.757 68.9479 180.311 68.9479ZM180.311 66.0315C181.217 66.055 182.111 65.8315 182.899 65.385C183.657 64.923 184.268 64.2551 184.661 63.4591C185.094 62.5448 185.302 61.54 185.266 60.5289C185.285 59.5429 185.068 58.5667 184.633 57.6813C184.244 56.8905 183.631 56.2307 182.871 55.7829C182.084 55.3364 181.189 55.1129 180.284 55.1364C179.366 55.1149 178.458 55.3381 177.655 55.7829C176.885 56.2572 176.276 56.9523 175.907 57.7776C175.466 58.6608 175.249 59.6386 175.274 60.6252C175.249 61.6207 175.466 62.6073 175.907 63.5003C176.294 64.2954 176.901 64.9635 177.655 65.4262C178.47 65.8615 179.388 66.0705 180.311 66.0315Z" fill="white"/>
<path d="M194.819 66.1831H200.201V68.7831H191.529V52.4541H194.819V66.1831Z" fill="white"/>
<path d="M210.331 68.9479C208.857 68.9621 207.406 68.5923 206.119 67.8749C204.855 67.1776 203.804 66.1507 203.077 64.9035C202.313 63.5887 201.923 62.0904 201.948 60.5702C201.928 59.068 202.318 57.5888 203.077 56.2919C203.799 55.038 204.851 54.0056 206.119 53.3068C207.408 52.5938 208.857 52.2197 210.331 52.2197C211.804 52.2197 213.254 52.5938 214.543 53.3068C215.802 54.0067 216.845 55.0394 217.557 56.2919C218.316 57.5888 218.706 59.068 218.686 60.5702C218.705 62.0896 218.315 63.5863 217.557 64.9035C216.841 66.1492 215.799 67.1764 214.543 67.8749C213.256 68.5923 211.804 68.9621 210.331 68.9479ZM210.331 66.0178C211.236 66.0413 212.131 65.8178 212.919 65.3712C213.677 64.9093 214.288 64.2413 214.68 63.4453C215.115 62.55 215.332 61.565 215.313 60.5702C215.336 59.606 215.133 58.6498 214.722 57.7776C214.332 56.9868 213.72 56.327 212.96 55.8792C212.172 55.4327 211.277 55.2091 210.372 55.2327C209.454 55.2112 208.547 55.4344 207.743 55.8792C206.972 56.3215 206.35 56.9821 205.954 57.7776C205.513 58.6608 205.296 59.6386 205.321 60.6252C205.296 61.6207 205.513 62.6073 205.954 63.5003C206.341 64.2954 206.948 64.9635 207.702 65.4262C208.509 65.8567 209.416 66.0656 210.331 66.0315V66.0178Z" fill="white"/>
<path d="M232.959 57.3647C232.605 56.7098 232.07 56.1703 231.418 55.8102C230.712 55.4309 229.92 55.2413 229.119 55.2599C228.217 55.2431 227.327 55.4713 226.545 55.9202C225.796 56.3584 225.189 57.0032 224.797 57.7774C224.368 58.6303 224.151 59.574 224.164 60.5287C224.139 61.5153 224.356 62.493 224.797 63.3763C225.198 64.1611 225.82 64.8115 226.586 65.2471C227.402 65.7002 228.324 65.9281 229.257 65.9075C230.363 65.9528 231.45 65.6069 232.326 64.9307C233.145 64.2167 233.697 63.2471 233.895 62.1794H228.279V59.7033H237.116V62.5646C236.908 63.7074 236.437 64.786 235.74 65.7149C235.017 66.6982 234.074 67.499 232.987 68.0535C231.813 68.643 230.515 68.9403 229.202 68.9201C227.708 68.9452 226.234 68.5851 224.921 67.8746C223.669 67.1758 222.631 66.1484 221.92 64.9032C221.215 63.5774 220.847 62.0989 220.847 60.5974C220.847 59.096 221.215 57.6175 221.92 56.2917C222.624 55.0408 223.663 54.0116 224.921 53.3203C226.328 52.5728 227.908 52.2097 229.501 52.2677C231.093 52.3257 232.642 52.8026 233.992 53.6504C235.318 54.5444 236.291 55.8723 236.744 57.4059L232.959 57.3647Z" fill="white"/>
<path d="M253 52.4541L247.494 63.1016V68.7831H244.219V63.1016L238.713 52.4541H242.402L245.925 59.9239L249.408 52.4541H253Z" fill="white"/>
<path d="M35.2639 67.8879L6.88208 41.2691L35.2639 15.7783V67.8879Z" fill="#5D59EA"/>
<path d="M57.8924 23.1938L42.8206 9.62988V33.7313L57.8924 23.1938Z" fill="#5D59EA"/>
<path d="M41.8157 72.91L57.8923 60.8593L41.8157 48.8086V72.91Z" fill="#5D59EA"/>
<path d="M74.3268 41.2687L64.5542 32.3544V51.0083L74.3268 41.2687ZM61.8013 51.6548V31.8867L48.0371 41.7639L61.8013 51.6548Z" fill="#5D59EA"/>
<path d="M63.1775 54.3244L45.6006 41.7647L63.1775 29.2188V54.3244ZM50.3355 41.7647L60.4246 48.9868V34.5563L50.3355 41.7647ZM63.1775 54.3244V29.2188L76.2535 41.2694L63.1775 54.3244ZM65.9303 35.5055V47.68L72.2756 41.352L65.9303 35.5055Z" fill="#5D59EA"/>
</svg>
