<svg width="52" height="52" viewBox="0 0 52 52" fill="none" xmlns="http://www.w3.org/2000/svg">
<path d="M25.9432 33.8159C25.9017 33.7108 25.8382 33.6158 25.7569 33.5373C25.6756 33.4588 25.5784 33.3986 25.4719 33.3609L18.9719 30.9234C18.7816 30.8521 18.5713 30.8552 18.3831 30.932C18.1949 31.0088 18.0425 31.1537 17.9563 31.3378L10.6438 46.7753C10.5057 47.0678 10.5544 47.4171 10.7738 47.6609C10.9851 47.9046 11.3263 47.994 11.6351 47.8965L15.7869 46.5153L17.1276 49.8628C17.1862 50.0101 17.2867 50.1371 17.4166 50.2281C17.5465 50.3191 17.7003 50.37 17.8588 50.3746H17.8832C18.2001 50.3746 18.4844 50.1959 18.6144 49.9115L25.9269 34.474C25.9757 34.3731 26.0024 34.2629 26.0052 34.1508C26.008 34.0387 25.9869 33.9273 25.9432 33.824V33.8159Z" fill="#0511F3"/>
<path d="M41.3563 46.7757L34.0438 31.3382C33.9568 31.1547 33.8044 31.0104 33.6164 30.9337C33.4285 30.857 33.2186 30.8535 33.0281 30.9238L26.5281 33.3613C26.3169 33.4426 26.1463 33.6051 26.0569 33.8163C25.9675 34.0276 25.9756 34.2632 26.0731 34.4663L33.3856 49.9038C33.5238 50.1882 33.8081 50.3669 34.1169 50.3669H34.1413C34.2998 50.3623 34.4535 50.3114 34.5835 50.2204C34.7134 50.1294 34.8139 50.0024 34.8725 49.8551L36.2131 46.5076L40.365 47.8888C40.6738 47.9944 41.015 47.8969 41.2263 47.6532C41.4456 47.4094 41.4944 47.0601 41.3563 46.7676V46.7757Z" fill="#0511F3"/>
<path d="M42.4857 17.5661C41.9169 17.168 41.1369 16.6236 41.0475 16.2823C40.95 15.9086 41.3563 15.0148 41.6569 14.373C42.2013 13.1948 42.7619 11.9842 42.1769 10.9767C41.5838 9.95295 40.2432 9.83107 38.935 9.71733C38.2282 9.65232 37.2694 9.57107 37.0013 9.30295C36.7332 9.03482 36.6519 8.07607 36.5869 7.3692C36.4732 6.0692 36.3513 4.72045 35.3275 4.12732C34.32 3.54232 33.1013 4.10295 31.9313 4.64732C31.2813 4.94795 30.3957 5.36232 30.0138 5.2567C29.6725 5.16732 29.1282 4.38732 28.73 3.81857C28.0069 2.7867 27.1863 1.6167 25.9838 1.6167C24.7813 1.6167 23.9607 2.7867 23.2375 3.81857C22.8394 4.38732 22.295 5.1592 21.9538 5.2567C21.5719 5.36232 20.6863 4.94795 20.0363 4.64732C18.8582 4.10295 17.6475 3.54232 16.64 4.12732C15.6163 4.72045 15.4944 6.06107 15.3807 7.3692C15.3157 8.07607 15.2344 9.03482 14.9663 9.30295C14.6982 9.57107 13.7394 9.65232 13.0325 9.71733C11.7325 9.83107 10.3838 9.95295 9.79065 10.9767C9.20565 11.9842 9.76628 13.203 10.3107 14.373C10.6113 15.023 11.0257 15.9086 10.92 16.2823C10.8307 16.6236 10.0507 17.168 9.4819 17.5661C8.45003 18.2892 7.28003 19.1098 7.28003 20.3205C7.28003 21.5311 8.45003 22.3436 9.4819 23.0667C10.0507 23.4648 10.8307 24.0092 10.92 24.3505C11.0175 24.7242 10.6113 25.618 10.3107 26.2598C9.76628 27.438 9.20565 28.6486 9.79065 29.6561C10.3838 30.6798 11.7244 30.8017 13.0325 30.9154C13.7394 30.9804 14.6982 31.0617 14.9663 31.3298C15.2344 31.598 15.3157 32.5567 15.3807 33.2636C15.4944 34.5636 15.6163 35.9123 16.64 36.5055C17.6557 37.0905 18.8663 36.5298 20.0363 35.9855C20.6863 35.6848 21.5638 35.2705 21.9457 35.3761C22.2869 35.4655 22.8313 36.2455 23.2294 36.8142C23.9525 37.8461 24.7732 39.0161 25.9757 39.0161C27.1782 39.0161 27.9988 37.8461 28.73 36.8142C29.1282 36.2455 29.6725 35.4736 30.0138 35.3761C30.3875 35.2786 31.2813 35.6848 31.9313 35.9855C33.1094 36.5298 34.32 37.0905 35.3275 36.5055C36.3513 35.9123 36.4732 34.5717 36.5869 33.2636C36.6519 32.5567 36.7332 31.598 37.0013 31.3298C37.2694 31.0617 38.2282 30.9804 38.935 30.9154C40.235 30.8017 41.5838 30.6798 42.1769 29.6561C42.7619 28.6486 42.2013 27.4298 41.6569 26.2598C41.3563 25.6098 40.9419 24.7242 41.0475 24.3505C41.1369 24.0092 41.9169 23.4648 42.4857 23.0667C43.5175 22.3436 44.6875 21.523 44.6875 20.3123C44.6875 19.1017 43.5175 18.2892 42.4857 17.5661Z" fill="#E6E7E8"/>
<path d="M26 31.6875C32.2822 31.6875 37.375 26.5947 37.375 20.3125C37.375 14.0303 32.2822 8.9375 26 8.9375C19.7178 8.9375 14.625 14.0303 14.625 20.3125C14.625 26.5947 19.7178 31.6875 26 31.6875Z" fill="#666DF2"/>
<path d="M23.5626 24.3749C23.3513 24.3749 23.1482 24.2936 22.9857 24.1392L19.7357 20.8892C19.5838 20.7373 19.4984 20.5313 19.4984 20.3164C19.4984 20.1016 19.5838 19.8955 19.7357 19.7436C19.8876 19.5917 20.0936 19.5063 20.3085 19.5063C20.5233 19.5063 20.7294 19.5917 20.8813 19.7436L23.5544 22.4167L30.2901 15.6811C30.3653 15.6059 30.4546 15.5462 30.5529 15.5055C30.6511 15.4648 30.7565 15.4438 30.8629 15.4438C30.9692 15.4438 31.0746 15.4648 31.1729 15.5055C31.2712 15.5462 31.3605 15.6059 31.4357 15.6811C31.5109 15.7563 31.5706 15.8456 31.6113 15.9439C31.652 16.0422 31.6729 16.1475 31.6729 16.2539C31.6729 16.3603 31.652 16.4656 31.6113 16.5639C31.5706 16.6622 31.5109 16.7515 31.4357 16.8267L24.1232 24.1392C23.9607 24.3017 23.7576 24.3749 23.5463 24.3749H23.5626Z" fill="white"/>
</svg>
