<svg width="184" height="60" viewBox="0 0 184 60" fill="none" xmlns="http://www.w3.org/2000/svg">
<g clip-path="url(#clip0_102_4430)">
<path d="M0 30C0 20.68 0 16 1.52085 12.35C2.52654 9.92181 4.0012 7.71551 5.86052 5.85723C7.71984 3.99896 9.92737 2.52513 12.3569 1.52C16.009 0 20.6916 0 30.0168 0C39.342 0 44.0247 0 47.6767 1.52C50.1063 2.52513 52.3138 3.99896 54.1731 5.85723C56.0324 7.71551 57.5071 9.92181 58.5128 12.35C60.0336 16 60.0336 20.68 60.0336 30C60.0336 39.32 60.0336 44 58.5128 47.65C57.5071 50.0782 56.0324 52.2845 54.1731 54.1428C52.3138 56.001 50.1063 57.4749 47.6767 58.48C44.0247 60 39.342 60 30.0168 60C20.6916 60 16.009 60 12.3569 58.48C9.92737 57.4749 7.71984 56.001 5.86052 54.1428C4.0012 52.2845 2.52654 50.0782 1.52085 47.65C0 44 0 39.32 0 30Z" fill="white"/>
<path d="M77.7636 29L71.8603 21.25V29H67.5879V11.45H71.8603V19.15L77.7136 11.45H82.7164L75.9126 20.05L82.9165 29.05L77.7636 29Z" fill="black"/>
<path d="M94.9831 29L91.3311 22.38H90.3305V29H86.0481V11.45H93.2321C94.4472 11.4133 95.6538 11.6634 96.7541 12.18C97.6759 12.6049 98.4445 13.3032 98.9553 14.18C99.4449 15.0313 99.6972 15.9982 99.6857 16.98C99.7006 18.1406 99.3236 19.2722 98.6155 20.1922C97.9074 21.1122 96.9097 21.7667 95.7836 22.05L99.8358 29.05L94.9831 29ZM90.3105 19.35H92.962C93.5981 19.399 94.2277 19.194 94.713 18.78C94.9199 18.5643 95.0801 18.3081 95.1834 18.0276C95.2867 17.7472 95.3309 17.4484 95.3133 17.15C95.3293 16.8608 95.2841 16.5715 95.1806 16.301C95.0772 16.0305 94.9178 15.7848 94.713 15.58C94.4747 15.3713 94.1969 15.2125 93.8962 15.1129C93.5955 15.0132 93.2778 14.9749 92.962 15H90.3105V19.35Z" fill="black"/>
<path d="M107.63 14.88V18.43H113.353V21.73H107.63V25.58H114.064V29H103.348V11.45H114.064V14.88H107.63Z" fill="black"/>
<path d="M130.513 11.45V14.88H125.861V29H121.588V14.88H116.936V11.45H130.513Z" fill="black"/>
<path d="M141.969 29.18C140.376 29.1832 138.808 28.7769 137.417 28C136.06 27.2406 134.928 26.1367 134.135 24.8C133.328 23.3845 132.913 21.7792 132.934 20.15C132.909 18.5267 133.324 16.9269 134.135 15.52C134.926 14.1812 136.058 13.0767 137.417 12.32C138.809 11.5493 140.378 11.1531 141.969 11.17C143.552 11.1495 145.112 11.5462 146.492 12.32C147.853 13.0635 148.979 14.1718 149.744 15.52C150.555 16.9269 150.969 18.5267 150.945 20.15C150.966 21.7792 150.551 23.3845 149.744 24.8C148.967 26.1394 147.844 27.2449 146.492 28C145.112 28.7778 143.554 29.1844 141.969 29.18ZM141.969 25.28C142.597 25.3058 143.222 25.1938 143.801 24.9519C144.38 24.71 144.899 24.3441 145.321 23.88C146.202 22.8537 146.656 21.5302 146.592 20.18C146.665 18.8285 146.21 17.5016 145.321 16.48C144.9 16.0143 144.382 15.6473 143.802 15.4052C143.223 15.1632 142.597 15.0522 141.969 15.08C141.337 15.0499 140.706 15.1567 140.119 15.3932C139.531 15.6296 139.002 15.9901 138.568 16.45C137.688 17.4875 137.241 18.8225 137.317 20.18C137.245 21.5339 137.692 22.8641 138.568 23.9C139.002 24.3612 139.531 24.7232 140.118 24.9613C140.705 25.1995 141.336 25.3082 141.969 25.28Z" fill="black"/>
<path d="M160.68 29.18C159.499 29.1982 158.326 28.9842 157.228 28.55C156.257 28.1685 155.41 27.5288 154.777 26.7C154.161 25.8393 153.828 24.8082 153.826 23.75H158.379C158.409 24.3156 158.648 24.8501 159.049 25.25C159.472 25.5934 160.005 25.7712 160.55 25.75C161.083 25.7814 161.611 25.6336 162.051 25.33C162.233 25.1826 162.377 24.9944 162.473 24.7807C162.569 24.567 162.612 24.3338 162.601 24.1C162.607 23.8998 162.57 23.7007 162.492 23.5162C162.414 23.3316 162.298 23.1658 162.151 23.03C161.845 22.7262 161.481 22.488 161.08 22.33C160.494 22.0811 159.893 21.8707 159.279 21.7C158.327 21.4189 157.398 21.0679 156.498 20.65C155.769 20.284 155.135 19.7533 154.647 19.1C154.104 18.3184 153.833 17.3803 153.876 16.43C153.843 15.6965 153.986 14.9656 154.294 14.299C154.602 13.6325 155.066 13.0497 155.647 12.6C157.027 11.6866 158.645 11.1995 160.3 11.1995C161.955 11.1995 163.573 11.6866 164.952 12.6C165.541 13.0554 166.018 13.6388 166.347 14.3058C166.677 14.9729 166.85 15.7061 166.853 16.45H162.231C162.23 16.1971 162.173 15.9475 162.064 15.7192C161.955 15.491 161.797 15.2897 161.601 15.13C161.191 14.7834 160.666 14.6048 160.13 14.63C159.675 14.6088 159.229 14.7587 158.879 15.05C158.714 15.1972 158.585 15.38 158.502 15.5845C158.419 15.7889 158.384 16.0097 158.399 16.23C158.398 16.5023 158.472 16.7696 158.613 17.0025C158.754 17.2354 158.957 17.4249 159.199 17.55C159.997 17.9667 160.835 18.3018 161.701 18.55C162.642 18.8526 163.562 19.2201 164.452 19.65C165.181 20.0023 165.816 20.5234 166.303 21.17C166.848 21.9172 167.123 22.8266 167.084 23.75C167.091 24.7128 166.82 25.6573 166.303 26.47C165.773 27.3184 165.008 27.9956 164.102 28.42C163.036 28.9373 161.864 29.1976 160.68 29.18Z" fill="black"/>
<path d="M177.099 29.18C175.918 29.1983 174.745 28.9842 173.647 28.55C172.676 28.1686 171.828 27.5288 171.196 26.7C170.58 25.8393 170.247 24.8082 170.245 23.75H174.798C174.827 24.318 175.07 24.8539 175.478 25.25C175.9 25.596 176.434 25.774 176.979 25.75C177.512 25.7784 178.039 25.6308 178.48 25.33C178.66 25.1811 178.803 24.9926 178.899 24.7793C178.994 24.566 179.039 24.3335 179.03 24.1C179.033 23.9002 178.995 23.7019 178.918 23.5177C178.84 23.3334 178.725 23.1674 178.58 23.03C178.269 22.7283 177.902 22.4904 177.499 22.33C176.913 22.0812 176.312 21.8707 175.698 21.7C174.746 21.4189 173.817 21.0679 172.917 20.65C172.196 20.2839 171.572 19.7528 171.096 19.1C170.545 18.3217 170.271 17.382 170.315 16.43C170.281 15.6954 170.425 14.9634 170.735 14.2965C171.045 13.6296 171.512 13.0476 172.096 12.6C173.432 11.6193 175.063 11.1252 176.719 11.2C178.39 11.121 180.039 11.6149 181.391 12.6C181.979 13.0564 182.457 13.6398 182.788 14.3064C183.119 14.9731 183.295 15.7059 183.302 16.45H178.67C178.668 16.1982 178.612 15.9498 178.505 15.7219C178.398 15.494 178.242 15.2921 178.049 15.13C177.636 14.7845 177.107 14.6062 176.569 14.63C176.114 14.6088 175.668 14.7587 175.318 15.05C175.155 15.1981 175.028 15.3814 174.947 15.5858C174.865 15.7903 174.831 16.0106 174.848 16.23C174.845 16.5015 174.917 16.7686 175.056 17.0016C175.196 17.2346 175.397 17.4244 175.638 17.55C176.436 17.9667 177.274 18.3018 178.14 18.55C179.081 18.8526 180 19.2201 180.891 19.65C181.621 20.0049 182.259 20.5254 182.752 21.17C183.289 21.9202 183.561 22.8282 183.523 23.75C183.533 24.7119 183.265 25.6563 182.752 26.47C182.219 27.3163 181.455 27.9928 180.551 28.42C179.475 28.9394 178.293 29.1997 177.099 29.18Z" fill="black"/>
<path d="M75.2923 38.13V40.06H72.1305V50H69.7492V40.06H66.5774V38.13H75.2923Z" fill="black"/>
<path d="M79.7446 40.06V43.06H83.7469V44.95H79.7446V48.09H84.2571V50H77.3633V38.12H84.2571V40.06H79.7446Z" fill="black"/>
<path d="M86.1783 44.05C86.1578 42.9549 86.4307 41.8742 86.9688 40.92C87.475 40.0137 88.2232 39.2659 89.13 38.76C90.1457 38.2102 91.2903 37.9425 92.4446 37.9847C93.5989 38.0269 94.7209 38.3775 95.6937 39C96.686 39.6805 97.4221 40.6731 97.7848 41.82H95.0533C94.8092 41.2887 94.4075 40.8454 93.9027 40.55C93.3852 40.255 92.7972 40.1064 92.2017 40.12C91.5469 40.1105 90.9024 40.2837 90.3407 40.62C89.7858 40.9454 89.3374 41.4248 89.0499 42C88.7456 42.6469 88.5949 43.3553 88.6097 44.07C88.6001 44.7778 88.7506 45.4785 89.0499 46.12C89.3377 46.6854 89.7734 47.1623 90.3106 47.5C90.876 47.8255 91.5193 47.9914 92.1717 47.98C92.7672 47.9936 93.3552 47.845 93.8726 47.55C94.3896 47.2516 94.8019 46.8012 95.0533 46.26H97.7948C97.4354 47.4139 96.6991 48.4139 95.7037 49.1C94.669 49.7816 93.4505 50.1305 92.2117 50.1C91.1392 50.1168 90.0808 49.8549 89.14 49.34C88.2376 48.8283 87.4907 48.0819 86.9788 47.18C86.4372 46.2268 86.1608 45.146 86.1783 44.05Z" fill="black"/>
<path d="M110.002 38.13V50H107.62V45H102.537V50H100.156V38.13H102.537V43H107.62V38.13H110.002Z" fill="black"/>
<path d="M122.849 50H120.467L115.064 41.86V50H112.683V38.12H115.064L120.457 46.28V38.12H122.839L122.849 50Z" fill="black"/>
<path d="M131.074 50.12C130.002 50.1303 128.947 49.8615 128.012 49.34C127.093 48.8331 126.329 48.0866 125.801 47.18C125.245 46.2242 124.962 45.1351 124.98 44.03C124.965 42.938 125.249 41.8627 125.801 40.92C126.326 40.0085 127.09 39.258 128.012 38.75C128.949 38.2317 130.002 37.9598 131.074 37.9598C132.145 37.9598 133.198 38.2317 134.135 38.75C135.051 39.2588 135.809 40.0095 136.326 40.92C136.848 41.8609 137.108 42.9247 137.077 44C137.094 45.1036 136.814 46.1915 136.266 47.15C135.75 48.0666 134.992 48.824 134.075 49.34C133.158 49.8515 132.124 50.12 131.074 50.12ZM131.074 48C131.732 48.0171 132.382 47.8546 132.955 47.53C133.506 47.1942 133.95 46.7087 134.235 46.13C134.55 45.4654 134.701 44.735 134.676 44C134.689 43.2832 134.531 42.5736 134.215 41.93C133.932 41.3552 133.487 40.8755 132.935 40.55C132.362 40.2254 131.712 40.0629 131.053 40.08C130.386 40.0644 129.726 40.2266 129.142 40.55C128.583 40.8948 128.14 41.4 127.872 42C127.551 42.642 127.393 43.3528 127.411 44.07C127.393 44.7936 127.551 45.5109 127.872 46.16C128.153 46.738 128.594 47.2236 129.142 47.56C129.735 47.8764 130.402 48.0284 131.074 48Z" fill="black"/>
<path d="M141.619 48.11H145.532V50H139.228V38.13H141.619V48.11Z" fill="black"/>
<path d="M152.896 50.12C151.824 50.1303 150.769 49.8615 149.834 49.34C148.915 48.8331 148.151 48.0866 147.623 47.18C147.067 46.2242 146.784 45.1351 146.802 44.03C146.787 42.938 147.071 41.8627 147.623 40.92C148.148 40.0085 148.912 39.258 149.834 38.75C150.771 38.2317 151.824 37.9598 152.896 37.9598C153.967 37.9598 155.02 38.2317 155.957 38.75C156.873 39.2588 157.631 40.0095 158.148 40.92C158.7 41.8627 158.984 42.938 158.969 44.03C158.983 45.1345 158.7 46.2225 158.148 47.18C157.628 48.0855 156.87 48.8322 155.957 49.34C155.022 49.8615 153.967 50.1303 152.896 50.12ZM152.896 47.99C153.554 48.0071 154.204 47.8446 154.777 47.52C155.328 47.1842 155.772 46.6987 156.057 46.12C156.373 45.4692 156.531 44.7531 156.518 44.03C156.534 43.3291 156.387 42.634 156.087 42C155.804 41.4252 155.359 40.9455 154.807 40.62C154.234 40.2954 153.584 40.1329 152.926 40.15C152.258 40.1344 151.598 40.2966 151.014 40.62C150.454 40.9415 150.001 41.4217 149.714 42C149.393 42.642 149.235 43.3528 149.253 44.07C149.235 44.7936 149.393 45.5109 149.714 46.16C149.995 46.738 150.436 47.2236 150.984 47.56C151.571 47.8729 152.231 48.0248 152.896 48V47.99Z" fill="black"/>
<path d="M169.345 41.7C169.087 41.224 168.698 40.8318 168.224 40.57C167.711 40.2943 167.136 40.1564 166.553 40.17C165.898 40.1578 165.251 40.3237 164.682 40.65C164.138 40.9686 163.697 41.4373 163.412 42C163.1 42.6201 162.942 43.3061 162.951 44C162.933 44.7172 163.091 45.428 163.412 46.07C163.703 46.6406 164.155 47.1134 164.712 47.43C165.305 47.7593 165.975 47.925 166.653 47.91C167.458 47.943 168.248 47.6916 168.885 47.2C169.48 46.681 169.882 45.9762 170.025 45.2H165.943V43.4H172.367V45.48C172.216 46.3107 171.873 47.0948 171.366 47.77C170.841 48.4848 170.155 49.067 169.365 49.47C168.512 49.8986 167.568 50.1147 166.613 50.1C165.528 50.1183 164.456 49.8565 163.502 49.34C162.591 48.832 161.837 48.0852 161.32 47.18C160.808 46.2162 160.54 45.1415 160.54 44.05C160.54 42.9586 160.808 41.8838 161.32 40.92C161.832 40.0107 162.587 39.2625 163.502 38.76C164.525 38.2167 165.673 37.9528 166.831 37.9949C167.989 38.037 169.115 38.3837 170.095 39C171.06 39.6499 171.767 40.6152 172.097 41.73L169.345 41.7Z" fill="black"/>
<path d="M183.913 38.13L179.911 45.87V50H177.529V45.87L173.527 38.13H176.209L178.77 43.56L181.301 38.13H183.913Z" fill="black"/>
<path d="M25.6344 49.35L5.00281 30L25.6344 11.47V49.35Z" fill="#5D59EA"/>
<path d="M42.0836 16.86L31.1274 7V24.52L42.0836 16.86Z" fill="#5D59EA"/>
<path d="M30.397 53L42.0835 44.24L30.397 35.48V53Z" fill="#5D59EA"/>
<path d="M54.0303 30L46.9263 23.52V37.08L54.0303 30ZM44.9252 37.55V23.18L34.9196 30.36L44.9252 37.55Z" fill="#5D59EA"/>
<path d="M45.9257 39.49L33.1486 30.36L45.9257 21.24V39.49ZM36.5905 30.36L43.9246 35.61V25.12L36.5905 30.36ZM45.9257 39.49V21.24L55.431 30L45.9257 39.49ZM47.9268 25.81V34.66L52.5394 30.06L47.9268 25.81Z" fill="#5D59EA"/>
</g>
<defs>
<clipPath id="clip0_102_4430">
<rect width="183.913" height="60" fill="white"/>
</clipPath>
</defs>
</svg>
