<svg width="24" height="24" viewBox="0 0 24 24" fill="none" xmlns="http://www.w3.org/2000/svg">
<path d="M15.551 12.9962L13.5409 15.013C12.7258 15.831 11.2916 15.8486 10.4589 15.013L8.44875 12.9962L1.22925 20.2391C1.49798 20.3634 1.79428 20.4375 2.10928 20.4375H21.8905C22.2055 20.4375 22.5017 20.3635 22.7704 20.2391L15.551 12.9962Z" fill="#9E74FF"/>
<path d="M21.8906 3.5625H2.10938C1.79438 3.5625 1.49808 3.63666 1.22944 3.76092L8.94398 11.5011C8.9445 11.5016 8.94511 11.5017 8.94563 11.5022C8.94594 11.5025 8.94616 11.5029 8.94623 11.5034L11.4547 14.0201C11.7211 14.2866 12.279 14.2866 12.5454 14.0201L15.0533 11.5038C15.0533 11.5038 15.054 11.5027 15.0545 11.5022C15.0545 11.5022 15.0556 11.5016 15.0561 11.5011L22.7705 3.76088C22.5018 3.63656 22.2056 3.5625 21.8906 3.5625ZM0.224344 4.74431C0.0853125 5.02547 0 5.33756 0 5.67188V18.3281C0 18.6624 0.0852187 18.9745 0.224297 19.2557L7.45631 12.0002L0.224344 4.74431ZM23.7757 4.74422L16.5437 12.0002L23.7757 19.2558C23.9147 18.9746 24 18.6625 24 18.3281V5.67188C24 5.33747 23.9147 5.02538 23.7757 4.74422Z" fill="#9E74FF"/>
</svg>
