<svg width="32" height="32" viewBox="0 0 32 32" fill="none" xmlns="http://www.w3.org/2000/svg">
<path d="M12.832 28.6171C18.8313 28.6171 23.6948 23.7537 23.6948 17.7544C23.6948 11.755 18.8313 6.8916 12.832 6.8916C6.83267 6.8916 1.96924 11.755 1.96924 17.7544C1.96924 23.7537 6.83267 28.6171 12.832 28.6171Z" fill="#B0EF8F"/>
<path d="M12.9547 26.1503L12.8169 25.9155C10.7123 22.3297 5.11959 14.72 5.0631 14.6435L4.98242 14.5339L6.88784 12.6509L12.9193 16.8625C16.7169 11.9346 20.2598 8.54982 22.5709 6.57327C25.0989 4.41111 26.7445 3.41573 26.7611 3.40619L26.7985 3.38379H30.0307L29.7219 3.65874C21.7817 10.7311 13.1753 25.7627 13.0896 25.9138L12.9547 26.1503Z" fill="#01AD54"/>
</svg>
