<svg width="170" height="170" viewBox="0 0 170 170" fill="none" xmlns="http://www.w3.org/2000/svg">
<g filter="url(#filter0_d_138_2574)">
<rect x="27" y="26" width="90" height="90" rx="15" fill="white" shape-rendering="crispEdges"/>
<g clip-path="url(#clip0_138_2574)">
<path fill-rule="evenodd" clip-rule="evenodd" d="M70.0446 72.7378L66.8757 69.6861C66.7167 69.5236 66.5266 69.3946 66.3168 69.3068C66.1071 69.2191 65.8818 69.1743 65.6544 69.1752C65.427 69.1761 65.2021 69.2226 64.993 69.3121C64.7839 69.4015 64.5949 69.532 64.4371 69.6958C64.2794 69.8596 64.1561 70.0534 64.0747 70.2657C63.9932 70.478 63.9552 70.7045 63.9628 70.9318C63.9705 71.1591 64.0237 71.3825 64.1194 71.5888C64.215 71.7952 64.351 71.9802 64.5195 72.133L68.8874 76.3401C69.2073 76.65 69.6363 76.8215 70.0816 76.8176C70.5269 76.8137 70.9529 76.6347 71.2673 76.3193L79.505 68.0817C79.8237 67.763 80.0027 67.3308 80.0027 66.8801C80.0027 66.4294 79.8237 65.9971 79.505 65.6785C79.1863 65.3598 78.7541 65.1807 78.3034 65.1807C77.8527 65.1807 77.4204 65.3598 77.1017 65.6785L70.045 72.7378H70.0446ZM72.1168 42.001C73.1168 42.0286 74.0683 42.438 74.7759 43.1451L78.2563 46.6281C78.3182 46.6984 78.3995 46.7489 78.4899 46.7734C78.5804 46.7978 78.676 46.7951 78.7649 46.7656L83.5227 45.4913C84.528 45.2224 85.5989 45.3636 86.5002 45.8838C87.4014 46.4041 88.0593 47.2608 88.3293 48.2658L89.6037 53.0236C89.6226 53.1149 89.6678 53.1987 89.7337 53.2646C89.7997 53.3306 89.8835 53.3758 89.9748 53.3947L94.7346 54.6691C95.7389 54.9402 96.5948 55.5983 97.1148 56.4992C97.6348 57.4001 97.7766 58.4704 97.5091 59.4756L96.2322 64.2334C96.2037 64.3225 96.2016 64.4178 96.226 64.508C96.2504 64.5983 96.3003 64.6795 96.3697 64.7421L99.8522 68.2248C100.588 68.9609 101.001 69.9588 101.001 70.9992C101.001 72.0397 100.588 73.0376 99.8522 73.7736L96.3693 77.2566C96.2998 77.3192 96.2499 77.4004 96.2255 77.4907C96.2011 77.5809 96.2033 77.6763 96.2318 77.7653L97.5087 82.5232C97.7762 83.5284 97.6344 84.5987 97.1143 85.4996C96.5943 86.4005 95.7384 87.0586 94.7342 87.3298L89.9743 88.6041C89.883 88.623 89.7992 88.6682 89.7333 88.7342C89.6674 88.8001 89.6221 88.8839 89.6032 88.9752L88.3288 93.733C88.0588 94.738 87.401 95.5947 86.4997 96.1149C85.5985 96.6351 84.5275 96.7763 83.5223 96.5074L78.7645 95.2331C78.6756 95.2035 78.5799 95.2008 78.4895 95.2253C78.399 95.2497 78.3178 95.3003 78.2558 95.3706L74.7755 98.8522C74.0385 99.5869 73.0404 99.9994 71.9998 99.9994C70.9592 99.9994 69.961 99.5869 69.224 98.8522L65.7415 95.3692C65.6799 95.2993 65.599 95.2491 65.5091 95.2246C65.4191 95.2002 65.324 95.2026 65.2354 95.2317L60.4768 96.506C59.4716 96.7748 58.4007 96.6336 57.4995 96.1134C56.5983 95.5932 55.9405 94.7366 55.6705 93.7317L54.396 88.9738C54.377 88.8824 54.3317 88.7986 54.2657 88.7326C54.1996 88.6667 54.1157 88.6215 54.0243 88.6027L49.2665 87.3284C48.2619 87.0576 47.4057 86.3996 46.8855 85.4986C46.3653 84.5977 46.2234 83.5272 46.4911 82.5218L47.7665 77.7645C47.7961 77.6757 47.7988 77.58 47.7744 77.4896C47.7501 77.3991 47.6997 77.3178 47.6295 77.2558L44.1474 73.7733C43.4124 73.0371 42.9995 72.0392 42.9995 70.9989C42.9995 69.9585 43.4124 68.9607 44.1474 68.2245L47.6308 64.7415C47.7006 64.6792 47.7507 64.5979 47.7749 64.5075C47.799 64.4171 47.7962 64.3217 47.7668 64.2329L46.4913 59.4751C46.2237 58.4697 46.3655 57.3992 46.8858 56.4983C47.406 55.5973 48.2622 54.9393 49.2667 54.6685L54.0245 53.3941C54.1159 53.3753 54.1999 53.3302 54.2659 53.2642C54.332 53.1983 54.3773 53.1144 54.3962 53.023L55.6707 48.2658C55.9409 47.2609 56.5987 46.4044 57.4999 45.8842C58.401 45.364 59.4718 45.2227 60.477 45.4913L65.2356 46.7656C65.3242 46.7951 65.4194 46.7978 65.5095 46.7733C65.5995 46.7489 65.6804 46.6983 65.7418 46.6281L69.2247 43.1456C69.9322 42.4383 70.8836 42.0288 71.8835 42.001H72.1168ZM71.9989 83.6409C69.4985 83.6409 67.0542 82.8994 64.9752 81.5103C62.8962 80.1212 61.2759 78.1467 60.319 75.8367C59.3621 73.5266 59.1118 70.9847 59.5996 68.5323C60.0874 66.08 61.2914 63.8274 63.0595 62.0593C64.8275 60.2913 67.0801 59.0872 69.5325 58.5994C71.9848 58.1116 74.5268 58.362 76.8368 59.3189C79.1469 60.2757 81.1213 61.8961 82.5105 63.9751C83.8996 66.0541 84.641 68.4983 84.641 70.9987C84.6376 74.3506 83.3046 77.5642 80.9344 79.9343C78.5643 82.3044 75.3507 83.6375 71.9989 83.6409Z" fill="#2196F3"/>
</g>
</g>
<defs>
<filter id="filter0_d_138_2574" x="0" y="0" width="170" height="170" filterUnits="userSpaceOnUse" color-interpolation-filters="sRGB">
<feFlood flood-opacity="0" result="BackgroundImageFix"/>
<feColorMatrix in="SourceAlpha" type="matrix" values="0 0 0 0 0 0 0 0 0 0 0 0 0 0 0 0 0 0 127 0" result="hardAlpha"/>
<feOffset dx="13" dy="14"/>
<feGaussianBlur stdDeviation="20"/>
<feComposite in2="hardAlpha" operator="out"/>
<feColorMatrix type="matrix" values="0 0 0 0 0.152941 0 0 0 0 0.384314 0 0 0 0 0.513726 0 0 0 0.15 0"/>
<feBlend mode="normal" in2="BackgroundImageFix" result="effect1_dropShadow_138_2574"/>
<feBlend mode="normal" in="SourceGraphic" in2="effect1_dropShadow_138_2574" result="shape"/>
</filter>
<clipPath id="clip0_138_2574">
<rect width="58" height="58" fill="white" transform="translate(43 42)"/>
</clipPath>
</defs>
</svg>
