<svg width="52" height="52" viewBox="0 0 52 52" fill="none" xmlns="http://www.w3.org/2000/svg">
<path d="M4.09762 26.5979L5.70447 28.2047L15.5872 38.5427L23.4678 44.7642L28.8333 42.1829C32.4946 45.5638 37.52 40.5324 34.1408 36.8754L21.6427 21.7031L4.08776 6.82251C-1.36581 12.2869 -1.36264 21.1376 4.09762 26.5979Z" fill="#FFCFBC"/>
<path d="M25.5628 8.49195L23.883 6.81213C18.4165 1.34495 9.5485 1.34917 4.08777 6.82233L34.1407 36.8752C37.8022 40.2534 42.8272 35.2314 39.4482 31.5677C42.2167 34.2793 46.718 31.5886 45.7172 27.9083L41.9663 12.8267L25.5628 8.49195Z" fill="#FFB89B"/>
<path d="M28.0508 6.00405L21.8872 12.1676L24.1292 14.4096C26.5528 16.8347 30.4833 16.8293 32.9046 14.4096L36.8607 18.3657L43.6254 13.9884L48.4541 6.77222C43.7468 1.40546 35.196 -0.59815 28.0508 6.00405Z" fill="#FFA07A"/>
<path d="M36.8607 18.3657L44.7556 26.2605C45.2134 26.7174 45.5448 27.2853 45.7172 27.9087L47.8363 25.7896C53.8345 19.2945 52.7295 11.6464 48.4542 6.77222L36.8607 18.3657Z" fill="#FF8756"/>
<path d="M16.9986 38.2275C16.9437 38.2767 16.8896 38.3274 16.837 38.3803C16.7902 38.4327 16.742 38.484 16.6924 38.5338L16.9986 38.2275Z" fill="#FFD8C1"/>
<path d="M16.6923 38.5339C16.7424 38.4838 16.7904 38.4326 16.8369 38.3804C16.7877 38.43 16.7393 38.481 16.6923 38.5339ZM15.3655 39.8608C15.3154 39.9109 15.2674 39.9621 15.2208 40.0143C15.2701 39.9647 15.3184 39.9137 15.3655 39.8608Z" fill="#FFD8C1"/>
<path d="M16.6655 39.7868C16.6655 39.7868 16.7877 38.43 16.837 38.3803C18.1559 36.9068 18.1079 34.6419 16.6924 33.2264C15.2268 31.7608 12.8505 31.7608 11.3848 33.2264L11.9156 32.6957C13.3812 31.2301 13.3812 28.8539 11.9156 27.3883C10.45 25.9227 8.07378 25.9227 6.60806 27.3883L5.10433 28.892C3.63873 30.3576 3.63873 32.7338 5.10433 34.1995C6.56993 35.6652 8.94613 35.6651 10.4117 34.1995L9.881 34.7302C8.4154 36.1958 8.4154 38.5722 9.881 40.0378C11.3604 41.528 13.7653 41.4791 15.2207 40.0144C15.2675 39.9622 16.6655 39.7868 16.6655 39.7868Z" fill="#FFB89B"/>
<path d="M23.592 42.2492L22.1767 43.6645C23.6423 42.1989 23.6423 39.8227 22.1767 38.3571C20.7508 36.9207 18.4652 36.9147 16.9986 38.2277L16.6923 38.534L15.3655 39.8608C15.3184 39.9137 15.2701 39.9648 15.2208 40.0144C13.902 41.488 13.9499 43.7527 15.3655 45.1683C16.8311 46.6339 19.2073 46.6339 20.6729 45.1683L22.0881 43.7531C20.6225 45.2187 20.6225 47.5949 22.0881 49.0606C23.5537 50.5262 25.9299 50.5262 27.3957 49.0606L28.8995 47.5567C30.3651 46.0911 30.3651 43.7149 28.8995 42.2492C27.4338 40.7836 25.0576 40.7836 23.592 42.2492Z" fill="#FFA07A"/>
</svg>
