<svg width="460" height="18" viewBox="0 0 460 18" fill="none" xmlns="http://www.w3.org/2000/svg">
<path d="M449.559 13.7499C440.135 12.4647 433.462 12.2155 424.472 11.4709C404.886 9.84145 378.873 7.70723 358.73 6.37843C343.553 5.36547 328 4.45704 312.84 3.68029C312.058 3.64016 311.585 3.6539 311.234 3.6361C307.942 3.46804 302.384 3.15492 299.076 3.00213C292.141 2.67359 280.057 2.14132 273.739 1.93473C271.046 1.84385 268.278 1.74659 267.224 1.7991C266.238 1.76728 265.702 1.66538 265.444 1.65152C265.441 1.65149 265.438 1.65146 265.435 1.65144C264.606 1.60716 262.503 1.59018 262.046 1.57077C261.977 1.56782 262.404 1.5229 261.285 1.50192C261.185 1.50004 261.276 1.54368 260.335 1.51177C260.09 1.50306 256.941 1.3342 256.039 1.30134C253.044 1.18819 245.859 1.01819 242.28 0.921465C241.731 0.906386 241.416 0.874034 240.837 0.857981C240.538 0.849661 240.088 0.863447 239.996 0.860865C239.593 0.849033 237.832 0.686078 238.459 0.933502C236.619 0.871285 237.163 0.809177 237.123 0.758435C235.124 0.700504 234.157 0.786418 233.638 0.658492C223.801 0.435915 213.981 0.27262 204.137 0.176175C204.135 0.157345 204.132 0.138514 204.129 0.119685C201.231 0.162858 200.241 0.0275033 198.588 0.121957C197.571 0.089216 196.551 0.0571872 195.527 0.0258945C169.295 -0.0837002 143.093 0.126947 117.229 1.19157C116.123 1.2376 115.848 1.28857 114.031 1.36813C112.026 1.45615 109.216 1.53966 106.605 1.67174C104.319 1.78616 100.946 2.0045 98.3441 2.16163C97.7613 2.19657 97.3388 2.19608 97.2733 2.20006C96.8881 2.22373 96.8712 2.26491 96.4981 2.28823C96.0518 2.31606 95.5113 2.3188 94.9973 2.35199C93.0751 2.47534 90.9966 2.60002 90.7557 2.61661C89.5941 2.69635 89.342 2.75304 89.2465 2.75973C87.9587 2.85089 88.4395 2.78335 88.1192 2.80702C86.4554 2.93141 85.2237 3.1053 82.9064 3.18997C82.9719 3.21804 83.0375 3.24611 83.103 3.27419C81.3321 3.42333 82.4962 3.25009 82.133 3.26111C81.981 3.26459 78.1885 3.56589 77.9017 3.59226C76.8889 3.67831 76.8662 3.72434 76.7787 3.73187C76.5604 3.75016 74.0368 3.90661 72.7248 4.05795C71.15 4.23827 73.0155 4.16717 72.6251 4.2174C72.5583 4.22554 70.9077 4.3593 70.6902 4.40674C70.4485 4.45774 71.8728 4.33268 71.8525 4.34729C71.8359 4.35652 69.4799 4.62572 69.9367 4.62726C70.2933 4.63562 73.5338 4.30183 74.1635 4.27055C74.2731 4.26463 74.0713 4.33297 74.1682 4.32675C74.5421 4.29467 81.8118 3.7228 82.1618 3.69571C81.7781 3.70083 81.3948 3.70616 81.012 3.71169C81.5185 3.67101 82.0259 3.63069 82.5341 3.59074C81.8098 3.62553 81.0874 3.66106 80.3665 3.69735C81.4177 3.42244 84.6743 3.3801 84.8174 3.46732C84.878 3.50724 82.9014 3.76422 84.7535 3.69756C84.4732 3.72903 84.1933 3.76061 83.9135 3.79231C83.3339 3.81555 82.7553 3.83925 82.1778 3.86344C82.5606 3.82313 82.9438 3.78304 83.3277 3.74315C83.1851 3.7402 83.0427 3.73726 82.9002 3.73436C81.8199 3.79237 80.7434 3.85203 79.6708 3.91335C79.1211 3.96575 79.2386 3.99621 78.8613 4.03326C74.1714 4.50249 77.2215 4.13534 74.1642 4.4045C73.7273 4.46229 73.3082 4.51891 72.8556 4.57873C73.0068 4.47816 71.6168 4.65073 69.9415 4.76188C70.1438 4.77233 70.3462 4.78284 70.5487 4.79342C68.1116 4.98836 63.284 5.59433 64.5768 5.31412C64.031 5.3799 63.4865 5.44616 62.9432 5.5129C62.4809 5.53262 62.0193 5.55271 61.5586 5.57314C60.9258 5.63944 60.2945 5.70642 59.6651 5.77407C59.6637 5.78812 59.6622 5.80218 59.6608 5.81624C60.1629 5.76469 60.6661 5.71358 61.1704 5.6629C60.7962 5.74294 60.4225 5.82322 60.0496 5.90374C59.6775 5.93476 59.3101 5.96558 58.92 5.99906C60.5135 5.79423 58.3998 5.94683 57.8777 5.94663C56.5215 6.069 55.671 6.23476 55.2208 6.28718C55.0069 6.31095 52.5108 6.46164 53.4992 6.49203C52.2211 6.61813 50.9506 6.74719 49.6879 6.87923C49.1963 6.94814 48.7058 7.0175 48.2167 7.08731C49.2883 7.0236 46.2155 7.47425 48.4893 7.22662C50.191 7.04328 50.6084 6.93466 51.4211 6.84084C52.1548 6.75664 52.5484 6.7531 53.3514 6.66461C58.8223 6.06482 63.1189 5.62827 68.274 5.13792C69.2924 5.04149 70.2251 4.97893 70.9139 4.91571C71.692 4.84444 70.7119 4.87817 71.7054 4.8043C72.7488 4.72734 72.9843 4.75002 73.2538 4.72789C73.4201 4.71425 73.9445 4.63196 74.4312 4.59143C76.4281 4.42352 79.3918 4.22842 79.6811 4.20663C79.9967 4.17721 85.7621 3.71871 86.0488 3.69682C86.1961 3.68324 85.8795 3.56478 87.172 3.62456C87.5773 3.59938 87.9554 3.57632 88.3477 3.55251C88.2827 3.52894 88.2177 3.50537 88.1528 3.4818C90.4703 3.43201 89.6699 3.42563 91.9086 3.28897C97.2861 2.95903 105.285 2.49458 111.171 2.23692C112.493 2.17823 112.999 2.18868 114.571 2.12238C116.046 2.05856 119.809 1.80716 118.993 1.97851C122.191 1.73252 122.72 1.9218 124.328 1.73464C124.524 1.74636 124.72 1.75812 124.916 1.76991C126.667 1.62818 127.211 1.6802 129.135 1.62745C129.965 1.60521 129.005 1.54989 130.684 1.59237C131.005 1.57533 131.325 1.55841 131.646 1.54158C131.57 1.52319 131.495 1.5048 131.42 1.48642C133.292 1.44662 133.391 1.43397 133.188 1.51707C134.073 1.47708 134.959 1.43787 135.847 1.39946C135.958 1.42182 136.069 1.44418 136.181 1.46656C135.792 1.49159 115.536 2.11165 112.648 2.26251C109.299 2.46624 102.768 2.72731 100.035 2.89939C98.9557 2.96584 98.482 3.05003 96.9196 3.14902C95.3575 3.24794 93.4004 3.31726 92.5762 3.36799C89.8951 3.51005 76.6988 4.48512 85.6667 3.90727C85.4102 3.95343 85.154 3.99969 84.898 4.04604C81.333 4.20861 82.623 4.17289 79.6929 4.40577C78.4591 4.50371 75.5477 4.6764 75.7216 4.79055C77.9876 4.62858 80.4119 4.40009 82.4127 4.25384C82.6098 4.23883 84.987 4.12327 86.2165 4.02231C87.3164 3.93161 86.5815 3.85934 88.9376 3.83621C90.6783 3.58625 91.7053 3.64198 92.1707 3.62496C92.9762 3.59597 93.0602 3.52493 93.8657 3.46706C94.7435 3.40405 95.3527 3.41092 95.473 3.40389C96.6612 3.32746 103.049 2.97481 103.288 2.93993C103.037 2.94163 102.787 2.9434 102.536 2.94525C104.15 2.84001 103.817 2.92553 104.242 2.91106C104.559 2.89422 104.876 2.87751 105.193 2.86091C105.067 2.8535 104.94 2.8461 104.814 2.83872C106.73 2.74356 105.263 2.86535 107.99 2.7286C109.722 2.64244 111.521 2.50659 111.691 2.5028C111.741 2.50164 111.193 2.5626 111.904 2.5348C113.081 2.48839 115.124 2.39855 115.352 2.34035C115.931 2.32245 115.884 2.37228 115.961 2.37008C116.334 2.35584 122.003 2.14565 123.041 2.11381C125.883 2.01686 129.065 1.89987 132.182 1.81458C132.502 1.80579 132.297 1.78131 132.618 1.77274C133.129 1.75849 135.731 1.73269 136.123 1.72604C137.095 1.70722 139.661 1.62272 140.067 1.62722C140.124 1.62777 139.279 1.6899 140.269 1.67844C141.368 1.66603 140.775 1.62478 140.835 1.62275C143.072 1.5503 144.491 1.55855 146.026 1.53425C146.523 1.52636 147.442 1.46609 148.146 1.465C148.227 1.46485 148.067 1.50661 148.146 1.50698C149.205 1.50691 150.178 1.41771 150.634 1.40504C151.745 1.37427 151.141 1.43784 151.199 1.43718C151.939 1.42607 152.937 1.39028 154.066 1.37534C159.09 1.30988 163.283 1.26577 168.601 1.22433C169.273 1.2192 170.071 1.17693 170.173 1.17627C170.492 1.17468 170.401 1.21897 171.321 1.21291C173.261 1.20019 175.063 1.1954 176.99 1.19002C177.378 1.18895 177.544 1.14793 177.84 1.14648C178.835 1.14118 182.216 1.24672 182.266 1.1148C184.225 1.23322 185.528 1.13476 187.107 1.14039C190.842 1.15212 196.743 1.21332 200.456 1.23504C201.241 1.23925 201.61 1.20904 202.047 1.21166C202.83 1.21499 207.312 1.28649 207.548 1.28524C208.009 1.28108 207.734 1.12698 210.102 1.28984C211.492 1.31868 211.328 1.25523 211.616 1.25605C213.86 1.26402 216.027 1.43734 215.624 1.30507C218.226 1.382 219.912 1.48284 220.977 1.38528C220.962 1.44232 222.186 1.49943 223.663 1.50701C222.153 1.38139 222.341 1.32159 218.686 1.27315C218.628 1.27241 218.737 1.31578 218.68 1.31504C218.158 1.30853 217.07 1.26868 216.181 1.25617C215.291 1.24369 215.785 1.28019 215.429 1.2738C215.103 1.26794 215.114 1.22845 214.643 1.22033C213.116 1.19436 211.755 1.16338 210.884 1.15023C210.334 1.14196 209.719 1.16826 209.293 1.16249C207.645 1.1392 204.155 1.06956 202.063 1.05263C201.626 1.04911 201.809 1.08991 200.855 1.08383C200.744 1.08315 200.338 1.03837 199.503 1.02236C198.669 1.00638 198.021 1.02123 197.486 1.01268C197.037 1.0056 197.227 0.970768 196.303 0.96149C195.529 0.949074 186.827 0.932064 186.36 0.941312C185.682 0.947927 185.359 0.998156 184.946 0.991176C184.873 0.989715 184.75 0.940373 184.497 0.936449C180.368 0.866225 171.07 0.958868 166.347 1.00336C156.361 1.08662 147.203 1.20775 137.152 1.4605C136.974 1.45669 136.795 1.45291 136.617 1.44916C137.627 1.42167 138.64 1.39521 139.654 1.36975C139.659 1.34649 139.665 1.32322 139.671 1.29996C141.043 1.26258 140.863 1.32203 140.825 1.35583C141.332 1.32965 141.84 1.30372 142.349 1.27803C142.788 1.34773 146.186 1.21958 147.947 1.18681C149.091 1.16458 150.423 1.17142 151.022 1.15871C152.281 1.13209 152.248 1.08333 152.347 1.08081C152.515 1.07677 154.276 1.092 155.55 1.07201C157.433 1.04283 157.635 0.963051 160.221 0.996605C163.548 0.917709 167.191 0.905404 170.747 0.891647C170.069 0.824744 173.258 0.873787 174.7 0.868401C183.511 0.826573 194.29 0.840009 203.176 0.911006C204.319 0.919791 205.183 0.888376 205.82 0.897376C206.166 0.902236 206.316 0.953035 206.796 0.952505C206.88 0.952338 206.939 0.907114 207.833 0.911689C210.057 0.921091 215.596 1.08255 216.994 1.02009C224.586 1.16283 232.189 1.34368 239.782 1.55877C239.973 1.54512 240.164 1.53149 240.356 1.51789C241.796 1.65064 247.495 1.75518 250.283 1.84697C255.189 2.0042 261.402 2.24454 265.708 2.40573C266.642 2.44047 267.407 2.44159 268.29 2.47512C268.67 2.48959 269.141 2.5425 269.536 2.55762C273.976 2.72721 279.948 2.93267 284.44 3.12805C294.566 3.56697 304.139 4.02299 314.397 4.56863C348.965 6.41512 383.401 8.854 417.61 11.7874C418.072 11.8272 418.053 11.7849 418.41 11.8156C420.556 11.9992 425.078 12.4323 427.524 12.6521C429.457 12.8247 432.466 13.039 433.103 13.1607C426.284 12.6251 419.362 12.0058 412.258 11.4307C411.77 11.3913 411.706 11.4245 411.646 11.4201C410.53 11.3394 411.241 11.346 409.618 11.2074C409.086 11.1609 404.003 10.8642 404.612 10.7924C403.34 10.7339 394.854 10.0779 393.198 9.93547C392.697 9.89135 393.055 9.88301 392.956 9.87341C392.524 9.83165 392.324 9.86617 391.937 9.8373C390.906 9.7599 388.263 9.51592 387.756 9.47772C386.548 9.38541 383.219 9.17465 381.699 9.05233C380.32 8.94108 380.582 8.90826 379.386 8.8151C378.441 8.74194 379.47 8.86126 377.354 8.71954C376.313 8.64938 372.596 8.34979 371.723 8.28809C370.846 8.22565 369.868 8.18746 368.652 8.09956C366.904 7.97269 363.067 7.68984 361.256 7.55725C361.148 7.54935 360.888 7.491 360.621 7.47379C360.069 7.4381 360.232 7.49931 359.814 7.4762C359.354 7.44832 352.27 6.97216 351.044 6.89549C350.207 6.84155 349.629 6.77451 349.165 6.74499C348.801 6.7219 348.76 6.76105 348.388 6.73773C348.273 6.73036 347.295 6.63153 346.312 6.57022C345.39 6.51211 341.833 6.32475 341.455 6.30218C341.193 6.28616 341.482 6.27424 340.707 6.22723C340.001 6.18451 339.534 6.19454 339.13 6.17047C338.194 6.11458 337.147 6.01827 336.15 5.95819C333.28 5.78583 333.421 5.84299 333.249 5.83414C332.77 5.81012 332.581 5.75519 332.423 5.74502C331.759 5.70214 330.128 5.59874 329.533 5.56266C328.793 5.51763 328.476 5.54096 327.688 5.4958C327.09 5.46148 325.938 5.35499 324.615 5.27838C321.638 5.10557 318.078 4.90248 315.121 4.74653C314.24 4.69997 314.102 4.73071 313.833 4.7174C312.415 4.64761 311.619 4.56379 311.217 4.54337C308.37 4.39789 303.256 4.20735 300.583 4.08418C299.501 4.03304 294.716 3.77419 292.063 3.65954C291.757 3.64615 292.042 3.68889 291.702 3.66873C290.889 3.62056 290.967 3.5636 290.554 3.54674C290.355 3.5388 289.899 3.55235 289.318 3.52974C286.304 3.41255 284.225 3.29706 282.845 3.2401C269.629 2.69438 256.144 2.23414 243.783 1.89308C242.407 1.85495 240.701 1.77197 238.621 1.75267C238.557 1.76979 238.492 1.78692 238.428 1.80405C238.356 1.78369 238.283 1.76333 238.211 1.74298C235.856 1.67238 234.966 1.62649 232.56 1.59276C232.353 1.58982 231.718 1.66078 231.329 1.5452C228.944 1.56795 230.254 1.51977 228.485 1.47332C226.716 1.42735 224.996 1.41537 223.281 1.38688C222.34 1.40607 226.283 1.57347 226.54 1.57946C226.955 1.58786 227.386 1.54408 227.785 1.5499C228.967 1.56699 230.109 1.63491 230.375 1.59366C231.901 1.67853 230 1.61011 230.19 1.65955C231.21 1.664 232.229 1.66909 233.249 1.67481C233.765 1.83869 239.4 1.78157 239.005 1.88921C239.454 1.87761 239.902 1.86613 240.35 1.85477C242.309 2.05392 243.466 1.98245 246.084 2.01452C245.895 2.02775 245.706 2.041 245.516 2.05427C245.568 2.06334 247.882 2.16105 247.056 2.05709C249.427 2.23243 249.332 2.05491 251.454 2.24682C252.716 2.30258 251.96 2.20489 254.219 2.27835C255.558 2.32205 257.217 2.41508 258.711 2.46837C259.055 2.48051 259.206 2.44315 259.512 2.45359C259.818 2.46406 259.966 2.51081 260.337 2.52462C261.102 2.55321 262.095 2.55871 262.573 2.57842C263.001 2.59593 263.618 2.65447 264.655 2.69762C268.278 2.8497 267.184 2.75822 267.757 2.76136C268.372 2.76538 268.811 2.85083 270.035 2.88925C270.158 2.89307 269.842 2.83795 270.241 2.85481C270.563 2.86843 270.723 2.92125 271.787 2.97105C272.216 2.98926 278.778 3.26115 279.786 3.30584C281.331 3.37066 284.766 3.47733 286.357 3.54774C286.97 3.57458 287.624 3.64101 288.274 3.66967C290.437 3.76454 293.859 3.91738 296.61 4.04582C299.09 4.16042 303.425 4.28981 304.767 4.43256C308.221 4.61539 309.055 4.5958 309.315 4.60799C310.017 4.64172 310.339 4.70083 311.222 4.74874C322.815 5.37164 337.87 6.22362 348.83 6.93482C374.078 8.56243 399.582 10.5144 424.799 12.7449C424.863 12.7695 424.928 12.7942 424.993 12.8189C422.064 12.5692 418.55 12.2943 415.544 12.0441C411.524 11.7076 405.835 11.1561 402.85 11.0429C404.04 11.1509 405.964 11.26 405.924 11.323C403.827 11.1548 401.664 10.9835 399.57 10.8201C399.634 10.7946 399.698 10.7691 399.762 10.7436C397.611 10.5618 395.388 10.3922 393.187 10.2157C392.805 10.1851 393.078 10.1787 392.745 10.1525C392.372 10.1233 392.622 10.1711 392.552 10.1659C391.609 10.0926 391.325 10.0421 391.21 10.0335C390.913 10.0117 391.142 10.0566 390.285 9.998C388.696 9.88945 387.554 9.73013 387.92 9.87864C387.405 9.83924 386.884 9.79952 386.372 9.7606C386.245 9.71814 386.118 9.67568 385.991 9.63323C382.899 9.53144 381.475 9.19382 379.735 9.24944C379.167 9.17937 378.599 9.10936 378.029 9.03943C377.704 9.04843 377.379 9.05744 377.053 9.06648C376.992 9.03389 376.931 9.00129 376.87 8.96869C373.761 8.76261 370.494 8.49562 367.584 8.2953C365.545 8.15515 365.054 8.13231 363.236 8.0052C359.18 7.72348 363.208 8.05363 359.826 7.8844C360.004 7.86195 360.183 7.83952 360.361 7.8171C359.802 7.76659 359.242 7.71617 358.681 7.66585C358.288 7.6676 357.894 7.6693 357.502 7.67125C355.818 7.41282 354.706 7.45759 354.475 7.4423C354.287 7.42978 353.652 7.29962 351.624 7.24209C352.471 7.17699 350.079 7.14114 349.886 7.12966C349.705 7.1183 347.375 6.94216 346.424 6.8833C345.677 6.83677 344.078 6.76202 342.959 6.69119C341.97 6.62854 342.086 6.59509 342.012 6.59004C340.821 6.51301 341.566 6.59069 340.704 6.53912C339.841 6.48762 339.173 6.41211 338.986 6.40382C338.892 6.39975 339.204 6.45671 338.774 6.43417C337.62 6.37371 335.528 6.21443 334.198 6.13644C333.726 6.1087 333.13 6.10557 332.604 6.07554C331.797 6.0294 331.422 5.96467 330.952 5.93848C330.789 5.9295 329.743 5.93438 328.443 5.84933C328.199 5.83323 327.466 5.65116 326.508 5.79463C326.437 5.76267 326.365 5.73071 326.294 5.69875C322.004 5.38626 320.783 5.54717 318.873 5.24137C315.727 5.09291 317.881 5.28823 317.536 5.28141C317.312 5.27685 316.287 5.20006 316.174 5.19526C315.974 5.18692 316.007 5.21381 315.788 5.20193C311.766 4.98302 313.553 5.03114 312.279 4.93379C309.263 4.70481 306.918 4.74265 312.153 4.96679C312.152 4.98076 312.151 4.99474 312.15 5.00872C310.844 4.92637 307.6 4.76641 308.682 4.89298C309.512 4.98921 317.342 5.3662 312.907 5.21053C311.9 5.17541 311.375 5.09511 309.653 5.10476C308.514 5.05147 308.356 4.9155 306.808 4.8882C307.064 4.85662 307.321 4.82507 307.577 4.79354C305.473 4.62818 302.861 4.5764 301.234 4.47223C300.682 4.43658 298.697 4.12841 299.152 4.36279C298.22 4.30384 293.829 4.13642 293.031 4.08151C292.836 4.06818 292.59 3.94266 289.766 3.85483C289.57 3.86016 289.373 3.86552 289.176 3.87089C291.756 4.0277 287.194 3.86538 288.428 4.02788C288.851 3.9983 290.9 4.06101 291.23 4.05192C291.793 4.03584 290.122 3.90587 292.254 4.01774C293.59 4.25804 289.75 4.00054 290.33 4.1974C287.531 3.99205 287.244 4.05634 286.609 4.03139C283.889 3.92528 282.175 3.8343 279.599 3.74721C278.974 3.68568 283.635 3.83065 284.209 3.87144C282.094 3.65679 285.744 3.80729 287.277 3.94909C287.408 3.91738 287.538 3.88567 287.669 3.85398C285.668 3.78583 283.712 3.71183 281.725 3.59732C281.595 3.60584 281.465 3.61438 281.335 3.62292C281.78 3.66273 282.225 3.70263 282.67 3.74262C281.015 3.70722 282.012 3.63964 279.803 3.64328C279.737 3.59833 279.67 3.55338 279.604 3.50843C277.498 3.43526 275.403 3.36485 273.298 3.29638C272.207 3.16818 268.152 3.04594 268.89 3.1836C267.252 3.13001 269.276 3.14738 267.742 3.0635C267.075 3.02703 265.769 2.97593 265.445 2.99369C265.58 3.10274 267.534 3.18739 268.123 3.28116C267.761 3.28702 258.682 2.89068 259.492 3.04332C258.768 3.03335 259.103 2.98173 257.798 2.92176C254.143 2.75302 248.457 2.70155 245.512 2.46225C248.978 2.47623 250.004 2.60006 252.659 2.68685C254.359 2.73734 264.674 3.10699 262.373 2.91826C262.751 2.94555 263.131 2.97304 263.511 3.00059C263.897 2.98153 264.283 2.96254 264.669 2.94364C263.585 2.89982 262.501 2.85667 261.424 2.8144C261.165 2.83812 260.907 2.86187 260.648 2.88565C260.53 2.8582 260.412 2.83076 260.294 2.80332C259.839 2.78304 259.385 2.76286 258.93 2.7428C259.057 2.77519 259.184 2.80759 259.311 2.84C258.61 2.82092 257.909 2.80212 257.208 2.78357C257.398 2.75236 257.588 2.72117 257.778 2.69C254.476 2.57092 255.593 2.63175 253.758 2.64265C252.389 2.60633 254.704 2.60729 251.808 2.4977C248.439 2.37269 250.647 2.55338 246.281 2.39977C246.219 2.37924 246.156 2.35871 246.094 2.33818C245.136 2.32908 244.177 2.3205 243.219 2.31247C243.346 2.29274 243.473 2.27302 243.601 2.25331C241.623 2.20644 238.897 2.08996 238.239 2.16448C240.246 2.17285 240.222 2.3323 239.699 2.3476C238.624 2.36694 222.711 1.94327 219.629 1.89832C215.687 1.82211 212.709 1.82662 209.102 1.699C211.552 1.66303 220.127 1.85863 221.755 1.84929C221.917 1.84804 221.874 1.70088 222.907 1.88546C226.244 1.92279 230.234 2.05528 234.404 2.15227C234.278 2.10711 234.151 2.06195 234.025 2.01681C231.46 2.04399 229.092 1.79531 229.422 1.96608C228.912 1.9547 228.402 1.94347 227.891 1.93241C227.892 1.90426 227.893 1.87611 227.893 1.84796C227.124 1.83128 226.355 1.81497 225.586 1.79904C225.585 1.82719 225.585 1.85534 225.584 1.88349C224.947 1.8703 224.31 1.85736 223.674 1.84469C223.608 1.8153 223.542 1.78591 223.476 1.75653C221.568 1.77443 215.072 1.5059 217.926 1.72322C217.031 1.70762 216.136 1.69255 215.241 1.67801C215.244 1.65747 215.247 1.63693 215.251 1.6164C214.866 1.60738 214.481 1.59846 214.097 1.58964C214.223 1.61027 214.349 1.6309 214.476 1.65155C212.715 1.59009 211.034 1.66382 209.876 1.58335C210.641 1.57987 211.406 1.57678 212.172 1.57409C210.704 1.57849 208.002 1.48697 207.76 1.48403C207.023 1.47429 206.634 1.51105 205.836 1.50355C205.115 1.49676 205.215 1.46602 205.081 1.46556C201.196 1.45453 202.675 1.64471 200.864 1.42133C200.671 1.44745 200.478 1.4736 200.285 1.49978C200.028 1.47402 199.772 1.4483 199.516 1.42262C198.368 1.41446 197.23 1.40729 196.075 1.40096C196.459 1.3688 196.845 1.33676 197.227 1.3048C195.503 1.27561 194.697 1.34089 194.53 1.3413C194.058 1.34226 193.842 1.29689 193.696 1.2959C186.676 1.26199 190.939 1.32304 187.435 1.47462C186.187 1.40601 187.45 1.3446 187.628 1.27919C185.968 1.30515 185.45 1.28563 183.701 1.28688C183.246 1.28732 182.757 1.32258 182.47 1.3229C182.221 1.32316 181.445 1.28503 180.849 1.28508C179.849 1.28506 178.513 1.30894 177.144 1.31149C176.005 1.31287 172.522 1.29786 170.102 1.31318C169.069 1.3196 169.309 1.3499 169.043 1.35169C168.932 1.35241 168.127 1.31994 167.466 1.32485C162.081 1.36454 156.466 1.45707 151.064 1.55037C147.274 1.61556 143.302 1.66827 139.48 1.76674C138.665 1.78788 139.097 1.80491 138.741 1.81489C138.619 1.81834 138.47 1.77308 137.211 1.82576C136.757 1.84488 137.281 1.86494 136.834 1.87855C136.616 1.88526 136.522 1.84473 135.252 1.87016C132.953 1.91661 131.696 2.01286 131.486 2.01735C131.092 2.02613 131.206 1.98732 130.685 2.00221C128.136 2.07543 126.017 2.14132 123.762 2.21988C122.7 2.25147 115.493 2.53244 115.055 2.56274C114.156 2.61584 114.996 2.65283 113.843 2.70089C113.519 2.69652 113.196 2.69226 112.873 2.68813C113.384 2.65098 113.896 2.61412 114.409 2.57757C112.997 2.66276 111.399 2.7023 110.359 2.7526C110.166 2.76169 108.402 2.87925 107.505 2.9204C107.887 2.91533 108.27 2.91043 108.653 2.90571C108.518 2.92406 108.384 2.94243 108.249 2.96081C106.451 3.03069 104.559 3.12806 102.733 3.22878C102.075 3.26515 102.301 3.28157 101.619 3.31981C97.652 3.54724 98.6428 3.37072 94.8716 3.82158C96.1396 3.72064 100.827 3.47963 101.516 3.43692C102.008 3.4043 103.793 3.11959 103.142 3.34865C106.879 3.15187 103.623 3.21288 107.125 3.05854C107.057 3.08568 106.988 3.11283 106.919 3.13999C108.144 3.09371 109.052 3.06202 109.797 2.98474C110.05 3.08639 114.235 2.82546 116.555 2.7382C119.864 2.61019 123.568 2.49848 126.864 2.39207C127.998 2.35537 128.64 2.2897 128.783 2.28517C128.991 2.2787 129.578 2.29925 129.995 2.28641C131.571 2.23554 136.236 2.0352 137.407 2.11586C128.211 2.35849 119.086 2.68411 109.812 3.1243C110.944 3.00981 101.731 3.46794 101.233 3.50777C100.792 3.53454 101.165 3.55175 101.034 3.56129C100.059 3.63145 99.2252 3.6242 98.9164 3.6419C98.6811 3.65543 98.207 3.70825 97.3719 3.75673C97.2188 3.76565 97.1747 3.74102 97.0101 3.75066C95.9218 3.81501 94.8508 3.88038 93.7652 3.94784C93.6992 3.95222 93.4278 4.00892 93.1541 4.02621C92.8797 4.04346 92.6062 4.02106 92.537 4.02533C91.6711 4.08035 90.1938 4.20245 89.3762 4.25755C89.0923 4.2765 89.2871 4.23432 88.9692 4.25591C87.9895 4.32274 88.3306 4.35638 87.1019 4.42619C86.6865 4.45003 86.7099 4.40458 85.9169 4.46599C85.3556 4.50965 85.4218 4.58284 85.333 4.59195C85.2095 4.60368 83.2732 4.68165 82.6486 4.77934C84.0339 4.81134 81.1452 4.89781 81.2808 4.8318C80.5216 4.90336 79.7645 4.97574 79.0093 5.04895C78.7504 5.0548 78.4915 5.06075 78.2329 5.06679C75.1868 5.37346 73.387 5.48468 70.3154 5.775C70.1666 5.78812 67.6191 6.05045 67.7416 6.06033C69.2665 5.95489 70.7962 5.82141 71.7753 5.67233C73.4146 5.65405 73.4151 5.55443 75.9712 5.36048C76.8275 5.29627 76.892 5.32469 76.9904 5.31712C80.3138 5.06223 85.7642 4.68028 88.0344 4.43194C88.6706 4.41457 86.3884 4.58164 87.2816 4.53957C87.7403 4.50178 99.372 3.80943 95.6479 3.92869C96.0354 3.90837 96.4233 3.88825 96.8116 3.86831C97.2051 3.95004 99.1393 3.81393 98.9139 3.72201C99.0988 3.73293 99.2837 3.7439 99.4687 3.75491C99.8329 3.75245 100.263 3.73789 100.868 3.71012C103.151 3.58287 116.74 2.90781 117.51 2.90944C117.527 2.93365 117.544 2.95787 117.562 2.98208C111.461 3.26229 105.729 3.47402 99.1262 3.92114C99.3168 3.88686 99.5074 3.85263 99.6982 3.81844C97.0605 4.00045 94.442 4.19116 91.8441 4.39079C94.5949 4.25457 99.0168 4.02751 101.963 3.83401C102.486 3.79935 102.1 3.78769 102.221 3.77721C102.527 3.75043 102.858 3.78872 103.962 3.73593C105.065 3.68232 107.851 3.50251 108.108 3.49176C108.601 3.46975 109.939 3.47007 110.783 3.43003C111.892 3.37733 111.147 3.37192 111.369 3.36074C112.291 3.31423 113.12 3.29684 113.845 3.26189C114.915 3.20967 117.175 3.04394 117.909 3.11787C117.162 3.15307 116.373 3.19074 115.606 3.22819C119.777 3.08836 122.943 2.83615 127.051 2.79832C127.985 2.89183 124.604 2.9897 127.464 2.94615C126.944 2.96174 126.425 2.97762 125.907 2.99378C125.785 2.9718 125.662 2.94983 125.54 2.92788C124.648 2.97774 123.758 3.02844 122.869 3.07999C123.122 3.04728 123.375 3.01464 123.628 2.98206C120.462 3.07889 117.337 3.18366 116.201 3.35764C116.134 3.33009 116.067 3.30254 116 3.275C113.034 3.4352 108.625 3.51745 109.456 3.64719C109.317 3.64488 109.178 3.64261 109.039 3.64035C107.27 3.7608 108.023 3.65448 107.358 3.67931C107.166 3.6854 103.745 3.89727 105.265 3.8693C101.931 4.08159 102.961 3.8712 102.033 3.91379C99.8533 4.1087 95.9609 4.22144 97.6028 4.24867C97.281 4.27217 96.9596 4.29579 96.6385 4.31955C95.5765 4.28537 94.5447 4.45845 93.4097 4.56641C93.0244 4.59276 92.6396 4.6193 92.2552 4.64604C91.9956 4.62983 91.7362 4.6137 91.477 4.59767C87.8797 4.98918 89.0018 4.49025 87.3768 4.95905C87.6428 4.96219 87.8929 4.96653 88.1512 4.9704C88.7573 4.93936 89.3645 4.90881 89.9729 4.87876C87.5551 5.04808 85.0088 5.2355 82.5335 5.42851C79.3914 5.7637 77.6021 5.79402 74.17 6.15935C73.8468 6.1769 73.5289 6.19417 73.2014 6.21245C73.5321 6.26589 74.8113 6.14475 72.439 6.38348C72.2435 6.45757 73.85 6.32755 74.5517 6.22544C74.7233 6.20034 73.2515 6.27918 74.9019 6.13997C76.0271 6.04662 73.9851 6.28094 77.3611 5.98198C77.2368 6.00596 77.1126 6.02997 76.9884 6.05401C77.355 6.0241 77.722 5.9944 78.0895 5.96489C78.4139 5.90672 78.7386 5.8487 79.0637 5.79085C79.9103 5.77212 80.3862 5.79982 82.3224 5.64124C81.7954 5.66026 82.5027 5.5418 83.4648 5.47257C83.4665 5.49594 83.4682 5.51932 83.4699 5.54269C85.8027 5.38891 84.992 5.37821 86.9437 5.29536C87.1376 5.26323 87.3317 5.23116 87.5258 5.19914C88.5612 5.20271 92.3928 5.00504 91.688 4.93609C92.77 4.97781 95.037 4.78651 95.8803 4.64669C95.9468 4.666 96.0132 4.68532 96.0798 4.70463C96.5314 4.68224 96.9835 4.66011 97.4361 4.63824C97.6877 4.60935 97.9394 4.58055 98.1913 4.55183C98.5132 4.54725 98.8354 4.5428 99.1578 4.53848C99.3507 4.50407 99.5436 4.46971 99.7367 4.4354C100.256 4.43406 100.776 4.43307 101.296 4.43241C101.613 4.3963 101.93 4.3603 102.247 4.32444C102.28 4.3705 105.359 4.21802 106.224 4.14345C106.482 4.14454 106.741 4.14572 106.999 4.14697C107.124 4.11751 107.249 4.08807 107.374 4.05864C107.567 4.06764 107.76 4.07668 107.953 4.08577C108.395 4.04547 108.837 4.0054 109.28 3.96557C111.096 3.99272 111.152 3.89135 111.566 3.87271C112.334 3.83784 114.964 3.79281 115.406 3.77094C115.846 3.74841 116.056 3.69865 116.412 3.67985C122.198 3.37856 119.815 3.58833 120.977 3.55901C121.602 3.54447 122.044 3.48974 122.598 3.47336C123.54 3.44291 128.343 3.32782 128.623 3.31577C129.027 3.29557 128.07 3.14684 129.384 3.15071C129.43 3.24506 132.239 3.06064 130.929 3.23568C132.089 3.18798 133.244 3.14193 134.38 3.09777C134.254 3.21572 135.659 3.10179 137.199 3.06746C139.375 3.01613 144.316 2.97878 144.135 2.86681C144.661 2.88226 145.189 2.89797 145.716 2.91395C149.353 2.80159 152.801 2.78076 156.375 2.7317C166.995 2.58451 178.443 2.51109 188.943 2.5304C189.449 2.53124 189.377 2.49268 189.741 2.49336C191.649 2.49582 196.654 2.55424 199.317 2.57124C200.174 2.57626 200.592 2.543 200.864 2.5439C201.787 2.54687 201.569 2.59401 201.994 2.59689C202.664 2.60074 206.215 2.59502 207.439 2.60668C208.045 2.61202 208.762 2.66055 209.471 2.65818C209.533 2.65803 209.42 2.61619 209.472 2.61619C210.766 2.62912 209.987 2.65322 210.425 2.6575C213.551 2.68844 216.874 2.74131 220.257 2.79543C221.096 2.80873 222.382 2.8049 223.103 2.81647C223.378 2.82097 222.884 2.84172 223.835 2.85808C224.16 2.86373 224.273 2.82621 224.64 2.83109C226.224 2.85262 226.751 2.99169 228.115 2.91842C230.742 2.9814 235.314 3.12348 237.71 3.1868C238.277 3.20152 238.554 3.18522 239.094 3.19982C239.477 3.21016 240.151 3.26441 240.749 3.28097C241.346 3.2975 242.291 3.2885 243.44 3.32196C244.651 3.35702 246.154 3.42119 246.427 3.42909C246.757 3.43874 246.912 3.39951 247.242 3.40979C248.241 3.44031 250.912 3.56437 252.196 3.60973C253.576 3.65805 254.405 3.66373 254.877 3.67941C255.313 3.69414 255.821 3.74772 256.021 3.7546C256.331 3.76536 256.405 3.72464 256.799 3.73804C257.442 3.76009 258.105 3.80935 259.069 3.84283C276.468 4.44831 293.504 5.17026 310.393 6.01377C312.265 6.1076 313.357 6.19473 316.139 6.33002C317.268 6.38514 316.795 6.31505 317.673 6.37095C318.064 6.39597 317.963 6.42557 318.457 6.45416C320.642 6.58027 323.177 6.68925 324.117 6.74287C324.49 6.76404 324.914 6.82776 325.677 6.87168C331.44 7.20287 338.2 7.59447 344.364 7.98855C347.661 8.19832 352.605 8.53717 356.308 8.78666C366.72 9.48472 377.872 10.2759 387.222 10.9947C401.484 12.0888 415.71 13.3082 429.885 14.5571C423.175 14.0394 414.078 13.2394 406.789 12.6485C385.414 10.9063 362.542 9.20344 340.657 7.861C333.078 7.39361 323.41 6.83213 315.049 6.41C314.668 6.39066 313.88 6.31809 313.055 6.27786C312.88 6.26922 310.701 6.21102 309.987 6.17488C310.677 6.11113 307.839 6.05328 306.96 6.00669C305.853 5.94739 303.544 5.7814 300.937 5.68253C298.57 5.59304 299.22 5.66312 299.089 5.6591C298.251 5.6343 297.961 5.55894 297.319 5.52218C294.696 5.36485 281.278 4.80349 277.511 4.66132C276.544 4.62262 276.515 4.6607 276.297 4.65204C275.72 4.62907 274.9 4.55761 273.975 4.52138C272.307 4.45603 270.381 4.41918 269.46 4.38461C267.264 4.30132 263.064 4.10482 260.22 4.00681C259.418 3.97896 259.465 4.02137 259.102 4.00883C257.502 3.9529 253.331 3.76849 251.34 3.70707C248.105 3.60579 244.778 3.53489 241.496 3.43213C241.287 3.4446 241.079 3.45709 240.87 3.46962C240.542 3.44172 240.215 3.41388 239.887 3.38611C234.333 3.25279 228.675 3.08041 223.149 2.97439C222.513 2.96155 219.361 2.93727 218.836 2.92862C218.399 2.92084 217.97 2.8683 217.322 2.86379C216.415 2.85755 217.267 2.95741 215.785 2.90824C215.387 2.89509 215.774 2.86471 214.974 2.84031C214.713 2.83085 209.57 2.73948 209.294 2.73975C208.834 2.73776 208.422 2.81086 208.303 2.81099C207.685 2.81177 207.713 2.7519 207.298 2.74113C206.076 2.70903 204.48 2.73122 204.281 2.72817C201.877 2.68883 197.415 2.59987 194.878 2.61218C194.529 2.61379 194.571 2.65895 194.509 2.66C194.114 2.66668 193.868 2.61403 193.492 2.61054C191.467 2.59184 188.3 2.61244 186.271 2.61658C186.037 2.61693 185.544 2.5912 185.127 2.59279C182.77 2.60267 183.535 2.6438 183.401 2.64515C183.084 2.64901 182.525 2.60496 181.682 2.60212C179.506 2.59352 175.296 2.60835 172.961 2.62343C171.209 2.63434 171.236 2.68467 171.121 2.68614C170.876 2.68932 170.193 2.65321 169.043 2.65637C166.829 2.66288 167.082 2.70091 166.174 2.70645C166.097 2.70714 166.229 2.66753 165.222 2.67239C163.269 2.68067 158.848 2.76793 156.759 2.7964C155.954 2.80694 155.765 2.77273 154.942 2.78425C153.636 2.80171 150.7 2.89139 150.469 2.89593C150.404 2.89708 150.258 2.85716 149.877 2.86406C149.458 2.87165 149.046 2.90116 148.734 2.9069C146.935 2.93929 143.832 2.93195 144.697 3.06513C144.121 3.04006 143.544 3.01531 142.969 2.99087C139.205 3.08349 135.6 3.16336 131.888 3.26789C131.046 3.29169 130.344 3.3423 129.635 3.36349C128.925 3.38373 125.805 3.44101 125.287 3.45925C124.354 3.48756 119.11 3.68126 118.466 3.71344C117.211 3.7705 115.939 3.88709 115.418 3.89722C114.997 3.90548 115.385 3.85332 114.581 3.87816C113.19 3.92074 110.843 4.07432 110.422 4.09385C110.243 4.10222 110.577 4.05806 108.894 4.13692C107.988 4.17965 107.504 4.23416 107.176 4.25033C107.075 4.25547 107.223 4.19775 105.439 4.29547C104.207 4.36351 103.687 4.42958 103.558 4.43647C103.363 4.44707 102.9 4.43106 102.117 4.47498C100.258 4.57837 96.8861 4.81946 95.1474 4.93032C94.811 4.95171 94.9212 4.89532 93.5817 4.98323C92.6246 5.04651 92.7946 5.07501 92.4368 5.09926C91.8698 5.13781 91.0219 5.14429 89.776 5.22847C88.26 5.31069 76.3757 6.2468 75.8366 6.32334C75.4328 6.36499 74.9647 6.4043 74.7666 6.44199C74.9395 6.44794 75.1126 6.45394 75.2859 6.45998C77.0587 6.2432 76.3482 6.38337 76.8214 6.35011C77.5055 6.30131 80.1013 6.08755 80.7357 6.05836C80.9613 6.04784 80.4489 6.12972 81.6599 6.06067C82.9604 5.98701 83.5362 5.8683 84.0634 5.93545C85.908 5.68474 87.709 5.68477 85.5555 5.86891C84.2838 5.95937 72.8195 6.89692 70.3352 7.146C68.3859 7.3223 64.7713 7.62748 62.4347 7.86934C61.0752 8.0064 57.6423 8.3699 57.7825 8.41284C56.5326 8.55282 57.8501 8.35665 57.5868 8.37687C57.03 8.41679 53.1591 8.88079 52.4388 8.96467C48.873 9.36197 44.3534 9.85724 40.8418 10.4024C41.0062 10.3954 41.1708 10.3885 41.3354 10.3817C42.1171 10.3017 45.7934 9.79043 46.2276 9.81179C40.748 10.4957 35.7172 11.1916 30.2791 12.0382C30.3465 11.9545 23.8163 13.0211 23.5431 13.1091C23.6607 13.1189 23.7785 13.1287 23.8963 13.1386C27.5233 12.4109 27.2307 12.6162 29.7139 12.1403C30.7353 11.9791 30.4349 12.0759 30.9412 12.0068C35.9978 11.3328 31.0518 11.8818 34.8474 11.3623C33.7336 11.5968 36.7933 11.1749 38.1891 10.9923C38.4969 10.9471 42.6847 10.3642 43.1964 10.3032C46.0925 9.92923 50.7523 9.40712 53.558 9.05632C55.7543 8.80575 56.9801 8.72478 59.0062 8.52463C60.5379 8.3748 60.0769 8.3872 60.7846 8.31445C62.2559 8.16447 62.7543 8.22458 63.6883 7.98155C64.6954 7.90224 65.7069 7.8246 66.7224 7.74865C66.7202 7.72531 66.718 7.70198 66.7158 7.67864C67.3526 7.61917 67.9911 7.56034 68.6312 7.50217C68.8217 7.50831 69.0122 7.51451 69.2029 7.52077C71.2371 7.30649 70.3827 7.32684 70.7578 7.22677C71.1989 7.18332 71.6406 7.14017 72.0832 7.09733C72.4304 7.11843 72.778 7.13972 73.126 7.1612C75.0594 6.99233 76.9786 6.83146 78.9253 6.6749C79.0493 6.64177 79.1732 6.60867 79.2973 6.57558C79.3032 6.59855 79.309 6.62152 79.3149 6.64449C82.5945 6.39388 86.0004 6.15315 89.2653 5.93954C90.1571 5.91495 84.8494 6.30748 84.4342 6.3436C82.1725 6.51305 76.2745 6.9401 76.2818 7.02699C74.929 7.07183 70.726 7.44694 69.4218 7.64201C71.397 7.4599 73.4301 7.28062 75.3471 7.11804C75.2866 7.15104 75.2259 7.18406 75.1654 7.21708C77.5832 6.90575 77.941 6.88334 80.4692 6.79488C80.4687 6.75737 80.4681 6.71987 80.4676 6.68237C82.2338 6.67612 85.3568 6.22988 85.4602 6.3845C86.4001 6.3047 87.3787 6.22371 88.2888 6.14881C90.2996 6.03718 87.1605 6.35243 95.0617 5.80677C95.6085 5.77008 95.4916 5.73601 96.3155 5.68933C96.554 5.67628 97.9145 5.65247 100.536 5.49932C100.946 5.47549 100.975 5.43831 101.4 5.41033C102.402 5.34397 104.292 5.31425 103.423 5.24576C107.235 5.0125 105.661 5.19012 106.849 5.16673C107.642 5.15189 107.479 5.09221 108.166 5.07377C109.019 5.052 108.391 5.14728 111.808 4.95693C111.424 4.96992 111.04 4.98308 110.657 4.99642C110.849 4.96884 111.041 4.94132 111.233 4.91383C113.188 4.8684 113.002 4.8126 113.93 4.87562C115.345 4.76684 116.617 4.70855 118.526 4.63972C122.262 4.5089 120.345 4.69341 124.625 4.38556C125.321 4.38201 126.018 4.37897 126.716 4.37644C127.862 4.29312 126.931 4.26802 128.645 4.20026C127.306 4.35411 130.925 4.19649 131.544 4.2773C131.608 4.2519 131.672 4.22652 131.735 4.20114C132.12 4.18947 132.506 4.17788 132.889 4.16658C132.89 4.18534 132.892 4.20409 132.894 4.22285C133.397 4.1939 133.901 4.16521 134.405 4.13678C134.785 4.1446 135.165 4.15258 135.545 4.1607C136.168 4.10412 136.793 4.04794 137.418 3.99215C137.811 3.9791 138.204 3.96621 138.597 3.95347C138.473 3.98464 138.35 4.01582 138.226 4.04702C138.731 4.02461 139.237 4.00246 139.743 3.98056C139.155 4.04129 139.526 4.0852 141.104 4.04589C142.408 4.01427 140.935 3.95155 143.743 3.92812C143.94 3.92702 144.285 3.9859 146.948 3.94248C150.148 3.89269 148.583 3.87411 149.152 3.86138C149.263 3.85902 150.227 3.87559 151.13 3.86492C151.643 3.85882 152.137 3.8228 152.205 3.82175C152.522 3.81776 152.615 3.85551 153.054 3.84983C154.169 3.83511 155.668 3.79341 156.764 3.78029C157.262 3.77422 157.731 3.79128 157.954 3.78864C158.299 3.78437 158.737 3.74319 159.086 3.73899C160.376 3.72336 162.339 3.82001 162.939 3.6502C164.194 3.78756 166.766 3.58367 166.579 3.68653C169.865 3.61518 178.704 3.71141 178.448 3.54576C180.328 3.68845 180.164 3.58399 180.947 3.58577C181.822 3.58807 181.369 3.61624 182.064 3.61513C183.687 3.61276 185.24 3.60315 186.859 3.60713C186.605 3.58314 186.351 3.5592 186.097 3.53531C187.796 3.53241 187.211 3.58471 188.946 3.60143C192.14 3.634 190.795 3.58555 191.266 3.52656C191.139 3.58406 194.91 3.59696 195.295 3.59284C195.524 3.58989 194.52 3.50621 196.832 3.54804C196.706 3.57042 196.579 3.5928 196.452 3.6152C197.506 3.59067 200.349 3.65644 200.834 3.65373C201.056 3.65218 202.245 3.47548 203.332 3.63639C203.463 3.61446 203.595 3.59254 203.726 3.57064C204.934 3.61204 206.142 3.65446 207.351 3.6979C207.545 3.65829 207.738 3.6187 207.932 3.57913C208.316 3.58411 208.7 3.58919 209.084 3.59437C208.828 3.62828 208.573 3.66224 208.318 3.69624C210.687 3.71002 213.587 3.81353 214.074 3.69544C214.58 3.72677 215.087 3.75827 215.593 3.78994C215.924 3.75345 216.254 3.71704 216.585 3.68069C218.932 3.73133 218.971 3.76057 220.576 3.83468C220.513 3.80081 220.451 3.76694 220.389 3.73307C221.572 3.80074 223.734 3.88529 225.443 3.92661C226.256 3.94595 227.653 3.9308 227.844 3.93912C228.038 3.94743 229.94 4.16675 230.151 4.01832C232.955 4.1501 234.192 4.11174 235.331 4.1414C236.07 4.1609 236.407 4.20615 237.242 4.23125C238.437 4.26725 239.641 4.28127 240.33 4.3023C240.725 4.31444 240.798 4.35232 241.07 4.3608C242.355 4.4013 241.603 4.34394 242.959 4.38385C243.084 4.38774 244.073 4.45906 245.19 4.4855C245.813 4.50012 247.432 4.49837 247.575 4.50283C248.208 4.52262 247.7 4.60536 249.867 4.55736C249.803 4.57415 249.74 4.59094 249.677 4.60774C252.353 4.73716 252.777 4.66819 253.318 4.67938C253.387 4.68109 254.037 4.73414 254.427 4.74229C255.085 4.75595 255.352 4.72052 255.498 4.72332C256.011 4.73322 257.739 4.80978 258.869 4.80556C258.63 4.92263 262.575 5.1034 263.463 4.99349C264.166 5.04661 264.868 5.09999 265.569 5.15363C265.888 5.14178 266.206 5.12999 266.525 5.11825C266.717 5.14869 266.91 5.17915 267.102 5.20963C268.127 5.19607 269.152 5.18306 270.176 5.17059C270.239 5.22454 270.302 5.2785 270.365 5.33245C270.651 5.33751 270.938 5.34262 271.224 5.34776C271.449 5.31545 271.673 5.28316 271.898 5.25089C272.255 5.27253 272.612 5.29423 272.969 5.316C273.056 5.34906 273.144 5.38212 273.231 5.41518C275.148 5.52515 274.176 5.20253 277.817 5.5986C278.386 5.59847 278.95 5.59826 279.526 5.59874C280.168 5.73904 281.381 5.72083 282.356 5.77501C283.043 5.81322 283.004 5.85669 283.94 5.89783C284.876 5.93909 284.844 5.89461 284.917 5.89746C285.68 5.92784 286.253 5.99101 286.813 6.008C286.897 6.01059 287.11 5.96856 287.822 5.99683C288.535 6.02517 288.961 6.0987 290.021 6.13608C290.564 6.15533 290.722 6.11927 291.203 6.13729C293.496 6.22279 295.785 6.54894 297.537 6.37258C297.927 6.42373 300.749 6.67465 301.955 6.72762C303.832 6.80942 303.111 6.72307 303.857 6.75068C303.964 6.75465 304.535 6.79993 306.105 6.87592C306.385 6.88953 306.319 6.91495 306.359 6.91737C308.191 7.00892 311.72 7.16854 313.763 7.27311C313.944 7.28231 314.887 7.41231 316.494 7.39086C318.864 7.59756 323.323 7.67228 326.407 7.96909C326.832 7.99587 327.367 7.99779 327.56 8.00984C329.222 8.11469 328.613 8.16527 332.364 8.25775C332.058 8.28424 332.932 8.37561 334.165 8.4456C336.017 8.55106 334.707 8.38984 336.193 8.48578C336.192 8.50909 336.191 8.53241 336.189 8.55572C339.617 8.69983 340.243 8.83824 343.705 9.05437C344.953 9.13244 346.792 9.19712 347.088 9.21586C347.203 9.22324 348.555 9.366 348.684 9.37475C349.412 9.42314 349.824 9.42368 350.451 9.46406C352.525 9.59729 354.974 9.83245 354.538 9.67045C355.102 9.73576 355.665 9.80118 356.227 9.86668C358.36 9.86604 360.014 10.1745 360.469 10.067C360.855 10.1217 361.241 10.1765 361.626 10.2313C370.849 10.8455 380.11 11.5026 389.328 12.1979C389.701 12.2705 393.743 12.5691 393.944 12.5786C394.891 12.6218 393.904 12.4467 395.825 12.6206C396.034 12.6796 396.243 12.7387 396.451 12.7978C398.855 13.0028 397.701 12.8688 398.65 12.9157C399.044 12.9526 398.914 12.9751 399.447 13.0203C402.421 13.2709 408.515 13.7742 411.655 14.0439C412.293 14.0984 412.199 14.0596 412.397 14.0763C412.924 14.1212 414.044 14.2554 415.174 14.3523C422.096 14.9427 431.868 15.8005 438.678 16.4169C439.16 16.4603 439.222 16.4295 439.546 16.4584C439.995 16.4988 440.989 16.6236 441.456 16.6653C441.895 16.7047 442.179 16.704 442.647 16.7459C444.809 16.9391 447.543 17.2544 449.86 17.4033C450.062 17.4162 452.512 17.5141 452.563 17.5098C452.886 17.4849 450.763 17.1784 454.276 17.4507C451.142 17.0593 452.174 17.0307 456.195 17.3793C454.194 17.1569 452.15 16.9331 450.064 16.7083C450.062 16.6927 450.061 16.6771 450.059 16.6615C451.965 16.7754 453.834 16.9381 456.603 17.2164C456.518 17.1933 456.433 17.1703 456.348 17.1472C453.918 16.8249 450.858 16.5033 448.93 16.2146C451.785 16.4259 454.604 16.6396 457.322 16.8487C457.188 16.8235 457.053 16.7983 456.918 16.7731C455.624 16.6095 452.716 16.2962 451.587 16.1558C447.294 15.6204 455.345 16.4565 454.018 16.2602C449.434 15.7962 445.185 15.3803 440.643 14.9482C440.531 14.8752 457.675 16.4498 457.455 16.3024C456.087 16.1512 454.698 15.9994 453.289 15.847C453.921 15.8752 454.549 15.9033 455.173 15.9313C455.003 15.9025 454.833 15.8738 454.663 15.845C452.348 15.5806 449.767 15.294 447.546 15.0472C454.78 15.7907 458.083 16.1219 459.749 16.0121C459.562 15.9854 459.375 15.9586 459.188 15.9318C457.774 15.9577 450.189 15.1251 446.442 14.7264C447.217 14.7499 450.611 15.1268 451.391 15.1748C451.602 15.1871 450.873 15.0779 451.362 15.1085C452.667 15.1897 457.935 15.6687 457.168 15.532C456.777 15.4493 447.986 14.5092 446.477 14.3702C450.186 14.666 454.557 15.087 458.31 15.3954C455.909 15.0318 453.764 14.669 449.127 14.201C447.736 13.9986 457.459 14.8963 457.599 14.8836C455.984 14.6812 454.34 14.4778 452.668 14.2736C454.084 14.4261 455.48 14.578 456.856 14.7293C456.861 14.7181 456.866 14.7068 456.871 14.6956C453.351 14.2778 449.782 13.8185 445.807 13.4364C445.953 13.3882 448.372 13.6319 449.559 13.7499ZM51.9103 9.38671C51.8328 9.44712 53.3404 9.26594 54.1964 9.1701C54.069 9.19371 53.9416 9.21737 53.8144 9.24104C55.6299 9.02513 59.0661 8.64266 59.2073 8.72976C60.5166 8.60679 59.9214 8.5813 60.3371 8.52865C60.4974 8.50806 62.1707 8.38857 63.5114 8.19629C63.8311 8.16527 64.1514 8.13441 64.4721 8.10373C64.5373 8.1303 64.6024 8.1569 64.6677 8.18349C65.1111 8.10094 65.5555 8.0187 66.0007 7.93679C61.3501 8.36853 56.606 8.85342 51.9172 9.38591C51.9149 9.38618 51.9126 9.38644 51.9103 9.38671ZM98.819 5.50107C100.547 5.38225 103.206 5.20989 102.668 5.32873C101.588 5.38226 100.477 5.43906 99.3865 5.49647C99.1973 5.49795 99.008 5.4995 98.819 5.50107ZM269.978 5.07928C271.419 5.04588 272.739 5.17293 274.957 5.24514C274.954 5.26364 274.95 5.28215 274.946 5.30065C274.042 5.21966 271.641 5.15534 269.978 5.07928ZM9.84134 15.677C9.52551 15.7511 9.21078 15.8255 8.89694 15.9002C10.1993 15.7234 10.4373 15.6008 11.8156 15.3258C11.8997 15.3092 11.8751 15.3376 11.9044 15.3318C12.2451 15.2633 12.5556 15.1719 12.8649 15.1097C13.4622 14.99 13.9545 14.9191 15.0238 14.7085C15.852 14.5459 15.8529 14.5017 16.1455 14.4463C16.3927 14.3984 18.8983 14.0457 20.5229 13.7027C23.5312 13.0299 10.6938 15.4219 9.84134 15.677ZM0.960907 17.7908C1.24854 17.7205 1.53729 17.6504 1.82681 17.5806C0.942017 17.7265 2.69366 17.3082 4.00699 17.0046C3.94672 16.9494 1.2002 17.6297 0 17.9146C0.319336 17.8729 0.639587 17.8317 0.960907 17.7908ZM38.7605 10.6507C37.5835 10.8073 37.7921 10.8607 37.8439 10.8776C38.2172 10.8253 38.5913 10.7733 38.9662 10.7216C38.8976 10.698 38.829 10.6743 38.7605 10.6507ZM29.8799 11.9306C30.2501 11.9265 32.8741 11.547 34.0928 11.3737C34.1449 11.3662 33.8133 11.3842 34.6553 11.2633C34.9052 11.2259 37.4256 10.9759 36.8573 10.9317C34.5884 11.2396 32.2323 11.5758 29.8835 11.9301C29.8823 11.9303 29.8811 11.9304 29.8799 11.9306ZM27.2919 12.3772C27.7755 12.3159 28.2609 12.2552 28.7477 12.195C28.9938 12.1296 29.2404 12.0644 29.4874 11.9993C28.9335 12.0801 28.3818 12.1616 27.8321 12.2438C27.6517 12.2882 27.4716 12.3327 27.2919 12.3772ZM394.675 11.9678C394.56 11.9864 394.445 12.005 394.329 12.0236C393.892 12.0059 391.76 11.719 392.44 11.7488C393.187 11.8217 393.932 11.8947 394.675 11.9678ZM403.697 12.6337C404.147 12.6565 404.596 12.6793 405.044 12.7022C405.554 12.7911 406.063 12.88 406.57 12.9689C404.348 12.8165 401.946 12.6581 402.344 12.552C401.829 12.5101 401.312 12.4683 400.794 12.4264C401.229 12.5188 401.156 12.5316 399.816 12.46C399.537 12.3579 398.184 12.2896 396.625 12.1484C397.76 12.2339 398.889 12.3195 400.013 12.4053C400.014 12.3914 400.015 12.3774 400.016 12.3635C397.508 12.1671 400.626 12.3277 402.339 12.5232C402.473 12.5154 402.608 12.5077 402.742 12.4999C403.061 12.5445 403.379 12.5891 403.697 12.6337ZM218.858 3.17196C219.175 3.16354 219.493 3.15519 219.81 3.14691C221.037 3.35289 218.536 3.13238 216.753 3.24768C217.343 3.14719 214.627 3.10665 214.472 3.09719C214.785 3.06506 215.098 3.03299 215.411 3.00099C216.56 3.0571 217.709 3.1141 218.858 3.17196ZM227.856 3.22341C226.754 3.29027 232.16 3.41516 233.974 3.44077C234.416 3.44646 235.203 3.41559 235.521 3.42986C235.713 3.4532 235.906 3.47657 236.098 3.49995C236.329 3.44105 239.868 3.60416 241.261 3.67727C241.393 3.65749 241.525 3.63772 241.657 3.61796C242.165 3.64111 242.672 3.66442 243.18 3.68787C243.117 3.66282 243.054 3.63778 242.991 3.61273C243.374 3.65142 243.758 3.69019 244.142 3.72905C245.65 3.8031 244.723 3.6497 245.855 3.72193C247.114 3.80243 245.047 3.81806 245.084 3.86847C244.062 3.82622 241.737 3.73317 240.698 3.70408C240.102 3.6875 240.776 3.79279 238.208 3.62434C237.644 3.63331 237.08 3.64248 236.515 3.65184C235.482 3.58822 234.448 3.52524 233.414 3.46291C233.22 3.49091 233.026 3.51892 232.833 3.54696C232.722 3.54915 230.33 3.41957 230.459 3.39822C229.488 3.43846 227.497 3.4051 225.4 3.36507C225.199 3.34317 224.998 3.32129 224.796 3.29944C226.823 3.37951 225.442 3.29395 226.047 3.27253C226.396 3.26019 227.464 3.24445 227.856 3.22341ZM380.59 10.8194C383.961 11.1504 381.883 10.9287 385.508 11.202C385.253 11.225 384.997 11.2479 384.741 11.2708C382.969 11.0594 380.005 10.8908 380.586 10.8192C380.587 10.8193 380.589 10.8194 380.59 10.8194ZM416.476 13.8336C414.513 13.6393 415.496 13.6574 413.007 13.4242C413.006 13.4241 413.005 13.424 413.004 13.4239C414.283 13.5279 415.595 13.6355 416.877 13.7415C416.744 13.7722 416.61 13.8029 416.476 13.8336ZM302.869 6.10215C301.002 6.02861 301.371 6.01386 299.671 5.99704C297.146 5.79602 299.286 5.91014 299.289 5.83811C299.866 5.88709 300.443 5.93621 301.019 5.98547C302.421 5.98643 301.096 5.88766 301.097 5.88122C301.098 5.88127 301.099 5.88133 301.1 5.88139C301.101 5.85976 301.056 5.85297 301.593 5.86613C302.019 5.94472 302.444 6.0234 302.869 6.10215ZM294.866 5.62856C295.5 5.70621 295.783 5.78081 294.109 5.73361C294.108 5.73355 294.107 5.7335 294.106 5.73344C293.976 5.62017 292.367 5.63235 291.634 5.59187C291.442 5.57149 291.251 5.55111 291.059 5.53076C292.33 5.56262 293.599 5.59522 294.866 5.62856ZM266.745 4.35413C266.734 4.47208 268.148 4.53539 266.153 4.57107C265.767 4.5548 265.38 4.53861 264.994 4.52249C264.741 4.48736 264.488 4.45226 264.235 4.4172C259.334 4.45872 257.878 4.03946 266.157 4.47275C266.158 4.47287 266.159 4.473 266.16 4.47312C266.355 4.43344 266.55 4.39377 266.745 4.35413ZM275.362 4.69494C275.422 4.75945 275.482 4.82397 275.541 4.88849C276.628 4.78214 278.001 4.98038 280.134 4.9633C280.326 4.99017 280.518 5.01706 280.709 5.04397C281.511 5.03312 289.296 5.36034 287.605 5.38262C286.868 5.39165 285.267 5.26515 285.128 5.26051C284.66 5.24491 284.048 5.27183 283.257 5.23496C282.8 5.21356 281.839 5.10995 280.905 5.07096C278.801 4.98268 275.033 4.99795 272.299 4.73283C272.101 4.74388 271.903 4.75496 271.706 4.76606C269.676 4.67665 270.356 4.64323 268.463 4.6427C267.171 4.29659 276.055 4.9492 274.211 4.63919C274.212 4.63923 274.214 4.63928 274.215 4.63933C274.597 4.65779 274.98 4.67633 275.362 4.69494ZM331.245 7.54516C331.372 7.49933 333.726 7.7201 333.179 7.56073C333.946 7.65038 334.711 7.74023 335.476 7.83029C335.469 7.84172 335.463 7.85315 335.456 7.86458C334.694 7.80965 333.931 7.75493 333.167 7.70041C333.163 7.71892 333.159 7.73743 333.155 7.75594C332.024 7.62011 327.243 7.37261 327.382 7.44773C327.127 7.40509 326.873 7.36248 326.624 7.32026C324.369 7.26795 322.43 7.07789 319.955 7.01628C319.765 6.98261 319.574 6.94894 319.384 6.9153C319.258 6.92715 319.133 6.93902 319.007 6.95089C318.106 6.904 317.203 6.85743 316.299 6.8112C313.357 6.57775 319.086 6.78775 319.772 6.83781C319.864 6.84441 319.847 6.89198 320.421 6.93116C321.455 7.00027 327.085 7.26856 328.899 7.40694C328.916 7.37574 328.933 7.34454 328.951 7.31333C329.716 7.3904 330.481 7.46767 331.245 7.54516ZM255.821 4.10028C255.691 4.12875 255.561 4.15722 255.431 4.18571C253.206 4.08048 251.802 4.06577 252.377 3.97544C252.378 3.97548 252.379 3.97551 252.38 3.97555C253.528 4.01639 254.674 4.05797 255.821 4.10028ZM90.3808 5.49972C90.4344 5.43108 91.4847 5.33723 92.8547 5.29729C92.79 5.32031 92.7255 5.34331 92.6608 5.36634C91.946 5.35657 91.0614 5.50842 88.8794 5.64198C88.8772 5.60934 88.875 5.5767 88.8728 5.54406C89.3748 5.52893 89.8773 5.51416 90.3808 5.49972ZM257.741 4.14976C258.42 4.13375 260.318 4.31567 259.066 4.27877C258.109 4.2506 257.377 4.15831 257.741 4.14976ZM424.093 14.4374C423.6 14.4004 423.105 14.3633 422.609 14.3263C422.353 14.2758 422.097 14.2252 421.841 14.1746C421.842 14.1747 421.843 14.1748 421.844 14.1749C422.597 14.2624 423.347 14.3499 424.093 14.4374ZM309.229 6.42815C307.533 6.33682 305.833 6.24668 304.13 6.15779C304.114 6.13882 304.098 6.11985 304.081 6.10088C305.785 6.25206 306.472 6.21569 306.87 6.2314C306.868 6.23131 306.866 6.23122 306.865 6.23113C308.14 6.2814 309.353 6.33307 310.556 6.37378C310.114 6.39183 309.671 6.40995 309.229 6.42815ZM315.09 6.62078C314.795 6.73359 314.42 6.72764 311.787 6.49925C311.892 6.48895 311.997 6.47866 312.102 6.46836C313.469 6.54946 314.263 6.62146 314.027 6.54193C314.381 6.56816 314.736 6.59445 315.09 6.62078ZM288.384 5.35414C288.701 5.32708 291.19 5.48022 291.053 5.49483C291 5.50018 287.769 5.4066 288.384 5.35414ZM71.4926 6.90919C72.072 6.84928 72.6528 6.78989 73.2347 6.73101C72.4583 6.78306 71.6841 6.83603 70.912 6.88993C71.1054 6.8963 71.299 6.90271 71.4926 6.90919ZM65.1585 7.30408C64.7543 7.35954 66.0833 7.3465 63.661 7.61063C65.4232 7.44129 67.1989 7.27707 68.9871 7.1179C68.147 7.17512 67.3095 7.23346 66.4749 7.29292C66.6171 7.24634 66.7595 7.19978 66.9019 7.15325C66.3194 7.20298 65.7383 7.25326 65.1585 7.30408ZM63.2715 7.57144C64.1957 7.39024 59.265 7.87588 58.7533 7.94472C58.6472 7.95831 58.1498 8.07729 57.9658 8.11113C58.7323 8.03024 59.5264 7.94787 60.2596 7.87299C60.011 7.91944 59.7666 7.96559 59.5147 8.01264C60.3925 7.92913 61.266 7.84772 62.1467 7.76721C61.7687 7.78374 61.3912 7.80054 61.0144 7.81756C61.7642 7.73458 62.5168 7.65252 63.2715 7.57144ZM83.494 5.87237C82.852 5.9215 82.2113 5.97121 81.5721 6.02149C81.6974 5.97926 81.8228 5.93705 81.9482 5.89486C82.3313 5.86621 82.7148 5.83777 83.099 5.80953C83.2306 5.83045 83.3623 5.8514 83.494 5.87237ZM70.5092 6.87619C71.4592 6.94987 73.9947 6.3854 71.0107 6.77246C70.7106 6.8118 70.4193 6.86888 70.5092 6.87619ZM56.8427 8.16585C54.8337 8.2677 55.3097 8.47021 57.1893 8.19357C57.2839 8.1795 56.9937 8.15817 56.8427 8.16585ZM42.0242 9.92829C41.8643 9.95063 41.5906 10.0678 40.0557 10.1966C39.8055 10.24 39.5557 10.2835 39.3063 10.3272C39.8851 10.2798 44.9711 9.63737 44.2627 9.65004C43.4799 9.74895 42.8272 9.81984 42.0242 9.92829ZM46.917 8.99827C47.6601 8.90904 48.4061 8.82088 49.1551 8.73377C48.9112 8.78878 48.6678 8.84388 48.4247 8.89911C48.7928 8.86176 49.1617 8.82466 49.5312 8.78783C50.1561 8.66893 50.7832 8.55078 51.4126 8.43334C49.7719 8.61599 48.1445 8.8036 46.5309 8.99626C46.6595 8.9969 46.7882 8.99757 46.917 8.99827ZM67.0243 6.77581C65.5634 6.9441 63.7726 7.0792 61.4315 7.31985C61.4304 7.32004 61.4292 7.32024 61.428 7.32044C61.3113 7.33256 61.1078 7.3885 60.7328 7.42797C60.4792 7.44704 53.931 8.10778 54.4664 8.1153C56.9622 7.89371 57.9 7.71604 58.5171 7.78459C58.6369 7.74381 58.7568 7.70306 58.8767 7.66233C61.2604 7.36633 61.9114 7.40121 63.2489 7.30505C63.2416 7.2845 63.2343 7.26396 63.2271 7.24341C64.1135 7.15439 65.0033 7.06667 65.8964 6.98024C65.7718 7.00598 65.6471 7.03175 65.5226 7.05754C65.8384 7.02758 66.1544 6.99779 66.471 6.96815C67.236 6.83352 68.2158 6.72878 67.0243 6.77581ZM43.4525 9.47066C42.6931 9.39834 35.9422 10.42 32.8628 10.8618C34.5416 10.7065 36.9631 10.2901 38.7508 10.0433C42.1879 9.57223 39.8197 9.95519 40.4064 9.90132C40.6954 9.87444 42.6459 9.51136 43.4525 9.47066ZM72.414 6.32217C70.6633 6.48617 69.6853 6.53636 68.1901 6.73167C68.3167 6.73187 68.4434 6.73209 68.5701 6.73234C69.077 6.67245 73.2965 6.2703 72.414 6.32217ZM28.2695 11.617C31.5842 11.0334 29.9671 11.4368 31.6926 11.0599C30.5406 11.2288 29.3974 11.4006 28.2629 11.5756C28.2651 11.5894 28.2673 11.6032 28.2695 11.617ZM261.586 3.67722C262.988 3.72246 264.576 3.75016 265.417 3.84138C264.457 3.81585 263.493 3.7907 262.535 3.76625C262.219 3.73652 261.902 3.70684 261.586 3.67722ZM221.372 1.99462C221.695 1.98611 222.968 2.0536 223.102 2.05632C223.352 2.06123 223.284 2.0388 223.288 2.03336C224.921 2.06971 223.413 2.10499 224.621 2.14356C224.827 2.14975 227.666 2.17658 228.821 2.20524C230.597 2.24844 232.371 2.28593 233.035 2.30292C234.155 2.33133 236.233 2.43131 238.074 2.4816C238.833 2.50223 239.098 2.46989 239.861 2.4911C244.75 2.62301 254.407 2.972 258.742 3.09819C259.814 3.12828 260.838 3.11221 261.404 3.13616C261.85 3.17051 262.296 3.20497 262.742 3.23954C264.127 3.11935 264.585 3.28634 266.071 3.35633C267.015 3.40086 267.458 3.36724 267.585 3.37205C268.425 3.40427 268.839 3.44372 269.498 3.47258C270.238 3.50489 271.302 3.52308 271.566 3.5374C271.728 3.54662 271.209 3.5922 274.076 3.70345C276.996 3.81739 279.873 3.92827 282.864 4.05239C281.86 4.21109 281.009 4.03739 279.789 3.97941C279.462 3.96387 279.668 4.00438 279.384 3.99119C278.581 3.95411 277.058 3.86059 276.395 3.84161C275.681 3.82111 275.922 3.90483 275.017 3.8414C274.971 3.83817 275.117 3.81338 274.904 3.79978C272.763 3.66445 272.059 3.68989 269.344 3.58842C267.54 3.51536 256.619 3.10307 256.246 3.11593C254.29 3.15473 265.783 3.54792 267.142 3.5963C267.614 3.61079 267.121 3.55873 267.551 3.56819C267.733 3.57234 269.369 3.69753 270.985 3.76498C272.941 3.84577 276.863 3.95787 278.718 4.03632C294.754 4.70945 310.549 5.45236 326.499 6.36067C326.834 6.37982 327.285 6.44408 328.405 6.50861C349.129 7.70164 370.622 9.12072 391.602 10.7699C396.201 11.1314 400.613 11.5202 405.318 11.8784C405.89 11.9537 406.461 12.0291 407.03 12.1046C405.573 11.961 402.86 11.8031 402.61 11.784C402.521 11.777 401.962 11.6996 401.051 11.6277C399.753 11.5251 399.247 11.5123 399.137 11.5034C398.822 11.4782 399.03 11.4656 398.729 11.4416C396.484 11.2632 394.731 11.1165 392.636 10.9526C390.267 10.7676 389.05 10.7289 387.307 10.5357C387.108 10.5439 386.908 10.5521 386.708 10.5603C385.446 10.3608 377.856 9.80484 374.697 9.58466C373.707 9.51491 373.878 9.56839 373.545 9.54442C373.344 9.53013 373.379 9.47798 370.857 9.30902C369.582 9.22389 369.243 9.23935 368.601 9.19291C368.253 9.16764 368.312 9.13291 367.81 9.09772C364.907 8.8944 362.516 8.74257 359.629 8.55477C358.817 8.50198 358.806 8.53373 358.624 8.52107C357.946 8.47413 356.807 8.34269 355.141 8.23268C352.4 8.05056 346.87 7.69528 344.577 7.57919C344.24 7.56205 343.959 7.5834 343.712 7.56737C343.338 7.54297 343.193 7.49336 343.127 7.48904C341.873 7.4103 342.624 7.49475 341.799 7.43442C341.356 7.40207 340.896 7.32728 339.863 7.2587C338.498 7.16826 338.763 7.23956 338.192 7.1993C338.132 7.19478 338.116 7.15556 337.554 7.12024C335.423 6.98642 332.315 6.79305 330.276 6.67474C329.691 6.64067 329.254 6.64101 328.436 6.59426C326.775 6.49556 317.547 5.96641 316.761 5.94224C316.681 5.93946 317.507 6.04028 316.185 5.96747C315.803 5.92345 315.42 5.87948 315.037 5.83557C314.392 5.83875 313.747 5.84209 313.101 5.8456C313.124 5.71649 309.359 5.50028 309.396 5.63542C308.986 5.61969 308.576 5.60401 308.165 5.58842C307.315 5.45338 306.745 5.458 305.092 5.32123C304.833 5.33635 304.573 5.35149 304.314 5.36666C304.249 5.34473 304.185 5.3228 304.121 5.30087C303.232 5.35807 301.784 5.18499 301.608 5.17584C300.929 5.14038 300.417 5.14137 300.098 5.12509C298.91 5.06459 296.322 4.90577 294.934 4.8577C294.869 4.85552 294.93 4.9018 294.538 4.88885C293.829 4.86559 293.763 4.79892 292.814 4.82987C292.624 4.8024 292.434 4.77494 292.243 4.74749C292.04 4.74789 291.837 4.7483 291.634 4.74873C290.437 4.68922 289.239 4.63036 288.039 4.57219C289.127 4.69407 287.87 4.67895 286.684 4.56912C286.283 4.53191 286.641 4.50291 286.508 4.49027C286.326 4.47194 280.924 4.26331 280.563 4.27842C280.307 4.25366 280.052 4.22893 279.796 4.20423C279.665 4.22699 279.535 4.24976 279.404 4.27253C279.263 4.25685 279.121 4.24115 278.982 4.22556C277.584 4.21692 273.956 3.9581 273.296 3.94178C272.943 3.93285 273.256 4.06481 271.567 3.98719C271.509 3.952 271.452 3.9168 271.395 3.88161C271.008 3.862 270.621 3.84246 270.234 3.823C269.507 3.79821 268.447 3.81558 268.412 3.85338C268.185 3.82145 267.959 3.78955 267.733 3.75768C267.12 3.81088 263.862 3.66493 262.554 3.57101C262.172 3.58057 261.79 3.5902 261.407 3.59991C260.895 3.55406 260.384 3.50835 259.872 3.46278C258.684 3.41372 259.937 3.50315 259.684 3.49837C259.148 3.48767 256.418 3.31769 256.595 3.42179C256.222 3.40971 255.849 3.3977 255.476 3.38577C255.285 3.35153 255.095 3.31731 254.904 3.28311C254.26 3.35893 253.154 3.28859 250.878 3.25335C250.688 3.22525 250.498 3.19717 250.308 3.16911C249.603 3.17909 248.899 3.18935 248.194 3.1999C248.051 3.15882 247.907 3.11775 247.764 3.07669C247.458 3.06231 247.152 3.04799 246.846 3.03372C246.221 3.09775 245.111 2.97665 244.543 2.99454C243.714 3.02074 244.352 3.09752 245.888 3.1533C245.771 3.20906 241.196 3.05276 240.139 3.02139C240.209 3.01154 240.28 3.00169 240.35 2.99184C241.429 3.03003 242.508 3.06891 243.587 3.10847C244.496 2.98294 241.564 2.94115 240.219 2.88625C240.096 2.88115 239.4 2.80513 238.043 2.77533C237.518 2.76363 235.467 2.7955 235.075 2.79073C231.915 2.75218 234.241 2.68824 231.147 2.72047C231.793 2.65529 230.016 2.68029 228.167 2.62458C227.852 2.61467 225.185 2.49338 225.005 2.48837C223.881 2.45512 225.103 2.55057 223.477 2.49959C223.282 2.47709 223.087 2.4546 222.892 2.43215C222.514 2.42474 222.135 2.41742 221.757 2.4102C219.458 2.53274 218.926 2.40173 218.11 2.37153C217.781 2.35945 218.204 2.41009 217.35 2.38618C217.028 2.37726 216.671 2.33504 215.806 2.31818C213.099 2.26624 212.171 2.40676 209.678 2.21128C209.295 2.22928 208.912 2.24739 208.529 2.26559C208.271 2.23426 208.013 2.20298 207.755 2.17174C205.778 2.22768 206.492 2.15395 205.779 2.1462C203.895 2.12512 200.044 2.10289 199.707 2.16729C198.087 1.99887 196.142 2.1572 195.498 2.14677C195.116 2.12542 194.734 2.10418 194.353 2.08304C193.904 2.09882 193.455 2.11474 193.006 2.13082C193.225 1.98119 190.902 2.11664 190.68 2.11821C190.422 2.11856 186.855 2.05999 185.531 2.05896C184.207 2.05656 181.903 2.09599 181.701 2.09628C181.473 2.09609 179.207 2.05537 177.437 2.05985C175.881 2.05712 166.746 2.16726 167.326 2.10033C167.922 2.07714 168.771 2.05495 169.506 2.04152C171.779 1.98742 185.225 1.93029 188.639 1.94552C195.529 1.94954 202.688 2.01762 209.602 2.09817C210.009 2.10293 210.072 2.06475 210.421 2.06878C210.951 2.07501 212.296 2.13378 212.818 2.14097C214.768 2.16691 217.134 2.20041 218.178 2.21792C220.508 2.25698 222.108 2.26418 223.873 2.29551C224.425 2.30513 227.216 2.4108 229.131 2.43335C229.478 2.43007 229.826 2.42687 230.173 2.42374C229.187 2.38825 226.601 2.29883 225.4 2.27063C223.613 2.22836 222.681 2.24224 222.021 2.22895C221.469 2.21753 218.648 2.12926 217.363 2.10684C216.964 2.09972 216.882 2.13928 216.541 2.13339C214.691 2.10104 212.25 2.06239 210.64 1.99961C211.297 2.02139 207.196 1.99067 206.982 1.98881C206.614 1.9842 206.214 1.94089 205.463 1.93198C204.017 1.91521 204.199 1.99718 202.395 1.89788C201.948 1.91659 201.501 1.93544 201.054 1.95443C201.028 1.84583 195.385 1.94225 193.769 1.80464C193.732 1.78678 201.073 1.80366 201.677 1.81094C205.308 1.83335 210.696 1.92989 214.228 1.96821C215.289 1.9786 218.627 1.97087 218.879 1.97712C219.285 1.98621 218.918 2.01677 219.093 2.02124C222.685 2.11457 220.894 2.0075 221.372 1.99462ZM63.2256 7.06767C64.3019 6.95777 65.3833 6.84977 66.4694 6.7437C66.3884 6.72774 66.3073 6.7118 66.2263 6.69587C65.7297 6.75166 65.2341 6.80786 64.7397 6.86445C64.3574 6.88705 63.9759 6.90988 63.5949 6.93296C63.4717 6.97784 63.3487 7.02273 63.2256 7.06767ZM60.5721 7.234C59.6431 7.31686 59.6104 7.3704 59.3878 7.39573C58.7279 7.47138 58.156 7.51125 57.5183 7.57963C58.2636 7.61809 59.8366 7.40051 60.5721 7.234ZM79.9934 5.46561C79.7812 5.48758 78.3719 5.72265 76.7612 5.73481C75.5649 5.86883 74.3792 6.00452 73.1884 6.14324C75.2054 5.91332 78.0264 5.74688 79.0312 5.66703C79.4118 5.63649 79.4815 5.59219 79.7862 5.56802C81.5417 5.42909 83.2697 5.39092 83.4414 5.24957C81.7691 5.40906 80.2641 5.43783 79.9934 5.46561ZM69.3986 6.39327C69.1178 6.44544 68.8374 6.49773 68.5571 6.55016C69.5782 6.45738 70.6033 6.36626 71.6325 6.27677C71.3519 6.27389 71.0714 6.27114 70.7913 6.2685C70.3262 6.30976 69.8621 6.35134 69.3986 6.39327ZM147.758 2.34177C147.124 2.35442 146.491 2.36745 145.859 2.38086C145.893 2.36053 146.617 2.34579 146.884 2.32728C146.882 2.32731 146.881 2.32733 146.88 2.32736C147.177 2.3065 147.049 2.28378 147.59 2.26203C147.646 2.28861 147.702 2.31519 147.758 2.34177ZM407.795 12.0838C408.819 12.1631 418.533 12.9917 417.715 12.9958C417.304 12.9954 413.913 12.6728 412.942 12.5914C411.656 12.4823 408.119 12.2636 407.795 12.0838ZM424.931 13.5465C425.106 13.632 419.103 13.1133 418.49 13.0493C418.617 13.0502 418.814 13.0446 418.982 13.0542C419.812 13.1011 423.659 13.4515 424.931 13.5465ZM182.977 1.82104C182.488 1.85661 181.999 1.89236 181.51 1.9283C181.638 1.88151 181.767 1.83474 181.896 1.78799C182.256 1.7989 182.616 1.80992 182.977 1.82104ZM230.567 2.45442C238.742 2.63861 246.905 2.86381 255.083 3.12724C254.365 3.08445 253.647 3.04195 252.929 2.99974C245.876 2.78265 238.381 2.59647 231.577 2.40905C231.24 2.42411 230.903 2.43923 230.567 2.45442ZM82.2773 5.08154C84.366 4.92583 86.1699 4.83178 88.4203 4.62424C86.272 4.71739 85.1543 4.87848 83.0397 4.95491C83.0385 4.955 83.0373 4.95509 83.0362 4.95517C82.7829 4.99721 82.53 5.03933 82.2773 5.08154ZM128.978 2.64375C128.338 2.63174 127.698 2.62015 127.059 2.609C127.826 2.58309 128.595 2.5578 129.365 2.53313C129.236 2.56998 129.107 2.60686 128.978 2.64375ZM301.838 4.86547C304.03 5.04292 309.613 5.19673 311.373 5.37583C311.488 5.38753 310.421 5.36805 312.139 5.52811C310.832 5.44523 309.946 5.3849 309.848 5.32459C309.466 5.3236 309.084 5.32267 308.702 5.32181C308.069 5.27521 307.437 5.22879 306.803 5.18254C306.869 5.24093 306.82 5.23535 305.847 5.14866C305.402 5.14019 304.956 5.1318 304.511 5.1235C304.323 5.09084 304.136 5.05821 303.948 5.02558C303.561 5.03893 303.174 5.05235 302.786 5.06583C301.284 4.95653 302.203 4.93863 301.838 4.86547ZM294.159 4.51247C294.498 4.51207 304.691 5.04377 300.058 4.92933C298.857 4.86767 297.654 4.80665 296.449 4.74628C297.453 4.61183 294.168 4.61983 293.909 4.61206C292.63 4.57049 291.002 4.4531 290.072 4.41355C289.273 4.37953 288.796 4.39087 288.233 4.36502C286.317 4.27664 283.279 4.14495 282.864 4.05239C284.36 4.11447 285.877 4.17939 287.428 4.24971C289.067 4.32428 290.512 4.31722 293.576 4.55585C294.335 4.58052 294.067 4.51133 294.159 4.51247ZM125.14 2.68271C125.217 2.75419 121.352 2.87758 121.329 2.85001C121.32 2.83272 122.576 2.78581 122.756 2.77269C122.757 2.77265 122.758 2.77261 122.759 2.77257C122.834 2.76691 122.453 2.75208 123.044 2.72224C123.742 2.70855 124.44 2.69537 125.14 2.68271ZM392.707 10.6988C393.239 10.6921 405.128 11.661 405.515 11.719C405.611 11.7325 405.475 11.74 405.512 11.7538C402.714 11.463 398.706 11.2106 396.117 11.0107C395.385 10.9541 395.606 10.9415 395.565 10.9377C395.563 10.9375 395.561 10.9374 395.559 10.9373C395.145 10.9043 393.257 10.8294 392.707 10.6988ZM315.222 5.61346C314.711 5.59799 314.2 5.58263 313.688 5.56738C313.56 5.53719 313.431 5.50702 313.303 5.47685C313.304 5.47691 313.305 5.47697 313.306 5.47703C313.946 5.52234 314.584 5.56782 315.222 5.61346ZM332.839 6.52717C332.714 6.53626 332.589 6.54536 332.464 6.55446C331.181 6.48113 329.895 6.40839 328.605 6.33626C328.735 6.35302 328.864 6.36979 328.993 6.38656C327.037 6.2984 326.25 6.19603 325.227 6.14628C325.228 6.14635 325.229 6.14641 325.23 6.14648C325.12 6.14121 324.985 6.16785 324.575 6.14588C323.636 6.09525 320.934 5.95773 320.607 5.9055C319.922 5.79326 325.356 6.13079 326.36 6.18599C326.814 6.21027 327.372 6.2122 327.655 6.22775C327.964 6.24484 328.383 6.30942 329.134 6.35166C329.355 6.36381 331.792 6.45803 332.839 6.52717ZM355.389 7.98832C354.996 7.99943 354.182 7.90988 353.881 7.89621C353.809 7.89292 354.365 7.96054 353.688 7.92537C353.498 7.89168 353.307 7.85802 353.117 7.82435C353.876 7.87884 354.633 7.93349 355.389 7.98832ZM118.658 2.89134C118.767 2.87856 120.832 2.8003 120.932 2.8019C122.172 2.82112 117.894 2.98121 118.658 2.89134ZM66.209 6.21003C67.1353 6.00734 55.9208 7.22225 54.7684 7.36863C54.8276 7.42305 57.5346 7.06782 56.122 7.30575C57.4852 7.1084 61.2139 6.749 62.0585 6.6538C62.5825 6.59347 62.7101 6.52741 62.7894 6.51787C63.0978 6.48008 65.8735 6.27497 66.209 6.21003ZM45.4994 8.5019C46.6086 8.35096 47.6155 8.21574 48.6824 8.07583C47.4277 8.21944 46.2139 8.36172 44.9033 8.52042C45.1017 8.51417 45.3005 8.50799 45.4994 8.5019ZM44.1255 8.64765C44.1476 8.58194 40.4842 9.10651 39.5367 9.22551C40.6243 9.17963 42.4142 8.84367 44.1255 8.64765ZM104.849 3.37083C106.52 3.24505 107.251 3.39122 105.21 3.41572C105.148 3.41628 104.779 3.37654 104.849 3.37083ZM302.372 4.63453C302.661 4.64708 306.236 4.7661 306.439 4.80625C307.087 4.93254 304.749 4.77702 303.961 4.77346C302.689 4.76786 304.554 4.90667 301.457 4.71995C301.583 4.74485 301.709 4.76975 301.835 4.79465C300.019 4.71216 300.619 4.61182 300.294 4.57928C300.195 4.56933 299.058 4.52536 298.853 4.5073C296.295 4.27984 302.108 4.62112 302.372 4.63453ZM146.616 1.88801C150.004 1.76685 148.534 1.87463 151.973 1.80978C152.088 1.84726 147.073 1.91275 146.616 1.88801ZM269.668 3.28257C273.142 3.43059 275.994 3.49011 279.219 3.69532C279.01 3.79358 268.77 3.27356 269.668 3.28257ZM432.669 13.7407C419.2 12.6935 403.493 11.3045 389.256 10.2093C387.673 10.0874 387.515 10.1199 386.941 10.0712C386.567 10.0396 386.622 10.0082 386.141 9.97146C368.326 8.61458 351.31 7.42311 334.216 6.42634C333.145 6.36289 327.869 6.13165 326.751 5.95374C325.9 5.81736 329.689 6.10293 330.318 6.13942C330.792 6.16647 330.814 6.12669 331.13 6.145C331.465 6.16445 331.187 6.17624 331.575 6.19944C333.221 6.2979 335.012 6.39346 336.49 6.4849C351.031 7.38425 365.127 8.32211 379.614 9.38663C381.36 9.51528 381.002 9.45605 381.09 9.46239C381.091 9.46256 381.092 9.46272 381.093 9.46289C390.396 10.1495 401.192 11.0742 411.069 11.8796C418.122 12.4515 424.926 13.0265 432.065 13.6605C432.266 13.6872 432.468 13.7139 432.669 13.7407ZM294.929 4.39386C295.804 4.31089 296.004 4.4442 299.152 4.54439C299.407 4.57784 299.662 4.61131 299.916 4.64481C298.255 4.55985 296.583 4.4757 294.924 4.39362C294.925 4.3937 294.927 4.39378 294.929 4.39386ZM315.654 5.38765C316.199 5.24755 323.205 5.74801 326.328 5.89633C326.899 6.01254 322.344 5.71715 321.261 5.66704C320.723 5.64142 317.829 5.56881 315.623 5.40311C315.633 5.39796 315.643 5.39281 315.654 5.38765ZM78.0384 4.94159C78.5455 4.90636 79.0533 4.87151 79.5621 4.83704C78.2914 4.95399 77.0262 5.07328 75.767 5.19493C77.7773 5.01844 79.8025 4.84796 81.8417 4.68341C81.459 4.67719 81.0768 4.67118 80.695 4.66538C79.8067 4.75632 78.9211 4.84839 78.0384 4.94159ZM84.6512 4.46094C81.0621 4.70859 84.8115 4.52787 85.7103 4.42426C86.2468 4.36154 85.018 4.43582 84.6512 4.46094ZM93.8976 3.78281C92.2312 3.82357 88.9042 4.03956 90.0952 4.0831C91.8724 3.90935 93.025 3.88201 95.63 3.69082C95.2476 3.69054 94.8658 3.69043 94.4842 3.69052C94.4825 3.69063 94.4807 3.69074 94.4789 3.69085C94.2851 3.72145 94.0912 3.75211 93.8976 3.78281ZM83.0067 4.50643C80.6617 4.74704 87.4684 4.23064 85.3239 4.33903C85.222 4.34354 83.0977 4.49645 83.0067 4.50643ZM417.777 12.2827C418.057 12.3468 416.249 12.1897 415.642 12.1404C412.943 11.9204 409.799 11.6378 407.083 11.4184C407.287 11.4221 407.49 11.4258 407.693 11.4295C411.038 11.7067 414.346 11.9863 417.777 12.2827ZM398.632 10.7304C396.811 10.5848 394.977 10.4396 393.128 10.2951C392.956 10.2816 392.149 10.1844 392.752 10.2231C394.728 10.3915 396.688 10.5607 398.632 10.7304ZM283.269 3.63371C284.693 3.67197 280.598 3.38363 280.777 3.51425C281.608 3.55374 282.439 3.59356 283.269 3.63371ZM270.061 3.05171C270.951 3.0972 271.841 3.1431 272.73 3.1894C272.732 3.17538 272.734 3.16136 272.735 3.14734C271.844 3.11506 270.953 3.08318 270.061 3.05171ZM424.99 12.889C424.067 12.8547 421.856 12.6512 420.458 12.53C421.425 12.5729 423.696 12.794 424.99 12.889ZM304.545 4.56986C304.432 4.59592 310.057 4.87346 308.113 4.71673C306.926 4.66718 305.736 4.61822 304.545 4.56986ZM316.012 5.11493C314.797 5.04258 313.853 5.00402 314.101 5.06876C314.747 5.10079 315.391 5.13299 316.036 5.16535C316.028 5.14854 316.02 5.13173 316.012 5.11493ZM100.246 3.30953C102.332 3.19736 104.316 3.09657 106.354 2.99826C106.278 2.988 106.202 2.97775 106.126 2.9675C104.164 3.06248 102.247 3.15999 100.237 3.26801C100.24 3.28184 100.243 3.29569 100.246 3.30953ZM426.132 12.8642C427.566 13.0021 428.987 13.14 430.394 13.2778C428.984 13.1585 427.561 13.039 426.124 12.9196C426.125 12.9009 426.127 12.8823 426.129 12.8637C426.13 12.8639 426.131 12.864 426.132 12.8642ZM72.3206 5.08984C78.5207 4.50125 70.5929 5.09456 68.9218 5.35055C68.92 5.35063 68.9182 5.35071 68.9165 5.35079C68.7726 5.37234 69.0822 5.38579 68.8429 5.4241C69.4785 5.34796 70.1155 5.27246 70.7543 5.19759C71.3405 5.16933 71.928 5.1416 72.5167 5.11441C72.7091 5.08877 72.9016 5.06319 73.0944 5.03765C72.8362 5.05494 72.5783 5.07234 72.3206 5.08984ZM47.2433 7.64057C41.6113 8.35162 47.4076 7.72075 50.1241 7.32464C50.1001 7.3075 47.7496 7.5766 47.2433 7.64057ZM61.9775 6.03354C62.8564 5.95543 63.7384 5.87861 64.6237 5.80307C64.7356 5.78049 64.8474 5.75793 64.9594 5.73538C64.2787 5.78861 63.5999 5.84258 62.9231 5.89732C62.6074 5.94256 62.2923 5.98797 61.9775 6.03354ZM91.2045 3.47575C92.6295 3.3717 94.4501 3.38378 89.8809 3.64634C89.8823 3.63214 89.8837 3.61794 89.8851 3.60374C90.0668 3.59393 90.6012 3.57208 90.6303 3.56915C90.7138 3.56019 90.6118 3.51962 91.2045 3.47575ZM36.7585 8.64734C36.6007 8.66475 36.489 8.52838 34.8767 8.91706C34.3815 8.97959 33.8905 9.04227 33.3955 9.10629C33.2674 9.15838 33.1392 9.21053 33.0114 9.26269C34.9475 8.94932 35.1367 8.99205 35.2807 8.97196C35.9177 8.88634 35.4419 8.9205 35.8527 8.86099C36.9105 8.70647 39.3511 8.39248 38.2328 8.44916C37.83 8.46964 36.917 8.63012 36.7585 8.64734ZM40.5374 8.04113C40.302 8.08516 41.0712 8.02596 40.8938 8.06211C40.7358 8.0927 38.3981 8.45593 39.0425 8.44225C39.4261 8.38653 39.8107 8.3311 40.196 8.27599C40.3241 8.23844 40.4523 8.2009 40.5805 8.16342C40.9572 8.1316 41.3344 8.1001 41.7126 8.06886C42.3387 7.93596 43.6834 7.69622 42.0731 7.86575C42.6628 7.79254 43.2543 7.72005 43.8479 7.64824C44.1581 7.63245 44.4687 7.61685 44.7797 7.60144C44.6137 7.58594 44.4478 7.5705 44.282 7.55511C43.0252 7.71398 41.7769 7.87597 40.5374 8.04113ZM22.5239 10.81C22.5963 10.8164 22.6688 10.8228 22.7413 10.8293C20.6776 11.1469 17.2114 11.7754 19.1689 11.5348C22.1968 10.9928 24.8778 10.5459 27.8174 10.0822C28.0078 10.0373 28.1984 9.99253 28.3893 9.94783C26.2343 10.3494 26.8637 10.0134 25.0104 10.3882C24.7002 10.4522 25.6175 10.3776 23.6479 10.6595C23.7144 10.6291 23.7809 10.5986 23.8474 10.5682C23.4048 10.6483 22.9636 10.7289 22.5239 10.81ZM4.21436 14.5049C7.8363 13.6533 3.81644 14.493 3.17694 14.7066C3.17807 14.7063 3.17926 14.7061 3.18033 14.7058C1.4035 15.2822 5.28583 14.2958 5.5401 14.2463C5.86304 14.1756 6.62848 14.1137 8.37103 13.5711C6.96677 13.8762 5.58102 14.1874 4.21436 14.5049ZM16.0651 11.9874C15.7578 12.0425 15.9329 12.0377 15.8004 12.0627C15.7993 12.0629 15.7981 12.0631 15.797 12.0633C13.8126 12.429 9.35504 13.324 8.78003 13.5477C10.2919 13.2134 16.5747 11.9897 17.0084 11.8584C16.6932 11.9011 16.3787 11.9441 16.0651 11.9874ZM29.8521 9.67199C31.0593 9.42384 28.3194 9.8433 27.6176 9.98651C27.4847 10.0141 28.6015 9.92896 29.8521 9.67199ZM122.805 1.52228C125.474 1.46024 121.969 1.62375 123.185 1.63482C122.675 1.64878 122.166 1.66302 121.658 1.67753C122.04 1.62562 122.422 1.57387 122.805 1.52228ZM244.788 1.34491C245.411 1.35615 245.115 1.38161 245.169 1.38365C245.579 1.39443 245.965 1.378 246.122 1.38548C249.029 1.52643 247.094 1.49818 247.064 1.50386C247.001 1.53558 247.765 1.59726 246.704 1.60444C246.062 1.57375 245.422 1.54337 244.78 1.51319C244.461 1.52274 244.142 1.53235 243.823 1.54202C242.549 1.46631 244.218 1.50207 244.408 1.45451C244.482 1.43573 243.284 1.37678 244.788 1.34491ZM127.594 1.24168C128.031 1.28597 129.101 1.32536 128.055 1.41888C128.054 1.41892 128.053 1.41896 128.052 1.419C127.858 1.43616 127.07 1.46846 126.828 1.49191C125.101 1.47273 125.757 1.36821 127.594 1.24168ZM233.274 0.937423C232.237 0.926411 231.201 0.916055 230.165 0.906369C230.182 0.942076 230.198 0.977785 230.215 1.01349C230.77 1.01653 231.324 1.01975 231.879 1.02317C232.073 1.04381 232.267 1.06448 232.461 1.08517C231.772 1.10922 231.083 1.13356 230.393 1.15819C229.565 1.12528 228.736 1.09279 227.907 1.06074C228.288 1.05037 228.67 1.04009 229.051 1.02991C227.025 0.964868 227.465 1.06038 225.786 1.05795C225.213 1.0133 224.639 0.968859 224.066 0.92463C223.233 0.940818 222.401 0.957448 221.569 0.974527C220.173 0.932815 220.051 0.905736 220.991 0.885726C220.298 0.829885 219.536 0.883291 218.7 0.850988C218.631 0.848355 218.762 0.810329 218.701 0.808759C214.378 0.706356 214.607 0.81913 213.917 0.812091C213.432 0.807336 211.481 0.706697 211.451 0.682071C211.414 0.649148 215.47 0.577024 209.122 0.48362C212.406 0.437784 216.13 0.590562 213.72 0.683518C214.756 0.685091 219.327 0.796204 219.619 0.798626C220.044 0.800416 219.896 0.747808 220.428 0.756325C220.743 0.761648 221.574 0.890102 224.067 0.840177C224.385 0.865276 224.703 0.890439 225.021 0.915667C225.32 0.906395 225.618 0.897181 225.917 0.888023C225.304 0.820381 224.691 0.752976 224.077 0.685813C226.509 0.794231 228.531 0.726554 230.011 0.854296C231.292 0.872279 231.915 0.87619 231.366 0.815152C231.75 0.824045 232.135 0.83303 232.52 0.842105C232.771 0.873839 233.022 0.905612 233.274 0.937423ZM135.47 1.08599C136.735 0.996355 137.195 1.10282 136.998 1.11465C135.886 1.18093 134.813 1.13282 135.47 1.08599ZM242.478 1.34284C241.074 1.33452 239.669 1.32736 238.264 1.32138C238.265 1.28404 238.266 1.2467 238.267 1.20936C239.671 1.25268 241.075 1.29718 242.478 1.34284ZM122.412 1.45281C122.284 1.48558 122.156 1.51837 122.029 1.55117C120.492 1.50639 118.983 1.71329 118.229 1.71361C118.066 1.71362 118.393 1.65083 118.705 1.62772C118.897 1.61237 122.138 1.45251 122.412 1.45281ZM58.4987 5.76682C59.0858 5.72439 59.656 5.68447 60.2168 5.64616C60.1826 5.61799 60.1483 5.58984 60.114 5.56168C59.8355 5.58424 59.5603 5.60662 59.2793 5.62976C59.0188 5.67533 58.7586 5.72102 58.4987 5.76682ZM64.955 5.17223C65.9704 5.07281 66.9899 4.97508 68.0137 4.87901C64.1154 5.21118 67.3079 4.89959 64.9464 5.08109C64.9492 5.11147 64.9521 5.14185 64.955 5.17223ZM75.2963 4.19079C75.1707 4.18225 75.0453 4.17374 74.9199 4.16525C73.9125 4.2486 72.9118 4.33316 71.8663 4.42354C72.5133 4.30208 73.1721 4.18045 73.7937 4.0627C74.162 4.03157 74.5309 4.00065 74.9002 3.96993C75.0322 4.04352 75.1642 4.11714 75.2963 4.19079ZM272.403 2.13661C273.02 2.15922 275.163 2.30098 275.07 2.31845C274.179 2.30878 273.286 2.29951 272.393 2.29065C272.391 2.25309 272.388 2.21552 272.385 2.17796C272.259 2.19168 272.132 2.20541 272.005 2.21916C271.498 2.18554 270.991 2.15205 270.484 2.11869C270.227 2.14162 269.97 2.16458 269.713 2.18757C269.457 2.14051 269.201 2.09348 268.945 2.04648C271.4 2.07292 271.312 2.13661 271.822 2.15542C272.081 2.16509 272.245 2.14828 272.338 2.14018C272.359 2.13899 272.381 2.1378 272.403 2.13661ZM241.514 1.07806C244.442 1.1488 246.106 1.2959 248.232 1.27665C246.861 1.40779 238.107 0.982229 235.007 1.05688C234.686 1.02083 234.366 0.984839 234.045 0.948911C235.729 1.01482 236.898 0.986616 237.719 0.999352C238.372 1.00953 238.303 1.03733 238.353 1.03818C238.355 1.03825 238.357 1.03831 238.36 1.03837C239.887 1.06606 240.36 1.05044 241.514 1.07806ZM120.242 1.39765C121.022 1.32256 122.393 1.27554 122.411 1.33997C121.648 1.38719 120.886 1.43504 120.126 1.48352C120.282 1.46081 120.109 1.41045 120.242 1.39765ZM76.4564 3.91415C77.0617 3.84362 78.5038 3.74817 77.8872 3.85324C77.7758 3.87179 76.3407 3.94728 77.1887 3.98087C75.7941 4.09143 76.1122 3.95435 76.4564 3.91415ZM191.464 0.381139C190.946 0.376616 190.429 0.372293 189.912 0.36817C189.792 0.341442 189.671 0.314726 189.551 0.28802C190.189 0.318755 190.826 0.349794 191.464 0.381139ZM113.593 1.62912C112.908 1.7878 111.723 1.71607 110.438 1.88199C109.962 1.90517 109.486 1.92861 109.01 1.95232C109.009 1.95238 109.008 1.95243 109.007 1.95249C108.992 1.91816 108.978 1.88383 108.963 1.8495C110.501 1.77327 112.044 1.69983 113.593 1.62912ZM223.692 0.727199C223.374 0.737136 223.055 0.747139 222.737 0.757207C222.17 0.727202 221.604 0.697406 221.038 0.667815C221.345 0.659979 221.651 0.652202 221.958 0.644488C222.536 0.671844 223.114 0.699414 223.692 0.727199ZM105.229 2.01816C106.882 1.91761 107.511 1.99773 105.395 2.10547C104.504 2.1513 103.499 2.1247 105.229 2.01816ZM304.199 3.58907C303.629 3.57023 303.059 3.55153 302.488 3.53297C302.295 3.50001 302.102 3.46706 301.908 3.43413C302.673 3.48552 303.437 3.53717 304.199 3.58907ZM68.5655 4.60302C68.6348 4.62027 68.7041 4.63753 68.7734 4.6548C69.2841 4.60392 69.7957 4.55345 70.3084 4.50338C70.1774 4.4916 70.0463 4.47986 69.9154 4.46813C69.4646 4.51277 69.0147 4.55774 68.5655 4.60302ZM300.36 3.41485C299.902 3.39717 299.445 3.37958 298.988 3.36208C298.681 3.33594 298.374 3.30984 298.067 3.28379C298.496 3.29293 298.924 3.30215 299.353 3.31145C299.689 3.34587 300.024 3.38034 300.36 3.41485ZM89.4607 2.95636C90.0914 2.88553 92.6367 2.80849 90.3517 2.97968C88.8982 3.08983 89.3663 2.96709 89.4607 2.95636ZM86.015 3.16372C88.4843 2.93924 86.6406 3.33557 83.6959 3.37167C86.6518 3.18319 85.8716 3.17774 86.015 3.16372ZM64.5464 4.7944C64.4856 4.80041 64.4387 4.84414 63.9526 4.89256C62.1934 5.06712 59.9406 5.31064 58.6586 5.44725C55.5302 5.75969 46.3778 6.7597 45.3033 7.02538C45.0767 7.0778 45.6139 7.08213 45.521 7.09749C45.2469 7.14148 43.6711 7.3071 43.9686 7.32217C45.5244 7.12283 47.0242 6.93695 48.5171 6.75732C48.1448 6.76479 47.7732 6.77253 47.4022 6.78053C51.1357 6.35059 49.9063 6.49936 50.9942 6.45202C51.6278 6.34717 52.2635 6.24306 52.9012 6.13969C54.3006 6.0132 55.7092 5.89028 57.1266 5.77087C56.8035 5.78179 56.4808 5.79288 56.1586 5.80416C58.2817 5.53315 57.6949 5.62515 58.8707 5.55895C58.8706 5.53548 58.8707 5.51199 58.8706 5.48852C60.9035 5.33544 61.2679 5.23083 61.7107 5.18525C62.613 5.09505 63.7764 5.25206 67.2304 4.65505C68.7126 4.65156 68.6561 4.38728 69.5363 4.44554C72.0278 4.07491 67.2634 4.54923 65.0474 4.76933C65.0462 4.76944 65.0451 4.76955 65.0439 4.76966C64.8762 4.7861 65.1399 4.73563 64.5464 4.7944ZM77.3087 3.81256C75.8013 3.80865 81.7172 3.33451 79.7715 3.66195C79.4797 3.69014 79.1884 3.71845 78.8971 3.74689C78.3655 3.76846 77.835 3.79044 77.3053 3.81284C77.3064 3.81275 77.3076 3.81265 77.3087 3.81256ZM133.177 0.800054C138.651 0.695149 135.54 0.852052 133.686 0.836799C133.316 0.833963 133.113 0.821388 133.177 0.800054ZM245.697 1.10208C245.777 1.11896 245.857 1.13584 245.937 1.15273C244.093 1.08492 240.522 1.04383 240.574 0.947369C242.282 0.997226 243.99 1.04881 245.697 1.10208ZM231.092 0.65867C231.489 0.661714 233.11 0.685922 232.914 0.718106C232.211 0.727454 231.508 0.737106 230.805 0.747064C230.478 0.723306 230.151 0.699613 229.824 0.675988C230.281 0.680695 230.985 0.65773 231.092 0.65867Z" fill="#5D59EA"/>
</svg>
