<svg width="52" height="52" viewBox="0 0 52 52" fill="none" xmlns="http://www.w3.org/2000/svg">
<g clip-path="url(#clip0_138_2545)">
<path fill-rule="evenodd" clip-rule="evenodd" d="M26.0002 12.25C33.592 12.25 39.7501 18.4052 39.7501 25.9998C39.7501 33.5945 33.592 39.7497 26.0002 39.7497C18.4084 39.7497 12.2476 33.5945 12.2476 25.9998C12.2476 18.4052 18.4056 12.25 26.0002 12.25Z" fill="#322DD0"/>
<path fill-rule="evenodd" clip-rule="evenodd" d="M27.9607 12.3887C34.6254 13.3416 39.7499 19.0707 39.7499 26.0003C39.7499 32.9299 34.6254 38.6589 27.9607 39.609C21.2959 38.659 16.1714 32.927 16.1714 26.0003C16.1714 19.0735 21.2959 13.3416 27.9607 12.3887Z" fill="#5D59EA"/>
<path d="M29.2619 3.95607C29.1023 3.93239 28.9586 3.84629 28.8625 3.71672C28.7664 3.58715 28.7257 3.42472 28.7494 3.26514C28.7983 2.93404 29.1064 2.7037 29.4375 2.75265C39.6605 4.24969 47.7504 12.3366 49.2474 22.5598C49.2591 22.639 49.255 22.7198 49.2354 22.7974C49.2158 22.875 49.1811 22.9481 49.1332 23.0123C49.0854 23.0764 49.0253 23.1306 48.9564 23.1715C48.8876 23.2124 48.8114 23.2393 48.7321 23.2507C48.401 23.2997 48.0901 23.0693 48.044 22.7354C46.6247 13.0477 38.9523 5.37825 29.2619 3.95607ZM48.044 29.2619C48.09 28.9308 48.401 28.7005 48.7321 28.7494C48.8114 28.7608 48.8876 28.7877 48.9564 28.8286C49.0253 28.8696 49.0854 28.9237 49.1332 28.9879C49.1811 29.0521 49.2158 29.1251 49.2354 29.2027C49.255 29.2804 49.2591 29.3611 49.2474 29.4403C47.7504 39.6634 39.6605 47.7503 29.4375 49.2474C29.1064 49.2963 28.7955 49.066 28.7494 48.7349C28.7257 48.5753 28.7664 48.4129 28.8625 48.2833C28.9586 48.1537 29.1023 48.0676 29.2619 48.0439C38.9523 46.6246 46.6218 38.9523 48.044 29.2618V29.2619ZM22.7352 48.044C22.8145 48.0554 22.8907 48.0824 22.9596 48.1233C23.0284 48.1642 23.0885 48.2183 23.1364 48.2825C23.1843 48.3467 23.219 48.4197 23.2386 48.4974C23.2582 48.575 23.2623 48.6558 23.2506 48.735C23.2016 49.0661 22.8907 49.2964 22.5596 49.2475C12.3366 47.7504 4.2467 39.6635 2.74967 29.4404C2.73799 29.3612 2.74206 29.2805 2.76166 29.2028C2.78126 29.1252 2.81599 29.0522 2.86387 28.988C2.91174 28.9238 2.97182 28.8697 3.04066 28.8287C3.1095 28.7878 3.18573 28.7609 3.265 28.7495C3.59609 28.7006 3.90698 28.9309 3.95593 29.262C5.37527 38.9525 13.0448 46.622 22.7352 48.0441V48.044ZM3.95603 22.7354C3.90708 23.0693 3.5962 23.2997 3.2651 23.2507C3.18584 23.2393 3.1096 23.2124 3.04076 23.1715C2.97192 23.1306 2.91184 23.0764 2.86397 23.0123C2.81609 22.9481 2.78136 22.875 2.76176 22.7974C2.74216 22.7198 2.73809 22.639 2.74977 22.5598C4.24681 12.3367 12.3367 4.24969 22.5597 2.75265C22.8908 2.7037 23.2017 2.93404 23.2507 3.26514C23.2624 3.34436 23.2583 3.42511 23.2387 3.50276C23.2191 3.58041 23.1844 3.65342 23.1365 3.71761C23.0886 3.7818 23.0285 3.83591 22.9597 3.87683C22.8909 3.91775 22.8146 3.94468 22.7353 3.95607C13.0477 5.3754 5.37821 13.0449 3.95603 22.7354Z" fill="#5D59EA"/>
<path fill-rule="evenodd" clip-rule="evenodd" d="M26.0001 18.8867C32.5266 18.8867 38.4141 21.6189 42.5828 26.0006C38.4141 30.3823 32.5267 33.1144 26.0001 33.1144C19.4735 33.1144 13.5833 30.3823 9.41455 26.0006C13.5833 21.6189 19.4735 18.8867 26.0001 18.8867Z" fill="#E2E5E7"/>
<path fill-rule="evenodd" clip-rule="evenodd" d="M26.0001 18.8867C29.927 18.8867 33.1111 22.0708 33.1111 26.0006C33.1111 29.9303 29.927 33.1144 26.0001 33.1144C22.0732 33.1144 18.8862 29.9275 18.8862 26.0006C18.8862 22.0736 22.0703 18.8867 26.0001 18.8867Z" fill="#50515E"/>
<path fill-rule="evenodd" clip-rule="evenodd" d="M27.6355 19.0762C30.7764 19.8161 33.1112 22.6345 33.1112 26C33.1112 29.3655 30.7764 32.1839 27.6355 32.9238C24.4974 32.1839 22.1626 29.3655 22.1626 26C22.1626 22.6345 24.4974 19.8161 27.6355 19.0762Z" fill="#595A66"/>
<path fill-rule="evenodd" clip-rule="evenodd" d="M28.7378 21.8457C29.9153 21.8457 30.8682 22.7987 30.8682 23.9761C30.8682 25.1535 29.9152 26.1066 28.7378 26.1066C27.5604 26.1066 26.6074 25.1536 26.6074 23.9761C26.6074 22.7986 27.5604 21.8457 28.7378 21.8457Z" fill="#E2E5E7"/>
<path d="M25.3896 1.01664C25.3896 0.679758 25.6631 0.40625 26 0.40625C26.3369 0.40625 26.6074 0.679758 26.6074 1.01664V5.20548C26.6074 5.54237 26.3368 5.81293 26 5.81293C25.6632 5.81293 25.3896 5.54227 25.3896 5.20548V1.01664ZM50.9835 25.3898C51.3203 25.3898 51.5938 25.6633 51.5938 26.0002C51.5938 26.3371 51.3202 26.6105 50.9835 26.6105H46.7946C46.4577 26.6105 46.1842 26.337 46.1842 26.0002C46.1842 25.6634 46.4577 25.3898 46.7946 25.3898H50.9835ZM26.6074 50.9836C26.6074 51.3204 26.3368 51.594 26 51.594C25.6632 51.594 25.3896 51.3204 25.3896 50.9836V46.7947C25.3896 46.4579 25.6631 46.1843 26 46.1843C26.3369 46.1843 26.6074 46.4578 26.6074 46.7947V50.9836ZM1.0137 26.6104C0.676812 26.6104 0.40625 26.3369 0.40625 26.0001C0.40625 25.6633 0.676914 25.3897 1.0137 25.3897H5.20538C5.53932 25.3897 5.81283 25.6632 5.81283 26.0001C5.81283 26.337 5.53932 26.6104 5.20538 26.6104H1.0137Z" fill="#5D59EA"/>
</g>
<defs>
<clipPath id="clip0_138_2545">
<rect width="52" height="52" fill="white"/>
</clipPath>
</defs>
</svg>
