<svg width="48" height="48" viewBox="0 0 48 48" fill="none" xmlns="http://www.w3.org/2000/svg">
<rect width="48" height="48" rx="8" fill="#5D59EA" fill-opacity="0.1"/>
<g clip-path="url(#clip0_102_6323)">
<path d="M29.0862 26.3072L29.0772 26.3822C26.8782 25.2862 26.6482 25.1402 26.3642 25.5662C26.1672 25.8612 25.5932 26.5302 25.4202 26.7282C25.2452 26.9232 25.0712 26.9382 24.7742 26.8032C24.4742 26.6532 23.5112 26.3382 22.3712 25.3182C21.4832 24.5232 20.8872 23.5482 20.7112 23.2482C20.4182 22.7422 21.0312 22.6702 21.5892 21.6142C21.6892 21.4042 21.6382 21.2392 21.5642 21.0902C21.4892 20.9402 20.8922 19.4702 20.6422 18.8842C20.4022 18.3002 20.1552 18.3742 19.9702 18.3742C19.3942 18.3242 18.9732 18.3322 18.6022 18.7182C16.9882 20.4922 17.3952 22.3222 18.7762 24.2682C21.4902 27.8202 22.9362 28.4742 25.5802 29.3822C26.2942 29.6092 26.9452 29.5772 27.4602 29.5032C28.0342 29.4122 29.2272 28.7822 29.4762 28.0772C29.7312 27.3722 29.7312 26.7872 29.6562 26.6522C29.5822 26.5172 29.3862 26.4422 29.0862 26.3072Z" fill="#5D59EA"/>
<path d="M32.0991 15.4494C24.4101 8.01643 11.6851 13.4074 11.6801 23.8934C11.6801 25.9894 12.2291 28.0334 13.2751 29.8384L11.5791 36.0004L17.9141 34.3484C25.8191 38.6184 35.5751 32.9484 35.5791 23.8994C35.5791 20.7234 34.3391 17.7344 32.0841 15.4884L32.0991 15.4494ZM33.5811 23.8664C33.5751 31.4994 25.1961 36.2664 18.5691 32.3704L18.2091 32.1564L14.4591 33.1314L15.4641 29.4864L15.2251 29.1114C11.1011 22.5464 15.8391 13.9664 23.6511 13.9664C24.9557 13.9632 26.2479 14.2187 27.4531 14.7182C28.6582 15.2177 29.7524 15.9512 30.6721 16.8764C31.5969 17.79 32.3304 18.8786 32.8298 20.0788C33.3293 21.2789 33.5847 22.5665 33.5811 23.8664Z" fill="#5D59EA"/>
</g>
<defs>
<clipPath id="clip0_102_6323">
<rect width="24" height="24" fill="white" transform="translate(11.5791 12)"/>
</clipPath>
</defs>
</svg>
