<svg width="62" height="62" viewBox="0 0 62 62" fill="none" xmlns="http://www.w3.org/2000/svg">
<path d="M55.9789 5.69877C55.9331 5.49286 55.773 5.3327 55.5785 5.27551C48.875 3.63967 33.3974 9.47379 25.0123 17.8589C23.5137 19.346 22.1524 20.959 20.9398 22.6749C18.3545 22.4461 15.7692 22.6406 13.5614 23.6015C7.33834 26.3355 5.5309 33.4852 5.01613 36.551C4.91317 37.1458 5.31355 37.7178 5.91984 37.8207C6.0228 37.8322 6.12575 37.8436 6.22871 37.8322L16.2153 36.734C16.2268 37.489 16.2725 38.244 16.3526 38.9876C16.3984 39.5023 16.6386 39.9942 17.0047 40.3603L20.8712 44.2154C21.2373 44.5814 21.7292 44.8217 22.2439 44.8674C22.9875 44.9475 23.7311 44.9933 24.4861 45.0047L23.3879 54.9799C23.3192 55.5862 23.7654 56.1353 24.3717 56.1925C24.4746 56.2039 24.5776 56.2039 24.6691 56.181C27.7349 55.6892 34.896 53.8817 37.6185 47.6587C38.5795 45.4508 38.7739 42.877 38.5566 40.3031C40.2839 39.0905 41.8969 37.7178 43.384 36.2307C51.792 27.8684 57.5918 12.734 55.9789 5.69877ZM42.7434 26.244C40.6042 28.3832 37.1267 28.3946 34.9875 26.244C32.8369 24.1048 32.8369 20.6272 34.9875 18.4766C37.1267 16.326 40.6042 16.326 42.7549 18.4766C44.894 20.6272 44.894 24.1048 42.7434 26.244Z" fill="#02021E"/>
<path d="M20.6081 47.0064C19.9789 47.6355 18.9722 47.8758 17.7596 48.0931C15.037 48.5507 12.6348 46.2056 13.1267 43.4601C13.3097 42.4191 13.8702 40.9549 14.2134 40.6117C14.4079 40.4172 14.4193 40.0969 14.2248 39.9025C14.1104 39.7881 13.9617 39.7309 13.8016 39.7538C12.2801 39.9368 10.8616 40.6346 9.78634 41.7099C7.08663 44.4096 6.83496 54.3962 6.83496 54.3962C6.83496 54.3962 16.833 54.1446 19.5213 51.4449C20.6081 50.3581 21.2944 48.9511 21.4775 47.4182C21.5232 46.9492 20.9398 46.6632 20.6081 47.0064Z" fill="#02021E"/>
</svg>
