<svg width="62" height="62" viewBox="0 0 62 62" fill="none" xmlns="http://www.w3.org/2000/svg">
<path d="M31 57C45.3557 57 57 45.3557 57 31C57 16.6443 45.3557 5 31 5C16.6443 5 5 16.6443 5 31C5 45.3557 16.6443 57 31 57ZM29.1428 16.1429C29.1428 15.1214 29.9785 14.2857 31 14.2857C32.0215 14.2857 32.8572 15.1214 32.8572 16.1429V30.1086L41.4465 36.98C42.2451 37.6207 42.375 38.7907 41.7343 39.5893C41.5609 39.807 41.3405 39.9827 41.0897 40.1033C40.8389 40.2239 40.564 40.2862 40.2857 40.2857C39.8771 40.2857 39.4685 40.1556 39.125 39.8771L29.8393 32.4486C29.4029 32.0957 29.143 31.5665 29.143 31V16.1429H29.1428Z" fill="#02021E"/>
</svg>
