<svg width="62" height="62" viewBox="0 0 62 62" fill="none" xmlns="http://www.w3.org/2000/svg">
<path d="M9.11103 19.375H52.8879C53.1517 19.375 53.4128 19.3212 53.6551 19.2168C53.8974 19.1123 54.1158 18.9595 54.2969 18.7677C54.4781 18.5758 54.6181 18.349 54.7085 18.1011C54.7988 17.8532 54.8376 17.5895 54.8225 17.3261L54.7982 16.8233C54.4834 11.7354 50.2306 7.75 45.1146 7.75H42.6249V5.8125C42.6249 5.29864 42.4208 4.80583 42.0575 4.44248C41.6941 4.07913 41.2013 3.875 40.6874 3.875C40.1736 3.875 39.6808 4.07913 39.3174 4.44248C38.9541 4.80583 38.7499 5.29864 38.7499 5.8125V7.75H23.2499V5.8125C23.2499 5.29864 23.0458 4.80583 22.6825 4.44248C22.3191 4.07913 21.8263 3.875 21.3124 3.875C20.7986 3.875 20.3058 4.07913 19.9424 4.44248C19.5791 4.80583 19.3749 5.29864 19.3749 5.8125V7.75H16.8852C11.7693 7.75 7.5155 11.7364 7.20065 16.8272L7.17643 17.3271C7.16097 17.5905 7.19957 17.8543 7.28984 18.1023C7.38012 18.3502 7.52017 18.5771 7.70138 18.7689C7.88258 18.9607 8.10112 19.1135 8.34354 19.2177C8.58596 19.3219 8.84715 19.3755 9.11103 19.375ZM55.1257 25.1391C55.1133 24.6337 54.9038 24.1533 54.542 23.8003C54.1801 23.4473 53.6946 23.2498 53.1892 23.25H8.81071C8.30521 23.2501 7.81975 23.4476 7.45781 23.8005C7.09587 24.1534 6.8861 24.6337 6.87321 25.1391C6.69819 31.9947 6.82036 38.8547 7.2394 45.6998C7.54165 50.5629 11.437 54.4573 16.2982 54.7596C26.0891 55.373 35.9089 55.3727 45.6997 54.7586C50.5629 54.4563 54.4572 50.561 54.7605 45.6988C55.177 38.997 55.3001 32.0792 55.1257 25.1391ZM40.6874 34.875C39.9166 34.875 39.1774 34.5688 38.6324 34.0238C38.0874 33.4788 37.7812 32.7395 37.7812 31.9688C37.7812 31.198 38.0874 30.4587 38.6324 29.9137C39.1774 29.3687 39.9166 29.0625 40.6874 29.0625C41.4582 29.0625 42.1974 29.3687 42.7425 29.9137C43.2875 30.4587 43.5937 31.198 43.5937 31.9688C43.5937 32.7395 43.2875 33.4788 42.7425 34.0238C42.1974 34.5688 41.4582 34.875 40.6874 34.875ZM43.5937 41.6562C43.5937 42.427 43.2875 43.1662 42.7425 43.7113C42.1974 44.2563 41.4582 44.5625 40.6874 44.5625C39.9166 44.5625 39.1774 44.2563 38.6324 43.7113C38.0874 43.1662 37.7812 42.427 37.7812 41.6562C37.7812 40.8855 38.0874 40.1463 38.6324 39.6012C39.1774 39.0562 39.9166 38.75 40.6874 38.75C41.4582 38.75 42.1974 39.0562 42.7425 39.6012C43.2875 40.1463 43.5937 40.8855 43.5937 41.6562ZM21.3124 38.75C22.0832 38.75 22.8224 39.0562 23.3675 39.6012C23.9125 40.1463 24.2187 40.8855 24.2187 41.6562C24.2187 42.427 23.9125 43.1662 23.3675 43.7113C22.8224 44.2563 22.0832 44.5625 21.3124 44.5625C20.5416 44.5625 19.8024 44.2563 19.2574 43.7113C18.7124 43.1662 18.4062 42.427 18.4062 41.6562C18.4062 40.8855 18.7124 40.1463 19.2574 39.6012C19.8024 39.0562 20.5416 38.75 21.3124 38.75ZM18.4062 31.9688C18.4062 31.5871 18.4814 31.2092 18.6274 30.8566C18.7735 30.504 18.9875 30.1836 19.2574 29.9137C19.5273 29.6439 19.8477 29.4298 20.2003 29.2837C20.5529 29.1377 20.9308 29.0625 21.3124 29.0625C21.6941 29.0625 22.072 29.1377 22.4246 29.2837C22.7772 29.4298 23.0976 29.6439 23.3675 29.9137C23.6373 30.1836 23.8514 30.504 23.9975 30.8566C24.1435 31.2092 24.2187 31.5871 24.2187 31.9688C24.2187 32.7395 23.9125 33.4788 23.3675 34.0238C22.8224 34.5688 22.0832 34.875 21.3124 34.875C20.5416 34.875 19.8024 34.5688 19.2574 34.0238C18.7124 33.4788 18.4062 32.7395 18.4062 31.9688ZM28.0937 41.6562C28.0937 40.8855 28.3999 40.1463 28.9449 39.6012C29.4899 39.0562 30.2291 38.75 30.9999 38.75C31.7707 38.75 32.5099 39.0562 33.055 39.6012C33.6 40.1463 33.9062 40.8855 33.9062 41.6562C33.9062 42.427 33.6 43.1662 33.055 43.7113C32.5099 44.2563 31.7707 44.5625 30.9999 44.5625C30.2291 44.5625 29.4899 44.2563 28.9449 43.7113C28.3999 43.1662 28.0937 42.427 28.0937 41.6562ZM30.9999 34.875C30.2291 34.875 29.4899 34.5688 28.9449 34.0238C28.3999 33.4788 28.0937 32.7395 28.0937 31.9688C28.0937 31.198 28.3999 30.4587 28.9449 29.9137C29.4899 29.3687 30.2291 29.0625 30.9999 29.0625C31.7707 29.0625 32.5099 29.3687 33.055 29.9137C33.6 30.4587 33.9062 31.198 33.9062 31.9688C33.9062 32.7395 33.6 33.4788 33.055 34.0238C32.5099 34.5688 31.7707 34.875 30.9999 34.875Z" fill="#02021E"/>
</svg>
