<svg width="47" height="51" viewBox="0 0 47 51" fill="none" xmlns="http://www.w3.org/2000/svg">
<path d="M46.4151 14.0273C46.2629 14.3327 46.052 14.6051 45.7944 14.8289C45.5368 15.0528 45.2377 15.2236 44.914 15.3317C44.5904 15.4398 44.2486 15.483 43.9082 15.4589C43.5678 15.4348 43.2355 15.3438 42.9304 15.1912L23.3442 5.39811L3.75802 15.1912C3.45301 15.3437 3.12095 15.4346 2.7808 15.4588C2.44065 15.483 2.09908 15.4399 1.77557 15.3321C1.45206 15.2242 1.15296 15.0537 0.895346 14.8303C0.637731 14.6069 0.426647 14.3349 0.274144 14.0299C0.121641 13.7249 0.0307066 13.3928 0.00653298 13.0527C-0.0176406 12.7125 0.0254197 12.371 0.133255 12.0475C0.241091 11.724 0.411591 11.4249 0.635019 11.1672C0.858447 10.9096 1.13043 10.6985 1.43543 10.546L21.797 0.365273C22.2775 0.125058 22.8074 0 23.3446 0C23.8819 0 24.4117 0.125058 24.8923 0.365273L45.2529 10.546C45.8688 10.8537 46.3372 11.3934 46.5551 12.0465C46.773 12.6995 46.7227 13.4123 46.4151 14.0282V14.0273ZM34.5937 22.499H30.2669V28.5564C30.2669 28.7859 30.1758 29.006 30.0135 29.1683C29.8512 29.3306 29.6311 29.4218 29.4016 29.4218C29.1721 29.4218 28.952 29.3306 28.7897 29.1683C28.6274 29.006 28.5362 28.7859 28.5362 28.5564V22.499H18.1521V28.5564C18.1521 28.7859 18.061 29.006 17.8987 29.1683C17.7364 29.3306 17.5163 29.4218 17.2868 29.4218C17.0573 29.4218 16.8372 29.3306 16.6749 29.1683C16.5126 29.006 16.4214 28.7859 16.4214 28.5564V22.499H12.0947C10.6635 22.499 9.4987 23.6638 9.4987 25.095V44.1326C9.4987 47.4728 12.2159 50.19 15.5561 50.19H31.1323C34.4725 50.19 37.1897 47.4728 37.1897 44.1326V25.095C37.1897 23.6638 36.0249 22.499 34.5937 22.499ZM18.1521 20.7683C18.1521 17.9049 20.4808 15.5763 23.3442 15.5763C26.2076 15.5763 28.5362 17.9049 28.5362 20.7683V22.499H30.2669V20.7683C30.2669 16.9513 27.1612 13.8456 23.3442 13.8456C19.5272 13.8456 16.4214 16.9513 16.4214 20.7683V22.499H18.1521V20.7683Z" fill="black"/>
</svg>
