<svg width="56" height="56" viewBox="0 0 56 56" fill="none" xmlns="http://www.w3.org/2000/svg">
<path d="M47.4749 17.3291C49.2701 20.5991 50.21 24.2696 50.2074 28C50.2074 28.3485 50.1803 28.699 50.1649 29.0495C50.4983 28.996 50.8352 28.9679 51.1729 28.9655C51.4867 28.9655 51.7937 28.9945 52.0959 29.036C52.1104 28.6903 52.1384 28.3447 52.1384 28C52.1384 23.5992 50.9373 19.321 48.6818 15.5728C48.4011 16.0724 48.0832 16.55 47.7308 17.0018L47.4749 17.3291ZM18.7022 7.83517C21.5253 6.52572 24.5949 5.83255 27.7067 5.80179C27.9443 5.13172 28.2387 4.48965 28.5902 3.88137C24.8143 3.79846 21.0707 4.59266 17.6537 6.20151C18.0801 6.69269 18.4333 7.24293 18.7022 7.83517ZM8.78918 16.8685L7.54462 15.2088C5.31549 18.7638 4.05804 22.8415 3.89783 27.0345H5.82888C5.97588 23.4558 6.9919 19.9667 8.78918 16.8685ZM43.1832 44.1966L43.7103 46.3052C45.1459 45.0737 46.4321 43.678 47.5425 42.1468L46.324 40.5228C45.413 41.8574 44.3599 43.0892 43.1832 44.1966ZM27.0347 28.9655H19.3105V36.3208L14.4829 33.907L9.65526 36.3208V28.9655H1.93105V48.2759H4.52349C5.61067 45.9963 7.9318 44.4138 10.6208 44.4138C13.3098 44.4138 15.6309 45.9963 16.7181 48.2759H27.0347V28.9655ZM17.3022 50.2069C17.3476 50.5236 17.3795 50.8441 17.3795 51.1724C17.3795 51.5007 17.3476 51.8212 17.3022 52.1379H27.112C27.0666 51.8212 27.0347 51.5007 27.0347 51.1724C27.0347 50.8441 27.0666 50.5236 27.112 50.2069H17.3022ZM40.7635 42.4828H34.7589C33.694 42.4828 32.8279 41.6167 32.8279 40.5517V38.6207C32.8279 37.5557 33.694 36.6897 34.7589 36.6897H39.3153L39.015 35.4895C38.963 35.2806 38.8425 35.095 38.6727 34.9626C38.503 34.8301 38.2937 34.7583 38.0784 34.7586H28.9658V46.452C29.5934 45.8068 30.344 45.294 31.1732 44.9439C32.0024 44.5939 32.8933 44.4136 33.7934 44.4138C36.4824 44.4138 38.8035 45.9963 39.8907 48.2759H42.2118L40.7635 42.4828ZM0 50.2069V52.1379H3.93935C3.89397 51.8212 3.8621 51.5007 3.8621 51.1724C3.8621 50.8441 3.89397 50.5236 3.93935 50.2069H0Z" fill="black"/>
<path d="M10.6201 46.3448C7.95815 46.3448 5.79248 48.5105 5.79248 51.1724C5.79248 53.8343 7.95815 56 10.6201 56C13.2821 56 15.4477 53.8343 15.4477 51.1724C15.4477 48.5105 13.2821 46.3448 10.6201 46.3448ZM10.6201 53.1034C10.363 53.1093 10.1072 53.0636 9.86794 52.9693C9.62866 52.8749 9.41064 52.7337 9.22669 52.5539C9.04274 52.3741 8.89656 52.1594 8.79674 51.9223C8.69692 51.6852 8.64547 51.4306 8.6454 51.1734C8.64534 50.9162 8.69666 50.6615 8.79637 50.4244C8.89607 50.1873 9.04214 49.9725 9.226 49.7926C9.40986 49.6127 9.62781 49.4714 9.86704 49.3769C10.1063 49.2824 10.362 49.2367 10.6191 49.2423C11.1237 49.2535 11.6038 49.4617 11.9568 49.8225C12.3097 50.1832 12.5074 50.6678 12.5075 51.1724C12.5076 51.6771 12.3102 52.1618 11.9574 52.5227C11.6047 52.8836 11.1247 53.092 10.6201 53.1034ZM11.5856 33.1964L14.4822 31.7481L17.3788 33.1964V28.9655H11.5856V33.1964ZM33.7927 46.3448C31.1308 46.3448 28.9651 48.5105 28.9651 51.1724C28.9651 53.8343 31.1308 56 33.7927 56C36.4547 56 38.6204 53.8343 38.6204 51.1724C38.6204 48.5105 36.4547 46.3448 33.7927 46.3448ZM33.7927 53.1034C33.5356 53.1093 33.2798 53.0636 33.0406 52.9693C32.8013 52.8749 32.5833 52.7337 32.3993 52.5539C32.2154 52.3741 32.0692 52.1594 31.9694 51.9223C31.8695 51.6852 31.8181 51.4306 31.818 51.1734C31.818 50.9162 31.8693 50.6615 31.969 50.4244C32.0687 50.1873 32.2148 49.9725 32.3986 49.7926C32.5825 49.6127 32.8004 49.4714 33.0397 49.3769C33.2789 49.2824 33.5346 49.2367 33.7918 49.2423C34.2963 49.2535 34.7764 49.4617 35.1294 49.8225C35.4823 50.1832 35.68 50.6678 35.6801 51.1724C35.6803 51.6771 35.4828 52.1618 35.1301 52.5227C34.7773 52.8836 34.2973 53.092 33.7927 53.1034ZM34.7583 40.5517H40.2801L39.7973 38.6207H34.7583V40.5517ZM40.5514 51.1724C40.5514 51.5007 40.5195 51.8212 40.4742 52.1379H42.4825V50.2069H40.4742C40.5195 50.5236 40.5514 50.8441 40.5514 51.1724ZM12.5512 18.6663L16.4133 13.5163C17.036 12.6879 17.3788 11.6586 17.3788 10.6207C17.3788 7.95876 15.2131 5.7931 12.5512 5.7931C9.88921 5.7931 7.72353 7.95876 7.72353 10.6207C7.72353 11.6586 8.06629 12.6879 8.68906 13.5163L12.5512 18.6663ZM12.5512 8.68966C12.8083 8.68384 13.064 8.72946 13.3033 8.82383C13.5426 8.91821 13.7606 9.05944 13.9446 9.23923C14.1285 9.41902 14.2747 9.63375 14.3745 9.87081C14.4744 10.1079 14.5258 10.3625 14.5259 10.6197C14.5259 10.8769 14.4746 11.1316 14.3749 11.3687C14.2752 11.6058 14.1291 11.8206 13.9453 12.0005C13.7614 12.1804 13.5435 12.3217 13.3042 12.4162C13.065 12.5107 12.8093 12.5564 12.5521 12.5508C12.0476 12.5396 11.5675 12.3314 11.2145 11.9706C10.8616 11.6099 10.6639 11.1253 10.6638 10.6207C10.6636 10.116 10.8611 9.63135 11.2138 9.27044C11.5666 8.90954 12.0466 8.70106 12.5512 8.68966ZM51.1722 30.8966C48.5102 30.8966 46.3446 33.0622 46.3446 35.7241C46.3446 36.7621 46.6873 37.7913 47.3101 38.6197L51.1722 43.7698L55.0343 38.6197C55.6571 37.7913 55.9998 36.7621 55.9998 35.7241C55.9998 33.0622 53.8342 30.8966 51.1722 30.8966ZM51.1722 37.6552C50.915 37.661 50.6593 37.6154 50.42 37.521C50.1807 37.4266 49.9627 37.2854 49.7788 37.1056C49.5948 36.9258 49.4486 36.7111 49.3488 36.474C49.249 36.2369 49.1976 35.9823 49.1975 35.7251C49.1974 35.4679 49.2487 35.2133 49.3484 34.9761C49.4482 34.739 49.5942 34.5242 49.7781 34.3443C49.9619 34.1645 50.1799 34.0231 50.4191 33.9286C50.6584 33.8341 50.9141 33.7884 51.1712 33.7941C51.6758 33.8052 52.1559 34.0135 52.5088 34.3742C52.8618 34.7349 53.0595 35.2195 53.0596 35.7241C53.0597 36.2288 52.8623 36.7135 52.5095 37.0744C52.1568 37.4353 51.6767 37.6438 51.1722 37.6552ZM38.6204 25.4723L46.2123 15.8084C47.5462 14.1059 48.2725 12.0063 48.2756 9.84345V9.65517C48.2756 4.33131 43.9443 0 38.6204 0C33.2964 0 28.9651 4.33131 28.9651 9.65517V9.84345C28.9651 11.9966 29.6979 14.1159 31.0284 15.8084L38.6204 25.4723ZM38.6204 2.89655C39.5079 2.89655 40.3868 3.07137 41.2068 3.41102C42.0268 3.75067 42.7719 4.24851 43.3995 4.87611C44.0271 5.5037 44.5249 6.24877 44.8646 7.06876C45.2042 7.88875 45.379 8.76762 45.379 9.65517C45.379 10.5427 45.2042 11.4216 44.8646 12.2416C44.5249 13.0616 44.0271 13.8066 43.3995 14.4342C42.7719 15.0618 42.0268 15.5597 41.2068 15.8993C40.3868 16.239 39.5079 16.4138 38.6204 16.4138C36.8278 16.4138 35.1087 15.7017 33.8412 14.4342C32.5738 13.1668 31.8617 11.4477 31.8617 9.65517C31.8617 7.86267 32.5738 6.14359 33.8412 4.87611C35.1087 3.60862 36.8278 2.89655 38.6204 2.89655ZM21.2409 23.1724H23.1719V25.1034H21.2409V23.1724ZM25.103 23.1724H27.034V25.1034H25.103V23.1724ZM28.9651 23.1724H30.8962V25.1034H28.9651V23.1724Z" fill="black"/>
</svg>
