<svg width="53" height="54" viewBox="0 0 53 54" fill="none" xmlns="http://www.w3.org/2000/svg">
<path d="M33.6737 33.5745C33.7581 33.6588 33.825 33.759 33.8707 33.8692C33.9164 33.9794 33.9399 34.0975 33.9399 34.2169C33.9399 34.3362 33.9164 34.4543 33.8707 34.5645C33.825 34.6747 33.7581 34.7749 33.6737 34.8593C33.497 35.0361 33.2645 35.1257 33.032 35.1257C32.7995 35.1257 32.567 35.0361 32.3889 34.8593L29.0673 31.5364C28.7125 31.1816 28.7125 30.6064 29.0673 30.2528C29.1516 30.1685 29.2516 30.1016 29.3617 30.0559C29.4719 30.0102 29.5899 29.9867 29.7091 29.9867C29.8284 29.9867 29.9464 30.0102 30.0565 30.0559C30.1667 30.1016 30.2667 30.1685 30.3509 30.2528L33.6737 33.5745ZM29.7091 23.8906C29.9416 23.8906 30.1741 23.8022 30.3509 23.6254L33.6737 20.3026C33.7581 20.2182 33.825 20.1181 33.8707 20.0078C33.9163 19.8976 33.9398 19.7795 33.9398 19.6602C33.9398 19.5409 33.9163 19.4227 33.8707 19.3125C33.825 19.2023 33.7581 19.1021 33.6737 19.0178C33.5894 18.9334 33.4892 18.8665 33.379 18.8208C33.2688 18.7752 33.1507 18.7517 33.0313 18.7517C32.912 18.7517 32.7939 18.7752 32.6837 18.8208C32.5735 18.8665 32.4733 18.9334 32.3889 19.0178L29.0673 22.3406C28.983 22.4249 28.916 22.5251 28.8704 22.6353C28.8247 22.7455 28.8012 22.8637 28.8012 22.983C28.8012 23.1023 28.8247 23.2204 28.8704 23.3307C28.916 23.4409 28.983 23.541 29.0673 23.6254C29.1516 23.7097 29.2516 23.7765 29.3618 23.822C29.4719 23.8675 29.59 23.8908 29.7091 23.8906ZM36.046 26.0303H31.3475C30.8462 26.0303 30.4393 26.4372 30.4393 26.9385C30.4393 27.4398 30.8462 27.8467 31.3475 27.8467H36.046C36.5473 27.8467 36.9542 27.4398 36.9542 26.9385C36.9542 26.4372 36.5473 26.0303 36.046 26.0303ZM39.4838 5.98082C39.4838 9.2782 36.8016 11.9604 33.503 11.9604C30.2056 11.9604 27.5234 9.2782 27.5234 5.98082C27.5234 2.68223 30.2056 0 33.503 0C36.8016 0 39.4838 2.68223 39.4838 5.98082ZM34.2792 4.61973V4.49379C34.2792 3.93313 34.7345 3.47781 35.2952 3.47781C35.7965 3.47781 36.2034 3.07094 36.2034 2.56961C36.2034 2.06828 35.7965 1.66141 35.2952 1.66141C33.7331 1.66141 32.4628 2.93168 32.4628 4.49379V4.61973H31.712C31.2107 4.61973 30.8038 5.0266 30.8038 5.52793C30.8038 6.03047 31.2107 6.43613 31.712 6.43613H32.4628V9.39203C32.4628 9.89336 32.8697 10.3002 33.371 10.3002C33.8723 10.3002 34.2792 9.89336 34.2792 9.39203V6.43613H35.03C35.5313 6.43613 35.9382 6.03047 35.9382 5.52793C35.9382 5.0266 35.5313 4.61973 35.03 4.61973H34.2792ZM52.2423 18.3978C52.2423 21.6952 49.5588 24.3774 46.2614 24.3774C42.9641 24.3774 40.2806 21.6952 40.2806 18.3978C40.2806 15.1004 42.9641 12.417 46.2614 12.417C49.5588 12.417 52.2423 15.1004 52.2423 18.3978ZM48.9606 21.809C48.9606 21.3064 48.555 20.9008 48.0524 20.9008C47.493 20.9008 47.0364 20.4443 47.0364 19.8848V18.1241H47.7872C48.2886 18.1241 48.6954 17.7184 48.6954 17.2159C48.6954 16.7146 48.2886 16.3077 47.7872 16.3077H47.0364V14.9866C47.0364 14.4852 46.6296 14.0784 46.1282 14.0784C45.6269 14.0784 45.22 14.4852 45.22 14.9866V16.3077H44.4705C43.9679 16.3077 43.5623 16.7146 43.5623 17.2159C43.5623 17.7184 43.9679 18.1241 44.4705 18.1241H45.22V19.8848C45.22 21.4457 46.4915 22.7172 48.0524 22.7172C48.555 22.7172 48.9606 22.3103 48.9606 21.809ZM52.2423 35.4889C52.2423 38.7863 49.5588 41.4698 46.2614 41.4698C42.9641 41.4698 40.2806 38.7863 40.2806 35.4889C40.2806 32.1916 42.9641 29.5093 46.2614 29.5093C49.5588 29.5093 52.2423 32.1916 52.2423 35.4889ZM50.3169 35.4889C50.3169 34.9876 49.91 34.5807 49.4087 34.5807H46.2614C45.7601 34.5807 45.3532 34.9876 45.3532 35.4889C45.3532 35.9903 45.7601 36.3971 46.2614 36.3971H48.3079C47.9592 37.1806 47.1733 37.728 46.2614 37.728C45.0263 37.728 44.0224 36.7241 44.0224 35.4889C44.0224 34.255 45.0263 33.2499 46.2614 33.2499C46.7434 33.2499 47.2036 33.4013 47.5898 33.6859C47.9931 33.9837 48.5622 33.8978 48.8601 33.4945C49.158 33.0913 49.072 32.5221 48.6688 32.2243C47.9677 31.7072 47.1345 31.4335 46.2614 31.4335C44.0248 31.4335 42.206 33.2523 42.206 35.4889C42.206 37.7255 44.0248 39.5444 46.2614 39.5444C48.498 39.5444 50.3169 37.7255 50.3169 35.4889ZM39.4838 47.9059C39.4838 51.2045 36.8016 53.8867 33.503 53.8867C30.2056 53.8867 27.5234 51.2045 27.5234 47.9059C27.5234 44.6085 30.2056 41.9263 33.503 41.9263C36.8016 41.9263 39.4838 44.6085 39.4838 47.9059ZM37.114 47.9059C37.114 47.0934 36.6793 46.3208 35.9225 45.788L33.2778 43.9255C32.7777 43.5732 32.2751 43.3939 31.7859 43.3939C30.8438 43.3939 29.8932 44.1011 29.8932 45.6814V50.1304C29.8932 51.7107 30.8438 52.4179 31.7859 52.4179C32.2751 52.4179 32.7777 52.2398 33.2778 51.8875L35.9225 50.0238C36.6793 49.491 37.114 48.7196 37.114 47.9059ZM34.8774 47.2738L32.2315 45.4102C31.9869 45.2382 31.8416 45.214 31.7968 45.2116C31.7653 45.2624 31.7096 45.4089 31.7096 45.6814V50.1304C31.7096 50.4041 31.7653 50.5506 31.7968 50.6014C31.8416 50.599 31.9869 50.5748 32.2315 50.4016L34.8774 48.5392C35.1475 48.3479 35.2976 48.1239 35.2976 47.9059C35.2976 47.6891 35.1475 47.4639 34.8774 47.2738ZM10.9711 33.342H7.48602L11.9059 42.5148H14.1946L10.9711 33.342ZM14.0759 21.9749V25.127C14.0759 25.6283 13.6691 26.0352 13.1677 26.0352C12.6664 26.0352 12.2595 25.6283 12.2595 25.127V22.3515H5.44316C4.62578 22.3515 3.96219 23.0163 3.96219 23.8325V30.0446C3.96219 30.8607 4.62578 31.5255 5.44316 31.5255H12.2595V28.7598C12.2595 28.2584 12.6664 27.8516 13.1677 27.8516C13.6691 27.8516 14.0759 28.2584 14.0759 28.7598V31.9021L25.001 38.0477V15.8294L14.0759 21.9749ZM0 26.9385C0 28.3069 0.903359 29.467 2.14578 29.8545V24.0226C0.903359 24.4101 0 25.5714 0 26.9385Z" fill="black"/>
</svg>
