<svg width="60" height="58" viewBox="0 0 60 58" fill="none" xmlns="http://www.w3.org/2000/svg">
<path fill-rule="evenodd" clip-rule="evenodd" d="M42.6915 35.8453L39.1944 45.2156C38.7129 46.5058 37.9605 47.6924 37.0375 46.7148C36.7628 46.4239 36.5295 46.0338 36.573 45.6051L37.3441 38.0005C37.346 37.9791 37.3538 37.9585 37.3665 37.9411C37.3793 37.9237 37.3965 37.9101 37.4164 37.9018L42.5304 35.6922C42.5521 35.6825 42.5762 35.6795 42.5996 35.6837C42.623 35.6878 42.6446 35.6989 42.6616 35.7155C42.6975 35.7496 42.7088 35.7989 42.6915 35.8453ZM36.0599 55.0789V57.6838C36.0606 57.7461 36.0856 57.8056 36.1296 57.8496C36.1736 57.8936 36.2331 57.9186 36.2954 57.9193H39.2001C39.2623 57.9185 39.3217 57.8935 39.3657 57.8495C39.4097 57.8055 39.4348 57.746 39.4355 57.6838V55.0789C39.4355 55.0469 39.4227 55.0162 39.4001 54.9936C39.3774 54.971 39.3468 54.9582 39.3148 54.9582H36.1808C36.1487 54.9582 36.118 54.9709 36.0954 54.9936C36.0727 55.0162 36.0599 55.0469 36.0599 55.0789ZM20.1341 55.0789V57.6838C20.1341 57.8118 20.2417 57.9193 20.3695 57.9193H23.2742C23.3365 57.9185 23.3959 57.8935 23.4399 57.8495C23.4839 57.8055 23.509 57.746 23.5097 57.6838V55.0789C23.5096 55.0469 23.4969 55.0162 23.4743 54.9936C23.4516 54.971 23.4209 54.9582 23.3889 54.9582H20.255C20.2229 54.9582 20.1922 54.9709 20.1696 54.9936C20.1469 55.0162 20.1341 55.0469 20.1341 55.0789ZM59.342 16.2496C57.715 12.3292 48.7473 13.6591 44.2961 14.5664C44.2719 14.5711 44.2497 14.5832 44.2326 14.6011C44.2156 14.619 44.2045 14.6417 44.201 14.6661C44.1969 14.6905 44.2005 14.7155 44.2113 14.7377C44.2221 14.7599 44.2396 14.7783 44.2612 14.7901C44.7477 15.0635 45.1785 15.4259 45.5311 15.8584C45.5447 15.8754 45.5626 15.8884 45.5831 15.8959C45.6035 15.9034 45.6256 15.9051 45.6469 15.9008C48.5081 15.3657 51.0207 15.1132 53.0481 15.1627C58.663 15.2997 59.4995 17.4637 55.621 21.5213C54.5603 22.631 53.1864 23.8132 51.5461 25.0326C51.5288 25.0451 51.5152 25.0621 51.5068 25.0817C51.4984 25.1013 51.4954 25.1228 51.4983 25.144C51.5005 25.1652 51.5085 25.1854 51.5213 25.2025C51.5341 25.2195 51.5514 25.2328 51.5712 25.2408L52.9803 25.8363C53.0215 25.8536 53.0655 25.8481 53.101 25.8208C54.5449 24.7102 55.7745 23.6286 56.7563 22.6014C59.0693 20.1819 60.0571 17.9726 59.342 16.2496ZM50.1712 26.015C49.6163 25.8487 49.055 25.7735 48.4939 25.7896C47.1871 25.8271 46.3467 26.3029 45.2488 26.8557C45.2304 26.8653 45.2099 26.8698 45.1893 26.8689C45.1686 26.868 45.1485 26.8617 45.1311 26.8506C45.1133 26.84 45.0987 26.8249 45.0886 26.8068C45.0785 26.7888 45.0734 26.7684 45.0737 26.7477V19.7272C45.0737 17.2992 43.0902 15.3157 40.6623 15.3157H18.9073C16.4795 15.3157 14.496 17.2992 14.496 19.7272V40.9241C14.4962 40.9522 14.4865 40.9794 14.4687 41.0011C14.4508 41.0228 14.4259 41.0375 14.3983 41.0428C12.4989 41.4127 10.7429 41.6621 9.16862 41.7854C5.03111 42.1094 2.26839 41.6096 1.67591 40.1821C1.18438 38.9979 2.23739 37.1707 4.45376 35.0009C6.47645 33.0205 9.43063 30.8378 13.0673 28.6415C13.0853 28.631 13.1002 28.6159 13.1105 28.5977C13.1208 28.5795 13.126 28.559 13.1257 28.5381V26.9957C13.1257 26.951 13.1035 26.9128 13.0648 26.8908C13.0261 26.8687 12.9819 26.8691 12.9434 26.8918C8.88689 29.2892 5.58824 31.6977 3.35525 33.884C0.660974 36.522 -0.538602 38.9374 0.227594 40.7836C1.11382 42.919 4.44161 43.7297 9.28518 43.3504C13.007 43.0589 18.1895 41.7448 23.0277 40.242C23.1256 40.2116 23.2254 40.187 23.3209 40.1506C24.8663 39.5589 21.6502 35.4665 20.8441 34.1615C20.8229 34.127 20.8199 34.0881 20.8358 34.0509C20.8516 34.0137 20.8817 33.9888 20.9212 33.9801C20.9616 33.9713 21.0048 33.975 21.0556 34.0015L25.7927 36.4793C26.8454 37.0299 27.9292 37.3815 28.9884 36.8459L46.9209 27.7754C47.9729 27.2433 49.0764 27.212 50.1753 27.6814L53.0134 28.8937C53.2628 29.0003 53.2613 29.3492 53.0145 29.4521C40.5685 34.8299 28.0021 41.449 14.5941 44.007C14.5664 44.0121 14.5414 44.0267 14.5235 44.0484C14.5055 44.0701 14.4958 44.0974 14.4959 44.1255V49.3866C14.4959 51.8144 16.4794 53.798 18.9072 53.798H40.662C43.0898 53.798 45.0734 51.8145 45.0734 49.3866V34.6728C45.0734 34.6235 45.1011 34.5814 45.1464 34.5619L53.6343 30.8945C55.141 30.2451 55.1378 28.097 53.627 27.4517L51.9025 26.7152L51.9004 26.7143L50.1816 26.0189C50.1782 26.0174 50.1748 26.0161 50.1712 26.015ZM34.8343 13.8332V5.90736C34.8343 5.874 34.8462 5.84536 34.8699 5.8218C34.881 5.81038 34.8943 5.80136 34.909 5.7953C34.9238 5.78925 34.9396 5.78628 34.9555 5.78658C35.517 5.78844 35.9847 5.78696 36.4619 5.3098C36.6129 5.1593 36.7328 4.98044 36.8145 4.7835C36.8963 4.58656 36.9384 4.37542 36.9383 4.16218V1.62415C36.9383 0.729244 36.2091 0 35.3143 0H24.2556C23.3607 0 22.6314 0.729244 22.6314 1.62415V4.16218C22.6314 5.05697 23.3607 5.78621 24.2556 5.78621H24.6147C24.6813 5.78621 24.7355 5.84052 24.7355 5.90699V13.8331C24.7355 13.8997 24.7898 13.9538 24.8562 13.9538H26.1856C26.2176 13.9538 26.2483 13.941 26.271 13.9184C26.2936 13.8958 26.3063 13.8651 26.3064 13.8331V5.90699C26.3064 5.8404 26.3607 5.78621 26.4272 5.78621H33.1422C33.2087 5.78621 33.2629 5.84052 33.2629 5.90699V13.8331C33.2629 13.8997 33.3172 13.9538 33.3837 13.9538H34.7131C34.729 13.9539 34.7447 13.9508 34.7594 13.9447C34.7741 13.9387 34.7874 13.9298 34.7987 13.9186C34.8099 13.9074 34.8189 13.8941 34.825 13.8794C34.8311 13.8648 34.8342 13.8491 34.8343 13.8332ZM26.4054 28.7147C26.4037 28.7135 26.4019 28.7123 26.4002 28.7112C25.2829 28.0012 25.7601 27.1745 27.0762 27.543L27.0807 27.5441L38.0792 30.1805C38.1296 30.1925 38.1653 30.2329 38.1711 30.2844C38.1769 30.3359 38.1513 30.3832 38.1048 30.4062L32.687 33.0987C32.6675 33.1087 32.6456 33.1131 32.6237 33.1114C32.6019 33.1097 32.5809 33.1019 32.5632 33.089L26.4054 28.7147Z" fill="black"/>
</svg>
