<svg width="64" height="64" viewBox="0 0 64 64" fill="none" xmlns="http://www.w3.org/2000/svg">
<circle cx="32.0001" cy="32" r="32" fill="#EFEFEF"/>
<path d="M29.3111 35.1468L33.125 27.6193C33.3995 27.0775 34.0613 26.861 34.6028 27.1354C35.1445 27.4098 35.3611 28.0715 35.0867 28.6132L31.2728 36.1407C31.1809 36.3222 31.0406 36.4746 30.8673 36.581C30.6939 36.6874 30.4945 36.7437 30.2911 36.7436C30.124 36.7436 29.9543 36.7053 29.795 36.6246C29.2533 36.3501 29.0367 35.6885 29.3111 35.1468ZM37.3909 29.7561C36.9615 29.3266 36.2652 29.3266 35.8359 29.7561C35.4064 30.1854 35.4064 30.8817 35.8359 31.3111L37.4714 32.9466L35.8359 34.5821C35.4064 35.0114 35.4064 35.7077 35.8359 36.1371C36.0505 36.3518 36.332 36.4591 36.6134 36.4591C36.8948 36.4591 37.1762 36.3518 37.3909 36.1371L39.8039 33.7241C40.2333 33.2947 40.2333 32.5985 39.8039 32.1691L37.3909 29.7561ZM28.6224 31.8805L26.9869 30.245L28.6224 28.6095C29.0518 28.1801 29.0518 27.4839 28.6224 27.0545C28.193 26.625 27.4967 26.625 27.0674 27.0545L24.6544 29.4675C24.2249 29.8969 24.2249 30.593 24.6544 31.0225L27.0674 33.4355C27.282 33.6502 27.5635 33.7575 27.8449 33.7575C28.1263 33.7575 28.4077 33.6502 28.6224 33.4355C29.0518 33.006 29.0518 32.3098 28.6224 31.8805ZM44.9655 14.6951V48.7807C44.9655 50.9027 43.2391 52.6291 41.1171 52.6291H23.3412C21.2192 52.6291 19.4928 50.9027 19.4928 48.7807V14.6951C19.4928 12.573 21.2192 10.8467 23.3412 10.8467H41.1171C43.2391 10.8467 44.9655 12.573 44.9655 14.6951ZM26.6674 13.0458L27.4331 14.6951H37.025L37.7908 13.0458H26.6674ZM42.7664 14.6951C42.7664 13.7856 42.0265 13.0458 41.1171 13.0458H40.2154L38.7241 16.2576C38.6359 16.4478 38.4951 16.6087 38.3184 16.7214C38.1417 16.8342 37.9364 16.8941 37.7268 16.8941H26.7314C26.5218 16.8941 26.3166 16.8342 26.1399 16.7214C25.9632 16.6087 25.8224 16.4478 25.7341 16.2576L24.2429 13.0458H23.3412C22.4317 13.0458 21.6919 13.7856 21.6919 14.6951V48.7807C21.6919 49.6902 22.4317 50.43 23.3412 50.43H41.1171C42.0265 50.43 42.7664 49.6902 42.7664 48.7807V14.6951ZM35.2529 46.9482H29.2054C28.5982 46.9482 28.1059 47.4404 28.1059 48.0477C28.1059 48.655 28.5982 49.1472 29.2054 49.1472H35.2529C35.8601 49.1472 36.3524 48.655 36.3524 48.0477C36.3524 47.4404 35.8601 46.9482 35.2529 46.9482Z" fill="#02021E"/>
</svg>
