<svg width="64" height="64" viewBox="0 0 64 64" fill="none" xmlns="http://www.w3.org/2000/svg">
<circle cx="32" cy="32" r="32" fill="#EFEFEF"/>
<path d="M28.1988 14.4465H27.4238V13.4246C27.4238 13.211 27.5976 13.0371 27.8113 13.0371C28.025 13.0371 28.1988 13.211 28.1988 13.4246V14.4465ZM32.2066 35.4045C33.9148 35.4045 35.3046 34.0148 35.3046 32.3066V27.5795C35.3046 25.8714 33.9149 24.4816 32.2066 24.4816C30.4983 24.4816 29.1086 25.8713 29.1086 27.5795V32.3066C29.1086 34.0147 30.4983 35.4045 32.2066 35.4045ZM32.4297 40.2336V38.0081C32.3556 38.011 32.2815 38.0138 32.2066 38.0138C32.1318 38.0138 32.0576 38.011 31.9835 38.0081V40.2336C31.9835 40.3784 31.9259 40.5173 31.8235 40.6197C31.7211 40.7221 31.5822 40.7796 31.4374 40.7796H29.6198V41.226H34.7934V40.7796H32.9758C32.831 40.7796 32.6921 40.7221 32.5897 40.6197C32.4873 40.5173 32.4297 40.3784 32.4297 40.2336ZM21.6398 42.8521H18.9135C18.5945 42.8522 18.2791 42.7835 17.9891 42.6504C18.0687 42.7898 18.1668 42.9177 18.2808 43.0308L22.8794 47.6293C22.8983 47.6481 22.918 47.6644 22.9373 47.6822C22.8654 47.4607 22.8288 47.2293 22.8288 46.9965V44.0409C22.8288 43.3853 22.2955 42.852 21.6399 42.852L21.6398 42.8521ZM46.6352 17.2556V46.4153C46.6352 47.3621 45.865 48.1323 44.9182 48.1323H25.0564C24.4303 48.1323 23.9208 47.6229 23.9208 46.9966V44.041C23.9208 42.7833 22.8976 41.76 21.6398 41.76H18.9135C18.2873 41.76 17.7778 41.2506 17.7778 40.6244V17.2556C17.7778 16.3088 18.5481 15.5386 19.4949 15.5386H22.2689V18.5062C22.2689 19.4774 23.0591 20.2677 24.0303 20.2677H40.3828C41.354 20.2677 42.1442 19.4774 42.1442 18.5062V15.5386H44.9183C45.8651 15.5386 46.6353 16.3088 46.6353 17.2556H46.6352ZM37.9137 30.6457C37.9137 30.5009 37.8562 30.362 37.7538 30.2596C37.6514 30.1572 37.5125 30.0996 37.3676 30.0996H36.3966V27.5795C36.3966 25.2691 34.5169 23.3895 32.2065 23.3895C29.896 23.3895 28.0164 25.2691 28.0164 27.5795V30.0996H27.0454C26.9006 30.0996 26.7617 30.1572 26.6593 30.2596C26.5569 30.362 26.4994 30.5009 26.4994 30.6457V32.3066C26.4994 35.0008 28.3765 37.2633 30.8913 37.8591V39.6875H29.0737C28.9289 39.6875 28.79 39.745 28.6876 39.8474C28.5852 39.9498 28.5276 40.0887 28.5276 40.2336V41.772C28.5276 41.9169 28.5852 42.0557 28.6876 42.1582C28.79 42.2606 28.9289 42.3181 29.0737 42.3181H35.3394C35.4842 42.3181 35.6231 42.2606 35.7255 42.1582C35.8279 42.0557 35.8854 41.9169 35.8854 41.772V40.2336C35.8854 40.0887 35.8279 39.9498 35.7255 39.8474C35.6231 39.745 35.4842 39.6875 35.3394 39.6875H33.5218V37.8591C36.0365 37.2634 37.9137 35.0008 37.9137 32.3066V30.6457ZM36.3966 32.3066C36.3966 34.6169 34.5169 36.4966 32.2065 36.4966C29.896 36.4966 28.0164 34.6169 28.0164 32.3066V31.1917H27.5915V32.3066C27.5915 34.8513 29.6618 36.9217 32.2066 36.9217C34.7513 36.9217 36.8216 34.8513 36.8216 32.3066V31.1917H36.3966V32.3066ZM36.9893 13.4246C36.9893 13.211 36.8155 13.0371 36.6018 13.0371C36.3882 13.0371 36.2144 13.211 36.2144 13.4246V14.4465H36.9893V13.4246ZM24.0303 19.1756H40.3828C40.7519 19.1756 41.0521 18.8753 41.0521 18.5062V15.5386H38.0814V16.0325C38.0814 16.8483 37.4177 17.512 36.6018 17.512C36.457 17.512 36.3181 17.4545 36.2157 17.3521C36.1133 17.2497 36.0558 17.1108 36.0558 16.966C36.0558 16.8212 36.1133 16.6823 36.2157 16.5799C36.3181 16.4775 36.457 16.4199 36.6018 16.4199C36.7046 16.4198 36.8031 16.379 36.8757 16.3063C36.9484 16.2337 36.9892 16.1352 36.9893 16.0325V15.5386H29.2909V16.0325C29.2909 16.8483 28.6271 17.512 27.8113 17.512C27.6665 17.512 27.5276 17.4545 27.4252 17.3521C27.3228 17.2497 27.2652 17.1108 27.2652 16.966C27.2652 16.8212 27.3228 16.6823 27.4252 16.5799C27.5276 16.4775 27.6665 16.4199 27.8113 16.4199C27.914 16.4198 28.0125 16.379 28.0852 16.3063C28.1578 16.2337 28.1987 16.1352 28.1988 16.0325V15.5386H23.361V18.5062C23.361 18.8753 23.6613 19.1756 24.0303 19.1756ZM24.0934 49.2243C23.3213 49.2243 22.653 48.9474 22.1071 48.4015L17.7779 44.0723V48.452C17.7779 49.3988 18.5482 50.169 19.4949 50.169H44.9183C45.7998 50.169 46.5278 49.5012 46.6241 48.645C46.1507 49.008 45.5594 49.2244 44.9183 49.2244L24.0934 49.2243Z" fill="#02021E"/>
</svg>
