<svg width="64" height="64" viewBox="0 0 64 64" fill="none" xmlns="http://www.w3.org/2000/svg">
<circle cx="32" cy="32" r="32" fill="#EFEFEF"/>
<path fill-rule="evenodd" clip-rule="evenodd" d="M29.0515 24.6342L30.5676 23.1186L32.8769 25.4374L31.3614 26.953C31.3883 26.989 31.4154 27.0251 31.4334 27.0612H35.7281L38.8498 18.2554C38.904 18.0661 39.0844 17.9215 39.292 17.9215H40.113C40.3656 17.9215 40.5731 18.1291 40.5731 18.3818C40.5731 18.6345 40.3656 18.8422 40.113 18.8422H39.6166L36.4769 27.666C36.4137 27.8553 36.2331 27.9726 36.044 27.9726H31.9568C32.2907 28.6494 32.534 29.3618 32.6787 30.12H34.8259V31.3021H40.113C40.3657 31.3021 40.5732 31.5094 40.5732 31.7621C40.5732 32.0144 40.3657 32.213 40.113 32.213H34.8259V33.3951H32.6787C32.534 34.1529 32.2907 34.8747 31.9568 35.5423H36.044C36.2331 35.5423 36.4137 35.6595 36.4769 35.8491L39.6166 44.673H40.113C40.3656 44.673 40.5731 44.8803 40.5731 45.1333C40.5731 45.3857 40.3656 45.5933 40.113 45.5933H39.292C39.0844 45.5933 38.904 45.4487 38.8498 45.2594L35.7281 36.4623H31.4334C31.4154 36.4983 31.3883 36.5347 31.3614 36.5708L32.8769 38.0866L30.5676 40.3961L29.0515 38.8805C28.1132 39.5208 27.0395 39.9722 25.8757 40.1979V42.336H23.7014L24.0801 41.9662L24.9644 40.784C25.578 39.9722 25.596 38.8986 25.0094 38.0687L24.4679 37.3015L24.6666 36.688C27.2021 36.4804 29.1957 34.3511 29.1957 31.7619C29.1957 29.0279 26.9765 26.8085 24.2428 26.8085C21.5089 26.8085 19.2892 29.0279 19.2892 31.7619C19.2892 32.7273 19.5689 33.6293 20.0562 34.3965C20.0381 34.4053 20.0292 34.4233 20.011 34.4326C19.8577 34.3872 19.6951 34.3424 19.5329 34.297C19.0277 34.1618 18.5137 34.306 18.1527 34.6399L17.6652 34.5047C17.1422 34.3691 16.6006 34.5316 16.2398 34.8925C16.05 34.4145 15.9059 33.9091 15.8067 33.395H13.6592V30.1198H15.8066C16.0321 28.9651 16.4835 27.8911 17.124 26.9527L15.6081 25.4371L17.9179 23.1183L19.4337 24.6339C20.3717 24.0023 21.4454 23.5423 22.6095 23.3259V21.1784H25.8757V23.3259C27.0395 23.5426 28.1132 24.0025 29.0515 24.6342ZM45.9054 40.7482C48.3504 40.7482 50.3263 42.7242 50.3263 45.1694C50.3263 47.6146 48.3504 49.5995 45.9054 49.5995C43.4603 49.5995 41.4843 47.6146 41.4843 45.1694C41.4843 42.7242 43.4603 40.7482 45.9054 40.7482ZM48.7294 47.2533C48.0979 48.1196 47.0691 48.679 45.9054 48.679C44.7416 48.679 43.713 48.1196 43.0815 47.2533C43.5054 46.3512 44.4258 45.7197 45.4814 45.7197H46.3293C47.3851 45.7197 48.3053 46.3512 48.7294 47.2533ZM45.9054 42.1109C45.7086 42.1104 45.5137 42.1488 45.3317 42.2239C45.1498 42.299 44.9845 42.4093 44.8453 42.5484C44.7061 42.6876 44.5958 42.8529 44.5207 43.0348C44.4456 43.2167 44.4072 43.4117 44.4077 43.6085C44.4072 43.8053 44.4456 44.0003 44.5208 44.1822C44.5959 44.3641 44.7062 44.5294 44.8454 44.6685C44.9845 44.8077 45.1498 44.918 45.3318 44.993C45.5137 45.0681 45.7086 45.1065 45.9054 45.106C46.1022 45.1065 46.2972 45.0681 46.4791 44.993C46.661 44.9179 46.8262 44.8076 46.9654 44.6685C47.1045 44.5293 47.2148 44.364 47.2899 44.1821C47.365 44.0002 47.4034 43.8053 47.4029 43.6085C47.4034 43.4117 47.365 43.2168 47.2899 43.0349C47.2149 42.8529 47.1046 42.6877 46.9654 42.5485C46.8263 42.4093 46.661 42.299 46.4791 42.2239C46.2972 42.1488 46.1022 42.1104 45.9054 42.1109ZM45.9054 27.3503C48.3504 27.3503 50.3263 29.3351 50.3263 31.7801C50.3263 34.2252 48.3504 36.201 45.9054 36.201C43.4603 36.201 41.4843 34.2252 41.4843 31.7801C41.4843 29.3351 43.4603 27.3503 45.9054 27.3503ZM48.7294 33.8552C48.0979 34.7213 47.0691 35.2897 45.9054 35.2897C44.7416 35.2897 43.713 34.7213 43.0815 33.8552C43.5054 32.9529 44.4258 32.3216 45.4814 32.3216H46.3293C47.3851 32.3216 48.3053 32.9529 48.7294 33.8552ZM45.9054 28.7123C45.0754 28.7123 44.4077 29.3892 44.4077 30.2102C44.4072 30.407 44.4456 30.602 44.5207 30.784C44.5958 30.9659 44.7061 31.1312 44.8452 31.2704C44.9844 31.4096 45.1497 31.5199 45.3317 31.595C45.5136 31.6702 45.7086 31.7086 45.9054 31.7081C46.1023 31.7086 46.2972 31.6701 46.4792 31.595C46.6611 31.5199 46.8264 31.4096 46.9655 31.2704C47.1047 31.1312 47.215 30.9659 47.29 30.7839C47.3651 30.602 47.4035 30.407 47.4029 30.2102C47.4029 29.3892 46.7353 28.7123 45.9054 28.7123ZM45.9054 13.9609C48.3504 13.9609 50.3263 15.9365 50.3263 18.3818C50.3263 20.8268 48.3504 22.8118 45.9054 22.8118C43.4603 22.8118 41.4843 20.8268 41.4843 18.3818C41.4843 15.9365 43.4603 13.9609 45.9054 13.9609ZM48.7294 20.4569C48.0979 21.332 47.0691 21.8914 45.9054 21.8914C44.7416 21.8914 43.713 21.332 43.0815 20.4569C43.5054 19.5546 44.4258 18.9324 45.4814 18.9324H46.3293C47.3851 18.9324 48.3053 19.5546 48.7294 20.4569ZM45.9054 15.3233C45.7086 15.3228 45.5136 15.3612 45.3317 15.4363C45.1497 15.5114 44.9844 15.6217 44.8452 15.7609C44.7061 15.9001 44.5958 16.0654 44.5207 16.2474C44.4456 16.4293 44.4072 16.6243 44.4077 16.8211C44.4072 17.018 44.4456 17.2129 44.5207 17.3948C44.5958 17.5768 44.7061 17.7421 44.8453 17.8812C44.9845 18.0204 45.1498 18.1307 45.3317 18.2058C45.5137 18.2809 45.7086 18.3193 45.9054 18.3188C46.1022 18.3193 46.2972 18.2808 46.4791 18.2057C46.661 18.1306 46.8263 18.0203 46.9654 17.8812C47.1046 17.742 47.2149 17.5767 47.2899 17.3948C47.365 17.2129 47.4034 17.0179 47.4029 16.8211C47.4035 16.6243 47.3651 16.4293 47.29 16.2474C47.2149 16.0655 47.1047 15.9002 46.9655 15.761C46.8264 15.6218 46.6611 15.5115 46.4791 15.4364C46.2972 15.3612 46.1023 15.3228 45.9054 15.3233ZM20.1195 48.0835L21.554 43.6715L21.1662 43.5451L23.3854 41.3618L24.2338 40.2341C24.6036 39.7467 24.6125 39.0971 24.2607 38.5919L24.1255 38.4026L23.7643 39.5483C23.6832 39.7828 23.4305 39.9182 23.187 39.8461C22.9435 39.7647 22.8172 39.5123 22.8893 39.2686L23.4664 37.4553H23.4577L25.0366 32.5289C25.1087 32.2311 24.9373 31.9243 24.6396 31.8432C24.2337 31.7347 24.0349 31.6718 24.0349 31.6718C23.7372 31.5905 23.4305 31.7708 23.3493 32.0685L22.1584 35.8308C22.2397 35.5333 22.068 35.2266 21.7707 35.1451C21.3645 35.0281 21.1569 34.9739 21.1569 34.9739C20.8681 34.8927 20.5615 35.0642 20.4803 35.362L20.2906 36.0384C20.3717 35.7406 20.2005 35.4342 19.9028 35.3527C19.4969 35.2445 19.2982 35.1815 19.2982 35.1815C19.0004 35.1004 18.6938 35.2806 18.6125 35.5693L18.4229 36.2461C18.5043 35.9483 18.3327 35.6416 18.035 35.5603C17.6289 35.4521 17.4309 35.3886 17.4309 35.3886C17.1329 35.3077 16.8263 35.4883 16.7452 35.786L15.3825 41.6684L15.0938 41.5783L13.6592 45.9904L20.1195 48.0835ZM19.5329 46.9287L20.3989 44.258L15.6804 42.7332L14.8143 45.4038L19.5329 46.9287ZM24.2427 28.5049C26.038 28.5049 27.4905 29.9668 27.4905 31.7622C27.4905 33.2056 26.5523 34.4235 25.253 34.8477L25.9117 32.7903L25.9208 32.7723C26.128 31.9877 25.6681 31.1756 24.8832 30.9588C24.6846 30.9047 24.4773 30.8507 24.2786 30.7876C23.5028 30.58 22.6995 31.031 22.4743 31.7981L21.8066 33.9093C21.3011 33.3411 20.9945 32.5829 20.9945 31.7621C20.9945 29.9667 22.447 28.5049 24.2427 28.5049Z" fill="#02021E"/>
</svg>
