<svg width="54" height="54" viewBox="0 0 54 54" fill="none" xmlns="http://www.w3.org/2000/svg">
<g clip-path="url(#clip0_132_2046)">
<mask id="mask0_132_2046" style="mask-type:luminance" maskUnits="userSpaceOnUse" x="0" y="-1" width="54" height="55">
<path d="M53.9862 -0.000366211H0V53.9859H53.9862V-0.000366211Z" fill="white"/>
</mask>
<g mask="url(#mask0_132_2046)">
<path d="M49.6106 -0.000366211H4.37563C1.96291 -0.000366211 0 1.96254 0 4.37526V6.82499C0 10.692 1.33036 14.4845 3.74592 17.5038C5.75449 20.0146 8.61333 21.9815 11.7961 23.0424L13.6589 23.6633C15.6327 26.9548 18.8022 29.4722 22.6175 30.5926V33.4242C22.6175 34.5578 21.6952 35.4801 20.5616 35.4801C18.1488 35.4801 16.186 37.443 16.186 39.8557V41.9115H14.13C13.4895 41.9115 12.9702 42.4308 12.9702 43.0713V51.6661H10.9144C10.2738 51.6661 9.75453 52.1854 9.75453 52.826C9.75453 53.4666 10.2738 53.9859 10.9144 53.9859H43.0719C43.7125 53.9859 44.2318 53.4666 44.2318 52.826C44.2318 52.1854 43.7125 51.6661 43.0719 51.6661H41.0161V43.0714C41.0161 42.4309 40.4969 41.9116 39.8562 41.9116H37.8004V39.8559C37.8004 37.4431 35.8375 35.4802 33.4248 35.4802C32.2912 35.4802 31.3688 34.5579 31.3688 33.4243V30.5927C35.1812 29.4732 38.3488 26.9588 40.323 23.671L42.2823 23.0474C42.2874 23.0458 42.2925 23.0442 42.2974 23.0424C45.4306 21.9981 48.1773 20.083 50.2404 17.504C52.6559 14.4845 53.9862 10.692 53.9862 6.82499V4.37526C53.9862 1.96254 52.0234 -0.000366211 49.6106 -0.000366211ZM5.55742 16.0548C3.46956 13.4451 2.31972 10.1673 2.31972 6.82499V4.37526C2.31972 3.24165 3.24202 2.31935 4.37563 2.31935H9.87621L11.5569 17.4451C11.6842 18.5913 11.9384 19.7017 12.3042 20.7622C9.63191 19.8251 7.24249 18.1613 5.55742 16.0548ZM38.6963 51.6661H15.2899V44.2313H38.6963V51.6661ZM29.9487 28.5676C29.4222 28.6886 29.049 29.1575 29.049 29.6979V33.4244C29.049 35.8372 31.0119 37.8 33.4247 37.8C34.5583 37.8 35.4805 38.7223 35.4805 39.8559V41.9117H18.5057V39.8559C18.5057 38.7223 19.428 37.8 20.5616 37.8C22.9743 37.8 24.9372 35.8372 24.9372 33.4244V29.6979C24.9372 29.1575 24.5641 28.6887 24.0375 28.5676C18.5678 27.309 14.4788 22.7364 13.8624 17.189L12.2102 2.31935H41.776L40.1238 17.1888C39.5076 22.7364 35.4184 27.309 29.9487 28.5676ZM51.6665 6.82499C51.6665 10.1672 50.5167 13.445 48.4288 16.0547C46.6686 18.2549 44.3324 19.8948 41.6679 20.805C42.0417 19.7317 42.3003 18.6065 42.4292 17.4449L44.11 2.31935H49.6106C50.7442 2.31935 51.6665 3.24165 51.6665 4.37526V6.82499Z" fill="black"/>
<path d="M30.9675 20.6956C30.7865 20.6956 30.605 20.6535 30.4379 20.5677L26.9927 18.7993L23.5475 20.5677C23.1557 20.7686 22.6841 20.7306 22.3296 20.4694C21.9753 20.2081 21.7992 19.7687 21.8754 19.335L22.5269 15.6258L19.7615 12.9941C19.4393 12.6874 19.3208 12.2235 19.4564 11.8001C19.592 11.3765 19.9579 11.0679 20.3982 11.0055L24.2431 10.4598L25.9574 7.06819C26.1548 6.67785 26.5551 6.43164 26.9926 6.43164C27.4301 6.43164 27.8303 6.67785 28.0277 7.06819L29.7421 10.4598L33.587 11.0055C34.0274 11.0679 34.3932 11.3766 34.5289 11.8001C34.6644 12.2236 34.546 12.6874 34.2237 12.9941L31.4583 15.6258L32.1098 19.335C32.1861 19.7687 32.0101 20.2081 31.6557 20.4694C31.4525 20.6193 31.2107 20.6956 30.9675 20.6956ZM26.9927 16.3357C27.1745 16.3357 27.356 16.3783 27.5224 16.4637L29.4215 17.4385L29.0661 15.4151C28.9989 15.0326 29.1275 14.6419 29.4089 14.3742L30.8888 12.9657L28.8172 12.6718C28.4418 12.6185 28.1162 12.3851 27.945 12.0466L26.9927 10.1627L26.0404 12.0465C25.8694 12.385 25.5436 12.6184 25.1682 12.6717L23.0966 12.9656L24.5766 14.3741C24.8579 14.6418 24.9867 15.0325 24.9194 15.415L24.5639 17.4384L26.4632 16.4636C26.6293 16.3783 26.8111 16.3357 26.9927 16.3357Z" fill="#5D59EA"/>
</g>
</g>
<defs>
<clipPath id="clip0_132_2046">
<rect width="53.9862" height="53.9862" fill="white"/>
</clipPath>
</defs>
</svg>
