<svg width="52" height="52" viewBox="0 0 52 52" fill="none" xmlns="http://www.w3.org/2000/svg">
<g clip-path="url(#clip0_102_5324)">
<path d="M26 0C11.7193 0 0 11.7193 0 26C0 40.2807 11.7193 52 26 52C40.2807 52 52 40.2807 52 26C52 11.7193 40.2807 0 26 0ZM37.8496 11.996C38.4446 11.401 39.4091 11.401 40.004 11.996C40.599 12.5909 40.599 13.5554 40.004 14.1504C39.4091 14.7454 38.4446 14.7454 37.8496 14.1504C37.2547 13.5554 37.2547 12.5909 37.8496 11.996ZM24.4766 7.71875C24.4766 6.8767 25.1579 6.19531 26 6.19531C26.8421 6.19531 27.5234 6.8767 27.5234 7.71875V10.7656C27.5234 11.6077 26.8421 12.2891 26 12.2891C25.1579 12.2891 24.4766 11.6077 24.4766 10.7656V7.71875ZM7.71875 27.5234C6.8767 27.5234 6.19531 26.8421 6.19531 26C6.19531 25.1579 6.8767 24.4766 7.71875 24.4766H10.7656C11.6077 24.4766 12.2891 25.1579 12.2891 26C12.2891 26.8421 11.6077 27.5234 10.7656 27.5234H7.71875ZM14.1504 40.004C13.5554 40.599 12.5909 40.599 11.996 40.004C11.401 39.4091 11.401 38.4446 11.996 37.8496C12.5909 37.2545 13.5554 37.2545 14.1504 37.8496C14.7454 38.4446 14.7454 39.4091 14.1504 40.004ZM14.1504 14.1504C13.5554 14.7454 12.5909 14.7454 11.996 14.1504C11.401 13.5554 11.401 12.5909 11.996 11.996C12.5909 11.401 13.5554 11.401 14.1504 11.996C14.7454 12.5909 14.7454 13.5554 14.1504 14.1504ZM27.5234 44.2812C27.5234 45.1233 26.8421 45.8047 26 45.8047C25.1579 45.8047 24.4766 45.1233 24.4766 44.2812V41.2344C24.4766 40.3923 25.1579 39.7109 26 39.7109C26.8421 39.7109 27.5234 40.3923 27.5234 41.2344V44.2812ZM36.2177 36.2177C35.6226 36.8128 34.6585 36.8128 34.0635 36.2177L24.9228 27.0771C24.7813 26.9357 24.6691 26.7678 24.5925 26.5829C24.5159 26.3981 24.4765 26.2 24.4766 26V16.8594C24.4766 16.0173 25.1579 15.3359 26 15.3359C26.8421 15.3359 27.5234 16.0173 27.5234 16.8594V25.3692L36.2177 34.0635C36.8129 34.6586 36.8129 35.6226 36.2177 36.2177ZM40.004 40.004C39.4091 40.599 38.4446 40.599 37.8496 40.004C37.2547 39.4091 37.2547 38.4446 37.8496 37.8496C38.4446 37.2545 39.4091 37.2545 40.004 37.8496C40.5989 38.4446 40.5989 39.4091 40.004 40.004ZM45.8047 26C45.8047 26.8421 45.1233 27.5234 44.2812 27.5234H41.2344C40.3923 27.5234 39.7109 26.8421 39.7109 26C39.7109 25.1579 40.3923 24.4766 41.2344 24.4766H44.2812C45.1233 24.4766 45.8047 25.1579 45.8047 26Z" fill="#5D59EA"/>
</g>
<defs>
<clipPath id="clip0_102_5324">
<rect width="52" height="52" fill="white"/>
</clipPath>
</defs>
</svg>
