<svg width="24" height="24" viewBox="0 0 24 24" fill="none" xmlns="http://www.w3.org/2000/svg">
<g clip-path="url(#clip0_102_4331)">
<g clip-path="url(#clip1_102_4331)">
<g clip-path="url(#clip2_102_4331)">
<mask id="mask0_102_4331" style="mask-type:luminance" maskUnits="userSpaceOnUse" x="0" y="0" width="24" height="24">
<path d="M24 12C24 5.37258 18.6274 0 12 0C5.37258 0 0 5.37258 0 12C0 18.6274 5.37258 24 12 24C18.6274 24 24 18.6274 24 12Z" fill="white"/>
</mask>
<g mask="url(#mask0_102_4331)">
<path d="M27.5107 0H-3.65469C-4.38269 0.000353312 -5.08077 0.289707 -5.59554 0.80448C-6.11032 1.31925 -6.39966 2.01733 -6.40002 2.74533V8.00533H30.256V2.74533C30.2556 2.01733 29.9663 1.31925 29.4515 0.80448C28.9367 0.289707 28.2387 0.000353312 27.5107 0Z" fill="#FAB446"/>
<path d="M-6.40002 21.2708C-6.39966 21.9988 -6.11032 22.6968 -5.59554 23.2116C-5.08077 23.7264 -4.38269 24.0157 -3.65469 24.0161H27.5107C28.2387 24.0157 28.9367 23.7264 29.4515 23.2116C29.9663 22.6968 30.2556 21.9988 30.256 21.2708V16.0108H-6.40002V21.2708Z" fill="#73AF00"/>
<path d="M-6.40002 8.00522H30.256V16.0105H-6.40002V8.00522Z" fill="#F5F5F5"/>
<path d="M11.928 15.404C11.0272 15.4033 10.1634 15.0452 9.52648 14.4083C8.88951 13.7712 8.53135 12.9075 8.53064 12.0067C8.53135 11.1059 8.88951 10.2422 9.52648 9.60522C10.1634 8.96824 11.0272 8.61008 11.928 8.60938C12.8288 8.61008 13.6924 8.96824 14.3295 9.60522C14.9664 10.2422 15.3246 11.1059 15.3252 12.0067C15.3246 12.9075 14.9664 13.7712 14.3295 14.4083C13.6924 15.0452 12.8288 15.4033 11.928 15.404ZM11.928 9.24137C10.4013 9.24137 9.16264 10.48 9.16264 12.0067C9.16264 13.5333 10.4013 14.772 11.928 14.772C13.4546 14.772 14.6932 13.5333 14.6932 12.0067C14.6932 10.48 13.4546 9.24271 11.928 9.24137Z" fill="#41479B"/>
<path d="M11.9281 12.3934C12.1409 12.3934 12.3134 12.2209 12.3134 12.008C12.3134 11.7952 12.1409 11.6227 11.9281 11.6227C11.7152 11.6227 11.5427 11.7952 11.5427 12.008C11.5427 12.2209 11.7152 12.3934 11.9281 12.3934Z" fill="#41479B"/>
<path d="M11.928 12.0653L10.9493 12.1639L8.84668 12.0653V11.9493L10.9493 11.8506L11.928 11.9493V12.0653Z" fill="#41479B"/>
<path d="M11.9281 12.0653L12.9068 12.1639L15.0094 12.0653V11.9493L12.9068 11.8506L11.9281 11.9493V12.0653Z" fill="#41479B"/>
<path d="M11.8692 12.0081L11.7705 11.0294L11.8692 8.92676H11.9852L12.0838 11.0294L11.9852 12.0081H11.8692Z" fill="#41479B"/>
<path d="M11.8692 12.0081L11.7705 12.9868L11.8692 15.0895H11.9852L12.0838 12.9868L11.9852 12.0081H11.8692Z" fill="#41479B"/>
<path d="M11.8867 12.0548L11.1253 11.4321L9.70801 9.86942L9.78934 9.78809L11.3453 11.2054L11.968 11.9668L11.8867 12.0548Z" fill="#41479B"/>
<path d="M11.8867 12.0481L12.5094 12.8095L14.0653 14.2268L14.1467 14.1455L12.7294 12.5895L11.9681 11.9668L11.8867 12.0481Z" fill="#41479B"/>
<path d="M11.8867 11.9668L12.5094 11.2054L14.0653 9.78809L14.1467 9.86942L12.7294 11.4254L11.9681 12.0481L11.8867 11.9668Z" fill="#41479B"/>
<path d="M11.8867 11.9668L11.1253 12.5895L9.70801 14.1455L9.78934 14.2268L11.3453 12.8095L11.968 12.0481L11.8867 11.9668Z" fill="#41479B"/>
<path d="M11.948 12.0614L11.0814 12.5268L9.10137 13.2401L9.05737 13.1334L10.9614 12.2374L11.9027 11.9547L11.948 12.0614Z" fill="#41479B"/>
<path d="M11.9494 12.0601L12.8907 11.7761L14.7947 10.8801L14.7507 10.7734L12.7707 11.4868L11.9041 11.9521L11.9494 12.0601Z" fill="#41479B"/>
<path d="M11.8734 12.028L11.408 11.1614L10.6947 9.18136L10.8014 9.13736L11.6974 11.0414L11.98 11.9827L11.8734 12.028Z" fill="#41479B"/>
<path d="M11.8748 12.0294L12.1574 12.9707L13.0534 14.8747L13.1601 14.8307L12.4468 12.8507L11.9814 11.984L11.8748 12.0294Z" fill="#41479B"/>
<path d="M11.9053 12.0601L10.9639 11.7761L9.05994 10.8801L9.10394 10.7734L11.0839 11.4868L11.9506 11.9521L11.9053 12.0601Z" fill="#41479B"/>
<path d="M11.9053 12.0614L12.7719 12.5268L14.752 13.2401L14.796 13.1334L12.8919 12.2374L11.9506 11.9547L11.9053 12.0614Z" fill="#41479B"/>
<path d="M11.8748 11.9853L12.1574 11.044L13.0534 9.13998L13.1601 9.18398L12.4468 11.164L11.9814 12.0307L11.8748 11.9853Z" fill="#41479B"/>
<path d="M11.8734 11.9854L11.408 12.852L10.6947 14.832L10.8014 14.876L11.6974 12.972L11.98 12.0307L11.8734 11.9854Z" fill="#41479B"/>
<path d="M11.928 12.5279C12.2151 12.5279 12.448 12.2951 12.448 12.0079C12.448 11.7208 12.2151 11.4879 11.928 11.4879C11.6408 11.4879 11.408 11.7208 11.408 12.0079C11.408 12.2951 11.6408 12.5279 11.928 12.5279Z" fill="#F5F5F5"/>
<path d="M11.928 12.32C12.1003 12.32 12.24 12.1803 12.24 12.008C12.24 11.8356 12.1003 11.696 11.928 11.696C11.7557 11.696 11.616 11.8356 11.616 12.008C11.616 12.1803 11.7557 12.32 11.928 12.32Z" fill="#41479B"/>
</g>
</g>
</g>
</g>
<defs>
<clipPath id="clip0_102_4331">
<rect width="24" height="24" fill="white"/>
</clipPath>
<clipPath id="clip1_102_4331">
<rect width="24" height="24" fill="white"/>
</clipPath>
<clipPath id="clip2_102_4331">
<rect width="24" height="24" fill="white"/>
</clipPath>
</defs>
</svg>
