<svg width="52" height="52" viewBox="0 0 52 52" fill="none" xmlns="http://www.w3.org/2000/svg">
<g clip-path="url(#clip0_157_6946)">
<path d="M44.6411 44.6471C54.4453 34.8429 54.4453 18.9471 44.6411 9.14293C34.8369 -0.661271 18.9412 -0.661272 9.13697 9.14293C-0.667232 18.9471 -0.667232 34.8429 9.13697 44.6471C18.9412 54.4513 34.8369 54.4513 44.6411 44.6471Z" fill="#FF6C6C"/>
<path d="M26.8947 1.78955V51.9999C40.7377 51.9999 51.9999 40.7378 51.9999 26.8947C51.9999 13.0516 40.7377 1.78955 26.8947 1.78955Z" fill="#E63950"/>
<path d="M29.6423 43.3582C38.7302 41.8375 44.8645 33.2374 43.3437 24.1495C41.8229 15.0616 33.2229 8.92725 24.1351 10.448C15.0472 11.9688 8.9129 20.5689 10.4337 29.6568C11.9545 38.7447 20.5545 44.879 29.6423 43.3582Z" fill="#F0F7FF"/>
<path d="M26.8947 10.2109V43.5787C36.0941 43.5787 43.5786 36.0942 43.5786 26.8947C43.5786 17.6954 36.0941 10.2109 26.8947 10.2109Z" fill="#DFE7F4"/>
<path d="M34.2596 30.6549C36.3313 26.589 34.7146 21.6136 30.6488 19.5419C26.5829 17.4702 21.6074 19.0868 19.5358 23.1527C17.4641 27.2186 19.0807 32.1941 23.1466 34.2657C27.2125 36.3374 32.1879 34.7208 34.2596 30.6549Z" fill="#FF6C6C"/>
<path d="M26.8947 18.6323V35.1573C31.4507 35.1573 35.1572 31.4508 35.1572 26.8948C35.1572 22.3388 31.4507 18.6323 26.8947 18.6323Z" fill="#E63950"/>
<path d="M18.5956 7.82385L11.2188 0.447024C11.0381 0.266286 10.815 0.133829 10.5698 0.0618174C10.3247 -0.0101945 10.0653 -0.0194528 9.81564 0.0348927C9.56597 0.0892383 9.33394 0.205446 9.14089 0.372842C8.94783 0.540239 8.79993 0.753459 8.71076 0.992921L7.2009 5.04392L7.63219 7.63246L5.04366 7.20117L0.992754 8.71093C0.753385 8.8002 0.540266 8.94816 0.372951 9.14122C0.205637 9.33428 0.0894837 9.56627 0.0351485 9.8159C-0.0191866 10.0655 -0.00996386 10.3248 0.0619707 10.5699C0.133905 10.8151 0.266248 11.0382 0.446857 11.2189L7.82368 18.5957C7.99793 18.7701 8.21183 18.8996 8.44707 18.9731C8.6823 19.0467 8.93187 19.0622 9.17439 19.0182L16.467 17.6962C16.7726 17.6407 17.0539 17.4934 17.2735 17.2738C17.4931 17.0542 17.6404 16.7728 17.6959 16.4673L19.0179 9.17466C19.0619 8.93213 19.0464 8.68257 18.9729 8.44732C18.8993 8.21207 18.7698 7.99815 18.5956 7.82385Z" fill="#29376D"/>
<path d="M27.9734 25.8163L7.20095 5.04395L6.61529 6.61553L5.0437 7.20119L25.8161 27.9736C25.9576 28.1155 26.1258 28.228 26.3109 28.3046C26.4959 28.3813 26.6944 28.4206 26.8947 28.4204C27.2851 28.4204 27.6755 28.2714 27.9733 27.9736C28.5691 27.3779 28.5691 26.412 27.9734 25.8163Z" fill="#47568C"/>
</g>
<defs>
<clipPath id="clip0_157_6946">
<rect width="52" height="52" fill="white"/>
</clipPath>
</defs>
</svg>
