<svg width="54" height="54" viewBox="0 0 54 54" fill="none" xmlns="http://www.w3.org/2000/svg">
<path d="M29.5233 6.74823H24.462C24.2383 6.74823 24.0238 6.65935 23.8656 6.50116C23.7074 6.34297 23.6185 6.12841 23.6185 5.90469C23.6185 5.68097 23.7074 5.46642 23.8656 5.30822C24.0238 5.15003 24.2383 5.06116 24.462 5.06116H29.5233C29.747 5.06116 29.9615 5.15003 30.1197 5.30822C30.2779 5.46642 30.3668 5.68097 30.3668 5.90469C30.3668 6.12841 30.2779 6.34297 30.1197 6.50116C29.9615 6.65935 29.747 6.74823 29.5233 6.74823ZM36.2715 52.2991H17.7138C16.5956 52.2978 15.5236 51.853 14.7329 51.0623C13.9422 50.2716 13.4974 49.1996 13.4961 48.0814V19.4012C13.4961 19.1775 13.585 18.963 13.7432 18.8048C13.9014 18.6466 14.1159 18.5577 14.3396 18.5577C14.5633 18.5577 14.7779 18.6466 14.9361 18.8048C15.0943 18.963 15.1832 19.1775 15.1832 19.4012V48.0814C15.1832 49.4766 16.3186 50.612 17.7138 50.612H36.2715C37.6667 50.612 38.8021 49.4766 38.8021 48.0814V19.4012C38.8021 19.1775 38.891 18.963 39.0492 18.8048C39.2074 18.6466 39.422 18.5577 39.6457 18.5577C39.8694 18.5577 40.0839 18.6466 40.2421 18.8048C40.4003 18.963 40.4892 19.1775 40.4892 19.4012V48.0814C40.4892 50.4062 38.598 52.2991 36.2715 52.2991Z" fill="black"/>
<path d="M39.6456 25.306C39.4219 25.306 39.2073 25.2171 39.0491 25.0589C38.8909 24.9007 38.8021 24.6862 38.8021 24.4624V5.90469C38.8021 4.50948 37.6667 3.37408 36.2715 3.37408H17.7137C16.3185 3.37408 15.1831 4.50948 15.1831 5.90469V24.4624C15.1831 24.6862 15.0942 24.9007 14.936 25.0589C14.7778 25.2171 14.5633 25.306 14.3396 25.306C14.1158 25.306 13.9013 25.2171 13.7431 25.0589C13.5849 24.9007 13.496 24.6862 13.496 24.4624V5.90469C13.496 3.5799 15.3872 1.68701 17.7137 1.68701H36.2715C38.5979 1.68701 40.4891 3.5799 40.4891 5.90469V24.4624C40.4891 24.6862 40.4003 24.9007 40.2421 25.0589C40.0839 25.2171 39.8693 25.306 39.6456 25.306ZM44.7068 10.2067C44.2412 10.2067 43.8633 9.91316 43.8633 9.44753V9.27882C43.8633 9.0551 43.9521 8.84055 44.1103 8.68235C44.2685 8.52416 44.4831 8.43529 44.7068 8.43529C44.9305 8.43529 45.1451 8.52416 45.3033 8.68235C45.4615 8.84055 45.5503 9.0551 45.5503 9.27882C45.5503 9.74446 45.1724 10.2067 44.7068 10.2067ZM44.7068 13.5809C44.2412 13.5809 43.8633 13.2873 43.8633 12.8217V12.653C43.8633 12.4292 43.9521 12.2147 44.1103 12.0565C44.2685 11.8983 44.4831 11.8094 44.7068 11.8094C44.9305 11.8094 45.1451 11.8983 45.3033 12.0565C45.4615 12.2147 45.5503 12.4292 45.5503 12.653C45.5503 13.1186 45.1724 13.5809 44.7068 13.5809ZM44.7068 16.955C44.2412 16.955 43.8633 16.6614 43.8633 16.1958V16.0271C43.8633 15.8034 43.9521 15.5888 44.1103 15.4306C44.2685 15.2724 44.4831 15.1836 44.7068 15.1836C44.9305 15.1836 45.1451 15.2724 45.3033 15.4306C45.4615 15.5888 45.5503 15.8034 45.5503 16.0271C45.5503 16.4927 45.1724 16.955 44.7068 16.955ZM9.27835 38.7182C8.81272 38.7182 8.43481 38.4246 8.43481 37.959V37.7903C8.43481 37.5666 8.52369 37.352 8.68188 37.1938C8.84007 37.0356 9.05463 36.9468 9.27835 36.9468C9.50207 36.9468 9.71662 37.0356 9.87482 37.1938C10.033 37.352 10.1219 37.5666 10.1219 37.7903C10.1219 38.2559 9.74398 38.7182 9.27835 38.7182ZM9.27835 42.0923C8.81272 42.0923 8.43481 41.7988 8.43481 41.3331V41.1644C8.43481 40.9407 8.52369 40.7262 8.68188 40.568C8.84007 40.4098 9.05463 40.3209 9.27835 40.3209C9.50207 40.3209 9.71662 40.4098 9.87482 40.568C10.033 40.7262 10.1219 40.9407 10.1219 41.1644C10.1219 41.6301 9.74398 42.0923 9.27835 42.0923ZM9.27835 45.4665C8.81272 45.4665 8.43481 45.1729 8.43481 44.7073V44.5386C8.43481 44.3149 8.52369 44.1003 8.68188 43.9421C8.84007 43.7839 9.05463 43.695 9.27835 43.695C9.50207 43.695 9.71662 43.7839 9.87482 43.9421C10.033 44.1003 10.1219 44.3149 10.1219 44.5386C10.1219 45.0042 9.74398 45.4665 9.27835 45.4665Z" fill="black"/>
<path d="M41.9076 45.5507C41.7818 45.5508 41.6575 45.5227 41.544 45.4684C41.4304 45.4142 41.3304 45.3353 41.2513 45.2374C41.1722 45.1396 41.116 45.0253 41.0868 44.9029C41.0577 44.7805 41.0562 44.6531 41.0826 44.5301L41.6394 41.9488C41.6726 41.7938 41.749 41.6513 41.8597 41.5379C41.9705 41.4245 42.1111 41.3447 42.2653 41.3078C43.0793 41.1082 43.8574 40.7832 44.5715 40.3444C44.7062 40.2622 44.8612 40.2195 45.0189 40.221C45.1767 40.2224 45.3309 40.2682 45.464 40.3529L47.1342 41.4208L48.1683 40.3782L47.1004 38.7215C47.0147 38.5883 46.9681 38.4336 46.9661 38.2753C46.964 38.1169 47.0064 37.9611 47.0886 37.8256C47.5275 37.1118 47.852 36.3336 48.0502 35.5194C48.0874 35.3657 48.1668 35.2255 48.2795 35.1145C48.3922 35.0036 48.5337 34.9265 48.688 34.8918L50.6112 34.465V33.0192L48.6896 32.5924C48.5354 32.5577 48.3939 32.4806 48.2811 32.3696C48.1684 32.2587 48.089 32.1185 48.0519 31.9648C47.8529 31.1508 47.5285 30.3728 47.0903 29.6585C47.0074 29.5237 46.9644 29.3682 46.9662 29.21C46.968 29.0518 47.0145 28.8973 47.1004 28.7644L48.17 27.0925L47.1375 26.06L45.4657 27.1296C45.3327 27.2147 45.1785 27.2607 45.0206 27.2621C44.8628 27.2636 44.7077 27.2206 44.5732 27.1381C43.8587 26.6999 43.0808 26.375 42.267 26.1747C42.1128 26.1378 41.9722 26.058 41.8614 25.9446C41.7507 25.8312 41.6743 25.6887 41.6411 25.5337L41.226 23.6188H40.4888C40.2651 23.6188 40.0505 23.53 39.8923 23.3718C39.7341 23.2136 39.6453 22.999 39.6453 22.7753C39.6453 22.5516 39.7341 22.337 39.8923 22.1788C40.0505 22.0206 40.2651 21.9318 40.4888 21.9318H41.9059C42.0986 21.9321 42.2854 21.9984 42.4352 22.1196C42.585 22.2409 42.6888 22.4097 42.7292 22.5982L43.1797 24.6783C43.7971 24.8656 44.4028 25.1186 44.9865 25.4341L46.7984 24.2751C46.9605 24.1716 47.153 24.1265 47.3442 24.1474C47.5353 24.1682 47.7136 24.2538 47.8495 24.3898L49.8419 26.3806C49.9777 26.5167 50.0629 26.695 50.0835 26.8862C50.104 27.0773 50.0587 27.2698 49.9549 27.4316L48.7959 29.2435C49.1114 29.8289 49.3645 30.4346 49.5517 31.0537L51.6353 31.516C52.0233 31.602 52.2983 31.9462 52.2983 32.341V35.1415C52.2982 35.3335 52.2326 35.5198 52.1124 35.6694C51.9921 35.8191 51.8244 35.9233 51.637 35.9648L49.5534 36.4271C49.363 37.0538 49.1098 37.6597 48.7976 38.2356L49.9549 40.0306C50.0597 40.1919 50.106 40.3843 50.0861 40.5756C50.0661 40.7669 49.9811 40.9455 49.8453 41.0817L47.8529 43.0893C47.7169 43.2257 47.5384 43.3117 47.347 43.3328C47.1555 43.354 46.9626 43.3092 46.8001 43.2057L44.9882 42.0467C44.4126 42.3583 43.8073 42.6115 43.1814 42.8025L42.7309 44.8827C42.6905 45.0712 42.5868 45.2403 42.437 45.3618C42.2873 45.4834 42.1005 45.55 41.9076 45.5507Z" fill="#5D59EA"/>
<path d="M42.8354 38.0906C42.6548 38.0903 42.479 38.032 42.3339 37.9243C42.1889 37.8165 42.0823 37.6651 42.0298 37.4923C41.9773 37.3194 41.9816 37.1343 42.0422 36.9641C42.1028 36.7939 42.2165 36.6477 42.3664 36.5469C43.0139 36.1106 43.4902 35.4634 43.7143 34.7154C43.9384 33.9675 43.8964 33.165 43.5955 32.4445C43.2946 31.724 42.7534 31.13 42.064 30.7636C41.3745 30.3972 40.5794 30.2809 39.8139 30.4347C39.7053 30.4569 39.5934 30.4576 39.4846 30.4366C39.3758 30.4157 39.2722 30.3735 39.1797 30.3124C39.0872 30.2514 39.0076 30.1728 38.9455 30.081C38.8833 29.9892 38.8399 29.8861 38.8176 29.7776C38.7954 29.669 38.7947 29.5571 38.8157 29.4483C38.8367 29.3395 38.8789 29.2359 38.9399 29.1434C39.0009 29.0508 39.0795 28.9713 39.1713 28.9092C39.2631 28.847 39.3662 28.8036 39.4748 28.7813C40.2102 28.6322 40.9695 28.6483 41.698 28.8283C42.4264 29.0084 43.1058 29.3479 43.6871 29.8225C44.2683 30.297 44.7369 30.8947 45.0591 31.5725C45.3812 32.2502 45.5489 32.9909 45.5499 33.7413C45.5501 34.5729 45.3453 35.3917 44.9536 36.1253C44.562 36.8589 43.9955 37.4847 43.3044 37.9472C43.1658 38.0405 43.0025 38.0904 42.8354 38.0906ZM13.4956 25.306C12.4081 25.3074 11.3492 24.9585 10.4756 24.3109C9.60208 23.6632 8.96043 22.7514 8.64577 21.7105C8.33111 20.6696 8.36019 19.555 8.7287 18.5319C9.09721 17.5088 9.78554 16.6317 10.6917 16.0305C10.8778 15.9143 11.1019 15.8752 11.3164 15.9215C11.5309 15.9678 11.7189 16.0958 11.8405 16.2785C11.9621 16.4611 12.0078 16.684 11.9678 16.8997C11.9278 17.1155 11.8053 17.3072 11.6263 17.4341C10.9788 17.8688 10.5017 18.5141 10.2759 19.2605C10.0502 20.0069 10.0896 20.8085 10.3877 21.5292C10.6857 22.2498 11.2239 22.8451 11.911 23.214C12.598 23.583 13.3916 23.7028 14.1569 23.5531C14.3763 23.5098 14.6039 23.5551 14.7901 23.679C14.9762 23.8029 15.1058 23.9954 15.1506 24.2144C15.1725 24.323 15.1727 24.4348 15.1513 24.5435C15.1299 24.6522 15.0872 24.7555 15.0258 24.8477C14.9644 24.9398 14.8853 25.019 14.7933 25.0805C14.7012 25.1421 14.5979 25.1849 14.4893 25.2064C14.1622 25.273 13.8293 25.3064 13.4956 25.306Z" fill="#5D59EA"/>
<path d="M13.496 32.0544H12.0789C11.8862 32.0541 11.6994 31.9878 11.5496 31.8666C11.3998 31.7453 11.296 31.5764 11.2556 31.388L10.8051 29.3079C10.179 29.1172 9.5737 28.8639 8.99828 28.5521L7.18637 29.7111C7.02434 29.8146 6.83179 29.8597 6.64064 29.8388C6.44949 29.818 6.27121 29.7324 6.13532 29.5964L4.1429 27.6056C4.00711 27.4695 3.92187 27.2912 3.90132 27.1C3.88076 26.9089 3.92611 26.7164 4.02986 26.5546L5.18888 24.7427C4.87698 24.1661 4.62378 23.5596 4.43307 22.9324L2.34954 22.4702C2.16162 22.4287 1.99348 22.3243 1.87292 22.1743C1.75237 22.0243 1.68661 21.8377 1.68652 21.6452V18.8447C1.6866 18.6527 1.75218 18.4664 1.87242 18.3167C1.99267 18.1671 2.16038 18.0629 2.34785 18.0214L4.43139 17.5591C4.61865 16.94 4.87171 16.3343 5.18719 15.7506L4.03155 13.9539C3.92676 13.7926 3.88049 13.6002 3.90044 13.4089C3.9204 13.2176 4.00539 13.039 4.14121 12.9028L6.13364 10.8952C6.26909 10.7579 6.44766 10.6714 6.63935 10.6502C6.83104 10.629 7.02419 10.6744 7.18637 10.7788L8.99828 11.9378C9.57385 11.6262 10.1791 11.373 10.8051 11.182L11.2556 9.10185C11.276 8.99075 11.3186 8.88489 11.3807 8.79054C11.4428 8.69619 11.5232 8.61528 11.6172 8.55261C11.7112 8.48994 11.8168 8.44678 11.9278 8.42571C12.0388 8.40463 12.1529 8.40605 12.2633 8.4299C12.3737 8.45374 12.4782 8.49953 12.5706 8.56453C12.663 8.62953 12.7414 8.71242 12.8011 8.80829C12.8608 8.90416 12.9007 9.01106 12.9184 9.12263C12.936 9.23421 12.9311 9.34819 12.9038 9.45782L12.3471 12.039C12.3139 12.1941 12.2375 12.3365 12.1268 12.45C12.016 12.5634 11.8754 12.6432 11.7212 12.6801C10.9067 12.88 10.1282 13.205 9.4133 13.6434C9.27864 13.7256 9.12362 13.7684 8.96586 13.7669C8.8081 13.7654 8.65393 13.7197 8.52084 13.635L6.85064 12.5671L5.81478 13.6097L6.8827 15.2664C6.96918 15.3993 7.01619 15.554 7.01828 15.7126C7.02037 15.8712 6.97745 16.0271 6.89451 16.1622C6.4556 16.8761 6.13113 17.6543 5.93288 18.4685C5.89577 18.6222 5.81637 18.7624 5.70366 18.8733C5.59096 18.9843 5.44945 19.0614 5.29516 19.0961L3.37359 19.5212V20.967L5.29516 21.3938C5.44945 21.4285 5.59096 21.5056 5.70366 21.6165C5.81637 21.7275 5.89577 21.8677 5.93288 22.0214C6.12352 22.8177 6.44912 23.5938 6.89451 24.3277C7.06321 24.6026 7.05984 24.9502 6.88438 25.2218L5.81478 26.892L6.84727 27.9245L8.51915 26.8549C8.65238 26.7705 8.80651 26.7251 8.96418 26.7236C9.12186 26.7221 9.27682 26.7646 9.41161 26.8464C10.1472 27.2935 10.9232 27.6174 11.7178 27.8098C11.872 27.8467 12.0126 27.9265 12.1234 28.0399C12.2341 28.1534 12.3105 28.2958 12.3437 28.4509L12.7588 30.3674H13.496C13.7197 30.3674 13.9343 30.4562 14.0925 30.6144C14.2507 30.7726 14.3395 30.9872 14.3395 31.2109C14.3395 31.4346 14.2507 31.6492 14.0925 31.8074C13.9343 31.9656 13.7197 32.0544 13.496 32.0544ZM26.149 31.2109C26.0208 31.2112 25.8942 31.1822 25.7789 31.1261C25.6635 31.07 25.5626 30.9883 25.4836 30.8872C25.4047 30.7862 25.3499 30.6684 25.3234 30.5429C25.2969 30.4174 25.2994 30.2876 25.3308 30.1632L27.0179 23.4149C27.0439 23.3071 27.0911 23.2054 27.1568 23.1159C27.2225 23.0265 27.3053 22.951 27.4005 22.8938C27.4956 22.8367 27.6012 22.799 27.711 22.7831C27.8208 22.7671 27.9328 22.7731 28.0402 22.8009C28.1478 22.8275 28.249 22.8751 28.3381 22.9409C28.4272 23.0068 28.5025 23.0896 28.5595 23.1845C28.6166 23.2795 28.6543 23.3848 28.6706 23.4944C28.6869 23.604 28.6813 23.7158 28.6543 23.8232L26.9673 30.5715C26.9223 30.7544 26.8171 30.9168 26.6688 31.0327C26.5204 31.1487 26.3373 31.2114 26.149 31.2109ZM31.2102 31.2109C31.0435 31.2109 30.8806 31.1614 30.7419 31.0688C30.6033 30.9763 30.4952 30.8447 30.4313 30.6907C30.3674 30.5367 30.3506 30.3673 30.3829 30.2037C30.4152 30.0402 30.4953 29.8899 30.613 29.7718L33.3916 26.9932L30.6147 24.2163C30.461 24.0572 30.376 23.8441 30.3779 23.623C30.3799 23.4018 30.4686 23.1902 30.625 23.0338C30.7814 22.8774 30.9929 22.7887 31.2141 22.7868C31.4353 22.7849 31.6484 22.8699 31.8075 23.0235L35.1816 26.3977C35.3397 26.5559 35.4286 26.7704 35.4286 26.9941C35.4286 27.2177 35.3397 27.4323 35.1816 27.5904L31.8075 30.9646C31.6487 31.1224 31.434 31.2109 31.2102 31.2109ZM22.7749 31.2109C22.5511 31.2109 22.3364 31.1224 22.1777 30.9646L18.8035 27.5904C18.6454 27.4323 18.5566 27.2177 18.5566 26.9941C18.5566 26.7704 18.6454 26.5559 18.8035 26.3977L22.1777 23.0235C22.3368 22.8699 22.5498 22.7849 22.771 22.7868C22.9922 22.7887 23.2038 22.8774 23.3601 23.0338C23.5165 23.1902 23.6053 23.4018 23.6072 23.623C23.6091 23.8441 23.5241 24.0572 23.3704 24.2163L20.5935 26.9932L23.3704 29.7701C23.4886 29.888 23.5691 30.0383 23.6019 30.202C23.6346 30.3656 23.618 30.5353 23.5543 30.6896C23.4905 30.8438 23.3824 30.9757 23.2437 31.0685C23.1049 31.1613 22.9418 31.2109 22.7749 31.2109Z" fill="#5D59EA"/>
</svg>
