<svg width="170" height="170" viewBox="0 0 170 170" fill="none" xmlns="http://www.w3.org/2000/svg">
<g filter="url(#filter0_d_157_6900)">
<rect x="27" y="26" width="90" height="90" rx="15" fill="white" shape-rendering="crispEdges"/>
<path d="M82.6203 102.084C82.6599 102.224 82.6712 102.37 82.6535 102.515C82.6357 102.659 82.5893 102.799 82.517 102.925C82.4447 103.052 82.3479 103.162 82.2323 103.251C82.1166 103.339 81.9845 103.403 81.8437 103.44C76.1618 105.158 70.1302 105.366 64.3437 104.042C64.2037 104.009 64.0714 103.95 63.9543 103.866C63.8373 103.783 63.7379 103.677 63.6617 103.555C63.5855 103.433 63.5341 103.298 63.5104 103.156C63.4867 103.014 63.4911 102.869 63.5234 102.729C63.5557 102.589 63.6153 102.457 63.6987 102.34C63.7822 102.223 63.8879 102.123 64.0097 102.047C64.1316 101.971 64.2673 101.92 64.4091 101.896C64.5508 101.872 64.6958 101.877 64.8359 101.909C70.2599 103.155 75.9152 102.962 81.2421 101.351C81.3807 101.307 81.5266 101.292 81.6713 101.305C81.816 101.318 81.9566 101.36 82.0849 101.428C82.2132 101.497 82.3267 101.59 82.4186 101.702C82.5105 101.815 82.579 101.945 82.6203 102.084ZM101.531 85.4698C101.276 85.3342 100.977 85.3052 100.7 85.3893C100.424 85.4733 100.191 85.6635 100.055 85.9183C97.4333 90.836 93.5724 94.9834 88.8546 97.9495C88.6081 98.1033 88.4327 98.3487 88.367 98.6317C88.3014 98.9148 88.3509 99.2123 88.5046 99.4589C88.6584 99.7055 88.9038 99.8809 89.1868 99.9465C89.4699 100.012 89.7674 99.9626 90.014 99.8089C95.039 96.6312 99.1483 92.1978 101.936 86.9464C102.075 86.6963 102.111 86.4016 102.035 86.1255C101.959 85.8494 101.778 85.614 101.531 85.4698ZM97.1562 87.4058C100.34 82.5269 102.031 76.8253 102.023 70.9995C102.023 70.7094 101.908 70.4312 101.703 70.2261C101.498 70.021 101.22 69.9058 100.93 69.9058C100.64 69.9058 100.361 70.021 100.156 70.2261C99.9511 70.4312 99.8359 70.7094 99.8359 70.9995C99.8439 76.3976 98.278 81.6809 95.3296 86.2026C92.9207 89.8881 89.6801 92.9563 85.8687 95.1605C85.738 95.2288 85.6225 95.3229 85.5291 95.4371C85.4357 95.5513 85.3663 95.6832 85.3252 95.8249C85.2841 95.9665 85.2721 96.1151 85.2899 96.2615C85.3077 96.4079 85.3549 96.5493 85.4287 96.677C85.5026 96.8047 85.6015 96.9161 85.7195 97.0046C85.8375 97.0931 85.9722 97.1569 86.1155 97.192C86.2587 97.2271 86.4076 97.2328 86.5532 97.2089C86.6987 97.1849 86.838 97.1318 86.9624 97.0526C91.0679 94.6782 94.5592 91.3742 97.1562 87.4058ZM72.4812 94.9964C72.1911 94.9964 71.9129 95.1116 71.7078 95.3167C71.5027 95.5219 71.3874 95.8001 71.3874 96.0901C71.3874 96.3802 71.5027 96.6584 71.7078 96.8635C71.9129 97.0687 72.1911 97.1839 72.4812 97.1839C79.2587 97.0981 85.7299 94.3477 90.4953 89.5276C94.2031 85.6667 98.1515 77.8683 98.1515 71.0214C98.1515 70.7313 98.0363 70.4531 97.8312 70.248C97.626 70.0429 97.3478 69.9276 97.0578 69.9276C96.7677 69.9276 96.4895 70.0429 96.2844 70.248C96.0792 70.4531 95.964 70.7313 95.964 71.0214C95.964 77.6933 91.8406 84.9776 88.9203 88.0183C84.5667 92.4086 78.6636 94.9143 72.4812 94.9964ZM62.4296 40.6917C62.5348 40.7071 62.6417 40.7071 62.7468 40.6917C68.0741 39.0825 73.7288 38.8902 79.1531 40.1339C79.4417 40.2006 79.745 40.1499 79.9963 39.993C80.2476 39.8361 80.4262 39.5858 80.4929 39.2972C80.5596 39.0085 80.509 38.7052 80.3521 38.454C80.1951 38.2027 79.9448 38.0241 79.6562 37.9573C73.8695 36.6354 67.8384 36.8427 62.1562 38.5589C61.8661 38.601 61.6046 38.7565 61.4293 38.9914C61.2539 39.2262 61.179 39.5212 61.221 39.8112C61.2631 40.1013 61.4187 40.3628 61.6535 40.5382C61.8884 40.7136 62.1833 40.7885 62.4734 40.7464L62.4296 40.6917ZM42.4687 56.5292C42.7241 56.6648 43.0228 56.6938 43.2995 56.6098C43.5763 56.5257 43.8084 56.3355 43.9453 56.0808C46.567 51.1633 50.4278 47.016 55.1453 44.0495C55.3032 43.9994 55.4476 43.914 55.5677 43.7999C55.6878 43.6857 55.7804 43.5458 55.8385 43.3907C55.8966 43.2355 55.9187 43.0692 55.9031 42.9043C55.8875 42.7393 55.8347 42.5801 55.7486 42.4386C55.6625 42.297 55.5453 42.1769 55.406 42.0873C55.2667 41.9976 55.1088 41.9408 54.9443 41.9211C54.7798 41.9014 54.613 41.9193 54.4564 41.9735C54.2999 42.0277 54.1577 42.1167 54.0406 42.2339C49.0008 45.3917 44.8726 49.8102 42.064 55.0526C41.9248 55.3028 41.8893 55.5975 41.9649 55.8735C42.0406 56.1496 42.2214 56.385 42.4687 56.5292ZM58.0984 46.8386C58.2291 46.7702 58.3446 46.6761 58.438 46.5619C58.5314 46.4477 58.6007 46.3158 58.6418 46.1742C58.6829 46.0325 58.695 45.884 58.6772 45.7375C58.6594 45.5911 58.6122 45.4498 58.5383 45.3221C58.4645 45.1944 58.3656 45.0829 58.2476 44.9944C58.1296 44.9059 57.9949 44.8422 57.8516 44.8071C57.7083 44.772 57.5594 44.7662 57.4139 44.7902C57.2683 44.8141 57.1291 44.8673 57.0046 44.9464C52.9109 47.3246 49.431 50.6284 46.8437 54.5933C43.6485 59.4686 41.9455 65.1704 41.9437 70.9995C41.9437 71.2896 42.0589 71.5678 42.264 71.7729C42.4692 71.978 42.7474 72.0933 43.0374 72.0933C43.3275 72.0933 43.6057 71.978 43.8108 71.7729C44.016 71.5678 44.1312 71.2896 44.1312 70.9995C44.1238 65.6016 45.6897 60.3184 48.6374 55.7964C51.0467 52.1112 54.2872 49.043 58.0984 46.8386ZM71.5187 47.0136C71.6623 47.0136 71.8046 46.9853 71.9373 46.9303C72.07 46.8754 72.1905 46.7948 72.2921 46.6932C72.3937 46.5917 72.4742 46.4711 72.5292 46.3384C72.5842 46.2057 72.6124 46.0635 72.6124 45.9198C72.6124 45.6298 72.4972 45.3516 72.2921 45.1464C72.087 44.9413 71.8088 44.8261 71.5187 44.8261C64.7412 44.9119 58.27 47.6623 53.5046 52.4823C49.7531 56.3433 45.7499 64.1417 45.7499 70.9995C45.7499 71.2896 45.8652 71.5678 46.0703 71.7729C46.2754 71.978 46.5536 72.0933 46.8437 72.0933C47.1338 72.0933 47.412 71.978 47.6171 71.7729C47.8222 71.5678 47.9374 71.2896 47.9374 70.9995C47.9374 64.3276 52.0609 57.0433 54.9812 54.0026C59.3554 49.5805 65.299 47.0647 71.5187 47.0026V47.0136ZM89.314 60.8386V66.6245C89.314 83.873 72.6234 91.7808 72.4593 91.8573C72.3153 91.924 72.1586 91.9585 71.9999 91.9585C71.8413 91.9585 71.6846 91.924 71.5406 91.8573C71.3765 91.7808 54.6859 83.8183 54.6859 66.6245V60.8386C54.6859 60.6488 54.7353 60.4622 54.8293 60.2973C54.9233 60.1324 55.0586 59.9948 55.2218 59.898L71.4421 50.2183C71.6084 50.1223 71.797 50.0717 71.989 50.0717C72.181 50.0717 72.3696 50.1223 72.5359 50.2183L88.7562 59.8651C88.9284 59.9619 89.0712 60.1035 89.1694 60.2749C89.2676 60.4463 89.3176 60.6411 89.314 60.8386ZM79.7328 66.9526C79.5278 66.7489 79.2506 66.6346 78.9617 66.6346C78.6727 66.6346 78.3955 66.7489 78.1906 66.9526L70.6656 74.4776L66.4218 70.223C66.2126 70.0438 65.9434 69.9501 65.6682 69.9608C65.3929 69.9714 65.1318 70.0855 64.937 70.2803C64.7422 70.4751 64.6281 70.7362 64.6175 71.0115C64.6068 71.2868 64.7005 71.5559 64.8796 71.7651L69.8999 76.7855C70.1049 76.9892 70.3821 77.1035 70.671 77.1035C70.96 77.1035 71.2372 76.9892 71.4421 76.7855L79.7437 68.4839C79.9474 68.279 80.0618 68.0018 80.0618 67.7128C80.0618 67.4238 79.9474 67.1466 79.7437 66.9417L79.7328 66.9526Z" fill="url(#paint0_linear_157_6900)"/>
</g>
<defs>
<filter id="filter0_d_157_6900" x="0" y="0" width="170" height="170" filterUnits="userSpaceOnUse" color-interpolation-filters="sRGB">
<feFlood flood-opacity="0" result="BackgroundImageFix"/>
<feColorMatrix in="SourceAlpha" type="matrix" values="0 0 0 0 0 0 0 0 0 0 0 0 0 0 0 0 0 0 127 0" result="hardAlpha"/>
<feOffset dx="13" dy="14"/>
<feGaussianBlur stdDeviation="20"/>
<feComposite in2="hardAlpha" operator="out"/>
<feColorMatrix type="matrix" values="0 0 0 0 0.152941 0 0 0 0 0.384314 0 0 0 0 0.513726 0 0 0 0.15 0"/>
<feBlend mode="normal" in2="BackgroundImageFix" result="effect1_dropShadow_157_6900"/>
<feBlend mode="normal" in="SourceGraphic" in2="effect1_dropShadow_157_6900" result="shape"/>
</filter>
<linearGradient id="paint0_linear_157_6900" x1="42.6328" y1="54.0464" x2="101.367" y2="87.9527" gradientUnits="userSpaceOnUse">
<stop stop-color="#1EC4FF"/>
<stop offset="0.15" stop-color="#2DB9FF"/>
<stop offset="0.43" stop-color="#539CFF"/>
<stop offset="0.81" stop-color="#916EFF"/>
<stop offset="1" stop-color="#B255FF"/>
</linearGradient>
</defs>
</svg>
