<svg width="54" height="54" viewBox="0 0 54 54" fill="none" xmlns="http://www.w3.org/2000/svg">
<g clip-path="url(#clip0_132_2058)">
<mask id="mask0_132_2058" style="mask-type:luminance" maskUnits="userSpaceOnUse" x="0" y="0" width="54" height="54">
<path d="M53.9862 0H0V53.9862H53.9862V0Z" fill="white"/>
</mask>
<g mask="url(#mask0_132_2058)">
<path d="M32.7725 19.8792C32.6347 19.8792 32.4962 19.8548 32.3636 19.8046L26.9988 17.7831L21.7403 19.802C21.3734 19.9427 20.9605 19.8884 20.6427 19.6576C20.3249 19.4267 20.1457 19.0507 20.1661 18.6584L20.4612 13.0373L16.9185 8.66327C16.6712 8.35801 16.5954 7.94838 16.7166 7.57489C16.838 7.20132 17.1403 6.91452 17.5197 6.81287L22.9507 5.35809L26.0162 0.537709C26.2275 0.205568 26.5928 0.00311919 26.9865 0.00027227C27.3821 -0.00615969 27.7485 0.19439 27.9644 0.523475L31.1369 5.35567L36.5773 6.81298C36.9567 6.91462 37.2589 7.20142 37.3803 7.57501C37.5015 7.94848 37.4257 8.35812 37.1785 8.66337L33.6358 13.0375L33.9309 18.6585C33.9514 19.0495 33.7732 19.4245 33.4572 19.6556C33.2556 19.8029 33.0152 19.8792 32.7725 19.8792ZM26.9949 15.3824C27.1335 15.3824 27.2722 15.4071 27.404 15.4569L31.5213 17.0085L31.2959 12.7144C31.2809 12.4282 31.3724 12.1465 31.5529 11.9237L34.2517 8.59157L30.11 7.48222C29.8351 7.40852 29.5967 7.23632 29.4404 6.99845L27.0106 3.29712L24.6659 6.98411C24.51 7.22926 24.2678 7.40693 23.9873 7.48211L19.8456 8.59147L22.5442 11.9235C22.7246 12.1463 22.8162 12.4281 22.8013 12.7143L22.5765 16.9962L26.5794 15.4593C26.7131 15.408 26.854 15.3824 26.9949 15.3824Z" fill="#5D59EA"/>
<path d="M46.8119 27.0544C46.47 27.0544 46.1415 26.9029 45.9192 26.6349L43.2817 23.4551L39.1588 23.1905C38.7502 23.1643 38.3856 22.9245 38.1997 22.5595C38.0137 22.1947 38.034 21.7588 38.253 21.4128L40.4624 17.9218L39.4402 13.919C39.3388 13.5222 39.4542 13.1014 39.7438 12.8119C40.0335 12.5222 40.4548 12.407 40.8509 12.5083L44.8539 13.5306L48.3449 11.3213C48.6907 11.1024 49.1269 11.0821 49.4917 11.2681C49.8565 11.4541 50.0963 11.8185 50.1226 12.2271L50.3872 16.35L53.567 18.9873C53.8822 19.2487 54.0361 19.6571 53.9721 20.0616C53.9081 20.4661 53.6355 20.8068 53.2549 20.9579L49.4157 22.4838L47.8899 26.323C47.7386 26.7036 47.398 26.9762 46.9935 27.0403C46.9329 27.0497 46.8722 27.0544 46.8119 27.0544ZM41.2591 21.0008L43.9296 21.1722C44.2481 21.1927 44.5441 21.3436 44.748 21.5892L46.4564 23.6489L47.4445 21.1622C47.5624 20.8656 47.7975 20.6305 48.094 20.5127L50.5809 19.5244L48.5212 17.816C48.2756 17.6121 48.1246 17.3161 48.1042 16.9976L47.9329 14.3272L45.6715 15.758C45.4017 15.9289 45.0736 15.9807 44.7643 15.9017L42.1715 15.2396L42.8336 17.8322C42.9126 18.1416 42.8606 18.4697 42.6899 18.7394L41.2591 21.0008Z" fill="#5D59EA"/>
<path d="M7.28176 27.0543C7.22156 27.0543 7.16082 27.0496 7.10019 27.04C6.69572 26.9759 6.35503 26.7034 6.20372 26.3228L4.6802 22.489L0.740677 20.9613C0.354444 20.8116 0.077343 20.4671 0.0137615 20.0579C-0.0498198 19.6485 0.109819 19.2363 0.432577 18.9766L3.70728 16.3398L3.9712 12.227C3.99745 11.8184 4.23723 11.4539 4.60207 11.268C4.9671 11.082 5.4029 11.1023 5.74885 11.3212L9.23992 13.5304L13.2428 12.5082C13.6394 12.4067 14.0603 12.5221 14.35 12.8117C14.6395 13.1014 14.755 13.5221 14.6537 13.9189L13.6314 17.9216L15.8405 21.4126C16.0594 21.7587 16.0798 22.1945 15.8939 22.5594C15.708 22.9243 15.3434 23.1642 14.9347 23.1904L10.8119 23.455L8.17432 26.6348C7.95206 26.9028 7.62371 27.0543 7.28176 27.0543ZM3.45096 19.5242L5.99052 20.5089C6.29135 20.6256 6.52996 20.8622 6.64911 21.1619L7.63731 23.6487L9.34568 21.589C9.5495 21.3432 9.84548 21.1924 10.1641 21.172L12.8347 21.0005L11.4037 18.7393C11.233 18.4695 11.181 18.1414 11.26 17.8321L11.9222 15.2394L9.32934 15.9015C9.02007 15.9806 8.69194 15.9285 8.42212 15.7579L6.16081 14.3271L5.98947 16.9975C5.96869 17.3218 5.81254 17.6227 5.55937 17.8265L3.45096 19.5242Z" fill="#5D59EA"/>
<path d="M53.6468 45.1886L47.4352 38.9759C47.47 38.8368 47.4963 38.7355 47.51 38.6818L49.1054 33.7883C49.2878 33.2283 49.0231 32.622 48.4885 32.3753L47.8 32.0569C41.3555 29.0834 34.1791 27.5112 27.047 27.5112C19.9139 27.5112 12.7376 29.0834 6.29299 32.0569L5.60447 32.3753C5.0762 32.6189 4.81049 33.2178 4.98341 33.7734C4.98869 33.7903 5.518 35.4836 5.96613 36.8302L6.58507 38.6849C6.59878 38.7387 6.62303 38.8368 6.65783 38.9696L0.346101 45.1811C0.0403212 45.4827 -0.07461 45.9287 0.0487565 46.3399C0.171069 46.7511 0.511644 47.0612 0.932356 47.1456L5.85963 48.1314L6.84445 53.0576C6.9288 53.4773 7.2367 53.8158 7.64581 53.9402C7.75653 53.9739 7.86935 53.9897 7.98217 53.9897C8.28478 53.9897 8.58108 53.8706 8.80145 53.6502L12.2125 50.2392C13.3555 49.0962 13.9323 47.6211 13.8352 46.0847C13.7688 45.0325 13.385 44.0023 12.7407 43.0986C21.9963 40.1295 32.1166 40.1315 41.3692 43.1039C39.7084 45.4299 39.8202 48.2854 41.7741 50.2392L45.1851 53.6502C45.4054 53.8706 45.7017 53.9897 46.0044 53.9897C46.1172 53.9897 46.23 53.9739 46.3408 53.9402C46.7498 53.8158 47.0577 53.4773 47.142 53.0576L48.1269 48.1314L53.0542 47.1456C53.4728 47.0612 53.8123 46.7533 53.9367 46.3442C54.0601 45.9352 53.9493 45.4902 53.6468 45.1886ZM10.5729 48.5986L8.6939 50.4775L7.98217 46.9179C7.89044 46.4592 7.53088 46.0997 7.07221 46.0079L3.5336 45.3004L7.34319 41.5499C7.54248 42.2679 7.74598 42.9702 7.90731 43.4562C8.06863 43.9413 8.52097 44.2491 9.00706 44.2491C9.12094 44.2491 9.23482 44.2333 9.34869 44.1985C9.66185 44.1015 10.0024 43.994 10.3683 43.8769C11.0547 44.557 11.467 45.3921 11.5198 46.2314C11.5757 47.1055 11.2477 47.9236 10.5729 48.5986ZM7.50452 34.054C19.9361 28.3992 34.1474 28.3982 46.5801 34.0498L44.3183 41.631C43.809 41.4666 43.2502 41.2831 42.6481 41.0817C32.5869 37.7118 21.5051 37.7118 11.4438 41.0817C10.8428 41.2841 10.285 41.4676 9.77572 41.631C9.29512 39.8998 7.50452 34.054 7.50452 34.054ZM46.9143 46.0078C46.4556 46.0996 46.0961 46.459 46.0044 46.9178L45.2926 50.4774L43.4137 48.5985C41.9227 47.1076 42.4931 45.1706 43.7331 43.88C44.0948 43.9949 44.4332 44.1014 44.7454 44.1974C45.3474 44.3829 45.9875 44.054 46.1868 43.4562C46.3471 42.9742 46.5484 42.2794 46.7457 41.5677L50.474 45.2961L46.9143 46.0078Z" fill="black"/>
</g>
</g>
<defs>
<clipPath id="clip0_132_2058">
<rect width="53.9862" height="53.9862" fill="white"/>
</clipPath>
</defs>
</svg>
