<svg width="10" height="15" viewBox="0 0 10 15" fill="none" xmlns="http://www.w3.org/2000/svg">
<path d="M1.07299 0.000172224C0.865371 -0.00367758 0.66169 0.0570984 0.490131 0.17409C0.318571 0.291082 0.187617 0.458506 0.115388 0.653192C0.0431592 0.847878 0.0332271 1.0602 0.0869672 1.26078C0.140707 1.46136 0.255462 1.64027 0.415351 1.77277L6.53441 7.0112L0.411571 12.2496C0.299713 12.3312 0.205972 12.435 0.136264 12.5546C0.0665564 12.6742 0.0223955 12.8069 0.00656836 12.9445C-0.00925876 13.082 0.00359177 13.2213 0.0443086 13.3536C0.0850255 13.4859 0.152725 13.6083 0.243134 13.7131C0.333543 13.8179 0.444699 13.9029 0.569587 13.9626C0.694475 14.0223 0.830383 14.0555 0.968734 14.06C1.10708 14.0645 1.24487 14.0404 1.37341 13.989C1.50194 13.9376 1.61842 13.8601 1.71551 13.7614L8.71519 7.77844C8.82528 7.68441 8.91367 7.56764 8.97427 7.43616C9.03488 7.30469 9.06627 7.16164 9.06627 7.01686C9.06627 6.87209 9.03488 6.72904 8.97427 6.59757C8.91367 6.46609 8.82528 6.34932 8.71519 6.25529L1.71551 0.2534C1.53813 0.0954852 1.31041 0.00573709 1.07299 0.000172224Z" fill="#5E5EE9"/>
</svg>
