<svg width="34" height="34" viewBox="0 0 34 34" fill="none" xmlns="http://www.w3.org/2000/svg">
<path d="M30.0459 29.651C28.9131 30.0843 28.297 30.7036 27.8588 31.8346C27.4247 30.7036 26.8044 30.0886 25.6716 29.651C26.8044 29.2176 27.4205 28.6025 27.8588 27.4673C28.2928 28.5983 28.9131 29.2134 30.0459 29.651ZM28.017 11.9469C28.9985 8.2968 30.34 6.95474 34 5.97343C30.3441 4.99343 28.9999 3.65416 28.017 0C27.0354 3.65005 25.694 4.99211 22.034 5.97343C25.6899 6.95342 27.0341 8.29269 28.017 11.9469ZM29.0854 19.4806C29.0854 19.1367 28.9061 18.7215 28.4049 18.5818C24.3037 17.4368 21.7343 16.1297 19.8158 14.2159C17.8975 12.3007 16.5855 9.73524 15.443 5.6407C15.303 5.14024 14.8871 4.9613 14.5427 4.9613C14.1982 4.9613 13.7824 5.14024 13.6423 5.6407C12.4956 9.73524 11.1863 12.3005 9.26951 14.2159C7.34839 16.134 4.78162 17.4411 0.680497 18.5818C0.179229 18.7215 0 19.1368 0 19.4806C0 19.8245 0.179229 20.2398 0.680497 20.3795C4.78162 21.5245 7.35104 22.8316 9.26951 24.7454C11.1906 26.6634 12.4998 29.2261 13.6423 33.3206C13.7824 33.8211 14.1982 34 14.5427 34C14.8871 34 15.303 33.8211 15.443 33.3206C16.5898 29.2261 17.899 26.6607 19.8158 24.7454C21.737 22.8273 24.3037 21.5202 28.4049 20.3795C28.9061 20.2397 29.0854 19.8245 29.0854 19.4806Z" fill="#F29D00"/>
</svg>
