<svg width="100" height="100" viewBox="0 0 100 100" fill="none" xmlns="http://www.w3.org/2000/svg">
<path d="M90.6563 35.0312V90.9375C90.655 91.1941 90.5526 91.4397 90.3712 91.6211C90.1897 91.8026 89.9441 91.905 89.6875 91.9062H10.3125C10.056 91.905 9.81026 91.8026 9.62885 91.6211C9.44744 91.4397 9.34498 91.1941 9.34375 90.9375V35.0312C9.34454 34.8725 9.38497 34.7165 9.46137 34.5773C9.53778 34.4381 9.64773 34.3203 9.78125 34.2344L49.4688 8.25C49.6281 8.15052 49.8122 8.09778 50 8.09778C50.1878 8.09778 50.3719 8.15052 50.5313 8.25L90.2188 34.2344C90.3523 34.3203 90.4622 34.4381 90.5386 34.5773C90.615 34.7165 90.6555 34.8725 90.6563 35.0312Z" fill="#477EA8"/>
<path d="M82.8125 14.0625H17.1875C16.3246 14.0625 15.625 14.7621 15.625 15.625V81.25C15.625 82.1129 16.3246 82.8125 17.1875 82.8125H82.8125C83.6754 82.8125 84.375 82.1129 84.375 81.25V15.625C84.375 14.7621 83.6754 14.0625 82.8125 14.0625Z" fill="#DBE2EB"/>
<path d="M90.6563 49.9062V90.9375C90.655 91.194 90.5526 91.4397 90.3712 91.6211C90.1897 91.8026 89.9441 91.905 89.6875 91.9062H10.3125C10.056 91.905 9.81026 91.8026 9.62885 91.6211C9.44744 91.4397 9.34498 91.194 9.34375 90.9375V49.9062L49.4688 76.4063C49.6253 76.5131 49.8104 76.5703 50 76.5703C50.1896 76.5703 50.3747 76.5131 50.5313 76.4063L90.6563 49.9062Z" fill="#6BB3D9"/>
<path d="M29.875 28.2156H20.5578C20.1434 28.2156 19.746 28.3802 19.453 28.6733C19.1599 28.9663 18.9953 29.3637 18.9953 29.7781C18.9953 30.1925 19.1599 30.59 19.453 30.883C19.746 31.176 20.1434 31.3406 20.5578 31.3406H23.6516V40.4234C23.6516 40.8378 23.8162 41.2353 24.1092 41.5283C24.4022 41.8213 24.7997 41.9859 25.2141 41.9859C25.6285 41.9859 26.0259 41.8213 26.3189 41.5283C26.6119 41.2353 26.7766 40.8378 26.7766 40.4234V31.3406H29.8734C30.2878 31.3406 30.6853 31.176 30.9783 30.883C31.2713 30.59 31.4359 30.1925 31.4359 29.7781C31.4359 29.3637 31.2713 28.9663 30.9783 28.6733C30.6853 28.3802 30.2878 28.2156 29.8734 28.2156H29.875ZM40.8688 29.7781V33.5375H36.0094V29.7781C36.0094 29.3637 35.8448 28.9663 35.5517 28.6733C35.2587 28.3802 34.8613 28.2156 34.4469 28.2156C34.0325 28.2156 33.635 28.3802 33.342 28.6733C33.049 28.9663 32.8844 29.3637 32.8844 29.7781V40.4234C32.8844 40.8378 33.049 41.2353 33.342 41.5283C33.635 41.8213 34.0325 41.9859 34.4469 41.9859C34.8613 41.9859 35.2587 41.8213 35.5517 41.5283C35.8448 41.2353 36.0094 40.8378 36.0094 40.4234V36.6625H40.8688V40.4234C40.8688 40.8378 41.0334 41.2353 41.3264 41.5283C41.6194 41.8213 42.0168 41.9859 42.4313 41.9859C42.8457 41.9859 43.2431 41.8213 43.5361 41.5283C43.8291 41.2353 43.9938 40.8378 43.9938 40.4234V29.7781C43.9938 29.3637 43.8291 28.9663 43.5361 28.6733C43.2431 28.3802 42.8457 28.2156 42.4313 28.2156C42.0168 28.2156 41.6194 28.3802 41.3264 28.6733C41.0334 28.9663 40.8688 29.3637 40.8688 29.7781ZM56.4531 39.875L52.4609 29.2297C52.3487 28.9324 52.1486 28.6763 51.8871 28.4955C51.6257 28.3148 51.3155 28.218 50.9977 28.218C50.6798 28.218 50.3696 28.3148 50.1082 28.4955C49.8468 28.6763 49.6466 28.9324 49.5344 29.2297L45.5422 39.875C45.4702 40.0673 45.4367 40.2718 45.4438 40.477C45.4508 40.6822 45.4982 40.884 45.5832 41.0709C45.6682 41.2578 45.7892 41.4261 45.9393 41.5662C46.0894 41.7063 46.2655 41.8155 46.4578 41.8875C46.6501 41.9595 46.8546 41.993 47.0598 41.9859C47.265 41.9789 47.4668 41.9315 47.6537 41.8465C47.8406 41.7615 48.0089 41.6405 48.149 41.4904C48.2891 41.3403 48.3983 41.1641 48.4703 40.9719L49.4734 38.2953H52.5234L53.5266 40.9719C53.5986 41.164 53.7077 41.3401 53.8478 41.4901C53.9879 41.6401 54.1561 41.761 54.3429 41.8459C54.5298 41.9309 54.7315 41.9782 54.9366 41.9852C55.1417 41.9922 55.3461 41.9587 55.5383 41.8867C55.7304 41.8147 55.9065 41.7055 56.0565 41.5655C56.2065 41.4254 56.3274 41.2571 56.4123 41.0703C56.4973 40.8835 56.5446 40.6818 56.5516 40.4767C56.5586 40.2716 56.5251 40.0672 56.4531 39.875ZM50.6453 35.1703L50.9984 34.2281L51.3516 35.1703H50.6453ZM66.3 41.3609L61.1281 34.4656V40.4234C61.1281 40.8378 60.9635 41.2353 60.6705 41.5283C60.3775 41.8213 59.98 41.9859 59.5656 41.9859C59.1512 41.9859 58.7538 41.8213 58.4608 41.5283C58.1677 41.2353 58.0031 40.8378 58.0031 40.4234V29.7781C58.0036 29.4506 58.1069 29.1315 58.2986 28.8659C58.4903 28.6003 58.7606 28.4016 59.0713 28.298C59.382 28.1943 59.7174 28.191 60.0301 28.2884C60.3429 28.3857 60.6171 28.5789 60.8141 28.8406L65.9859 35.7359V29.7781C65.9859 29.3637 66.1506 28.9663 66.4436 28.6733C66.7366 28.3802 67.134 28.2156 67.5484 28.2156C67.9628 28.2156 68.3603 28.3802 68.6533 28.6733C68.9463 28.9663 69.1109 29.3637 69.1109 29.7781V40.4234C69.1109 40.7514 69.0078 41.071 68.816 41.337C68.6243 41.6031 68.3537 41.8021 68.0425 41.9058C67.7314 42.0095 67.3956 42.0126 67.0825 41.9149C66.7695 41.8171 66.4968 41.6233 66.3 41.3609ZM80.6125 39.3891L76.3641 34.5875L80.0172 30.8734C80.3079 30.578 80.4693 30.1791 80.4659 29.7646C80.4626 29.3502 80.2947 28.954 79.9992 28.6633C79.7038 28.3726 79.3049 28.2112 78.8904 28.2145C78.4759 28.2179 78.0798 28.3858 77.7891 28.6813L73.6859 32.8531V29.7781C73.6859 29.3637 73.5213 28.9663 73.2283 28.6733C72.9353 28.3802 72.5378 28.2156 72.1234 28.2156C71.709 28.2156 71.3116 28.3802 71.0186 28.6733C70.7256 28.9663 70.5609 29.3637 70.5609 29.7781V40.4234C70.5609 40.8378 70.7256 41.2353 71.0186 41.5283C71.3116 41.8213 71.709 41.9859 72.1234 41.9859C72.5378 41.9859 72.9353 41.8213 73.2283 41.5283C73.5213 41.2353 73.6859 40.8378 73.6859 40.4234V37.3094L74.1672 36.8203L78.2719 41.4594C78.5477 41.7652 78.933 41.9498 79.3442 41.973C79.7553 41.9962 80.159 41.8561 80.4674 41.5833C80.7759 41.3105 80.9642 40.9269 80.9913 40.516C81.0185 40.1051 80.8823 39.7001 80.6125 39.3891ZM41.4313 46.1391L38.6891 49.7953L35.9469 46.1391C35.8238 45.9749 35.6695 45.8366 35.493 45.7321C35.3164 45.6275 35.121 45.5588 34.9178 45.5298C34.7147 45.5008 34.5079 45.512 34.3091 45.5629C34.1103 45.6139 33.9235 45.7035 33.7594 45.8266C33.5952 45.9497 33.4569 46.1039 33.3524 46.2805C33.2478 46.457 33.1791 46.6525 33.1501 46.8556C33.1211 47.0587 33.1323 47.2656 33.1833 47.4643C33.2342 47.6631 33.3238 47.8499 33.4469 48.0141L37.1266 52.9203V57.7219C37.1266 58.1363 37.2912 58.5337 37.5842 58.8267C37.8772 59.1198 38.2747 59.2844 38.6891 59.2844C39.1035 59.2844 39.5009 59.1198 39.7939 58.8267C40.0869 58.5337 40.2516 58.1363 40.2516 57.7219V52.9219L43.9297 48.0156C44.0528 47.8515 44.1424 47.6647 44.1933 47.4659C44.2442 47.2671 44.2555 47.0603 44.2265 46.8572C44.1975 46.654 44.1287 46.4586 44.0242 46.282C43.9196 46.1055 43.7813 45.9512 43.6172 45.8281C43.453 45.705 43.2662 45.6154 43.0675 45.5645C42.8687 45.5136 42.6618 45.5023 42.4587 45.5313C42.2556 45.5603 42.0602 45.6291 41.8836 45.7336C41.707 45.8382 41.5528 45.9765 41.4297 46.1406L41.4313 46.1391ZM50.3438 59.2844H49.6563C48.2747 59.2827 46.9503 58.7332 45.9734 57.7563C44.9965 56.7794 44.447 55.455 44.4453 54.0734V50.725C44.447 49.3435 44.9965 48.019 45.9734 47.0421C46.9503 46.0653 48.2747 45.5157 49.6563 45.5141H50.3438C51.7253 45.5157 53.0497 46.0653 54.0266 47.0421C55.0035 48.019 55.553 49.3435 55.5547 50.725V54.0734C55.553 55.455 55.0035 56.7794 54.0266 57.7563C53.0497 58.7332 51.7253 59.2827 50.3438 59.2844ZM49.6563 48.6391C49.1033 48.6399 48.5732 48.8599 48.1822 49.2509C47.7912 49.6419 47.5711 50.172 47.5703 50.725V54.0734C47.5707 54.6265 47.7906 55.1569 48.1817 55.548C48.5728 55.9391 49.1032 56.159 49.6563 56.1594H50.3438C50.8968 56.159 51.4272 55.9391 51.8183 55.548C52.2094 55.1569 52.4293 54.6265 52.4297 54.0734V50.725C52.4289 50.172 52.2088 49.6419 51.8178 49.2509C51.4268 48.8599 50.8967 48.6399 50.3438 48.6391H49.6563ZM61.9766 59.2844C60.5153 59.294 59.1099 58.7236 58.0686 57.6984C57.0273 56.6732 56.4351 55.2769 56.4219 53.8156V47.0781C56.4219 46.6637 56.5865 46.2663 56.8795 45.9733C57.1725 45.6802 57.57 45.5156 57.9844 45.5156C58.3988 45.5156 58.7962 45.6802 59.0892 45.9733C59.3823 46.2663 59.5469 46.6637 59.5469 47.0781V53.8172C59.5694 54.4465 59.8353 55.0425 60.2885 55.4797C60.7417 55.917 61.3468 56.1613 61.9766 56.1613C62.6063 56.1613 63.2114 55.917 63.6646 55.4797C64.1178 55.0425 64.3837 54.4465 64.4063 53.8172V47.0781C64.4063 46.6637 64.5709 46.2663 64.8639 45.9733C65.1569 45.6802 65.5544 45.5156 65.9688 45.5156C66.3832 45.5156 66.7806 45.6802 67.0736 45.9733C67.3666 46.2663 67.5313 46.6637 67.5313 47.0781V53.8172C67.518 55.2784 66.9258 56.6748 65.8845 57.7C64.8432 58.7252 63.4378 59.294 61.9766 59.2844Z" fill="#52575D"/>
</svg>
