<svg width="24" height="24" viewBox="0 0 24 24" fill="none" xmlns="http://www.w3.org/2000/svg">
<g clip-path="url(#clip0_102_4365)">
<g clip-path="url(#clip1_102_4365)">
<g clip-path="url(#clip2_102_4365)">
<mask id="mask0_102_4365" style="mask-type:luminance" maskUnits="userSpaceOnUse" x="0" y="0" width="24" height="24">
<path d="M24 12C24 5.37258 18.6274 0 12 0C5.37258 0 0 5.37258 0 12C0 18.6274 5.37258 24 12 24C18.6274 24 24 18.6274 24 12Z" fill="white"/>
</mask>
<g mask="url(#mask0_102_4365)">
<path d="M33.9107 0H2.74533C2.01733 0.000353312 1.31925 0.289707 0.80448 0.80448C0.289707 1.31925 0.000353312 2.01733 0 2.74533V21.2707C0.000353312 21.9987 0.289707 22.6968 0.80448 23.2115C1.31925 23.7263 2.01733 24.0156 2.74533 24.016H33.9107C34.6387 24.0156 35.3368 23.7263 35.8515 23.2115C36.3663 22.6968 36.6556 21.9987 36.656 21.2707V2.74533C36.6556 2.01733 36.3663 1.31925 35.8515 0.80448C35.3368 0.289707 34.6387 0.000353312 33.9107 0Z" fill="#F5F5F5"/>
<path d="M0.150667 1.848H36.5053C36.3185 1.30851 35.9683 0.84064 35.5032 0.509439C35.0383 0.178239 34.4816 0.000171449 33.9107 0H2.74533C2.17443 0.000171449 1.61776 0.178239 1.15274 0.509439C0.687717 0.84064 0.337459 1.30851 0.150667 1.848ZM0 7.38933H36.656V9.23733H0V7.38933ZM0 3.69467H36.656V5.54267H0V3.69467ZM0 12.3C0 12.6493 0.282667 12.932 0.632 12.932H36.656V11.0867H0V12.3ZM0 18.4747H36.656V20.3227H0V18.4747ZM36.5053 22.168H0.150667C0.337459 22.7075 0.687717 23.1753 1.15274 23.5065C1.61776 23.8377 2.17443 24.0159 2.74533 24.016H33.9107C34.4816 24.0159 35.0383 23.8377 35.5032 23.5065C35.9683 23.1753 36.3185 22.7075 36.5053 22.168ZM0 14.78H36.656V16.628H0V14.78Z" fill="#FF4B55"/>
<path d="M0.632 12.932H16.432C16.6 12.9333 16.7613 12.8667 16.88 12.748C16.9987 12.6293 17.0667 12.468 17.0667 12.3V0.632C17.0667 0.464 17 0.304 16.8813 0.185333C16.7627 0.0666667 16.6027 0 16.4347 0H2.74533C2.01733 0.000353312 1.31925 0.289707 0.80448 0.80448C0.289707 1.31925 0.000353312 2.01733 0 2.74533V12.3C0 12.468 0.0666667 12.628 0.185333 12.7467C0.304 12.8653 0.464 12.932 0.632 12.932Z" fill="#41479B"/>
<path d="M1.77336 1.45203L1.9067 1.87203H2.34936C2.3747 1.87203 2.39736 1.88936 2.40536 1.91336C2.41336 1.93736 2.40403 1.96403 2.38403 1.98003L2.02803 2.2467L2.16136 2.66803C2.16936 2.69203 2.16003 2.7187 2.1387 2.7347C2.11736 2.7507 2.08936 2.74936 2.06936 2.7347L1.70936 2.47736L1.34936 2.7347C1.32802 2.74936 1.30002 2.74936 1.28002 2.7347C1.26002 2.72003 1.25069 2.69336 1.25736 2.66803L1.3907 2.2467L1.03469 1.98003C1.01469 1.96403 1.00536 1.9387 1.01336 1.91336C1.02136 1.88803 1.04402 1.87203 1.06936 1.87203H1.51203L1.64536 1.45203C1.64536 1.41603 1.67336 1.38803 1.70936 1.38803C1.74536 1.38803 1.77336 1.41603 1.77336 1.45203Z" fill="#F5F5F5"/>
<path d="M1.77336 3.64408L1.9067 4.06408H2.34936C2.3747 4.06408 2.39736 4.08141 2.40536 4.10541C2.41336 4.12941 2.40403 4.15608 2.38403 4.17208L2.02803 4.43874L2.16136 4.86008C2.16936 4.88408 2.16003 4.91074 2.1387 4.92674C2.11736 4.94274 2.08936 4.94141 2.06936 4.92674L1.70936 4.66941L1.34936 4.92674C1.32802 4.94141 1.30002 4.94141 1.28002 4.92674C1.26002 4.91208 1.25069 4.88541 1.25736 4.86008L1.3907 4.43874L1.03469 4.17208C1.01469 4.15608 1.00536 4.13074 1.01336 4.10541C1.02136 4.08008 1.04402 4.06408 1.06936 4.06408H1.51203L1.64536 3.64408C1.64536 3.60808 1.67336 3.58008 1.70936 3.58008C1.74536 3.58008 1.77336 3.60808 1.77336 3.64408Z" fill="#F5F5F5"/>
<path d="M1.77336 5.83875L1.9067 6.25875H2.34936C2.3747 6.25875 2.39736 6.27608 2.40536 6.30008C2.41336 6.32408 2.40403 6.35075 2.38403 6.36675L2.02803 6.63342L2.16136 7.05475C2.16936 7.07875 2.16003 7.10542 2.1387 7.12142C2.11736 7.13742 2.08936 7.13608 2.06936 7.12142L1.70936 6.86408L1.34936 7.12142C1.32802 7.13608 1.30002 7.13608 1.28002 7.12142C1.26002 7.10675 1.25069 7.08008 1.25736 7.05475L1.3907 6.63342L1.03469 6.36675C1.01469 6.35075 1.00536 6.32542 1.01336 6.30008C1.02136 6.27475 1.04402 6.25875 1.06936 6.25875H1.51203L1.64536 5.83875C1.64536 5.80275 1.67336 5.77475 1.70936 5.77475C1.74536 5.77475 1.77336 5.80275 1.77336 5.83875Z" fill="#F5F5F5"/>
<path d="M1.77336 8.03339L1.9067 8.45339H2.34936C2.3747 8.45339 2.39736 8.47072 2.40536 8.49472C2.41336 8.51872 2.40403 8.54539 2.38403 8.56139L2.02803 8.82806L2.16136 9.24939C2.16936 9.27339 2.16003 9.30006 2.1387 9.31606C2.11736 9.33206 2.08936 9.33072 2.06936 9.31606L1.70936 9.05872L1.34936 9.31606C1.32802 9.33072 1.30002 9.33072 1.28002 9.31606C1.26002 9.30139 1.25069 9.27472 1.25736 9.24939L1.3907 8.82806L1.03469 8.56139C1.01469 8.54539 1.00536 8.52006 1.01336 8.49472C1.02136 8.46939 1.04402 8.45339 1.06936 8.45339H1.51203L1.64536 8.03339C1.64536 7.99739 1.67336 7.96939 1.70936 7.96939C1.74536 7.96939 1.77336 7.99739 1.77336 8.03339Z" fill="#F5F5F5"/>
<path d="M1.77336 10.2281L1.9067 10.6481H2.34936C2.3747 10.6481 2.39736 10.6654 2.40536 10.6894C2.41336 10.7134 2.40403 10.7401 2.38403 10.7561L2.02803 11.0227L2.16136 11.4441C2.16936 11.4681 2.16003 11.4947 2.1387 11.5107C2.11736 11.5267 2.08936 11.5254 2.06936 11.5107L1.70936 11.2534L1.34936 11.5107C1.32802 11.5254 1.30002 11.5254 1.28002 11.5107C1.26002 11.4961 1.25069 11.4694 1.25736 11.4441L1.3907 11.0227L1.03469 10.7561C1.01469 10.7401 1.00536 10.7147 1.01336 10.6894C1.02136 10.6641 1.04402 10.6481 1.06936 10.6481H1.51203L1.64536 10.2281C1.64536 10.1921 1.67336 10.1641 1.70936 10.1641C1.74536 10.1641 1.77336 10.1921 1.77336 10.2281Z" fill="#F5F5F5"/>
<path d="M3.47746 2.52655L3.61079 2.94655H4.05346C4.07879 2.94655 4.10146 2.96389 4.10946 2.98789C4.11746 3.01189 4.10812 3.03855 4.08812 3.05455L3.73212 3.32122L3.86546 3.74255C3.87346 3.76655 3.86412 3.79322 3.84279 3.80922C3.82146 3.82522 3.79346 3.82389 3.77346 3.80922L3.41346 3.55189L3.05346 3.80922C3.03212 3.82389 3.00412 3.82389 2.98412 3.80922C2.96412 3.79455 2.95479 3.76789 2.96146 3.74255L3.09479 3.32122L2.73879 3.05455C2.71879 3.03855 2.70946 3.01322 2.71746 2.98789C2.72546 2.96255 2.74812 2.94655 2.77346 2.94655H3.21612L3.34946 2.52655C3.34946 2.49055 3.37746 2.46255 3.41346 2.46255C3.44946 2.46255 3.47746 2.49055 3.47746 2.52655Z" fill="#F5F5F5"/>
<path d="M3.47731 4.71996L3.61065 5.13996H4.05331C4.07865 5.13996 4.10131 5.15729 4.10931 5.18129C4.11731 5.20529 4.10798 5.23196 4.08798 5.24796L3.73198 5.51462L3.86531 5.93596C3.87331 5.95996 3.86398 5.98662 3.84265 6.00262C3.82131 6.01862 3.79331 6.01729 3.77331 6.00262L3.41331 5.74529L3.05331 6.00262C3.03198 6.01729 3.00398 6.01729 2.98398 6.00262C2.96398 5.98796 2.95465 5.96129 2.96131 5.93596L3.09465 5.51462L2.73865 5.24796C2.71998 5.23062 2.71465 5.20396 2.72398 5.17996C2.73331 5.15596 2.75731 5.14262 2.78265 5.14396H3.22531L3.35865 4.72396C3.36131 4.69462 3.38665 4.67196 3.41598 4.67062C3.44531 4.66929 3.47198 4.69062 3.47731 4.71996Z" fill="#F5F5F5"/>
<path d="M3.47746 6.91459L3.61079 7.33459H4.05346C4.07879 7.33459 4.10146 7.35192 4.10946 7.37592C4.11746 7.39992 4.10812 7.42659 4.08812 7.44259L3.73212 7.70925L3.86546 8.13059C3.87346 8.15459 3.86412 8.18125 3.84279 8.19725C3.82146 8.21325 3.79346 8.21192 3.77346 8.19725L3.41346 7.93992L3.05346 8.19725C3.03212 8.21192 3.00412 8.21192 2.98412 8.19725C2.96412 8.18259 2.95479 8.15592 2.96146 8.13059L3.09479 7.70925L2.73879 7.44259C2.71879 7.42659 2.70946 7.40125 2.71746 7.37592C2.72546 7.35059 2.74812 7.33459 2.77346 7.33459H3.21612L3.34946 6.91459C3.34946 6.87859 3.37746 6.85059 3.41346 6.85059C3.44946 6.85059 3.47746 6.87859 3.47746 6.91459Z" fill="#F5F5F5"/>
<path d="M3.47746 9.11054L3.61079 9.53054H4.05346C4.07879 9.53054 4.10146 9.54787 4.10946 9.57187C4.11746 9.59587 4.10812 9.62254 4.08812 9.63854L3.73212 9.90521L3.86546 10.3265C3.87346 10.3505 3.86412 10.3772 3.84279 10.3932C3.82146 10.4092 3.79346 10.4079 3.77346 10.3932L3.41346 10.1359L3.05346 10.3932C3.03212 10.4079 3.00412 10.4079 2.98412 10.3932C2.96412 10.3785 2.95479 10.3519 2.96146 10.3265L3.09479 9.90521L2.73879 9.63854C2.71879 9.62254 2.70946 9.59721 2.71746 9.57187C2.72546 9.54654 2.74812 9.53054 2.77346 9.53054H3.21612L3.34946 9.11054C3.34946 9.07454 3.37746 9.04654 3.41346 9.04654C3.44946 9.04654 3.47746 9.07454 3.47746 9.11054Z" fill="#F5F5F5"/>
<path d="M5.17594 1.45203L5.30928 1.87203H5.75194C5.77728 1.87203 5.79994 1.88936 5.80794 1.91336C5.81594 1.93736 5.80661 1.96403 5.78661 1.98003L5.43061 2.2467L5.56394 2.66803C5.57194 2.69203 5.56261 2.7187 5.54128 2.7347C5.51994 2.7507 5.49194 2.74936 5.47194 2.7347L5.11194 2.47736L4.75194 2.7347C4.73061 2.74936 4.70261 2.74936 4.68261 2.7347C4.66261 2.72003 4.65328 2.69336 4.65994 2.66803L4.79328 2.2467L4.43728 1.98003C4.41728 1.96403 4.40794 1.9387 4.41594 1.91336C4.42394 1.88803 4.44661 1.87203 4.47194 1.87203H4.91461L5.04794 1.45203C5.04794 1.41603 5.07594 1.38803 5.11194 1.38803C5.14794 1.38803 5.17594 1.41603 5.17594 1.45203Z" fill="#F5F5F5"/>
<path d="M5.17594 3.64539L5.30928 4.06539H5.75194C5.77728 4.06539 5.79994 4.08272 5.80794 4.10672C5.81594 4.13072 5.80661 4.15739 5.78661 4.17339L5.43061 4.44006L5.56394 4.86139C5.57194 4.88539 5.56261 4.91206 5.54128 4.92806C5.51994 4.94406 5.49194 4.94272 5.47194 4.92806L5.11194 4.67072L4.75194 4.92806C4.73061 4.94272 4.70261 4.94272 4.68261 4.92806C4.66261 4.91339 4.65328 4.88672 4.65994 4.86139L4.79328 4.44006L4.43728 4.17339C4.41728 4.15739 4.40794 4.13206 4.41594 4.10672C4.42394 4.08139 4.44661 4.06539 4.47194 4.06539H4.91461L5.04794 3.64539C5.04794 3.60939 5.07594 3.58139 5.11194 3.58139C5.14794 3.58139 5.17594 3.60939 5.17594 3.64539Z" fill="#F5F5F5"/>
<path d="M5.17594 5.83875L5.30928 6.25875H5.75194C5.77728 6.25875 5.79994 6.27608 5.80794 6.30008C5.81594 6.32408 5.80661 6.35075 5.78661 6.36675L5.43061 6.63342L5.56394 7.05475C5.57194 7.07875 5.56261 7.10542 5.54128 7.12142C5.51994 7.13742 5.49194 7.13608 5.47194 7.12142L5.11194 6.86408L4.75194 7.12142C4.73061 7.13608 4.70261 7.13608 4.68261 7.12142C4.66261 7.10675 4.65328 7.08008 4.65994 7.05475L4.79328 6.63342L4.43728 6.36675C4.41728 6.35075 4.40794 6.32542 4.41594 6.30008C4.42394 6.27475 4.44661 6.25875 4.47194 6.25875H4.91461L5.04794 5.83875C5.04794 5.80275 5.07594 5.77475 5.11194 5.77475C5.14794 5.77475 5.17594 5.80275 5.17594 5.83875Z" fill="#F5F5F5"/>
<path d="M5.17594 8.03339L5.30928 8.45339H5.75194C5.77728 8.45339 5.79994 8.47072 5.80794 8.49472C5.81594 8.51872 5.80661 8.54539 5.78661 8.56139L5.43061 8.82806L5.56394 9.24939C5.57194 9.27339 5.56261 9.30006 5.54128 9.31606C5.51994 9.33206 5.49194 9.33072 5.47194 9.31606L5.11194 9.05872L4.75194 9.31606C4.73061 9.33072 4.70261 9.33072 4.68261 9.31606C4.66261 9.30139 4.65328 9.27472 4.65994 9.24939L4.79328 8.82806L4.43728 8.56139C4.41728 8.54539 4.40794 8.52006 4.41594 8.49472C4.42394 8.46939 4.44661 8.45339 4.47194 8.45339H4.91461L5.04794 8.03339C5.04794 7.99739 5.07594 7.96939 5.11194 7.96939C5.14794 7.96939 5.17594 7.99739 5.17594 8.03339Z" fill="#F5F5F5"/>
<path d="M5.17594 10.2294L5.30928 10.6494H5.75194C5.77728 10.6494 5.79994 10.6667 5.80794 10.6907C5.81594 10.7147 5.80661 10.7414 5.78661 10.7574L5.43061 11.024L5.56394 11.4454C5.57194 11.4694 5.56261 11.496 5.54128 11.512C5.51994 11.528 5.49194 11.5267 5.47194 11.512L5.11194 11.2547L4.75194 11.512C4.73061 11.5267 4.70261 11.5267 4.68261 11.512C4.66261 11.4974 4.65328 11.4707 4.65994 11.4454L4.79328 11.024L4.43728 10.7574C4.41728 10.7414 4.40794 10.716 4.41594 10.6907C4.42394 10.6654 4.44661 10.6494 4.47194 10.6494H4.91461L5.04794 10.2294C5.04794 10.1934 5.07594 10.1654 5.11194 10.1654C5.14794 10.1654 5.17594 10.1934 5.17594 10.2294Z" fill="#F5F5F5"/>
<path d="M6.88664 2.52655L7.01997 2.94655H7.46264C7.48797 2.94655 7.51064 2.96389 7.51864 2.98789C7.52664 3.01189 7.5173 3.03855 7.4973 3.05455L7.1413 3.32122L7.27464 3.74255C7.28264 3.76655 7.2733 3.79322 7.25197 3.80922C7.23064 3.82522 7.20264 3.82389 7.18264 3.80922L6.82264 3.55189L6.46264 3.80922C6.4413 3.82389 6.4133 3.82389 6.3933 3.80922C6.3733 3.79455 6.36397 3.76789 6.37064 3.74255L6.50397 3.32122L6.14797 3.05455C6.12797 3.03855 6.11864 3.01322 6.12664 2.98789C6.13464 2.96255 6.1573 2.94655 6.18264 2.94655H6.6253L6.75864 2.52655C6.75864 2.49055 6.78664 2.46255 6.82264 2.46255C6.85864 2.46255 6.88664 2.49055 6.88664 2.52655Z" fill="#F5F5F5"/>
<path d="M6.88664 4.71991L7.01997 5.13991H7.46264C7.48797 5.13991 7.51064 5.15725 7.51864 5.18125C7.52664 5.20525 7.5173 5.23191 7.4973 5.24791L7.1413 5.51458L7.27464 5.93591C7.28264 5.95991 7.2733 5.98658 7.25197 6.00258C7.23064 6.01858 7.20264 6.01725 7.18264 6.00258L6.82264 5.74525L6.46264 6.00258C6.4413 6.01725 6.4133 6.01725 6.3933 6.00258C6.3733 5.98791 6.36397 5.96125 6.37064 5.93591L6.50397 5.51458L6.14797 5.24791C6.12797 5.23191 6.11864 5.20658 6.12664 5.18125C6.13464 5.15591 6.1573 5.13991 6.18264 5.13991H6.6253L6.75864 4.71991C6.75864 4.68391 6.78664 4.65591 6.82264 4.65591C6.85864 4.65591 6.88664 4.68391 6.88664 4.71991Z" fill="#F5F5F5"/>
<path d="M6.88664 6.91459L7.01997 7.33459H7.46264C7.48797 7.33459 7.51064 7.35192 7.51864 7.37592C7.52664 7.39992 7.5173 7.42659 7.4973 7.44259L7.1413 7.70925L7.27464 8.13059C7.28264 8.15459 7.2733 8.18125 7.25197 8.19725C7.23064 8.21325 7.20264 8.21192 7.18264 8.19725L6.82264 7.93992L6.46264 8.19725C6.4413 8.21192 6.4133 8.21192 6.3933 8.19725C6.3733 8.18259 6.36397 8.15592 6.37064 8.13059L6.50397 7.70925L6.14797 7.44259C6.12797 7.42659 6.11864 7.40125 6.12664 7.37592C6.13464 7.35059 6.1573 7.33459 6.18264 7.33459H6.6253L6.75864 6.91459C6.75864 6.87859 6.78664 6.85059 6.82264 6.85059C6.85864 6.85059 6.88664 6.87859 6.88664 6.91459Z" fill="#F5F5F5"/>
<path d="M6.88664 9.11054L7.01997 9.53054H7.46264C7.48797 9.53054 7.51064 9.54787 7.51864 9.57187C7.52664 9.59587 7.5173 9.62254 7.4973 9.63854L7.1413 9.90521L7.27464 10.3265C7.28264 10.3505 7.2733 10.3772 7.25197 10.3932C7.23064 10.4092 7.20264 10.4079 7.18264 10.3932L6.82264 10.1359L6.46264 10.3932C6.4413 10.4079 6.4133 10.4079 6.3933 10.3932C6.3733 10.3785 6.36397 10.3519 6.37064 10.3265L6.50397 9.90521L6.14797 9.63854C6.12797 9.62254 6.11864 9.59721 6.12664 9.57187C6.13464 9.54654 6.1573 9.53054 6.18264 9.53054H6.6253L6.75864 9.11054C6.75864 9.07454 6.78664 9.04654 6.82264 9.04654C6.85864 9.04654 6.88664 9.07454 6.88664 9.11054Z" fill="#F5F5F5"/>
<path d="M8.58805 1.45203L8.72139 1.87203H9.16405C9.18939 1.87203 9.21205 1.88936 9.22005 1.91336C9.22805 1.93736 9.21872 1.96403 9.19872 1.98003L8.84272 2.2467L8.97605 2.66803C8.98405 2.69203 8.97472 2.7187 8.95339 2.7347C8.93205 2.7507 8.90405 2.74936 8.88405 2.7347L8.52405 2.47736L8.16405 2.7347C8.14272 2.74936 8.11472 2.74936 8.09472 2.7347C8.07472 2.72003 8.06539 2.69336 8.07205 2.66803L8.20539 2.2467L7.84939 1.98003C7.82939 1.96403 7.82005 1.9387 7.82805 1.91336C7.83605 1.88803 7.85872 1.87203 7.88405 1.87203H8.32672L8.46005 1.45203C8.46005 1.41603 8.48805 1.38803 8.52405 1.38803C8.56005 1.38803 8.58805 1.41603 8.58805 1.45203Z" fill="#F5F5F5"/>
<path d="M8.58805 3.64539L8.72139 4.06539H9.16405C9.18939 4.06539 9.21205 4.08272 9.22005 4.10672C9.22805 4.13072 9.21872 4.15739 9.19872 4.17339L8.84272 4.44006L8.97605 4.86139C8.98405 4.88539 8.97472 4.91206 8.95339 4.92806C8.93205 4.94406 8.90405 4.94272 8.88405 4.92806L8.52405 4.67072L8.16405 4.92806C8.14272 4.94272 8.11472 4.94272 8.09472 4.92806C8.07472 4.91339 8.06539 4.88672 8.07205 4.86139L8.20539 4.44006L7.84939 4.17339C7.82939 4.15739 7.82005 4.13206 7.82805 4.10672C7.83605 4.08139 7.85872 4.06539 7.88405 4.06539H8.32672L8.46005 3.64539C8.46005 3.60939 8.48805 3.58139 8.52405 3.58139C8.56005 3.58139 8.58805 3.60939 8.58805 3.64539Z" fill="#F5F5F5"/>
<path d="M8.58805 5.83875L8.72139 6.25875H9.16405C9.18939 6.25875 9.21205 6.27608 9.22005 6.30008C9.22805 6.32408 9.21872 6.35075 9.19872 6.36675L8.84272 6.63342L8.97605 7.05475C8.98405 7.07875 8.97472 7.10542 8.95339 7.12142C8.93205 7.13742 8.90405 7.13608 8.88405 7.12142L8.52405 6.86408L8.16405 7.12142C8.14272 7.13608 8.11472 7.13608 8.09472 7.12142C8.07472 7.10675 8.06539 7.08008 8.07205 7.05475L8.20539 6.63342L7.84939 6.36675C7.82939 6.35075 7.82005 6.32542 7.82805 6.30008C7.83605 6.27475 7.85872 6.25875 7.88405 6.25875H8.32672L8.46005 5.83875C8.46005 5.80275 8.48805 5.77475 8.52405 5.77475C8.56005 5.77475 8.58805 5.80275 8.58805 5.83875Z" fill="#F5F5F5"/>
<path d="M8.58805 8.03339L8.72139 8.45339H9.16405C9.18939 8.45339 9.21205 8.47072 9.22005 8.49472C9.22805 8.51872 9.21872 8.54539 9.19872 8.56139L8.84272 8.82806L8.97605 9.24939C8.98405 9.27339 8.97472 9.30006 8.95339 9.31606C8.93205 9.33206 8.90405 9.33072 8.88405 9.31606L8.52405 9.05872L8.16405 9.31606C8.14272 9.33072 8.11472 9.33072 8.09472 9.31606C8.07472 9.30139 8.06539 9.27472 8.07205 9.24939L8.20539 8.82806L7.84939 8.56139C7.82939 8.54539 7.82005 8.52006 7.82805 8.49472C7.83605 8.46939 7.85872 8.45339 7.88405 8.45339H8.32672L8.46005 8.03339C8.46005 7.99739 8.48805 7.96939 8.52405 7.96939C8.56005 7.96939 8.58805 7.99739 8.58805 8.03339Z" fill="#F5F5F5"/>
<path d="M8.58805 10.2294L8.72139 10.6494H9.16405C9.18939 10.6494 9.21205 10.6667 9.22005 10.6907C9.22805 10.7147 9.21872 10.7414 9.19872 10.7574L8.84272 11.024L8.97605 11.4454C8.98405 11.4694 8.97472 11.496 8.95339 11.512C8.93205 11.528 8.90405 11.5267 8.88405 11.512L8.52405 11.2547L8.16405 11.512C8.14272 11.5267 8.11472 11.5267 8.09472 11.512C8.07472 11.4974 8.06539 11.4707 8.07205 11.4454L8.20539 11.024L7.84939 10.7574C7.82939 10.7414 7.82005 10.716 7.82805 10.6907C7.83605 10.6654 7.85872 10.6494 7.88405 10.6494H8.32672L8.46005 10.2294C8.46005 10.1934 8.48805 10.1654 8.52405 10.1654C8.56005 10.1654 8.58805 10.1934 8.58805 10.2294Z" fill="#F5F5F5"/>
<path d="M10.2904 2.52655L10.4238 2.94655H10.8664C10.8918 2.94655 10.9144 2.96389 10.9224 2.98789C10.9304 3.01189 10.9211 3.03855 10.9011 3.05455L10.5451 3.32122L10.6784 3.74255C10.6864 3.76655 10.6771 3.79322 10.6558 3.80922C10.6344 3.82522 10.6064 3.82389 10.5864 3.80922L10.2264 3.55189L9.86644 3.80922C9.84511 3.82389 9.81711 3.82389 9.79711 3.80922C9.77711 3.79455 9.76778 3.76789 9.77445 3.74255L9.90778 3.32122L9.55178 3.05455C9.53178 3.03855 9.52245 3.01322 9.53045 2.98789C9.53845 2.96255 9.56111 2.94655 9.58644 2.94655H10.0291L10.1624 2.52655C10.1624 2.49055 10.1904 2.46255 10.2264 2.46255C10.2624 2.46255 10.2904 2.49055 10.2904 2.52655Z" fill="#F5F5F5"/>
<path d="M10.2904 4.71991L10.4238 5.13991H10.8664C10.8918 5.13991 10.9144 5.15725 10.9224 5.18125C10.9304 5.20525 10.9211 5.23191 10.9011 5.24791L10.5451 5.51458L10.6784 5.93591C10.6864 5.95991 10.6771 5.98658 10.6558 6.00258C10.6344 6.01858 10.6064 6.01725 10.5864 6.00258L10.2264 5.74525L9.86644 6.00258C9.84511 6.01725 9.81711 6.01725 9.79711 6.00258C9.77711 5.98791 9.76778 5.96125 9.77445 5.93591L9.90778 5.51458L9.55178 5.24791C9.53178 5.23191 9.52245 5.20658 9.53045 5.18125C9.53845 5.15591 9.56111 5.13991 9.58644 5.13991H10.0291L10.1624 4.71991C10.1624 4.68391 10.1904 4.65591 10.2264 4.65591C10.2624 4.65591 10.2904 4.68391 10.2904 4.71991Z" fill="#F5F5F5"/>
<path d="M10.2904 6.91459L10.4238 7.33459H10.8664C10.8918 7.33459 10.9144 7.35192 10.9224 7.37592C10.9304 7.39992 10.9211 7.42659 10.9011 7.44259L10.5451 7.70925L10.6784 8.13059C10.6864 8.15459 10.6771 8.18125 10.6558 8.19725C10.6344 8.21325 10.6064 8.21192 10.5864 8.19725L10.2264 7.93992L9.86644 8.19725C9.84511 8.21192 9.81711 8.21192 9.79711 8.19725C9.77711 8.18259 9.76778 8.15592 9.77445 8.13059L9.90778 7.70925L9.55178 7.44259C9.53178 7.42659 9.52245 7.40125 9.53045 7.37592C9.53845 7.35059 9.56111 7.33459 9.58644 7.33459H10.0291L10.1624 6.91459C10.1624 6.87859 10.1904 6.85059 10.2264 6.85059C10.2624 6.85059 10.2904 6.87859 10.2904 6.91459Z" fill="#F5F5F5"/>
<path d="M10.2904 9.11054L10.4238 9.53054H10.8664C10.8918 9.53054 10.9144 9.54787 10.9224 9.57187C10.9304 9.59587 10.9211 9.62254 10.9011 9.63854L10.5451 9.90521L10.6784 10.3265C10.6864 10.3505 10.6771 10.3772 10.6558 10.3932C10.6344 10.4092 10.6064 10.4079 10.5864 10.3932L10.2264 10.1359L9.86644 10.3932C9.84511 10.4079 9.81711 10.4079 9.79711 10.3932C9.77711 10.3785 9.76778 10.3519 9.77445 10.3265L9.90778 9.90521L9.55178 9.63854C9.53178 9.62254 9.52245 9.59721 9.53045 9.57187C9.53845 9.54654 9.56111 9.53054 9.58644 9.53054H10.0291L10.1624 9.11054C10.1624 9.07454 10.1904 9.04654 10.2264 9.04654C10.2624 9.04654 10.2904 9.07454 10.2904 9.11054Z" fill="#F5F5F5"/>
<path d="M11.9945 1.45203L12.1279 1.87203H12.5705C12.5959 1.87203 12.6185 1.88936 12.6265 1.91336C12.6345 1.93736 12.6252 1.96403 12.6052 1.98003L12.2492 2.2467L12.3825 2.66803C12.3905 2.69203 12.3812 2.7187 12.3599 2.7347C12.3385 2.7507 12.3105 2.74936 12.2905 2.7347L11.9305 2.47736L11.5705 2.7347C11.5492 2.74936 11.5212 2.74936 11.5012 2.7347C11.4812 2.72003 11.4719 2.69336 11.4785 2.66803L11.6119 2.2467L11.2559 1.98003C11.2359 1.96403 11.2265 1.9387 11.2345 1.91336C11.2425 1.88803 11.2652 1.87203 11.2905 1.87203H11.7332L11.8665 1.45203C11.8665 1.41603 11.8945 1.38803 11.9305 1.38803C11.9665 1.38803 11.9945 1.41603 11.9945 1.45203Z" fill="#F5F5F5"/>
<path d="M11.9945 3.64539L12.1279 4.06539H12.5705C12.5959 4.06539 12.6185 4.08272 12.6265 4.10672C12.6345 4.13072 12.6252 4.15739 12.6052 4.17339L12.2492 4.44006L12.3825 4.86139C12.3905 4.88539 12.3812 4.91206 12.3599 4.92806C12.3385 4.94406 12.3105 4.94272 12.2905 4.92806L11.9305 4.67072L11.5705 4.92806C11.5492 4.94272 11.5212 4.94272 11.5012 4.92806C11.4812 4.91339 11.4719 4.88672 11.4785 4.86139L11.6119 4.44006L11.2559 4.17339C11.2359 4.15739 11.2265 4.13206 11.2345 4.10672C11.2425 4.08139 11.2652 4.06539 11.2905 4.06539H11.7332L11.8665 3.64539C11.8665 3.60939 11.8945 3.58139 11.9305 3.58139C11.9665 3.58139 11.9945 3.60939 11.9945 3.64539Z" fill="#F5F5F5"/>
<path d="M11.9945 5.83875L12.1279 6.25875H12.5705C12.5959 6.25875 12.6185 6.27608 12.6265 6.30008C12.6345 6.32408 12.6252 6.35075 12.6052 6.36675L12.2492 6.63342L12.3825 7.05475C12.3905 7.07875 12.3812 7.10542 12.3599 7.12142C12.3385 7.13742 12.3105 7.13608 12.2905 7.12142L11.9305 6.86408L11.5705 7.12142C11.5492 7.13608 11.5212 7.13608 11.5012 7.12142C11.4812 7.10675 11.4719 7.08008 11.4785 7.05475L11.6119 6.63342L11.2559 6.36675C11.2359 6.35075 11.2265 6.32542 11.2345 6.30008C11.2425 6.27475 11.2652 6.25875 11.2905 6.25875H11.7332L11.8665 5.83875C11.8665 5.80275 11.8945 5.77475 11.9305 5.77475C11.9665 5.77475 11.9945 5.80275 11.9945 5.83875Z" fill="#F5F5F5"/>
<path d="M11.9945 8.03339L12.1279 8.45339H12.5705C12.5959 8.45339 12.6185 8.47072 12.6265 8.49472C12.6345 8.51872 12.6252 8.54539 12.6052 8.56139L12.2492 8.82806L12.3825 9.24939C12.3905 9.27339 12.3812 9.30006 12.3599 9.31606C12.3385 9.33206 12.3105 9.33072 12.2905 9.31606L11.9305 9.05872L11.5705 9.31606C11.5492 9.33072 11.5212 9.33072 11.5012 9.31606C11.4812 9.30139 11.4719 9.27472 11.4785 9.24939L11.6119 8.82806L11.2559 8.56139C11.2359 8.54539 11.2265 8.52006 11.2345 8.49472C11.2425 8.46939 11.2652 8.45339 11.2905 8.45339H11.7332L11.8665 8.03339C11.8665 7.99739 11.8945 7.96939 11.9305 7.96939C11.9665 7.96939 11.9945 7.99739 11.9945 8.03339Z" fill="#F5F5F5"/>
<path d="M11.9945 10.2294L12.1279 10.6494H12.5705C12.5959 10.6494 12.6185 10.6667 12.6265 10.6907C12.6345 10.7147 12.6252 10.7414 12.6052 10.7574L12.2492 11.024L12.3825 11.4454C12.3905 11.4694 12.3812 11.496 12.3599 11.512C12.3385 11.528 12.3105 11.5267 12.2905 11.512L11.9305 11.2547L11.5705 11.512C11.5492 11.5267 11.5212 11.5267 11.5012 11.512C11.4812 11.4974 11.4719 11.4707 11.4785 11.4454L11.6119 11.024L11.2559 10.7574C11.2359 10.7414 11.2265 10.716 11.2345 10.6907C11.2425 10.6654 11.2652 10.6494 11.2905 10.6494H11.7332L11.8665 10.2294C11.8665 10.1934 11.8945 10.1654 11.9305 10.1654C11.9665 10.1654 11.9945 10.1934 11.9945 10.2294Z" fill="#F5F5F5"/>
<path d="M13.6986 2.52655L13.8319 2.94655H14.2746C14.2999 2.94655 14.3226 2.96389 14.3306 2.98789C14.3386 3.01189 14.3292 3.03855 14.3092 3.05455L13.9532 3.32122L14.0866 3.74255C14.0946 3.76655 14.0852 3.79322 14.0639 3.80922C14.0426 3.82522 14.0146 3.82389 13.9946 3.80922L13.6346 3.55189L13.2746 3.80922C13.2533 3.82389 13.2253 3.82389 13.2053 3.80922C13.1853 3.79455 13.176 3.76789 13.1826 3.74255L13.316 3.32122L12.96 3.05455C12.94 3.03855 12.9306 3.01322 12.9386 2.98789C12.9466 2.96255 12.9693 2.94655 12.9946 2.94655H13.4372L13.5706 2.52655C13.5706 2.49055 13.5986 2.46255 13.6346 2.46255C13.6706 2.46255 13.6986 2.49055 13.6986 2.52655Z" fill="#F5F5F5"/>
<path d="M13.6986 4.71991L13.8319 5.13991H14.2746C14.2999 5.13991 14.3226 5.15725 14.3306 5.18125C14.3386 5.20525 14.3292 5.23191 14.3092 5.24791L13.9532 5.51458L14.0866 5.93591C14.0946 5.95991 14.0852 5.98658 14.0639 6.00258C14.0426 6.01858 14.0146 6.01725 13.9946 6.00258L13.6346 5.74525L13.2746 6.00258C13.2533 6.01725 13.2253 6.01725 13.2053 6.00258C13.1853 5.98791 13.176 5.96125 13.1826 5.93591L13.316 5.51458L12.96 5.24791C12.94 5.23191 12.9306 5.20658 12.9386 5.18125C12.9466 5.15591 12.9693 5.13991 12.9946 5.13991H13.4372L13.5706 4.71991C13.5706 4.68391 13.5986 4.65591 13.6346 4.65591C13.6706 4.65591 13.6986 4.68391 13.6986 4.71991Z" fill="#F5F5F5"/>
<path d="M13.6986 6.91459L13.8319 7.33459H14.2746C14.2999 7.33459 14.3226 7.35192 14.3306 7.37592C14.3386 7.39992 14.3292 7.42659 14.3092 7.44259L13.9532 7.70925L14.0866 8.13059C14.0946 8.15459 14.0852 8.18125 14.0639 8.19725C14.0426 8.21325 14.0146 8.21192 13.9946 8.19725L13.6346 7.93992L13.2746 8.19725C13.2533 8.21192 13.2253 8.21192 13.2053 8.19725C13.1853 8.18259 13.176 8.15592 13.1826 8.13059L13.316 7.70925L12.96 7.44259C12.94 7.42659 12.9306 7.40125 12.9386 7.37592C12.9466 7.35059 12.9693 7.33459 12.9946 7.33459H13.4372L13.5706 6.91459C13.5706 6.87859 13.5986 6.85059 13.6346 6.85059C13.6706 6.85059 13.6986 6.87859 13.6986 6.91459Z" fill="#F5F5F5"/>
<path d="M13.6986 9.11054L13.8319 9.53054H14.2746C14.2999 9.53054 14.3226 9.54787 14.3306 9.57187C14.3386 9.59587 14.3292 9.62254 14.3092 9.63854L13.9532 9.90521L14.0866 10.3265C14.0946 10.3505 14.0852 10.3772 14.0639 10.3932C14.0426 10.4092 14.0146 10.4079 13.9946 10.3932L13.6346 10.1359L13.2746 10.3932C13.2533 10.4079 13.2253 10.4079 13.2053 10.3932C13.1853 10.3785 13.176 10.3519 13.1826 10.3265L13.316 9.90521L12.96 9.63854C12.94 9.62254 12.9306 9.59721 12.9386 9.57187C12.9466 9.54654 12.9693 9.53054 12.9946 9.53054H13.4372L13.5706 9.11054C13.5706 9.07454 13.5986 9.04654 13.6346 9.04654C13.6706 9.04654 13.6986 9.07454 13.6986 9.11054Z" fill="#F5F5F5"/>
<path d="M15.4013 1.45203L15.5346 1.87203H15.9773C16.0026 1.87203 16.0253 1.88936 16.0333 1.91336C16.0413 1.93736 16.032 1.96403 16.012 1.98003L15.656 2.2467L15.7893 2.66803C15.7973 2.69203 15.788 2.7187 15.7666 2.7347C15.7453 2.7507 15.7173 2.74936 15.6973 2.7347L15.3373 2.47736L14.9773 2.7347C14.956 2.74936 14.928 2.74936 14.908 2.7347C14.888 2.72003 14.8786 2.69336 14.8853 2.66803L15.0186 2.2467L14.6626 1.98003C14.6426 1.96403 14.6333 1.9387 14.6413 1.91336C14.6493 1.88803 14.672 1.87203 14.6973 1.87203H15.14L15.2733 1.45203C15.2733 1.41603 15.3013 1.38803 15.3373 1.38803C15.3733 1.38803 15.4013 1.41603 15.4013 1.45203Z" fill="#F5F5F5"/>
<path d="M15.4013 3.64539L15.5346 4.06539H15.9773C16.0026 4.06539 16.0253 4.08272 16.0333 4.10672C16.0413 4.13072 16.032 4.15739 16.012 4.17339L15.656 4.44006L15.7893 4.86139C15.7973 4.88539 15.788 4.91206 15.7666 4.92806C15.7453 4.94406 15.7173 4.94272 15.6973 4.92806L15.3373 4.67072L14.9773 4.92806C14.956 4.94272 14.928 4.94272 14.908 4.92806C14.888 4.91339 14.8786 4.88672 14.8853 4.86139L15.0186 4.44006L14.6626 4.17339C14.6426 4.15739 14.6333 4.13206 14.6413 4.10672C14.6493 4.08139 14.672 4.06539 14.6973 4.06539H15.14L15.2733 3.64539C15.2733 3.60939 15.3013 3.58139 15.3373 3.58139C15.3733 3.58139 15.4013 3.60939 15.4013 3.64539Z" fill="#F5F5F5"/>
<path d="M15.4013 5.83875L15.5346 6.25875H15.9773C16.0026 6.25875 16.0253 6.27608 16.0333 6.30008C16.0413 6.32408 16.032 6.35075 16.012 6.36675L15.656 6.63342L15.7893 7.05475C15.7973 7.07875 15.788 7.10542 15.7666 7.12142C15.7453 7.13742 15.7173 7.13608 15.6973 7.12142L15.3373 6.86408L14.9773 7.12142C14.956 7.13608 14.928 7.13608 14.908 7.12142C14.888 7.10675 14.8786 7.08008 14.8853 7.05475L15.0186 6.63342L14.6626 6.36675C14.6426 6.35075 14.6333 6.32542 14.6413 6.30008C14.6493 6.27475 14.672 6.25875 14.6973 6.25875H15.14L15.2733 5.83875C15.2733 5.80275 15.3013 5.77475 15.3373 5.77475C15.3733 5.77475 15.4013 5.80275 15.4013 5.83875Z" fill="#F5F5F5"/>
<path d="M15.4013 8.03339L15.5346 8.45339H15.9773C16.0026 8.45339 16.0253 8.47072 16.0333 8.49472C16.0413 8.51872 16.032 8.54539 16.012 8.56139L15.656 8.82806L15.7893 9.24939C15.7973 9.27339 15.788 9.30006 15.7666 9.31606C15.7453 9.33206 15.7173 9.33072 15.6973 9.31606L15.3373 9.05872L14.9773 9.31606C14.956 9.33072 14.928 9.33072 14.908 9.31606C14.888 9.30139 14.8786 9.27472 14.8853 9.24939L15.0186 8.82806L14.6626 8.56139C14.6426 8.54539 14.6333 8.52006 14.6413 8.49472C14.6493 8.46939 14.672 8.45339 14.6973 8.45339H15.14L15.2733 8.03339C15.2733 7.99739 15.3013 7.96939 15.3373 7.96939C15.3733 7.96939 15.4013 7.99739 15.4013 8.03339Z" fill="#F5F5F5"/>
<path d="M15.4013 10.2294L15.5346 10.6494H15.9773C16.0026 10.6494 16.0253 10.6667 16.0333 10.6907C16.0413 10.7147 16.032 10.7414 16.012 10.7574L15.656 11.024L15.7893 11.4454C15.7973 11.4694 15.788 11.496 15.7666 11.512C15.7453 11.528 15.7173 11.5267 15.6973 11.512L15.3373 11.2547L14.9773 11.512C14.956 11.5267 14.928 11.5267 14.908 11.512C14.888 11.4974 14.8786 11.4707 14.8853 11.4454L15.0186 11.024L14.6626 10.7574C14.6426 10.7414 14.6333 10.716 14.6413 10.6907C14.6493 10.6654 14.672 10.6494 14.6973 10.6494H15.14L15.2733 10.2294C15.2733 10.1934 15.3013 10.1654 15.3373 10.1654C15.3733 10.1654 15.4013 10.1934 15.4013 10.2294Z" fill="#F5F5F5"/>
</g>
</g>
</g>
</g>
<defs>
<clipPath id="clip0_102_4365">
<rect width="24" height="24" fill="white"/>
</clipPath>
<clipPath id="clip1_102_4365">
<rect width="24" height="24" fill="white"/>
</clipPath>
<clipPath id="clip2_102_4365">
<rect width="24" height="24" fill="white"/>
</clipPath>
</defs>
</svg>
