<svg width="39" height="52" viewBox="0 0 39 52" fill="none" xmlns="http://www.w3.org/2000/svg">
<path d="M38.6039 13.8667H0V52H38.6039V13.8667Z" fill="#2149F3"/>
<path d="M38.6039 46.7998H0V51.9998H38.6039V46.7998Z" fill="#000311"/>
<path d="M31.5851 13.1919V22.1494C31.5851 23.3188 30.6709 24.2667 29.5433 24.2667C28.4157 24.2667 27.5015 23.3188 27.5015 22.1494V13.1919C27.5015 8.24486 23.6341 4.23445 18.8633 4.23445C14.0926 4.23445 10.2251 8.24486 10.2251 13.1919V22.1494C10.2251 23.3188 9.31099 24.2667 8.18336 24.2667C7.05573 24.2667 6.1416 23.3188 6.1416 22.1494V13.1919C6.1416 5.90624 11.8373 0 18.8633 0C25.8894 0 31.5851 5.90624 31.5851 13.1919Z" fill="#000311"/>
</svg>
