<svg width="52" height="52" viewBox="0 0 52 52" fill="none" xmlns="http://www.w3.org/2000/svg">
<path d="M34.1883 11.0758C30.5293 7.41853 27.0382 3.93209 25.9992 0C24.9601 3.93209 21.4685 7.41853 17.8101 11.0758C12.3225 16.56 6.10059 22.7755 6.10059 32.0977C6.09896 43.0878 15.0067 51.9983 25.9968 52C36.9869 52.0016 45.8973 43.0939 45.8991 32.1038V32.0977C45.8991 22.7761 39.6777 16.56 34.1883 11.0758ZM14.5584 36.7345C13.3382 36.6931 8.83526 28.9315 17.1891 20.6674L22.7171 26.7059C22.7646 26.7527 22.8016 26.8091 22.8257 26.8713C22.8497 26.9335 22.8604 27.0001 22.8569 27.0667C22.8534 27.1333 22.8359 27.1984 22.8054 27.2578C22.775 27.3171 22.7323 27.3693 22.6803 27.411C21.3612 28.7639 15.7387 34.4022 15.0398 36.3518C14.8956 36.7541 14.6849 36.7389 14.5584 36.7345ZM25.9998 46.9641C22.2201 46.9641 19.156 43.9001 19.1559 40.1203V40.1202C19.1812 38.4608 19.7845 36.8621 20.8618 35.5997C22.0958 34.0907 25.9989 29.8466 25.9989 29.8466C25.9989 29.8466 29.8422 34.153 31.1268 35.5854C32.2458 36.8293 32.8583 38.4472 32.8436 40.1203C32.8437 43.9001 29.7796 46.9641 25.9998 46.9641ZM39.099 35.8659C38.9515 36.1884 38.6168 36.727 38.1652 36.7435C37.3602 36.7728 37.2742 36.3603 36.6791 35.4797C35.3728 33.5466 23.9727 21.6322 21.8404 19.328C19.9649 17.3013 21.5763 15.8725 22.3238 15.1237C23.2616 14.1842 25.999 11.4484 25.999 11.4484C25.999 11.4484 34.1614 19.1929 37.5615 24.4844C40.9616 29.7759 39.7899 34.3548 39.099 35.8659Z" fill="#0077C0"/>
</svg>
