<svg width="52" height="52" viewBox="0 0 52 52" fill="none" xmlns="http://www.w3.org/2000/svg">
<g clip-path="url(#clip0_169_7183)">
<path d="M24.5609 0.337733C20.3062 0.5463 16.4101 1.72262 12.8478 3.86669C10.8539 5.06804 8.48456 7.04526 6.90779 8.79722C2.1608 14.1032 4.02331e-05 20.21 0.333748 27.4014C0.533973 31.7313 1.69361 35.5856 3.87105 39.2063C6.4406 43.4695 10.7621 47.3989 15.1087 49.4178C18.5292 51.0112 21.933 51.7287 26.0209 51.7287C31.4019 51.7287 35.9153 50.4106 40.0783 47.6241C42.6395 45.9139 44.842 43.8115 46.7608 41.267C50.3565 36.4783 52 30.9638 51.708 24.6483C51.5412 21.086 50.7987 18.066 49.3387 15.0376C47.4783 11.1749 44.7586 7.89621 41.1879 5.23489C37.3169 2.33164 32.6367 0.613042 27.9814 0.371104C26.096 0.279334 25.7873 0.270992 24.5609 0.337733ZM18.404 16.2556C19.7806 16.5976 20.9819 17.3151 22.0331 18.4163C23.5848 20.0432 24.4441 22.1205 24.7611 24.957C24.8112 25.4075 24.8529 25.9915 24.8529 26.2752V26.7757H10.4785L10.5285 27.7101C10.6787 30.4715 12.0886 32.3403 14.5664 33.0494C15.4257 33.2997 17.2611 33.3164 18.0953 33.0911C19.7055 32.6573 21.082 31.3976 21.3156 30.1462L21.3657 29.8625H24.5359L24.4692 30.1295C23.9936 32.332 22.6004 34.109 20.5397 35.1518C19.0965 35.8776 16.8356 36.1946 14.8667 35.9527C12.8645 35.7024 11.3127 34.9849 9.99459 33.7002C8.63473 32.3653 7.87554 30.847 7.39167 28.486C7.14973 27.2679 7.1247 24.6066 7.34995 23.5554C7.90891 20.9776 9.28546 18.7918 11.1542 17.5237C12.172 16.8312 13.5736 16.2723 14.7165 16.0971C15.5508 15.9719 17.6198 16.0554 18.404 16.2556ZM32.6867 19.4759C33.9882 21.378 35.0811 22.9381 35.1228 22.9381C35.1561 22.9381 36.2824 21.3947 37.6256 19.5092C38.9688 17.6238 40.1034 16.0637 40.1534 16.047C40.2035 16.0303 41.1045 16.022 42.1473 16.0303L44.0495 16.0554L40.7374 20.477C38.9187 22.9047 37.3753 24.982 37.3086 25.0822C37.1918 25.2574 37.367 25.516 40.971 30.5466C43.0567 33.4499 44.792 35.8776 44.8253 35.9277C44.8754 36.0111 44.4416 36.0361 42.773 36.0361L40.6623 36.0278L37.9176 31.9482C36.4159 29.6957 35.1561 27.8603 35.1228 27.8603C35.0894 27.8603 33.8213 29.6957 32.3113 31.9482L29.5665 36.0278L27.5893 36.0361C26.4964 36.0361 25.6038 36.0194 25.6038 36.0027C25.6038 35.9777 27.2723 33.6251 29.3163 30.7635C31.3602 27.902 33.0121 25.5243 32.9954 25.4743C32.9704 25.4159 31.4353 23.3052 29.5749 20.769C27.7145 18.2328 26.1877 16.1304 26.1877 16.0887C26.1877 16.047 27.0971 16.0137 28.2567 16.0137H30.3174L32.6867 19.4759Z" fill="black"/>
<path d="M15.1753 18.8505C13.9573 19.009 13.0563 19.4595 12.1636 20.3522C11.638 20.8611 11.4628 21.1197 11.1458 21.7705C10.7871 22.513 10.5034 23.4974 10.5034 23.9729V24.1899H21.4323V23.9145C21.4323 23.4223 21.1153 22.3711 20.7649 21.6954C19.9557 20.1353 18.4874 19.1008 16.7271 18.8589C16.0263 18.7588 15.8594 18.7588 15.1753 18.8505Z" fill="black"/>
</g>
<defs>
<clipPath id="clip0_169_7183">
<rect width="52" height="52" fill="white"/>
</clipPath>
</defs>
</svg>
