<svg width="52" height="52" viewBox="0 0 52 52" fill="none" xmlns="http://www.w3.org/2000/svg">
<path d="M24.6996 28.088V21.3281L18.8454 17.9482L12.9912 21.3281V28.088L18.8454 31.4679L24.6996 28.088Z" fill="#3B8739"/>
<path d="M47.7551 27.0621L51.5702 29.2651L47.7551 31.4682L41.9014 28.0882V21.3282L47.7551 17.9482L51.3028 19.9975C51.663 21.5194 51.8843 23.0709 51.964 24.6329L49.7948 25.8851V23.5303L47.7551 22.3534L45.7154 23.5303V25.8851L47.7551 27.0621Z" fill="#333333"/>
<path d="M48.8915 25.3638V24.0516L47.7551 23.3955L46.6187 24.0516V25.3638L47.7551 26.02L48.8915 25.3638Z" fill="#66A060"/>
<path d="M10.2259 21.3283V30.2426L6.32166 28.0151V23.4455L4.37227 22.3195L2.42277 23.4454V28.015L0.205868 29.2801C0.0685236 28.1921 -0.000234636 27.0965 6.01546e-07 25.9998C6.01546e-07 23.9644 0.233493 21.9831 0.676001 20.0824L4.37227 17.9482L10.2259 21.3283Z" fill="#333333"/>
<path d="M18.8447 17.9478L24.6988 28.0874L18.8448 31.4672L12.9907 21.3276L18.8447 17.9478Z" fill="#6DA75D"/>
<path d="M12.9912 28.088L15.0013 24.81L12.9912 21.3281V28.088Z" fill="#55A344"/>
<path d="M22.7479 24.7078L24.6995 21.3281L18.8452 17.9482L22.7479 24.7078Z" fill="#639D57"/>
<path d="M35.1964 10.1133V19.0817L33.2342 17.9482L27.3794 21.3282V28.0882L33.2342 31.4682L39.0879 28.0882V12.1964L35.1964 10.1133ZM35.1857 25.8342L33.2341 26.9613L31.2824 25.8342V23.5813L33.2341 22.4542L35.1857 23.5813V25.8342Z" fill="#333333"/>
<path d="M28.6556 36.4317C28.6556 36.4317 28.5407 35.4436 27.4837 35.4436C26.4267 35.4436 25.7029 35.5815 25.7029 36.1675C25.7029 36.7535 27.7596 36.7535 28.5409 36.9832C29.3222 37.213 30.0115 37.8105 29.6668 38.8675C29.3221 39.9246 28.265 40.0394 26.6335 40.0394C25.002 40.0394 24.6343 38.6836 24.6343 38.1552H25.5534C25.5534 38.1552 25.4384 38.9824 26.5185 39.1202C27.5985 39.258 28.6312 39.3356 28.7704 38.4999C28.9542 37.3968 25.2776 37.9484 24.9558 36.8684C24.684 35.9558 24.8409 34.7543 26.6792 34.5704C28.5176 34.3865 29.5287 35.1982 29.5287 36.4088L28.6556 36.4317Z" fill="#66A060"/>
<path d="M19.7765 40.7395L21.8085 41.9126C22.8295 42.5021 24.1058 41.7653 24.1058 40.5863V34.747H23.2775V40.356C23.2775 40.9998 22.5806 41.4023 22.0229 41.0802L20.6046 40.2614V34.2753L25.7887 31.2826L30.9727 34.2753V40.2614L25.7887 43.2542L24.2953 42.392L23.3201 42.7852L25.7886 44.2105L31.8009 40.7392V33.7973L25.7887 30.3262L19.7764 33.7975V40.7395H19.7765Z" fill="#66A060"/>
</svg>
