<svg width="52" height="52" viewBox="0 0 52 52" fill="none" xmlns="http://www.w3.org/2000/svg">
<g clip-path="url(#clip0_169_7384)">
<path d="M43.249 10.013C43.213 9.75046 42.9831 9.60522 42.7935 9.58938C42.6039 9.57354 38.9023 9.51727 38.9023 9.51727C38.9023 9.51727 35.8066 6.51072 35.5008 6.20471C35.195 5.8987 34.5976 5.99153 34.3657 6.05978L32.8101 6.54139C32.6475 6.01306 32.4076 5.36418 32.0657 4.71215C30.9634 2.6094 29.3496 1.49637 27.3991 1.49353H27.3925C27.2574 1.49353 27.1226 1.50622 26.9877 1.51851C26.9309 1.44918 26.8722 1.38155 26.8114 1.31569C25.9622 0.40681 24.8718 -0.0360027 23.5666 0.00228641C21.047 0.0744973 18.5391 1.89379 16.5049 5.12469C15.073 7.39868 13.9852 10.2553 13.6758 12.4662C10.7835 13.3619 8.75988 13.9887 8.71611 14.0024C7.25614 14.4605 7.21024 14.5064 7.01879 15.8819C6.87386 16.9232 3.0542 46.4635 3.0542 46.4635L35.0701 51.9998L48.946 48.5509C48.946 48.5509 43.2848 10.2755 43.249 10.013ZM15.4694 11.9107C16.3351 7.86282 19.7269 1.79009 23.615 1.67827C24.2065 1.66588 24.7047 1.79568 25.1301 2.07568C24.4497 2.42902 23.7914 2.93683 23.174 3.59902C21.5738 5.31563 20.3481 7.98104 19.8592 10.5513L15.4694 11.9107ZM27.0469 8.32574L21.7018 9.9808C22.2189 8.00257 23.1978 6.03297 24.4007 4.74261C24.8482 4.26263 25.4742 3.72699 26.2154 3.42118C26.9128 4.87424 27.0638 6.93413 27.0469 8.32574ZM28.7217 7.80716C28.7031 6.53144 28.5508 4.75704 27.9565 3.22314C29.868 3.58531 30.8092 5.74818 31.2064 7.03783L28.7217 7.80716Z" fill="#95BF47"/>
<path d="M42.7933 9.58925C42.6037 9.57341 38.9021 9.51714 38.9021 9.51714C38.9021 9.51714 35.8064 6.51059 35.5006 6.20458C35.3866 6.09042 35.2319 6.03202 35.0708 6.00684L35.0716 51.9994L48.9459 48.5508C48.9459 48.5508 43.2848 10.2754 43.2488 10.0129C43.2129 9.75033 42.9829 9.60509 42.7933 9.58925Z" fill="#5E8E3E"/>
<path d="M27.3805 16.724L25.7689 22.7528C25.7689 22.7528 23.9712 21.9342 21.8399 22.0688C18.7149 22.2661 18.6817 24.2374 18.7129 24.7314C18.8831 27.4277 25.9764 28.0169 26.3752 34.3323C26.6889 39.3009 23.7397 42.6996 19.4903 42.9679C14.3909 43.2899 11.583 40.2809 11.583 40.2809L12.6635 35.6837C12.6635 35.6837 15.4893 37.8157 17.7513 37.6729C19.2288 37.5795 19.7568 36.3778 19.7031 35.528C19.481 32.0106 13.705 32.2178 13.34 26.4386C13.0329 21.5746 16.2269 16.6471 23.2745 16.202C25.99 16.0307 27.3805 16.724 27.3805 16.724Z" fill="white"/>
</g>
<defs>
<clipPath id="clip0_169_7384">
<rect width="52" height="52" fill="white"/>
</clipPath>
</defs>
</svg>
