<svg width="52" height="46" viewBox="0 0 52 46" fill="none" xmlns="http://www.w3.org/2000/svg">
<path d="M32.0509 0C54.9109 15.2552 47.4978 32.0184 47.4978 32.0184C47.4978 32.0184 53.9912 39.204 51.3815 45.4991C51.3815 45.4991 48.6873 41.1019 44.2154 41.1019C39.893 41.1019 37.3353 45.4991 28.6092 45.4991C9.20057 45.4991 0 29.5939 0 29.5939C17.4912 40.9037 29.4412 32.8894 29.4412 32.8894C21.5438 28.4109 4.79366 6.96461 4.79366 6.96461C19.3956 19.1551 25.6972 22.3563 25.6972 22.3563C21.9078 19.3144 11.3488 4.40691 11.3488 4.40691C19.7986 12.7885 36.5943 24.4753 36.5943 24.4753C41.4107 11.56 32.0509 0 32.0509 0Z" fill="#FF5722"/>
</svg>
