<svg width="52" height="52" viewBox="0 0 52 52" fill="none" xmlns="http://www.w3.org/2000/svg">
<g clip-path="url(#clip0_169_7389)">
<path d="M15.5983 16.048H12.7267L20.5555 38.1781L24.9383 25.6536L21.5403 16.048H18.5105V13.9393H31.9274V16.048H28.7855L36.6142 38.1781L39.4283 30.1362C43.1198 19.8329 36.4027 16.6234 36.4027 14.324C36.4027 12.0245 38.2667 10.1606 40.566 10.1606C40.6904 10.1606 40.8112 10.1673 40.9296 10.1784C37.0336 6.50052 31.7802 4.24512 25.9996 4.24512C18.4463 4.24512 11.793 8.09522 7.89276 13.9393H15.5981V16.048H15.5983ZM4.24512 25.9999C4.24512 34.3287 8.92643 41.5631 15.8007 45.2188L5.98316 17.4669C4.86481 20.0869 4.24512 22.971 4.24512 25.9999ZM44.9328 15.2798C45.244 17.1121 45.1498 19.1714 44.6723 21.2387H44.7588L44.4298 22.1787C44.2349 22.8574 43.9895 23.5516 43.7107 24.2338L36.2252 45.2047C43.085 41.5447 47.7543 34.318 47.7543 25.9997C47.7543 22.1019 46.7282 18.444 44.9328 15.2798Z" fill="#00769D"/>
<path d="M19.2905 46.6987C21.404 47.3833 23.6583 47.7547 25.9999 47.7547C28.2334 47.7547 30.3879 47.4176 32.4163 46.7923L26.0528 28.8042L19.2905 46.6987Z" fill="#00769D"/>
<path d="M44.3847 7.61518C39.474 2.70446 32.9447 0 25.9999 0C19.055 0 12.5259 2.70446 7.61518 7.61518C2.70446 12.5259 0 19.055 0 26C0 32.9448 2.70446 39.474 7.61518 44.3847C12.5259 49.2954 19.0552 51.9999 26 51.9999C32.9448 51.9999 39.474 49.2954 44.3848 44.3847C49.2955 39.474 52 32.9447 52 26C51.9999 19.055 49.2954 12.5259 44.3847 7.61518ZM25.9999 50.1658C12.6748 50.1658 1.8341 39.3251 1.8341 26C1.8341 12.6749 12.6748 1.8341 25.9999 1.8341C39.3249 1.8341 50.1657 12.6749 50.1657 26C50.1657 39.3251 39.3251 50.1658 25.9999 50.1658Z" fill="#00769D"/>
</g>
<defs>
<clipPath id="clip0_169_7389">
<rect width="52" height="52" fill="white"/>
</clipPath>
</defs>
</svg>
