<svg width="50" height="35" viewBox="0 0 50 35" fill="none" xmlns="http://www.w3.org/2000/svg">
<path d="M25.6783 20.3799C25.3683 20.4626 25.0893 20.5039 24.8 20.5039C24.5106 20.5039 24.2316 20.4626 23.9216 20.3799L23.777 20.3386L8.80396 15.1202V27.2309C8.80396 27.7682 9.21729 28.2126 9.74429 28.2539C14.8076 28.7396 19.685 30.7959 24.2316 34.3919C24.428 34.5469 24.645 34.6192 24.8723 34.6192C25.11 34.6192 25.3373 34.5366 25.5336 34.3816C30.256 30.4962 34.9163 28.5226 39.7936 28.3572C40.3516 28.3366 40.7856 27.8819 40.7856 27.3239V15.1202L25.7506 20.3592L25.6783 20.3799Z" fill="black"/>
<path d="M48.8973 8.13492L25.1307 0.05425C24.9137 -0.0180833 24.6863 -0.0180833 24.4693 0.05425L0.70267 8.13492C0.497428 8.20424 0.319164 8.33631 0.193073 8.51247C0.066983 8.68862 -0.000555756 8.89995 3.44465e-06 9.11658C3.44465e-06 9.55058 0.279004 9.94325 0.692337 10.0982L2.92434 10.8733V19.7289C2.24701 19.9484 1.6564 20.3764 1.23697 20.9517C0.817529 21.527 0.590733 22.2203 0.589004 22.9322C0.589004 24.7922 2.09767 26.3009 3.95767 26.3009C5.80734 26.3009 7.32634 24.7922 7.32634 22.9322C7.32634 21.4442 6.34467 20.1733 4.991 19.7289V11.5966L24.459 18.3856C24.5727 18.4166 24.6863 18.4373 24.8 18.4373C24.9137 18.4373 25.0273 18.4166 25.141 18.3856L48.9077 10.0982C49.321 9.94325 49.6 9.55058 49.6 9.11658C49.6006 8.89995 49.533 8.68862 49.4069 8.51247C49.2808 8.33631 49.1026 8.20424 48.8973 8.13492Z" fill="black"/>
</svg>
