<svg width="47" height="46" viewBox="0 0 47 46" fill="none" xmlns="http://www.w3.org/2000/svg">
<path d="M8.67423 28.5258L6.3008 27.4176C6.24302 27.3909 6.19107 27.3531 6.14792 27.3063C6.10477 27.2595 6.07126 27.2047 6.04931 27.1449C6.02735 27.0852 6.01739 27.0217 6.01998 26.9581C6.02258 26.8945 6.03768 26.8321 6.06442 26.7743L6.82198 25.1468C6.84901 25.0888 6.88723 25.0367 6.93444 24.9934C6.98165 24.9502 7.03693 24.9167 7.09711 24.8949C7.15669 24.8723 7.22029 24.8622 7.28395 24.8652C7.34761 24.8682 7.40998 24.8843 7.46717 24.9124L20.3438 30.9244V28.5219L17.9704 27.4137C17.8545 27.3594 17.7648 27.2615 17.7209 27.1414C17.677 27.0212 17.6824 26.8886 17.7359 26.7724L18.4915 25.1449C18.518 25.0868 18.5558 25.0346 18.6027 24.9913C18.6496 24.9481 18.7047 24.9146 18.7647 24.893C18.8244 24.8696 18.8883 24.8589 18.9524 24.8615C19.0164 24.8642 19.0792 24.8802 19.1367 24.9085L20.3438 25.4723L20.3496 0H3.88086V44.0084H8.67423V28.5258ZM14.6514 2.07506H17.7417V5.97138H14.6514V2.07506ZM14.6514 7.13969H17.7417V11.3499H14.6514V7.13969ZM14.6514 12.5162H17.7417V16.7245H14.6514V12.5162ZM10.5924 2.07506H13.6827V5.97138H10.5924V2.07506ZM10.5924 7.13969H13.6827V11.3499H10.5924V7.13969ZM10.5924 12.5162H13.6827V16.7245H10.5924V12.5162Z" fill="black"/>
<path d="M9.64282 44.0084H22.9728V35.2102L19.5628 33.6157L9.64282 28.9792V44.0084ZM11.5803 32.023L21.0353 36.4425V42.0709H11.5803V32.023ZM25.633 24.4532L26.6405 23.9843L41.8983 16.8679L41.9254 16.8621L43.2197 16.2595L42.8574 15.4884L25.2726 23.7015L25.633 24.4532ZM41.6174 18.075L27.6771 24.5695L27.0086 24.8795V28.5859L37.6009 33.5304C37.7169 33.585 37.8066 33.6834 37.8501 33.804C37.8937 33.9246 37.8877 34.0575 37.8334 34.1737L37.0778 35.8012C37.0387 35.8847 36.9765 35.9554 36.8986 36.0048C36.8207 36.0542 36.7303 36.0804 36.638 36.0802C36.5677 36.0805 36.4983 36.0653 36.4346 36.0356L35.6111 35.6558V44.0084H41.6174V18.075Z" fill="black"/>
<path d="M36.7504 34.2027L19.1637 25.9916L18.8169 26.7395L36.4036 34.9545L36.7504 34.2027ZM34.6424 44.0084V35.2083L21.3124 28.9753V31.3778L25.9295 33.5343C26.0445 33.5889 26.1333 33.6866 26.1769 33.8063C26.2204 33.9259 26.215 34.0579 26.162 34.1736L25.4063 35.8011C25.3528 35.9172 25.2555 36.0073 25.1357 36.052C25.016 36.0966 24.8834 36.0921 24.767 36.0395L23.9416 35.6578V44.0084H26.8091V36.2913C26.8091 36.1629 26.8601 36.0397 26.9509 35.9488C27.0418 35.858 27.165 35.807 27.2935 35.807H32.298C32.4265 35.807 32.5497 35.858 32.6405 35.9488C32.7314 36.0397 32.7824 36.1629 32.7824 36.2913V44.0084H34.6424Z" fill="black"/>
<path d="M27.7779 36.7757H31.8137V44.0084H27.7779V36.7757ZM7.14162 26.7453L7.49038 25.9955L25.0771 34.2046L24.7283 34.9545L7.14162 26.7453ZM32.2981 44.9771H0V45.8064H46.2675V44.9771H32.2981ZM26.04 25.3309L25.6041 25.5343C25.5403 25.5639 25.4709 25.5792 25.4006 25.5789C25.3091 25.5791 25.2194 25.5533 25.1419 25.5047C25.0644 25.456 25.0023 25.3863 24.9628 25.3038L24.1878 23.6763C24.1603 23.6186 24.1445 23.556 24.1413 23.4921C24.1381 23.4283 24.1476 23.3644 24.1693 23.3043C24.1909 23.2441 24.2242 23.1889 24.2673 23.1416C24.3103 23.0944 24.3623 23.0562 24.4202 23.0291L37.7851 16.7885V6.7832H21.3164L21.3125 25.9257L26.04 28.1345V25.3309ZM27.4544 9.35814H30.6009V12.5066H27.4544V9.35814ZM27.4544 13.3843H30.6009V16.5327H27.4544V13.3843ZM23.4534 9.36008H26.6019V12.5085H23.4534V9.36008ZM23.4534 13.3862H26.6019V16.5346H23.4534V13.3862Z" fill="black"/>
</svg>
