<svg width="52" height="52" viewBox="0 0 52 52" fill="none" xmlns="http://www.w3.org/2000/svg">
<path d="M26.0014 4.07202C13.8901 4.07202 4.07349 13.8886 4.07349 26C4.07349 34.7264 9.18416 42.2389 16.5633 45.7682L17.2497 32.5063C17.2497 32.5063 15.9587 32.0826 15.6761 31.9446C12.9379 30.7385 10.9487 27.187 10.9487 22.5778C10.9487 17.5481 14.8494 13.2158 18.6206 13.1801H18.6348C22.4068 13.2157 26.3076 17.548 26.3076 22.5778C26.3076 27.187 24.316 30.737 21.5833 31.9446C21.5619 31.9541 19.9972 32.5223 19.9972 32.5223L20.7637 47.2679C22.4457 47.6819 24.1945 47.9249 26.0044 47.9249C28.4451 47.9249 30.7826 47.5091 32.9757 46.7743L33.655 33.6331C31.8651 33.2394 30.3383 32.0999 29.3814 30.6703C28.196 28.8946 30.2939 13.1786 30.2939 13.1786H31.6587V27.9265H33.014V13.1802H34.4962V27.9298H35.8451V13.1802H37.3829V27.9298H38.7364V13.1802H39.7837C39.7837 13.1802 41.8817 28.8962 40.6948 30.672C39.7473 32.0875 38.2349 33.2237 36.4672 33.6268C36.4355 33.638 36.4069 33.6489 36.4069 33.6489L36.9972 44.9527C43.529 41.1551 47.9311 34.0998 47.9311 26.0001C47.9278 13.8888 38.1111 4.07202 26.0014 4.07202Z" fill="black"/>
<path d="M14.1587 20.3481C14.2372 20.0284 14.3428 19.7245 14.3476 19.719C14.3818 19.5992 14.3182 19.477 14.1881 19.3993C14.0643 19.3326 13.9135 19.3667 13.8437 19.4738C13.8437 19.4738 13.6938 19.7127 13.4763 20.0658C13.2995 20.3697 13.0376 20.8552 12.859 21.4599C12.7042 21.9898 12.5194 22.6945 12.4361 23.4831C12.402 23.873 12.3917 24.2646 12.4051 24.6558C12.4361 25.0945 12.5026 25.4698 12.6297 25.8991C13.0604 27.1234 13.3922 28.309 14.5895 29.4784C14.968 29.8672 15.3568 30.1322 15.6376 30.3274L15.7368 30.3972C15.7972 30.4369 15.8551 30.4735 15.9122 30.5069C16.1479 30.6306 16.3057 30.675 16.3343 30.6813C16.4517 30.713 16.5724 30.6559 16.6223 30.5607C16.6691 30.4607 16.635 30.3353 16.5374 30.2561C16.5374 30.2561 16.4009 30.1371 16.2256 29.9149C16.1058 29.78 15.9757 29.5848 15.8242 29.3643C15.7171 29.2088 15.5909 29.0326 15.4735 28.8612C14.8903 27.9709 14.554 26.7284 14.0889 25.4556C13.9977 25.1794 13.9231 24.8216 13.8952 24.5177C13.8595 24.1848 13.8413 23.8503 13.8406 23.5156C13.8271 22.7872 13.8596 22.1619 13.9231 21.6549C13.996 21.0829 14.0531 20.6536 14.1587 20.3481Z" fill="black"/>
<path d="M26.0016 0C11.6663 0 0 11.6638 0 25.9999C0 40.3329 11.6663 52 26.0016 52C40.3363 52 52.0003 40.3329 52.0003 25.9999C52.0001 11.6638 40.3363 0 26.0016 0ZM26.0016 50.0608C12.7334 50.0608 1.93839 39.2666 1.93839 25.9999C1.93839 12.7317 12.7334 1.93675 26.0016 1.93675C39.2684 1.93675 50.0642 12.7317 50.0642 25.9999C50.0641 39.2666 39.2683 50.0608 26.0016 50.0608Z" fill="black"/>
</svg>
