<svg width="52" height="44" viewBox="0 0 52 44" fill="none" xmlns="http://www.w3.org/2000/svg">
<path d="M47.4514 4.18552C45.1651 1.89528 42.1679 0.450755 38.9521 0.0892702C35.7363 -0.272215 32.4932 0.47084 29.7555 2.19636L35.4905 8.03469C35.7196 8.28823 35.8962 8.58472 36.0099 8.90696C36.1236 9.22921 36.1723 9.57082 36.1531 9.912C36.1338 10.2532 36.0471 10.5872 35.8979 10.8946C35.7487 11.202 35.54 11.4768 35.2839 11.703C34.8062 12.1243 34.1899 12.3543 33.553 12.3489C33.1882 12.3516 32.8269 12.2771 32.493 12.1302C32.159 11.9832 31.86 11.7672 31.6155 11.4964L24.3305 4.18552C23.2859 3.14181 22.0827 2.26992 20.7655 1.60219C18.0782 0.225505 15.0244 -0.265993 12.0408 0.19801C9.05731 0.662012 6.29696 2.05774 4.15469 4.18552C1.47397 7.30587 0 11.2835 0 15.3972C0 19.5109 1.47397 23.4885 4.15469 26.6089C8.95969 31.7755 20.6364 43.7364 25.8805 43.7364C29.9622 43.7364 37.9705 36.4772 43.5247 30.8197C44.9197 29.4247 46.108 28.2364 47.1414 27.0739L47.5289 26.6605C50.2127 23.5273 51.6813 19.5341 51.6671 15.4086C51.6528 11.2831 50.1567 7.30013 47.4514 4.18552ZM30.9697 26.4022H28.3864V28.9855C28.3864 29.6707 28.1142 30.3277 27.6297 30.8122C27.1453 31.2967 26.4882 31.5689 25.803 31.5689C25.1179 31.5689 24.4608 31.2967 23.9763 30.8122C23.4919 30.3277 23.2197 29.6707 23.2197 28.9855V26.4022H20.6364C19.9512 26.4022 19.2941 26.13 18.8097 25.6455C18.3252 25.1611 18.053 24.504 18.053 23.8189C18.053 23.1337 18.3252 22.4766 18.8097 21.9922C19.2941 21.5077 19.9512 21.2355 20.6364 21.2355H23.2197V18.6522C23.2197 17.967 23.4919 17.31 23.9763 16.8255C24.4608 16.341 25.1179 16.0689 25.803 16.0689C26.4882 16.0689 27.1453 16.341 27.6297 16.8255C28.1142 17.31 28.3864 17.967 28.3864 18.6522V21.2355H30.9697C31.6548 21.2355 32.3119 21.5077 32.7964 21.9922C33.2809 22.4766 33.553 23.1337 33.553 23.8189C33.553 24.504 33.2809 25.1611 32.7964 25.6455C32.3119 26.13 31.6548 26.4022 30.9697 26.4022Z" fill="black"/>
</svg>
