<svg width="47" height="52" viewBox="0 0 47 52" fill="none" xmlns="http://www.w3.org/2000/svg">
<path d="M9.1 16.0732V38.5816C9.1 40.3396 10.1556 41.7187 11.9648 41.7187H14.3267C14.2456 41.7187 14.0636 42.3151 14.0636 42.608V48.9829C14.0636 50.6491 15.6611 52 17.3727 52C19.0852 52 20.6818 50.6491 20.6818 48.9829V42.608C20.6818 42.3151 20.3625 41.7187 20.2839 41.7187H26.045C25.9664 41.7187 25.6455 42.3151 25.6455 42.608V48.9829C25.6455 50.6491 27.2396 52 28.9512 52C30.667 52 32.2636 50.6491 32.2636 48.9829V42.608C32.2636 42.3151 32.0825 41.7187 32.0014 41.7187H34.3666C36.1758 41.7187 37.2273 40.3396 37.2273 38.5816V16.0732H8.91056H9.1ZM3.30909 16.4397C1.59581 16.4397 0 17.7914 0 19.4567V32.3746C0 34.0407 1.59581 35.3917 3.30909 35.3917C5.02155 35.3917 6.61818 34.0407 6.61818 32.3746V19.4576C6.61818 17.7914 5.02155 16.4397 3.30909 16.4397ZM30.2856 4.34907L30.8631 3.50194L31.4413 2.66474L32.7294 0.782696C32.8907 0.549405 32.8237 0.238351 32.5863 0.0853053C32.3513 -0.0710493 32.0262 -0.00569478 31.8723 0.225942L29.9059 3.09079L29.3144 3.95363C27.4456 3.24714 25.3634 2.85336 23.1636 2.85336C20.9689 2.85336 18.8825 3.24797 17.0137 3.95363L16.4255 3.09162L15.8439 2.24532L14.4624 0.227596C14.3027 -0.0048675 13.9817 -0.0660857 13.7435 0.0869598C13.5077 0.240833 13.4424 0.551887 13.5995 0.784351L14.8868 2.66722L15.465 3.50525L16.0458 4.3499C11.6579 6.33949 8.68885 10.2823 8.68885 14.4186H37.6393C37.6393 10.2823 34.671 6.33949 30.2856 4.34907ZM16.9599 10.4022C16.1004 10.4022 15.408 9.72635 15.408 8.89163C15.408 8.05691 16.1004 7.38434 16.9599 7.38434C17.817 7.38434 18.5111 8.05691 18.5111 8.89163C18.5111 9.72635 17.8178 10.4022 16.9599 10.4022ZM29.369 10.4022C28.5103 10.4022 27.8162 9.72635 27.8162 8.89163C27.8162 8.05691 28.5103 7.38434 29.369 7.38434C30.2261 7.38434 30.9202 8.05691 30.9202 8.89163C30.9202 9.72635 30.2261 10.4022 29.369 10.4022Z" fill="#57C927"/>
<path d="M3.45635 23.1836C2.16663 23.1836 0.827273 21.9666 0 20.0366V32.3754C0 34.0415 1.59581 35.3925 3.30909 35.3925C5.02155 35.3925 6.61818 34.0415 6.61818 32.3754V20.6802C5.79091 22.2305 4.59467 23.1836 3.45635 23.1836Z" fill="#1CB71C"/>
<path d="M43.0181 16.4395C41.3048 16.4395 39.709 17.7912 39.709 19.4565V32.3744C39.709 34.0405 41.3048 35.3914 43.0181 35.3914C44.7305 35.3914 46.3272 34.0405 46.3272 32.3744V19.4573C46.3272 17.7912 44.7305 16.4395 43.0181 16.4395Z" fill="#57C927"/>
<path d="M43.1656 23.1838C41.8758 23.1838 40.5365 21.9669 39.7092 20.0368V32.3756C39.7092 34.0417 41.305 35.3927 43.0183 35.3927C44.7308 35.3927 46.3274 34.0417 46.3274 32.3756V20.6804C45.5001 22.2308 44.3039 23.1838 43.1656 23.1838ZM23.1638 18.5453C16.62 18.5453 10.7547 17.7883 9.10012 16.7137V38.5818C9.10012 40.3398 10.1557 41.7188 11.965 41.7188H14.3268C14.2458 41.7188 14.0638 42.3153 14.0638 42.6081V48.9831C14.0638 50.6492 15.6612 52.0002 17.3728 52.0002C19.0853 52.0002 20.6819 50.6492 20.6819 48.9831V42.6081C20.6819 42.3153 20.3626 41.7188 20.284 41.7188H26.0452C25.9666 41.7188 25.6456 42.3153 25.6456 42.6081V48.9831C25.6456 50.6492 27.2397 52.0002 28.9514 52.0002C30.6671 52.0002 32.2638 50.6492 32.2638 48.9831V42.6081C32.2638 42.3153 32.0826 41.7188 32.0015 41.7188H34.3667C36.1759 41.7188 37.2274 40.3398 37.2274 38.5818V16.7128C35.5729 17.7875 29.7083 18.5453 23.1638 18.5453ZM30.9203 8.89098C30.9203 9.7257 30.2262 10.4016 29.3691 10.4016C28.5104 10.4016 27.8163 9.7257 27.8163 8.89098C27.8163 8.43846 28.024 8.03889 28.3475 7.76258C26.7119 7.48958 24.9722 7.33984 23.1638 7.33984C21.3553 7.33984 19.6164 7.48958 17.9801 7.76258C18.3044 8.03806 18.512 8.43846 18.512 8.89098C18.512 9.7257 17.8179 10.4016 16.9609 10.4016C16.1013 10.4016 15.4089 9.7257 15.4089 8.89098C15.4089 8.67754 15.4561 8.47486 15.538 8.29038C13.0578 8.94227 10.9267 9.89364 9.31852 11.0626C8.91316 12.1273 8.68896 13.5915 8.68896 14.4188H37.6394C37.6394 13.5915 37.4152 12.1281 37.0107 11.0642C35.4033 9.89364 33.2714 8.94062 30.7929 8.28873C30.8765 8.47851 30.9199 8.68358 30.9203 8.89098Z" fill="#1CB71C"/>
<path d="M23.1637 27.1776C17.5904 27.1776 12.4092 26.0782 9.1001 24.2764V38.5816C9.1001 40.3395 10.1557 41.7186 11.9649 41.7186H14.3268C14.2457 41.7186 14.0637 42.3151 14.0637 42.6079V48.9829C14.0637 50.649 15.6612 51.9999 17.3728 51.9999C19.0853 51.9999 20.6819 50.649 20.6819 48.9829V42.6079C20.6819 42.3151 20.3626 41.7186 20.284 41.7186H26.0451C25.9665 41.7186 25.6456 42.3151 25.6456 42.6079V48.9829C25.6456 50.649 27.2397 51.9999 28.9513 51.9999C30.6671 51.9999 32.2637 50.649 32.2637 48.9829V42.6079C32.2637 42.3151 32.0826 41.7186 32.0015 41.7186H34.3667C36.1759 41.7186 37.2274 40.3395 37.2274 38.5816V24.2764C33.9183 26.079 28.7371 27.1776 23.1637 27.1776Z" fill="#049E42"/>
</svg>
