<svg width="44" height="48" viewBox="0 0 44 48" fill="none" xmlns="http://www.w3.org/2000/svg">
<path d="M42.6256 7.6501L22.0423 0.0667703C21.8003 -0.0222568 21.5345 -0.0222568 21.2926 0.0667703L0.709253 7.6501C0.481089 7.73405 0.287795 7.89231 0.160465 8.09942C0.0331346 8.30653 -0.0208295 8.55045 0.00725311 8.79194L3.25725 36.9586C3.27661 37.1287 3.33624 37.2917 3.4312 37.4341C3.52615 37.5766 3.6537 37.6943 3.80325 37.7776L21.1366 47.5276C21.2985 47.6191 21.4814 47.6672 21.6674 47.6672C21.8534 47.6672 22.0363 47.6191 22.1983 47.5276L39.5316 37.7776C39.6811 37.6943 39.8087 37.5766 39.9036 37.4341C39.9986 37.2917 40.0582 37.1287 40.0776 36.9586L43.3276 8.79194C43.3557 8.55045 43.3017 8.30653 43.1744 8.09942C43.047 7.89231 42.8538 7.73405 42.6256 7.6501Z" fill="black"/>
<path d="M37.9888 36.1591L21.6673 45.3415L5.3458 36.1591L2.2583 9.38779L21.6673 2.23779L41.0763 9.38779L37.9888 36.1591Z" fill="#FF1744"/>
<path d="M21.2881 2.37863V45.1291L21.6673 45.3415L37.9888 36.1591L41.0763 9.38779L21.6673 2.23779L21.2881 2.37863Z" fill="black" fill-opacity="0.0627451"/>
<path d="M20.6706 7.1628L8.75398 35.3295C8.68932 35.4618 8.65234 35.606 8.64529 35.7531C8.63823 35.9003 8.66126 36.0473 8.71297 36.1852C8.76467 36.3232 8.84397 36.4491 8.946 36.5554C9.04804 36.6616 9.17067 36.7459 9.3064 36.8032C9.44213 36.8604 9.58811 36.8894 9.73542 36.8883C9.88272 36.8872 10.0283 36.8561 10.1631 36.7968C10.298 36.7376 10.4194 36.6514 10.5198 36.5437C10.6202 36.4359 10.6977 36.3088 10.7473 36.1701L14.1338 28.1665H29.2008L32.5873 36.1701C32.6697 36.3665 32.8082 36.5342 32.9855 36.6522C33.1628 36.7701 33.371 36.8331 33.584 36.8331C33.7292 36.8324 33.8727 36.8029 34.0065 36.7465C34.2701 36.6342 34.4786 36.4221 34.5862 36.1565C34.6938 35.891 34.6918 35.5936 34.5806 35.3295L22.664 7.1628C22.5683 6.98134 22.4249 6.82944 22.2493 6.72348C22.0737 6.61752 21.8724 6.56152 21.6673 6.56152C21.4622 6.56152 21.261 6.61752 21.0853 6.72348C20.9097 6.82944 20.7663 6.98134 20.6706 7.1628ZM28.2822 25.9998H15.0525L21.6673 10.363L28.2822 25.9998Z" fill="white"/>
<path d="M42.6256 7.6501L22.0423 0.0667703C21.8003 -0.0222568 21.5345 -0.0222568 21.2926 0.0667703L0.709253 7.6501C0.481089 7.73405 0.287795 7.89231 0.160465 8.09942C0.0331346 8.30653 -0.0208295 8.55045 0.00725311 8.79194L3.25725 36.9586C3.27661 37.1287 3.33624 37.2917 3.4312 37.4341C3.52615 37.5766 3.6537 37.6943 3.80325 37.7776L21.1366 47.5276C21.2985 47.6191 21.4814 47.6672 21.6674 47.6672C21.8534 47.6672 22.0363 47.6191 22.1983 47.5276L39.5316 37.7776C39.6811 37.6943 39.8087 37.5766 39.9036 37.4341C39.9986 37.2917 40.0582 37.1287 40.0776 36.9586L43.3276 8.79194C43.3557 8.55045 43.3017 8.30653 43.1744 8.09942C43.047 7.89231 42.8538 7.73405 42.6256 7.6501Z" fill="url(#paint0_linear_169_7169)"/>
<defs>
<linearGradient id="paint0_linear_169_7169" x1="-1.64375" y1="11.9553" x2="42.2529" y2="32.4238" gradientUnits="userSpaceOnUse">
<stop stop-color="white" stop-opacity="0.2"/>
<stop offset="1" stop-color="white" stop-opacity="0"/>
</linearGradient>
</defs>
</svg>
