<svg width="52" height="52" viewBox="0 0 52 52" fill="none" xmlns="http://www.w3.org/2000/svg">
<path d="M26 1.0835C11.635 1.0835 0 12.5235 0 26.6328C0 37.9233 7.449 47.4978 17.7775 50.8735C19.0775 51.114 19.5542 50.3232 19.5542 49.645C19.5542 49.0383 19.5325 47.4307 19.5217 45.3008C12.2893 46.8413 10.764 41.8732 10.764 41.8732C9.581 38.9243 7.8715 38.1357 7.8715 38.1357C5.51633 36.5518 8.0535 36.5843 8.0535 36.5843C10.6643 36.762 12.0358 39.2168 12.0358 39.2168C14.3542 43.1233 18.122 41.9945 19.6083 41.3423C19.8423 39.6892 20.5118 38.5647 21.255 37.9255C15.4808 37.2863 9.412 35.0893 9.412 25.3003C9.412 22.5118 10.4195 20.2325 12.0878 18.445C11.7953 17.7993 10.9178 15.2015 12.3153 11.6828C12.3153 11.6828 14.4928 10.9982 19.4653 14.3023C21.5453 13.7347 23.7553 13.453 25.9653 13.44C28.1753 13.453 30.3853 13.7347 32.4653 14.3023C37.4053 10.9982 39.5828 11.6828 39.5828 11.6828C40.9803 15.2015 40.1028 17.7993 39.8428 18.445C41.5003 20.2325 42.5078 22.5118 42.5078 25.3003C42.5078 35.1153 36.4303 37.2755 30.6453 37.9038C31.5553 38.6708 32.4003 40.2373 32.4003 42.6315C32.4003 46.0505 32.3678 48.7978 32.3678 49.6277C32.3678 50.2972 32.8228 51.0967 34.1553 50.841C44.5575 47.487 52 37.906 52 26.6328C52 12.5235 40.3585 1.0835 26 1.0835Z" fill="black"/>
</svg>
