<svg width="40" height="47" viewBox="0 0 40 47" fill="none" xmlns="http://www.w3.org/2000/svg">
<path d="M28.7778 0C26.2812 0.172682 23.3632 1.77073 21.6626 3.85169C20.1114 5.73949 18.8353 8.54338 19.3329 11.2683C22.0607 11.3531 24.8793 9.71704 26.5125 7.60095C28.0403 5.6312 29.1964 2.84487 28.7778 0Z" fill="black"/>
<path d="M38.6449 15.7116C36.2478 12.7058 32.879 10.9614 29.6975 10.9614C25.4975 10.9614 23.7209 12.9721 20.8029 12.9721C17.7941 12.9721 15.5082 10.9673 11.876 10.9673C8.3082 10.9673 4.50916 13.1477 2.10037 16.8765C-1.28598 22.1272 -0.706465 31.9993 4.78136 40.408C6.74526 43.4167 9.36771 46.8001 12.798 46.8294C15.8507 46.8587 16.7111 44.8714 20.8468 44.8509C24.9824 44.8275 25.7668 46.8557 28.8136 46.8235C32.2468 46.7972 35.0127 43.048 36.9766 40.0392C38.3844 37.8822 38.9083 36.7963 40 34.3612C32.0595 31.3378 30.7863 20.0462 38.6449 15.7116Z" fill="black"/>
</svg>
