<svg width="38" height="52" viewBox="0 0 38 52" fill="none" xmlns="http://www.w3.org/2000/svg">
<path d="M4.87422 30.9307C4.87422 29.4913 10.3356 28.6837 12.8789 28.4874L13.1221 28.6279C12.1452 28.8058 8.22508 29.4971 8.22508 30.399C8.22508 31.3807 14.2375 32.024 17.7269 32.024C23.6536 32.024 27.6825 31.1269 28.7661 30.8318L30.2824 31.7136C29.2439 32.2222 24.7873 33.5539 17.7269 33.5539C9.88085 33.5538 4.87422 32.0192 4.87422 30.9307ZM16.8326 51.142C13.7269 51.1689 9.93559 50.9121 6.74622 50.3766L6.45007 50.5458C9.62786 51.4775 14.0518 52.04 18.9124 51.9977C28.4584 51.9151 36.1977 49.5477 36.3506 46.6988L36.241 46.6344C35.6006 47.4151 31.4718 51.0141 16.8326 51.142ZM17.6451 49.3074C25.4584 49.2392 34.1997 47.7104 34.1775 45.1402C34.1728 44.6739 33.8698 44.3546 33.6064 44.1624L33.4775 44.2364C32.7554 46.2267 26.6517 47.6979 17.6325 47.7758C11.8134 47.8268 3.75196 46.4325 3.73754 44.8219C3.72403 43.2066 7.55669 42.3191 7.55669 42.3191L7.28552 42.1643C4.71731 42.5182 -0.0152988 43.748 3.71807e-05 45.5239C0.0223809 48.091 10.8991 49.366 17.6451 49.3074ZM35.2468 31.6183C35.0892 34.6327 32.3045 36.5096 29.5209 38.0951L29.7729 38.2413C32.7431 37.4048 38.0429 34.9721 37.6045 31.2318C37.3862 29.3674 35.6814 28.0347 33.4593 28.0347C32.767 28.0347 32.1517 28.1567 31.6526 28.3087L31.6507 28.3135L31.5448 28.5788C33.5333 28.1894 35.3497 29.6414 35.2468 31.6183ZM12.2962 40.5748C11.3895 40.7556 9.41356 41.2095 9.41356 42.1699C9.41356 43.5007 13.6404 44.5209 17.7221 44.5209C23.3384 44.5209 25.6393 43.0758 25.7431 43.0007L23.4076 41.6497C22.4143 41.8863 20.7412 42.2574 17.7279 42.2574C14.3654 42.2574 12.1741 41.6824 12.1741 41.0516C12.1741 40.918 12.2578 40.7584 12.4135 40.643L12.2962 40.5748ZM26.0931 36.0884C24.8017 36.4538 21.8921 37.0499 17.7316 37.0499C13.649 37.0499 10.3135 36.3518 10.3028 35.5288C10.2951 34.9806 10.9576 34.7423 10.9576 34.7423L10.8403 34.674C8.88462 35.0192 7.06919 35.5538 7.07884 36.3538C7.09712 37.8047 12.647 38.8941 17.7239 38.8941C22.0402 38.8941 26.1853 38.1701 28.0555 37.2211L26.0931 36.0884Z" fill="#427595"/>
<path d="M24.9798 3.71922C24.9798 11.7201 14.0155 14.7815 14.0155 20.4699C14.0155 24.4632 16.6636 26.967 18.1289 28.5505L18.0097 28.6198C16.1597 27.4621 11.2935 24.5545 11.2935 19.7517C11.2935 13.0085 23.8875 9.78646 23.8875 2.12794C23.8875 1.18564 23.7481 0.462617 23.6501 0.073125L23.777 0C24.176 0.501008 24.9798 1.7548 24.9798 3.71922ZM28.5856 10.8046L28.4539 10.7297C26.0684 11.5287 18.7222 14.4286 18.7222 19.8343C18.7222 22.891 21.7078 24.5852 21.7078 27.4515C21.7078 28.4746 21.1299 29.4332 20.6607 30.0062L20.8962 30.1427C22.1394 29.3351 24.3394 27.5861 24.3394 25.3285C24.3394 23.416 21.6933 21.118 21.6933 18.6603C21.6934 14.7873 26.799 11.7489 28.5856 10.8046Z" fill="#DE8E2F"/>
</svg>
