<svg width="52" height="28" viewBox="0 0 52 28" fill="none" xmlns="http://www.w3.org/2000/svg">
<path d="M0 13.677C0 21.2305 11.6409 27.354 25.9999 27.354C40.3591 27.354 52 21.2305 52 13.677C52 6.12361 40.3591 1.90735e-05 25.9999 1.90735e-05C11.6409 0.000146866 0 6.12361 0 13.677Z" fill="url(#paint0_radial_102_5858)"/>
<path d="M25.9999 26.3387C39.7982 26.3387 50.9843 20.6699 50.9843 13.6771C50.9843 6.68455 39.7982 1.01562 25.9999 1.01562C12.2016 1.01562 1.01562 6.68455 1.01562 13.6771C1.01562 20.67 12.2017 26.3387 25.9999 26.3387Z" fill="#777BB3"/>
<path d="M14.1261 15.247C15.2606 15.247 16.1076 15.0379 16.6435 14.6253C17.1737 14.2171 17.5398 13.5099 17.7318 12.5233C17.9108 11.6011 17.8426 10.9573 17.5292 10.6099C17.2087 10.255 16.5162 10.075 15.4703 10.075H13.6571L12.6519 15.2472H14.1261V15.247ZM8.1957 21.6181C8.15408 21.6182 8.11297 21.609 8.07532 21.5913C8.03766 21.5735 8.0044 21.5477 7.97793 21.5156C7.95146 21.4835 7.93242 21.4459 7.9222 21.4055C7.91198 21.3652 7.91083 21.3231 7.91882 21.2822L10.5829 7.57594C10.5954 7.51167 10.6299 7.45375 10.6804 7.4121C10.7309 7.37046 10.7944 7.34767 10.8598 7.34766H16.6013C18.4057 7.34766 19.7488 7.83768 20.5929 8.80409C21.4417 9.77559 21.7037 11.1337 21.3718 12.8404C21.2369 13.5356 21.0045 14.1814 20.6816 14.7597C20.3582 15.3385 19.9307 15.8739 19.411 16.3517C18.7887 16.934 18.0847 17.3563 17.32 17.6048C16.5674 17.8499 15.6009 17.9742 14.4473 17.9742H12.1224L11.4584 21.3898C11.4459 21.4541 11.4114 21.512 11.3609 21.5537C11.3104 21.5953 11.247 21.6181 11.1815 21.6181H8.1957Z" fill="black"/>
<path d="M13.8902 10.3569H15.4707C16.7328 10.3569 17.1713 10.6339 17.3203 10.7988C17.5674 11.0728 17.614 11.6507 17.4553 12.4697C17.2768 13.3865 16.9459 14.0366 16.4718 14.4017C15.9864 14.7754 15.1971 14.9647 14.1263 14.9647H12.9947L13.8902 10.3569ZM16.6013 7.06543H10.8598C10.7288 7.06543 10.602 7.11099 10.5009 7.19429C10.3999 7.27759 10.331 7.39345 10.306 7.52199L7.64217 21.2284C7.62632 21.3101 7.62873 21.3942 7.64922 21.4749C7.66972 21.5555 7.70779 21.6306 7.76071 21.6948C7.81363 21.759 7.8801 21.8107 7.95534 21.8462C8.03058 21.8817 8.11275 21.9001 8.19594 21.9001H11.1816C11.3126 21.9002 11.4395 21.8546 11.5406 21.7713C11.6416 21.688 11.7106 21.5721 11.7356 21.4436L12.3551 18.2562H14.4474C15.6306 18.2562 16.6266 18.1271 17.4077 17.8728C18.2109 17.6119 18.9498 17.1694 19.6039 16.5577C20.1448 16.0602 20.5903 15.5015 20.9279 14.8972C21.2656 14.2929 21.5082 13.6188 21.6489 12.894C21.9983 11.0975 21.7145 9.659 20.8055 8.61846C19.9054 7.58799 18.4907 7.06543 16.6013 7.06543ZM12.3101 15.529H14.1263C15.3302 15.529 16.2267 15.3022 16.8159 14.8487C17.4051 14.3951 17.8025 13.6379 18.009 12.5771C18.2065 11.5585 18.1165 10.8397 17.7391 10.4208C17.361 10.002 16.605 9.79262 15.4707 9.79262H13.425L12.3101 15.529ZM16.6013 7.62968C18.3285 7.62968 19.5886 8.08299 20.3805 8.98961C21.1725 9.89623 21.411 11.1617 21.0951 12.7864C20.965 13.4557 20.745 14.0677 20.4353 14.6219C20.1253 15.1766 19.7205 15.6839 19.2202 16.144C18.6239 16.7019 17.9618 17.0995 17.2329 17.3363C16.5041 17.5737 15.5758 17.6919 14.4474 17.6919H11.8898L11.1816 21.3359H8.19594L10.8598 7.62978L16.6013 7.62968Z" fill="white"/>
<path d="M28.2177 17.9742C28.176 17.9742 28.1349 17.965 28.0973 17.9472C28.0596 17.9295 28.0264 17.9036 27.9999 17.8715C27.9734 17.8394 27.9544 17.8018 27.9441 17.7615C27.9339 17.7212 27.9327 17.6791 27.9407 17.6382L29.1192 11.5737C29.2312 10.9971 29.2036 10.5831 29.0413 10.4082C28.9421 10.3012 28.6437 10.122 27.7618 10.122H25.6269L24.1454 17.7459C24.1329 17.8102 24.0984 17.8681 24.0479 17.9097C23.9973 17.9514 23.9339 17.9742 23.8684 17.9742H20.9062C20.8646 17.9742 20.8235 17.965 20.7858 17.9472C20.7482 17.9295 20.7149 17.9036 20.6885 17.8715C20.662 17.8394 20.6429 17.8018 20.6327 17.7615C20.6225 17.7212 20.6213 17.6791 20.6292 17.6382L23.2931 3.9319C23.3056 3.86762 23.3401 3.8097 23.3906 3.76806C23.4411 3.72641 23.5046 3.70363 23.57 3.70361H26.5322C26.5739 3.70356 26.615 3.71273 26.6527 3.73046C26.6903 3.7482 26.7236 3.77405 26.7501 3.80618C26.7766 3.8383 26.7956 3.87589 26.8058 3.91624C26.816 3.9566 26.8172 3.99872 26.8092 4.03958L26.1664 7.34759H28.463C30.2126 7.34759 31.3991 7.6561 32.09 8.29062C32.7944 8.93794 33.014 9.97309 32.7433 11.3675L31.5038 17.7456C31.4913 17.8098 31.4568 17.8678 31.4063 17.9094C31.3558 17.9511 31.2924 17.9738 31.2269 17.9739H28.2177V17.9742Z" fill="black"/>
<path d="M26.5321 3.42139H23.57C23.439 3.42139 23.3121 3.46694 23.2111 3.55024C23.11 3.63354 23.0411 3.7494 23.0161 3.87795L20.3521 17.5844C20.3363 17.666 20.3387 17.7502 20.3592 17.8309C20.3797 17.9116 20.4178 17.9867 20.4707 18.0509C20.5237 18.1151 20.5902 18.1668 20.6654 18.2022C20.7407 18.2377 20.8229 18.2561 20.9061 18.2561H23.8682C23.9992 18.2561 24.1261 18.2105 24.2271 18.1272C24.3282 18.0439 24.3972 17.9281 24.4222 17.7995L25.8594 10.4039H27.7617C28.6421 10.4039 28.827 10.592 28.8343 10.6C28.8877 10.6575 28.958 10.9236 28.8421 11.5198L27.6636 17.5843C27.6477 17.6659 27.6501 17.7501 27.6706 17.8308C27.6911 17.9114 27.7292 17.9866 27.7822 18.0508C27.8351 18.115 27.9016 18.1667 27.9769 18.2021C28.0522 18.2376 28.1344 18.256 28.2176 18.256H31.2268C31.3578 18.256 31.4847 18.2104 31.5858 18.1271C31.6868 18.0438 31.7558 17.928 31.7808 17.7994L33.0201 11.4212C33.3109 9.92403 33.0621 8.80092 32.2808 8.08272C31.5352 7.39808 30.2864 7.06526 28.4629 7.06526H26.5085L27.086 4.09312C27.1019 4.01145 27.0995 3.92729 27.079 3.84666C27.0586 3.76603 27.0205 3.69091 26.9677 3.62669C26.9147 3.56249 26.8482 3.5108 26.7729 3.47531C26.6976 3.43982 26.6154 3.42141 26.5321 3.42139ZM26.5321 3.98564L25.8239 7.62961H28.4629C30.1235 7.62961 31.2686 7.91942 31.899 8.49841C32.5293 9.07761 32.7181 10.0163 32.4663 11.3138L31.2268 17.6918H28.2176L29.396 11.6275C29.5301 10.9375 29.4808 10.467 29.248 10.2161C29.0151 9.96521 28.5196 9.83963 27.7618 9.83963H25.3943L23.8684 17.6918H20.9062L23.5701 3.98564H26.5321Z" fill="white"/>
<path d="M37.4304 15.2467C38.5649 15.2467 39.412 15.0375 39.9478 14.625C40.478 14.2169 40.8442 13.5097 41.0363 12.5229C41.2152 11.6007 41.1471 10.9569 40.8336 10.6095C40.5132 10.2546 39.8206 10.0747 38.7749 10.0747H36.9618L35.9566 15.2469H37.4304V15.2467ZM31.5 21.6177C31.4583 21.6177 31.4172 21.6085 31.3796 21.5908C31.3419 21.5731 31.3087 21.5472 31.2822 21.5151C31.2557 21.483 31.2367 21.4454 31.2264 21.4051C31.2162 21.3647 31.215 21.3226 31.223 21.2818L33.8869 7.57545C33.8994 7.51116 33.9339 7.45323 33.9845 7.41158C34.035 7.36993 34.0985 7.34716 34.164 7.34717H39.9054C41.7099 7.34717 43.0529 7.83719 43.8972 8.8036C44.7458 9.775 45.0078 11.133 44.6761 12.8398C44.5408 13.5351 44.3086 14.1809 43.9856 14.7591C43.6623 15.338 43.2348 15.8734 42.7151 16.3513C42.0929 16.9335 41.3887 17.3558 40.624 17.6042C39.8715 17.8494 38.905 17.9737 37.7513 17.9737H35.4264L34.7628 21.3894C34.7503 21.4537 34.7158 21.5117 34.6653 21.5533C34.6147 21.595 34.5512 21.6177 34.4857 21.6177H31.5Z" fill="black"/>
<path d="M37.1943 10.3569H38.7749C40.037 10.3569 40.4754 10.6339 40.6243 10.7988C40.8716 11.0728 40.9182 11.6507 40.7594 12.4695C40.5809 13.3865 40.2499 14.0366 39.776 14.4017C39.2905 14.7754 38.5013 14.9647 37.4304 14.9647H36.2989L37.1943 10.3569ZM39.9054 7.06543H34.1641C34.0331 7.06543 33.9063 7.11099 33.8052 7.19429C33.7042 7.27759 33.6353 7.39345 33.6103 7.52199L30.9464 21.2284C30.9305 21.3101 30.9329 21.3942 30.9534 21.4749C30.9739 21.5555 31.012 21.6306 31.0649 21.6948C31.1178 21.759 31.1843 21.8107 31.2595 21.8462C31.3348 21.8817 31.4169 21.9001 31.5001 21.9001H34.4859C34.6169 21.9001 34.7437 21.8545 34.8448 21.7713C34.9458 21.688 35.0148 21.5721 35.0398 21.4436L35.6592 18.2562H37.7515C38.9347 18.2562 39.9307 18.1271 40.7118 17.8728C41.515 17.6119 42.2541 17.1692 42.9082 16.5575C43.4491 16.06 43.8945 15.5015 44.2321 14.8972C44.5699 14.2929 44.8125 13.6188 44.9533 12.894C45.3026 11.0974 45.0188 9.6588 44.1098 8.61836C43.2096 7.58799 41.7951 7.06553 39.9056 7.06553M35.6145 15.529H37.4306C38.6344 15.529 39.531 15.3022 40.1202 14.8487C40.7095 14.3951 41.1067 13.6379 41.3132 12.5771C41.5109 11.5585 41.4209 10.8397 41.0433 10.4208C40.6653 10.002 39.9093 9.79262 38.775 9.79262H36.7292L35.6145 15.529ZM39.9056 7.62968C41.6328 7.62968 42.8928 8.08299 43.6848 8.98961C44.4769 9.89623 44.7151 11.1617 44.3993 12.7864C44.2692 13.4557 44.0493 14.0677 43.7395 14.6219C43.4296 15.1766 43.0247 15.6839 42.5244 16.144C41.9282 16.7019 41.266 17.0995 40.5372 17.3363C39.8083 17.5737 38.8801 17.6919 37.7516 17.6919H35.1941L34.486 21.3359H31.5003L34.1642 7.62978L39.9056 7.62968Z" fill="white"/>
<defs>
<radialGradient id="paint0_radial_102_5858" cx="0" cy="0" r="1" gradientUnits="userSpaceOnUse" gradientTransform="translate(15.6194 4.8394) scale(42.6858 42.6858)">
<stop stop-color="#AEB2D5"/>
<stop offset="0.3" stop-color="#AEB2D5"/>
<stop offset="0.75" stop-color="#484C89"/>
<stop offset="1" stop-color="#484C89"/>
</radialGradient>
</defs>
</svg>
