<svg width="52" height="52" viewBox="0 0 52 52" fill="none" xmlns="http://www.w3.org/2000/svg">
<g clip-path="url(#clip0_102_5886)">
<path d="M25.694 0.000425057C23.5731 0.0102766 21.5479 0.191159 19.7659 0.506511C14.5162 1.43398 13.563 3.37514 13.563 6.95512V11.6832H25.9686V13.2591H8.90731C5.30194 13.2591 2.14487 15.4261 1.15748 19.5487C0.0184551 24.274 -0.0320215 27.2227 1.15748 32.1567C2.03935 35.8293 4.14524 38.4462 7.75061 38.4462H12.0159V32.7783C12.0159 28.6836 15.5587 25.0718 19.7659 25.0718H32.157C35.6063 25.0718 38.3597 22.2318 38.3597 18.7679V6.95512C38.3597 3.5932 35.5235 1.06764 32.157 0.506511C30.0259 0.151753 27.8147 -0.00942651 25.694 0.000425057ZM18.985 3.80313C20.2665 3.80313 21.3129 4.86669 21.3129 6.17431C21.3129 7.47736 20.2665 8.53107 18.985 8.53107C17.6991 8.53107 16.6572 7.47736 16.6572 6.17431C16.6572 4.86659 17.6991 3.80313 18.985 3.80313Z" fill="url(#paint0_linear_102_5886)"/>
<path d="M39.9068 13.259V18.7677C39.9068 23.0386 36.2859 26.6332 32.1569 26.6332H19.7658C16.3717 26.6332 13.563 29.5381 13.563 32.9372V44.75C13.563 48.1119 16.4865 50.0894 19.7658 51.054C23.6927 52.2086 27.4585 52.4173 32.1569 51.054C35.2801 50.1497 38.3597 48.3299 38.3597 44.75V40.0219H25.9685V38.4459H44.5625C48.1679 38.4459 49.5114 35.9311 50.7653 32.1564C52.0606 28.2704 52.0054 24.5334 50.7653 19.5484C49.8743 15.9591 48.1725 13.2588 44.5625 13.2588H39.9068V13.259ZM32.9378 43.174C34.2237 43.174 35.2656 44.2277 35.2656 45.5308C35.2656 46.8385 34.2237 47.9021 32.9378 47.9021C31.6563 47.9021 30.6099 46.8385 30.6099 45.5308C30.6098 44.2277 31.6562 43.174 32.9378 43.174Z" fill="url(#paint1_linear_102_5886)"/>
</g>
<defs>
<linearGradient id="paint0_linear_102_5886" x1="-0.93167" y1="1.47881" x2="27.6807" y2="25.8792" gradientUnits="userSpaceOnUse">
<stop stop-color="#5A9FD4"/>
<stop offset="1" stop-color="#306998"/>
</linearGradient>
<linearGradient id="paint1_linear_102_5886" x1="38.4461" y1="41.0466" x2="28.1854" y2="26.6573" gradientUnits="userSpaceOnUse">
<stop stop-color="#FFD43B"/>
<stop offset="1" stop-color="#FFE873"/>
</linearGradient>
<clipPath id="clip0_102_5886">
<rect width="52" height="52" fill="white"/>
</clipPath>
</defs>
</svg>
