<svg width="64" height="64" viewBox="0 0 64 64" fill="none" xmlns="http://www.w3.org/2000/svg">
<circle cx="32" cy="32" r="32" fill="#EFEFEF"/>
<path d="M21.7632 48.1971C21.7067 48.2741 21.6329 48.3367 21.5477 48.3798C21.4625 48.4229 21.3684 48.4453 21.2729 48.4452C21.1438 48.4453 21.018 48.404 20.914 48.3275C18.4808 46.5425 16.4625 44.1864 15.0777 41.5139C13.6461 38.7514 12.8894 35.6357 12.8894 32.5036C12.8894 30.1372 13.3042 27.8388 14.1209 25.6534L12.6896 26.2409C12.5406 26.302 12.3733 26.3015 12.2247 26.2394C12.0761 26.1772 11.9582 26.0586 11.897 25.9096C11.8359 25.7605 11.8364 25.5933 11.8986 25.4447C11.9607 25.296 12.0793 25.1782 12.2284 25.117L15.0116 23.9747C15.1606 23.9136 15.3278 23.9141 15.4765 23.9762C15.6251 24.0384 15.7429 24.157 15.8041 24.306L16.9464 27.0892C17.0076 27.2383 17.0071 27.4055 16.9449 27.5541C16.8828 27.7027 16.7642 27.8206 16.6151 27.8818C16.4661 27.9429 16.2989 27.9424 16.1502 27.8803C16.0016 27.8181 15.8837 27.6995 15.8226 27.5504L15.2396 26.1303C14.4867 28.164 14.1042 30.3022 14.1042 32.5036C14.1042 38.3405 16.9186 43.8898 21.6327 47.3481C21.7626 47.4434 21.8493 47.5863 21.8738 47.7455C21.8982 47.9048 21.8584 48.0672 21.7632 48.1971ZM53.1096 39.0976C53.0484 38.9486 52.9305 38.83 52.7819 38.7679C52.6333 38.7058 52.4661 38.7052 52.3171 38.7663L50.8861 39.3536C51.7026 37.1687 52.1173 34.8703 52.1173 32.5035C52.1173 29.3714 51.3608 26.2556 49.9294 23.4931C48.5445 20.8204 46.5265 18.4641 44.0935 16.6793C43.9635 16.5862 43.8021 16.548 43.6442 16.5732C43.4863 16.5984 43.3447 16.6848 43.2501 16.8137C43.1555 16.9426 43.1155 17.1037 43.1389 17.2618C43.1623 17.42 43.2471 17.5626 43.3749 17.6586C48.0884 21.1166 50.9024 26.6661 50.9024 32.5034C50.9024 34.7054 50.52 36.8437 49.7671 38.8774L49.184 37.4567C49.0566 37.1463 48.7017 36.9977 48.3914 37.1253C48.3176 37.1556 48.2505 37.2002 48.1939 37.2564C48.1374 37.3126 48.0924 37.3794 48.0616 37.453C48.0309 37.5266 48.0149 37.6055 48.0146 37.6853C48.0144 37.7651 48.0298 37.8441 48.0601 37.9179L49.2024 40.7011C49.2636 40.8501 49.3815 40.9687 49.5301 41.0308C49.6787 41.093 49.8459 41.0935 49.995 41.0324L52.7782 39.8901C52.852 39.8598 52.9191 39.8153 52.9757 39.7591C53.0323 39.7029 53.0773 39.6361 53.108 39.5625C53.1388 39.4889 53.1548 39.41 53.1551 39.3302C53.1553 39.2505 53.1399 39.1714 53.1096 39.0976ZM48.1971 43.2447C48.1328 43.1975 48.0599 43.1634 47.9824 43.1444C47.9049 43.1255 47.8245 43.1219 47.7456 43.134C47.6668 43.1461 47.5911 43.1737 47.5229 43.215C47.4547 43.2564 47.3953 43.3108 47.3481 43.3751C43.8901 48.0885 38.3406 50.9026 32.5034 50.9026C30.3014 50.9026 28.1633 50.5202 26.1296 49.7673L27.5501 49.1843C27.6992 49.1231 27.8178 49.0053 27.8799 48.8566C27.9421 48.708 27.9426 48.5408 27.8814 48.3918C27.8203 48.2427 27.7024 48.1241 27.5538 48.062C27.4052 47.9998 27.2379 47.9993 27.0889 48.0604L24.3057 49.2028C24.2319 49.233 24.1648 49.2776 24.1082 49.3338C24.0516 49.39 24.0067 49.4568 23.9759 49.5304C23.9451 49.604 23.9292 49.6829 23.9289 49.7627C23.9286 49.8425 23.9441 49.9215 23.9744 49.9953L25.1168 52.7785C25.178 52.9275 25.2958 53.0461 25.4445 53.1083C25.5931 53.1704 25.7603 53.171 25.9093 53.1098C25.9831 53.0796 26.0502 53.035 26.1068 52.9788C26.1634 52.9226 26.2084 52.8558 26.2391 52.7822C26.2699 52.7086 26.2859 52.6297 26.2861 52.5499C26.2864 52.4701 26.2709 52.3911 26.2406 52.3173L25.6532 50.8862C27.8382 51.7027 30.1365 52.1174 32.5034 52.1174C35.6355 52.1174 38.7513 51.3608 41.5138 49.9295C44.1865 48.5446 46.5427 46.5266 48.3276 44.0936C48.4229 43.9637 48.4626 43.8013 48.4382 43.6421C48.4137 43.4829 48.327 43.34 48.1971 43.2447ZM16.8099 21.7633C16.9139 21.8398 17.0396 21.8811 17.1688 21.881C17.2642 21.8811 17.3584 21.8587 17.4436 21.8156C17.5288 21.7725 17.6026 21.7099 17.659 21.6329C21.1173 16.9187 26.6666 14.1044 32.5033 14.1044C34.7053 14.1044 36.8437 14.4868 38.8776 15.2396L37.4565 15.823C37.31 15.8858 37.194 16.0038 37.1337 16.1514C37.0733 16.299 37.0734 16.4644 37.134 16.6119C37.1945 16.7594 37.3106 16.8772 37.4573 16.9399C37.6039 17.0026 37.7693 17.0051 37.9177 16.9468L40.7009 15.8044C40.7747 15.7742 40.8418 15.7296 40.8984 15.6734C40.9549 15.6172 40.9999 15.5504 41.0307 15.4768C41.0614 15.4032 41.0774 15.3243 41.0777 15.2445C41.0779 15.1647 41.0625 15.0857 41.0322 15.0119L39.8899 12.2286C39.7625 11.9183 39.4076 11.7697 39.0974 11.8973C39.0236 11.9276 38.9565 11.9721 38.8999 12.0283C38.8433 12.0845 38.7984 12.1513 38.7676 12.2249C38.7368 12.2985 38.7209 12.3775 38.7206 12.4572C38.7203 12.537 38.7358 12.616 38.7661 12.6898L39.3532 14.1204C37.1681 13.3042 34.8699 12.8895 32.5033 12.8895C29.3711 12.8895 26.2555 13.6463 23.4929 15.0779C20.8205 16.4629 18.4644 18.4811 16.6794 20.9143C16.5842 21.0441 16.5444 21.2066 16.5688 21.3658C16.5933 21.525 16.68 21.668 16.8099 21.7633ZM23.1513 36.1169L23.1434 36.1395C22.9942 36.5706 22.6029 36.8492 22.1466 36.8492H18.9975C18.4775 36.8492 18.0544 36.4261 18.0544 35.9062V25.7304C18.0544 25.2728 18.3815 24.8824 18.832 24.8021C21.1636 24.3867 23.5248 24.649 25.8498 25.5816C26.0748 25.6715 26.2565 25.8447 26.357 26.0652C26.4576 26.2856 26.4694 26.5364 26.3898 26.7653L26.2389 27.2009C27.6903 27.6543 28.9439 27.6674 30.7172 27.2723L30.8188 27.1768C31.9771 26.0877 33.5186 25.7127 35.0474 26.1481C35.3657 26.2387 35.6742 26.3364 35.9726 26.4308C36.8632 26.7127 37.7149 26.9817 38.7053 27.0205L38.6169 26.7652C38.5374 26.5363 38.5491 26.2856 38.6496 26.0651C38.7502 25.8447 38.9319 25.6715 39.1568 25.5815C41.482 24.6489 43.843 24.3868 46.1746 24.802H46.1746C46.3927 24.8406 46.5902 24.9549 46.7323 25.1247C46.8745 25.2944 46.9523 25.5089 46.9521 25.7303V35.9061C46.9521 36.426 46.5291 36.8491 46.0092 36.8491H42.8599C42.4037 36.8491 42.0125 36.5706 41.8632 36.1394L41.8295 36.0421L41.7104 36.1019C41.3081 36.304 40.8922 36.5129 40.4386 36.6981C40.3614 36.7296 40.2837 36.7569 40.2055 36.7807C40.6468 37.5262 40.555 38.5044 39.9286 39.1307C39.5672 39.4922 39.0851 39.6914 38.5711 39.6914H38.5711C38.502 39.6914 38.4335 39.6877 38.3658 39.6806C38.3045 40.0828 38.1159 40.4547 37.8276 40.7418C37.466 41.1034 36.9839 41.3025 36.47 41.3025C36.3552 41.3025 36.242 41.2926 36.1313 41.2732C36.0555 41.6384 35.8745 41.9734 35.6104 42.2369C35.0391 42.808 34.1947 42.9434 33.494 42.6429C33.4105 42.8301 33.2934 43.0004 33.1483 43.1451C32.8307 43.4626 32.4082 43.6371 31.9576 43.6371H31.9469C31.4981 43.6343 31.08 43.4577 30.7699 43.1398L26.2904 38.5499C26.2368 38.4949 26.1783 38.4341 26.1154 38.3685C25.5256 37.7544 24.4863 36.6728 23.1513 36.1169ZM29.3489 30.2264C29.0746 30.4842 28.9414 30.7925 28.9414 31.169V34.8762C30.0691 34.6732 31.1045 33.9189 31.1045 32.8042C31.1045 31.5629 32.0438 30.8048 32.5484 30.3973C32.6198 30.3397 32.6815 30.29 32.7245 30.2516C32.8402 30.1485 32.991 30.0935 33.146 30.098C33.3009 30.1024 33.4483 30.1659 33.5579 30.2755L38.576 35.2906C38.9567 35.6711 39.4818 35.777 39.9797 35.5733C40.3894 35.4062 40.7837 35.208 41.1651 35.0164C41.2517 34.9729 41.3404 34.9288 41.4288 34.8848L39.1267 28.2374C37.7642 28.27 36.6683 27.9253 35.606 27.5889C35.3159 27.4971 35.016 27.4022 34.7148 27.3165C33.5909 26.9964 32.5027 27.261 31.651 28.0617L29.3489 30.2264ZM23.5495 34.967C25.1498 35.6102 26.3262 36.8342 26.9917 37.5271C27.0523 37.5901 27.1084 37.6486 27.1601 37.7015L31.6394 42.2914C31.7211 42.375 31.8331 42.4214 31.9545 42.4222H31.9576C32.0192 42.4226 32.0803 42.4108 32.1373 42.3874C32.1942 42.364 32.246 42.3296 32.2896 42.286C32.3763 42.1991 32.425 42.0813 32.425 41.9585C32.425 41.8356 32.3763 41.7179 32.2895 41.6309L32.2869 41.6281L32.2843 41.6257L29.7891 39.069C29.7334 39.0119 29.6895 38.9444 29.6598 38.8703C29.6302 38.7963 29.6154 38.7171 29.6164 38.6374C29.6174 38.5576 29.634 38.4788 29.6655 38.4055C29.6969 38.3322 29.7425 38.2658 29.7996 38.2101C29.8566 38.1544 29.9241 38.1104 29.9982 38.0808C30.0722 38.0511 30.1514 38.0364 30.2312 38.0374C30.3109 38.0383 30.3897 38.055 30.463 38.0864C30.5363 38.1179 30.6027 38.1634 30.6584 38.2205L33.7543 41.3778C34.0293 41.6527 34.4766 41.6527 34.7514 41.3778C35.0264 41.1029 35.0263 40.6557 34.7514 40.3807L34.7484 40.3774L34.7462 40.3754L32.251 37.8187C32.1952 37.7616 32.1513 37.6941 32.1217 37.6201C32.092 37.546 32.0773 37.4668 32.0783 37.3871C32.0792 37.3073 32.0959 37.2285 32.1273 37.1552C32.1588 37.0819 32.2043 37.0155 32.2614 36.9598C32.3185 36.9041 32.386 36.8601 32.46 36.8305C32.5341 36.8009 32.6132 36.7861 32.693 36.7871C32.7728 36.788 32.8516 36.8047 32.9249 36.8362C32.9982 36.8676 33.0646 36.9132 33.1203 36.9703L35.9714 39.8828C36.1035 40.015 36.2805 40.0876 36.4698 40.0876C36.6593 40.0876 36.8363 40.0149 36.9684 39.8827C37.2434 39.6078 37.2434 39.1605 36.9685 38.8856L36.9655 38.8823L36.9633 38.8803L34.4682 36.3236C34.4124 36.2665 34.3685 36.199 34.3389 36.125C34.3092 36.0509 34.2945 35.9717 34.2955 35.892C34.2964 35.8122 34.3131 35.7334 34.3445 35.6601C34.3759 35.5868 34.4215 35.5204 34.4786 35.4647C34.5357 35.409 34.6032 35.365 34.6772 35.3354C34.7513 35.3058 34.8304 35.291 34.9102 35.292C34.99 35.2929 35.0687 35.3096 35.1421 35.341C35.2154 35.3725 35.2818 35.418 35.3375 35.4751L38.0724 38.2715C38.2045 38.4037 38.3815 38.4764 38.571 38.4764C38.7604 38.4764 38.9374 38.4037 39.0695 38.2716C39.3429 37.9982 39.3387 37.556 39.0601 37.2647L38.511 36.6907C38.2224 36.5665 37.953 36.3855 37.717 36.1496L33.0895 31.5249C32.7254 31.8354 32.319 32.2588 32.319 32.8039C32.319 34.8957 30.2926 36.1456 28.3337 36.1456C28.2539 36.1457 28.1749 36.1299 28.1012 36.0994C28.0275 36.0689 27.9606 36.0242 27.9042 35.9678C27.8478 35.9114 27.803 35.8444 27.7725 35.7707C27.742 35.697 27.7263 35.618 27.7263 35.5382V31.1687C27.7263 30.4591 27.9995 29.8272 28.5165 29.3412L29.1517 28.7439C28.9212 28.762 28.6901 28.7713 28.4589 28.7717C27.5697 28.7717 26.7345 28.6327 25.8406 28.3499L23.5495 34.967Z" fill="#02021E"/>
</svg>
