<svg width="32" height="32" viewBox="0 0 32 32" fill="none" xmlns="http://www.w3.org/2000/svg">
<path d="M21.5 22.5V19.728C20.8901 19.6722 20.312 19.4305 19.8438 19.0356C19.3757 18.6408 19.0399 18.1118 18.882 17.52L18.5 17.9V20.5C18.5008 21.1628 18.7644 21.7982 19.2331 22.2669C19.7018 22.7356 20.3372 22.9992 21 23C21.1326 23 21.2598 22.9473 21.3536 22.8536C21.4473 22.7598 21.5 22.6326 21.5 22.5Z" fill="#5D59EA"/>
<path d="M12.0055 15.9431C12.0994 15.8959 12.2059 15.8796 12.3096 15.8964C12.4134 15.9132 12.5092 15.9622 12.5835 16.0366L13.5 16.9531V16.5001C13.4993 16.1718 13.5632 15.8465 13.6882 15.5429C13.8132 15.2394 13.9967 14.9634 14.2283 14.7307C14.6961 14.2608 15.3315 13.996 15.9945 13.9946C16.6575 13.9931 17.294 14.2551 17.7639 14.7229C18.2337 15.1907 18.4985 15.826 18.5 16.4891L18.9525 16.0366C19.0267 15.9615 19.1227 15.9119 19.2268 15.8947C19.3309 15.8776 19.4378 15.8938 19.5321 15.9411C19.6264 15.9884 19.7034 16.0643 19.752 16.1579C19.8005 16.2516 19.8182 16.3582 19.8025 16.4626C19.7437 16.878 19.817 17.3013 20.0121 17.6728C20.2072 18.0442 20.5141 18.3449 20.8895 18.5323C21.2649 18.7197 21.6897 18.7842 22.1038 18.7169C22.5179 18.6496 22.9003 18.4537 23.197 18.157C23.4936 17.8604 23.6895 17.4779 23.7568 17.0638C23.8242 16.6497 23.7596 16.2249 23.5722 15.8496C23.3848 15.4742 23.0841 15.1673 22.7127 14.9722C22.3413 14.7771 21.9179 14.7038 21.5025 14.7626C21.3982 14.7783 21.2915 14.7606 21.1979 14.712C21.1042 14.6635 21.0283 14.5865 20.981 14.4922C20.9337 14.3978 20.9175 14.291 20.9347 14.1869C20.9518 14.0828 21.0015 13.9867 21.0765 13.9126L24.258 10.7261L22.017 8.48557C21.8102 8.91866 21.5024 9.29579 21.1197 9.58532C20.7369 9.87485 20.2902 10.0683 19.8172 10.1495C19.3442 10.2306 18.8586 10.1971 18.4012 10.0517C17.9438 9.90636 17.5279 9.65337 17.1886 9.314C16.8492 8.97463 16.5962 8.55879 16.4508 8.10139C16.3054 7.644 16.2719 7.1584 16.3531 6.68537C16.4343 6.21234 16.6277 5.76569 16.9172 5.38291C17.2068 5.00013 17.5839 4.69241 18.017 4.48557L15.77 2.24707L12.5835 5.42857C12.5093 5.50361 12.4133 5.55325 12.3092 5.5704C12.2051 5.58756 12.0982 5.57133 12.0039 5.52406C11.9096 5.47678 11.8326 5.40088 11.784 5.30721C11.7355 5.21354 11.7178 5.10691 11.7335 5.00257C11.7771 4.69582 11.7489 4.38312 11.651 4.08914C11.5531 3.79517 11.3883 3.52795 11.1695 3.30857C10.7883 2.94542 10.282 2.74286 9.75549 2.74286C9.229 2.74286 8.7227 2.94542 8.34149 3.30857C8.04588 3.60553 7.85101 3.98783 7.78437 4.4015C7.71774 4.81518 7.78271 5.23934 7.97012 5.6141C8.15752 5.98886 8.4579 6.2953 8.82885 6.49015C9.19979 6.68501 9.62257 6.75843 10.0375 6.70007C10.1418 6.68435 10.2485 6.70204 10.3421 6.75061C10.4358 6.79918 10.5117 6.87613 10.559 6.97046C10.6063 7.06479 10.6225 7.17166 10.6053 7.27577C10.5882 7.37988 10.5385 7.47589 10.4635 7.55007L7.28149 10.7301L10.464 13.9166C10.5391 13.9908 10.5888 14.0868 10.6059 14.191C10.6231 14.2952 10.6068 14.4021 10.5595 14.4965C10.5121 14.5908 10.4361 14.6678 10.3424 14.7163C10.2486 14.7648 10.1419 14.7824 10.0375 14.7666C9.62209 14.7078 9.19872 14.7811 8.82729 14.9762C8.45585 15.1713 8.15517 15.4782 7.96779 15.8536C7.78041 16.2289 7.71582 16.6537 7.78316 17.0678C7.8505 17.4819 8.04635 17.8644 8.34302 18.161C8.63968 18.4577 9.02212 18.6536 9.43622 18.7209C9.85033 18.7882 10.2751 18.7237 10.6505 18.5363C11.0259 18.3489 11.3328 18.0482 11.5279 17.6768C11.723 17.3053 11.7963 16.882 11.7375 16.4666C11.7211 16.3622 11.7382 16.2553 11.7864 16.1613C11.8345 16.0672 11.9112 15.9908 12.0055 15.9431Z" fill="#5D59EA"/>
<path d="M17.658 29.0656L18.158 28.0656C18.3999 27.5793 18.5259 27.0436 18.5259 26.5006C18.5259 25.9575 18.3999 25.4218 18.158 24.9356L17.975 24.5686C17.6634 23.9432 17.5008 23.2542 17.5 22.5556V16.5001C17.5 16.1022 17.342 15.7207 17.0607 15.4394C16.7794 15.1581 16.3978 15.0001 16 15.0001C15.6022 15.0001 15.2206 15.1581 14.9393 15.4394C14.658 15.7207 14.5 16.1022 14.5 16.5001V23.5001C14.5 23.6327 14.4473 23.7598 14.3536 23.8536C14.2598 23.9474 14.1326 24.0001 14 24.0001C13.8674 24.0001 13.7402 23.9474 13.6464 23.8536C13.5527 23.7598 13.5 23.6327 13.5 23.5001V18.3671L12.653 17.5206C12.4825 18.1581 12.1063 18.7214 11.5826 19.1231C11.059 19.5247 10.4174 19.7421 9.7575 19.7416C9.7045 19.7416 9.653 19.7366 9.6005 19.7341L8.3775 23.2541C8.27654 23.4701 8.22791 23.7069 8.23556 23.9453C8.2432 24.1837 8.3069 24.4169 8.4215 24.6261C8.43052 24.6422 8.43854 24.6589 8.4455 24.6761L10.2 28.8281C10.3964 29.1947 10.4995 29.6041 10.5 30.0201V30.5001H17.5V29.7361C17.5002 29.5034 17.5543 29.2739 17.658 29.0656ZM30.5 11.5001H27.5C27.3674 11.5001 27.2402 11.4474 27.1464 11.3536C27.0527 11.2598 27 11.1327 27 11.0001C27 10.8674 27.0527 10.7403 27.1464 10.6465C27.2402 10.5527 27.3674 10.5001 27.5 10.5001H30.5C30.6326 10.5001 30.7598 10.5527 30.8536 10.6465C30.9473 10.7403 31 10.8674 31 11.0001C31 11.1327 30.9473 11.2598 30.8536 11.3536C30.7598 11.4474 30.6326 11.5001 30.5 11.5001ZM26.9595 5.75005C26.8494 5.75005 26.7425 5.71373 26.6551 5.64672C26.5678 5.57972 26.505 5.48578 26.4766 5.37946C26.4481 5.27315 26.4555 5.16041 26.4976 5.05872C26.5397 4.95704 26.6142 4.87209 26.7095 4.81705L29.3095 3.31705C29.4243 3.25179 29.5602 3.23458 29.6876 3.26918C29.8151 3.30377 29.9236 3.38736 29.9896 3.5017C30.0557 3.61605 30.0738 3.75186 30.04 3.87951C30.0063 4.00716 29.9234 4.11628 29.8095 4.18305L27.2095 5.68305C27.1336 5.72712 27.0473 5.75024 26.9595 5.75005ZM29.557 18.7501C29.4692 18.7502 29.3829 18.7271 29.307 18.6831L26.707 17.1831C26.6497 17.1505 26.5994 17.1069 26.559 17.0547C26.5186 17.0026 26.4889 16.943 26.4716 16.8794C26.4543 16.8158 26.4498 16.7493 26.4583 16.6839C26.4668 16.6186 26.4881 16.5555 26.5211 16.4984C26.5541 16.4413 26.598 16.3913 26.6504 16.3512C26.7028 16.3112 26.7626 16.2819 26.8263 16.265C26.8901 16.2481 26.9565 16.2441 27.0219 16.253C27.0872 16.2619 27.1501 16.2837 27.207 16.3171L29.807 17.8171C29.9023 17.8721 29.9768 17.957 30.0189 18.0587C30.061 18.1604 30.0684 18.2732 30.0399 18.3795C30.0115 18.4858 29.9487 18.5797 29.8614 18.6467C29.774 18.7137 29.6671 18.75 29.557 18.7501ZM4.5 11.5001H1.5C1.36739 11.5001 1.24021 11.4474 1.14645 11.3536C1.05268 11.2598 1 11.1327 1 11.0001C1 10.8674 1.05268 10.7403 1.14645 10.6465C1.24021 10.5527 1.36739 10.5001 1.5 10.5001H4.5C4.63261 10.5001 4.75979 10.5527 4.85355 10.6465C4.94732 10.7403 5 10.8674 5 11.0001C5 11.1327 4.94732 11.2598 4.85355 11.3536C4.75979 11.4474 4.63261 11.5001 4.5 11.5001ZM5.0405 5.75005C4.95271 5.75024 4.86644 5.72712 4.7905 5.68305L2.1905 4.18305C2.0766 4.11628 1.99373 4.00716 1.95998 3.87951C1.92623 3.75186 1.94434 3.61605 2.01036 3.5017C2.07638 3.38736 2.18495 3.30377 2.31237 3.26918C2.43979 3.23458 2.57572 3.25179 2.6905 3.31705L5.2905 4.81705C5.38581 4.87209 5.46031 4.95704 5.50242 5.05872C5.54454 5.16041 5.55193 5.27315 5.52344 5.37946C5.49495 5.48578 5.43218 5.57972 5.34487 5.64672C5.25755 5.71373 5.15056 5.75005 5.0405 5.75005ZM2.443 18.7501C2.33294 18.75 2.22595 18.7137 2.13863 18.6467C2.05132 18.5797 1.98855 18.4858 1.96006 18.3795C1.93157 18.2732 1.93896 18.1604 1.98108 18.0587C2.02319 17.957 2.09769 17.8721 2.193 17.8171L4.793 16.3171C4.84989 16.2837 4.91281 16.2619 4.97814 16.253C5.04347 16.2441 5.10992 16.2481 5.17367 16.265C5.23742 16.2819 5.29721 16.3112 5.34959 16.3512C5.40197 16.3913 5.44591 16.4413 5.47888 16.4984C5.51185 16.5555 5.5332 16.6186 5.5417 16.6839C5.5502 16.7493 5.54568 16.8158 5.52841 16.8794C5.51113 16.943 5.48143 17.0026 5.44103 17.0547C5.40063 17.1069 5.35032 17.1505 5.293 17.1831L2.693 18.6831C2.61707 18.7271 2.53079 18.7502 2.443 18.7501Z" fill="#5D59EA"/>
</svg>
