<svg width="32" height="32" viewBox="0 0 32 32" fill="none" xmlns="http://www.w3.org/2000/svg">
<path d="M19 26V27C19 28.103 18.103 29 17 29H5C3.897 29 3 28.103 3 27V5C3 3.897 3.897 3 5 3H17C18.103 3 19 3.897 19 5V6H20V5C20 3.346 18.654 2 17 2H5C3.346 2 2 3.346 2 5V27C2 28.654 3.346 30 5 30H17C18.654 30 20 28.654 20 27V26H19ZM20 7H26L25 9H21L20 7Z" fill="#5D59EA"/>
<path d="M17 26C15.897 26 15 25.103 15 24V17.067L12.82 18.884C12.7697 18.9263 12.7115 18.9581 12.6488 18.9778C12.5861 18.9975 12.5201 19.0045 12.4547 18.9986C12.3892 18.9926 12.3256 18.9738 12.2675 18.9431C12.2094 18.9125 12.1579 18.8706 12.116 18.82C12.0312 18.7181 11.9903 18.5868 12.0023 18.4548C12.0143 18.3227 12.0782 18.2009 12.18 18.116L14.719 16L12.179 13.884C12.0772 13.799 12.0133 13.677 12.0013 13.5449C11.9894 13.4128 12.0305 13.2813 12.1155 13.1795C12.2005 13.0777 12.3225 13.0138 12.4546 13.0018C12.5867 12.9899 12.7182 13.031 12.82 13.116L15 14.933V8C15 6.897 15.897 6 17 6H18V5C18 4.73478 17.8946 4.48043 17.7071 4.29289C17.5196 4.10536 17.2652 4 17 4H13C13 4.53043 12.7893 5.03914 12.4142 5.41421C12.0391 5.78929 11.5304 6 11 6C10.4696 6 9.96086 5.78929 9.58579 5.41421C9.21071 5.03914 9 4.53043 9 4H5C4.73478 4 4.48043 4.10536 4.29289 4.29289C4.10536 4.48043 4 4.73478 4 5V27C4 27.2652 4.10536 27.5196 4.29289 27.7071C4.48043 27.8946 4.73478 28 5 28H17C17.2652 28 17.5196 27.8946 17.7071 27.7071C17.8946 27.5196 18 27.2652 18 27V26H17ZM9.82 18.116C9.91824 18.2019 9.97898 18.3229 9.98923 18.453C9.99949 18.5832 9.95846 18.7121 9.87489 18.8124C9.79133 18.9127 9.67186 18.9763 9.54202 18.9897C9.41218 19.0031 9.28225 18.9651 9.18 18.884L6.18 16.384C6.12342 16.3373 6.07786 16.2786 6.04658 16.2122C6.01531 16.1459 5.99909 16.0734 5.99909 16C5.99909 15.9266 6.01531 15.8541 6.04658 15.7878C6.07786 15.7214 6.12342 15.6627 6.18 15.616L9.18 13.116C9.28225 13.0349 9.41218 12.9969 9.54202 13.0103C9.67186 13.0237 9.79133 13.0873 9.87489 13.1876C9.95846 13.2879 9.99949 13.4168 9.98923 13.547C9.97898 13.6771 9.91824 13.7981 9.82 13.884L7.281 16L9.82 18.116Z" fill="#5D59EA"/>
<path d="M29 7H27.118L25.895 9.447C25.8119 9.61323 25.6842 9.75303 25.5261 9.85071C25.368 9.94839 25.1858 10.0001 25 10H21C20.8142 10.0001 20.632 9.94839 20.4739 9.85071C20.3158 9.75303 20.1881 9.61323 20.105 9.447L18.882 7H17C16.7348 7 16.4804 7.10536 16.2929 7.29289C16.1054 7.48043 16 7.73478 16 8V24C16 24.2652 16.1054 24.5196 16.2929 24.7071C16.4804 24.8946 16.7348 25 17 25H29C29.2652 25 29.5196 24.8946 29.7071 24.7071C29.8946 24.5196 30 24.2652 30 24V8C30 7.73478 29.8946 7.48043 29.7071 7.29289C29.5196 7.10536 29.2652 7 29 7ZM20.947 21.724L19.947 23.724C19.9115 23.7947 19.8598 23.856 19.796 23.9029C19.7323 23.9497 19.6583 23.9808 19.5802 23.9934C19.5021 24.0061 19.4221 24.0001 19.3468 23.9759C19.2715 23.9516 19.203 23.9099 19.147 23.854L18.147 22.854C18.0992 22.8079 18.061 22.7528 18.0347 22.6919C18.0084 22.6309 17.9946 22.5653 17.9939 22.4989C17.9932 22.4325 18.0058 22.3667 18.0308 22.3052C18.0559 22.2437 18.0929 22.1878 18.1398 22.1408C18.1867 22.0938 18.2425 22.0566 18.3039 22.0314C18.3653 22.0062 18.4311 21.9934 18.4975 21.9939C18.5639 21.9944 18.6295 22.0081 18.6905 22.0342C18.7516 22.0603 18.8068 22.0983 18.853 22.146L19.363 22.656L20.053 21.276C20.113 21.1585 20.2171 21.0695 20.3424 21.0284C20.4678 20.9872 20.6043 20.9973 20.7223 21.0564C20.8402 21.1156 20.93 21.2189 20.9721 21.3439C21.0142 21.469 21.0052 21.6056 20.947 21.724ZM20.947 16.724L19.947 18.724C19.9115 18.7947 19.8598 18.856 19.796 18.9029C19.7323 18.9497 19.6583 18.9808 19.5802 18.9934C19.5021 19.0061 19.4221 19.0001 19.3468 18.9759C19.2715 18.9516 19.203 18.9099 19.147 18.854L18.147 17.854C18.0992 17.8079 18.061 17.7528 18.0347 17.6919C18.0084 17.6309 17.9946 17.5653 17.9939 17.4989C17.9932 17.4325 18.0058 17.3667 18.0308 17.3052C18.0559 17.2437 18.0929 17.1878 18.1398 17.1408C18.1867 17.0938 18.2425 17.0566 18.3039 17.0314C18.3653 17.0062 18.4311 16.9934 18.4975 16.9939C18.5639 16.9944 18.6295 17.0081 18.6905 17.0342C18.7516 17.0603 18.8068 17.0983 18.853 17.146L19.363 17.656L20.053 16.276C20.113 16.1585 20.2171 16.0695 20.3424 16.0284C20.4678 15.9872 20.6043 15.9973 20.7223 16.0564C20.8402 16.1156 20.93 16.2189 20.9721 16.3439C21.0142 16.469 21.0052 16.6056 20.947 16.724ZM20.947 11.724L19.947 13.724C19.9115 13.7947 19.8598 13.856 19.796 13.9029C19.7323 13.9497 19.6583 13.9808 19.5802 13.9934C19.5021 14.0061 19.4221 14.0001 19.3468 13.9759C19.2715 13.9516 19.203 13.9099 19.147 13.854L18.147 12.854C18.0992 12.8079 18.061 12.7528 18.0347 12.6919C18.0084 12.6309 17.9946 12.5653 17.9939 12.4989C17.9932 12.4325 18.0058 12.3667 18.0308 12.3052C18.0559 12.2437 18.0929 12.1878 18.1398 12.1408C18.1867 12.0938 18.2425 12.0566 18.3039 12.0314C18.3653 12.0062 18.4311 11.9934 18.4975 11.9939C18.5639 11.9944 18.6295 12.0081 18.6905 12.0342C18.7516 12.0603 18.8068 12.0983 18.853 12.146L19.363 12.656L20.053 11.276C20.113 11.1585 20.2171 11.0695 20.3424 11.0284C20.4678 10.9872 20.6043 10.9973 20.7223 11.0564C20.8402 11.1156 20.93 11.2189 20.9721 11.3439C21.0142 11.469 21.0052 11.6056 20.947 11.724Z" fill="#5D59EA"/>
</svg>
