<svg width="32" height="32" viewBox="0 0 32 32" fill="none" xmlns="http://www.w3.org/2000/svg">
<path d="M11 6L13 2H12L10 6H11ZM9 6L11 2H3C2.73478 2 2.48043 2.10536 2.29289 2.29289C2.10536 2.48043 2 2.73478 2 3V6H9ZM7 3C7.26522 3 7.51957 3.10536 7.70711 3.29289C7.89464 3.48043 8 3.73478 8 4C8 4.26522 7.89464 4.51957 7.70711 4.70711C7.51957 4.89464 7.26522 5 7 5C6.73478 5 6.48043 4.89464 6.29289 4.70711C6.10536 4.51957 6 4.26522 6 4C6 3.73478 6.10536 3.48043 6.29289 3.29289C6.48043 3.10536 6.73478 3 7 3ZM4 3C4.26522 3 4.51957 3.10536 4.70711 3.29289C4.89464 3.48043 5 3.73478 5 4C5 4.26522 4.89464 4.51957 4.70711 4.70711C4.51957 4.89464 4.26522 5 4 5C3.73478 5 3.48043 4.89464 3.29289 4.70711C3.10536 4.51957 3 4.26522 3 4C3 3.73478 3.10536 3.48043 3.29289 3.29289C3.48043 3.10536 3.73478 3 4 3ZM30 6V3C30 2.73478 29.8946 2.48043 29.7071 2.29289C29.5196 2.10536 29.2652 2 29 2H14L12 6H30ZM10.5 23C10.4323 23 10.3653 22.9864 10.303 22.96L7 21.543L4.77 22.499L7.184 23.534L10.5 24.955L13.813 23.535L13.817 23.533L16.23 22.5L14 21.544L10.697 22.959C10.6348 22.9858 10.5678 22.9997 10.5 23Z" fill="#5D59EA"/>
<path d="M10.5 26C10.4323 26 10.3653 25.9864 10.303 25.96L7.00002 24.543L4.77002 25.499L10.5 27.955L16.23 25.499L14 24.543L10.697 25.958C10.6348 25.9851 10.5678 25.9994 10.5 26Z" fill="#5D59EA"/>
<path d="M2 7V29C2 29.2652 2.10536 29.5196 2.29289 29.7071C2.48043 29.8946 2.73478 30 3 30H29C29.2652 30 29.5196 29.8946 29.7071 29.7071C29.8946 29.5196 30 29.2652 30 29V7H2ZM19.18 8.884C19.0818 8.79805 19.021 8.6771 19.0108 8.54697C19.0005 8.41684 19.0415 8.28787 19.1251 8.18759C19.2087 8.08731 19.3281 8.02369 19.458 8.01031C19.5878 7.99694 19.7177 8.03487 19.82 8.116L22.82 10.616C22.8761 10.663 22.9212 10.7218 22.9522 10.7881C22.9832 10.8545 22.9992 10.9268 22.9992 11C22.9992 11.0732 22.9832 11.1455 22.9522 11.2119C22.9212 11.2782 22.8761 11.337 22.82 11.384L19.82 13.884C19.7177 13.9651 19.5878 14.0031 19.458 13.9897C19.3281 13.9763 19.2087 13.9127 19.1251 13.8124C19.0415 13.7121 19.0005 13.5832 19.0108 13.453C19.021 13.3229 19.0818 13.2019 19.18 13.116L21.719 11L19.18 8.884ZM14.071 13.242L17.071 8.242C17.1042 8.18446 17.1485 8.13411 17.2013 8.09388C17.2542 8.05366 17.3145 8.02437 17.3788 8.00772C17.4431 7.99107 17.5101 7.9874 17.5758 7.99693C17.6416 8.00645 17.7048 8.02898 17.7617 8.06319C17.8186 8.0974 17.8682 8.14262 17.9074 8.19619C17.9467 8.24976 17.9749 8.31062 17.9904 8.37521C18.0059 8.4398 18.0083 8.50683 17.9976 8.57238C17.9869 8.63793 17.9632 8.7007 17.928 8.757L14.928 13.757C14.8948 13.8145 14.8505 13.8649 14.7977 13.9051C14.7448 13.9453 14.6845 13.9746 14.6202 13.9913C14.5559 14.0079 14.4889 14.0116 14.4232 14.0021C14.3574 13.9925 14.2942 13.97 14.2373 13.9358C14.1804 13.9016 14.1308 13.8564 14.0916 13.8028C14.0523 13.7492 14.0241 13.6884 14.0086 13.6238C13.9931 13.5592 13.9907 13.4922 14.0014 13.4266C14.0121 13.3611 14.0358 13.2983 14.071 13.242ZM9.18 10.616L12.18 8.116C12.2818 8.031 12.4133 7.98993 12.5454 8.00184C12.6775 8.01375 12.7995 8.07766 12.8845 8.1795C12.9695 8.28134 13.0106 8.41278 12.9987 8.5449C12.9867 8.67702 12.9228 8.799 12.821 8.884L10.281 11L12.821 13.116C12.9228 13.2011 12.9867 13.3232 12.9985 13.4555C13.0103 13.5877 12.9691 13.7192 12.884 13.821C12.7989 13.9228 12.6768 13.9867 12.5445 13.9985C12.4123 14.0103 12.2808 13.9691 12.179 13.884L9.179 11.384C9.12288 11.337 9.07776 11.2782 9.04679 11.2119C9.01583 11.1455 8.99978 11.0732 8.99978 11C8.99978 10.9268 9.01583 10.8545 9.04679 10.7881C9.07776 10.7218 9.12288 10.663 9.179 10.616H9.18ZM17.698 22.041C17.7876 22.0797 17.8639 22.1438 17.9175 22.2254C17.9711 22.3069 17.9997 22.4024 17.9997 22.5C17.9997 22.5976 17.9711 22.6931 17.9175 22.7746C17.8639 22.8562 17.7876 22.9203 17.698 22.959L15.27 24L17.698 25.04C17.7882 25.0784 17.8651 25.1425 17.9192 25.2243C17.9732 25.3061 18.002 25.402 18.002 25.5C18.002 25.598 17.9732 25.6939 17.9192 25.7757C17.8651 25.8575 17.7882 25.9216 17.698 25.96L10.698 28.96C10.6357 28.9865 10.5687 29.0001 10.501 29.0001C10.4333 29.0001 10.3663 28.9865 10.304 28.96L3.304 25.96C3.21381 25.9216 3.1369 25.8575 3.08284 25.7757C3.02878 25.6939 2.99996 25.598 2.99996 25.5C2.99996 25.402 3.02878 25.3061 3.08284 25.2243C3.1369 25.1425 3.21381 25.0784 3.304 25.04L5.73 24L3.302 22.96C3.21181 22.9216 3.1349 22.8575 3.08084 22.7757C3.02678 22.6939 2.99796 22.598 2.99796 22.5C2.99796 22.402 3.02678 22.3061 3.08084 22.2243C3.1349 22.1425 3.21181 22.0784 3.302 22.04L5.73 21L3.302 19.96C3.21181 19.9216 3.1349 19.8575 3.08084 19.7757C3.02678 19.6939 2.99796 19.598 2.99796 19.5C2.99796 19.402 3.02678 19.3061 3.08084 19.2243C3.1349 19.1425 3.21181 19.0784 3.302 19.04L10.302 16.04C10.3643 16.0135 10.4313 15.9998 10.499 15.9998C10.5667 15.9998 10.6337 16.0135 10.696 16.04L17.696 19.04C17.7862 19.0784 17.8631 19.1425 17.9172 19.2243C17.9712 19.3061 18 19.402 18 19.5C18 19.598 17.9712 19.6939 17.9172 19.7757C17.8631 19.8575 17.7862 19.9216 17.696 19.96L15.27 21L17.698 22.041ZM19 27C19 26.2044 19.3161 25.4413 19.8787 24.8787C20.4413 24.3161 21.2044 24 22 24H24C22.346 24 21 22.654 21 21C21 19.346 22.346 18 24 18C25.654 18 27 19.346 27 21C27 22.654 25.654 24 24 24H26C26.7956 24 27.5587 24.3161 28.1213 24.8787C28.6839 25.4413 29 26.2044 29 27H19Z" fill="#5D59EA"/>
<path d="M4.77002 19.4999L10.5 21.9559L13.815 20.5359L16.23 19.4999L10.5 17.0439L4.77002 19.4999Z" fill="#5D59EA"/>
</svg>
