<svg width="32" height="32" viewBox="0 0 32 32" fill="none" xmlns="http://www.w3.org/2000/svg">
<g clip-path="url(#clip0_102_5694)">
<path d="M14.003 6.195L13.797 8.05C13.697 8.0775 13.5988 8.11075 13.5 8.142V11.101C14.2738 10.705 15.1308 10.499 16 10.5H24.3283L24.3452 10.4788C24.4221 10.3827 24.4608 10.2617 24.454 10.1389C24.4473 10.016 24.3954 9.90002 24.3085 9.813L22.1873 7.6915C22.1003 7.6044 21.9842 7.55246 21.8613 7.54563C21.7384 7.5388 21.6173 7.57757 21.5212 7.6545L20.0637 8.82075C19.4777 8.48827 18.8528 8.2294 18.2033 8.05L17.997 6.195C17.9835 6.07266 17.9253 5.95961 17.8336 5.8775C17.7419 5.79539 17.6231 5.74999 17.5 5.75H14.5C14.3769 5.74999 14.2581 5.79539 14.1664 5.8775C14.0747 5.95961 14.0165 6.07266 14.003 6.195ZM21.5212 24.3455C21.6173 24.4224 21.7384 24.4612 21.8613 24.4544C21.9842 24.4475 22.1003 24.3956 22.1873 24.3085L24.3085 22.187C24.3954 22.1 24.4473 21.984 24.454 21.8611C24.4608 21.7383 24.4221 21.6173 24.3452 21.5212L23.1793 20.0637C23.5118 19.4777 23.7707 18.8528 23.95 18.2033L25.805 17.9967C25.9273 17.9833 26.0404 17.9251 26.1225 17.8335C26.2046 17.7418 26.25 17.6231 26.25 17.5V14.5C26.25 14.3769 26.2046 14.2582 26.1225 14.1665C26.0404 14.0749 25.9273 14.0167 25.805 14.0033L23.95 13.797C23.9225 13.697 23.8895 13.5988 23.858 13.5H20.899C21.295 14.2738 21.501 15.1308 21.5 16V24.3285L21.5212 24.3455ZM21.8452 23.2362L21.7965 23.285L21.7565 23.2525L21.8452 23.2362ZM17.997 25.805L18.2033 23.95C18.3033 23.9225 18.4012 23.8892 18.5 23.858V20.899C17.7262 21.295 16.8692 21.501 16 21.5H7.67175L7.65475 21.5212C7.57791 21.6173 7.53917 21.7383 7.54595 21.8611C7.55273 21.984 7.60455 22.1 7.6915 22.187L9.81275 24.3085C9.89972 24.3956 10.0158 24.4475 10.1387 24.4544C10.2616 24.4612 10.3827 24.4224 10.4788 24.3455L11.9362 23.1793C12.5223 23.5117 13.1472 23.7706 13.7968 23.95L14.003 25.805C14.0165 25.9273 14.0747 26.0404 14.1664 26.1225C14.2581 26.2046 14.3769 26.25 14.5 26.25H17.5C17.6231 26.25 17.7419 26.2046 17.8336 26.1225C17.9253 26.0404 17.9835 25.9273 17.997 25.805ZM10.4788 7.6545C10.3827 7.57757 10.2616 7.5388 10.1387 7.54563C10.0158 7.55246 9.89972 7.6044 9.81275 7.6915L7.6915 9.813C7.60455 9.90002 7.55273 10.016 7.54595 10.1389C7.53917 10.2617 7.57791 10.3827 7.65475 10.4788L8.82075 11.9362C8.48815 12.5224 8.22927 13.1474 8.05 13.797L6.195 14.0033C6.07268 14.0167 5.95963 14.0749 5.87752 14.1665C5.7954 14.2582 5.75 14.3769 5.75 14.5V17.5C5.75 17.6231 5.7954 17.7418 5.87752 17.8335C5.95963 17.9251 6.07268 17.9833 6.195 17.9967L8.05 18.2033C8.0775 18.3033 8.1105 18.4012 8.142 18.5H11.101C10.705 17.7262 10.499 16.8692 10.5 16V7.6715L10.4788 7.6545ZM9.82875 8.71775C9.85477 8.71055 9.88153 8.70635 9.9085 8.70525L9.82875 8.71775Z" fill="#5D59EA"/>
<path d="M29.5 9.49999C28.924 9.50078 28.3658 9.70014 27.9196 10.0645C27.4734 10.4288 27.1665 10.9358 27.0505 11.5H16C15.3283 11.5001 14.6651 11.6509 14.0594 11.9413C13.4537 12.2316 12.9208 12.6542 12.5 13.1777V4.94949C13.107 4.82558 13.6464 4.4807 14.0136 3.9817C14.3808 3.48269 14.5496 2.86513 14.4873 2.24873C14.4251 1.63233 14.1361 1.061 13.6766 0.645522C13.217 0.23004 12.6195 0 12 0C11.3805 0 10.783 0.23004 10.3234 0.645522C9.86384 1.061 9.57492 1.63233 9.51265 2.24873C9.45038 2.86513 9.6192 3.48269 9.98639 3.9817C10.3536 4.4807 10.893 4.82558 11.5 4.94949V16C11.5001 16.6717 11.6509 17.3349 11.9413 17.9406C12.2316 18.5463 12.6542 19.0792 13.1777 19.5H4.94949C4.82558 18.893 4.4807 18.3536 3.9817 17.9864C3.48269 17.6192 2.86513 17.4504 2.24873 17.5126C1.63233 17.5749 1.061 17.8638 0.645522 18.3234C0.23004 18.783 0 19.3805 0 20C0 20.6195 0.23004 21.217 0.645522 21.6766C1.061 22.1361 1.63233 22.4251 2.24873 22.4873C2.86513 22.5496 3.48269 22.3808 3.9817 22.0136C4.4807 21.6464 4.82558 21.107 4.94949 20.5H16C16.6717 20.4999 17.3349 20.3491 17.9406 20.0587C18.5463 19.7683 19.0792 19.3458 19.5 18.8222V27.0505C18.893 27.1744 18.3536 27.5193 17.9864 28.0183C17.6192 28.5173 17.4504 29.1349 17.5126 29.7513C17.5749 30.3677 17.8638 30.939 18.3234 31.3545C18.783 31.7699 19.3805 32 20 32C20.6195 32 21.217 31.7699 21.6766 31.3545C22.1361 30.939 22.4251 30.3677 22.4873 29.7513C22.5496 29.1349 22.3808 28.5173 22.0136 28.0183C21.6464 27.5193 21.107 27.1744 20.5 27.0505V16C20.4999 15.3283 20.3491 14.6651 20.0587 14.0594C19.7683 13.4537 19.3458 12.9208 18.8222 12.5H27.0505C27.1451 12.9635 27.3693 13.3906 27.6969 13.7318C28.0246 14.0729 28.4424 14.3141 28.9016 14.4273C29.3609 14.5405 29.8429 14.5211 30.2916 14.3713C30.7403 14.2216 31.1373 13.9475 31.4365 13.5811C31.7356 13.2147 31.9247 12.7709 31.9817 12.3014C32.0388 11.8318 31.9614 11.3556 31.7586 10.9283C31.5558 10.5009 31.236 10.1398 30.8362 9.88702C30.4364 9.6342 29.973 9.49999 29.5 9.49999ZM2.49999 21.5C2.20332 21.5 1.91331 21.412 1.66663 21.2472C1.41996 21.0824 1.2277 20.8481 1.11417 20.574C1.00064 20.2999 0.970934 19.9983 1.02881 19.7074C1.08669 19.4164 1.22955 19.1491 1.43933 18.9393C1.64911 18.7296 1.91638 18.5867 2.20735 18.5288C2.49833 18.4709 2.79993 18.5006 3.07401 18.6142C3.3481 18.7277 3.58237 18.92 3.74719 19.1666C3.91202 19.4133 3.99999 19.7033 3.99999 20C3.99953 20.3977 3.84134 20.7789 3.56014 21.0601C3.27893 21.3413 2.89767 21.4995 2.49999 21.5ZM10.5 2.49999C10.5 2.20332 10.588 1.91331 10.7528 1.66663C10.9176 1.41996 11.1519 1.2277 11.426 1.11417C11.7001 1.00064 12.0017 0.970934 12.2926 1.02881C12.5836 1.08669 12.8509 1.22955 13.0606 1.43933C13.2704 1.64911 13.4133 1.91638 13.4712 2.20735C13.529 2.49833 13.4993 2.79993 13.3858 3.07401C13.2723 3.3481 13.08 3.58237 12.8333 3.74719C12.5867 3.91202 12.2967 3.99999 12 3.99999C11.6023 3.99953 11.221 3.84134 10.9398 3.56014C10.6586 3.27893 10.5005 2.89767 10.5 2.49999ZM21.5 29.5C21.5 29.7967 21.412 30.0867 21.2472 30.3333C21.0824 30.58 20.8481 30.7723 20.574 30.8858C20.2999 30.9993 19.9983 31.029 19.7074 30.9712C19.4164 30.9133 19.1491 30.7704 18.9393 30.5606C18.7296 30.3509 18.5867 30.0836 18.5288 29.7926C18.4709 29.5017 18.5006 29.2001 18.6142 28.926C18.7277 28.6519 18.92 28.4176 19.1666 28.2528C19.4133 28.088 19.7033 28 20 28C20.3977 28.0005 20.7789 28.1586 21.0601 28.4398C21.3413 28.721 21.4995 29.1023 21.5 29.5ZM19.5 16C19.5 16.6922 19.2947 17.3689 18.9101 17.9445C18.5255 18.5201 17.9789 18.9687 17.3394 19.2336C16.6998 19.4985 15.9961 19.5678 15.3172 19.4327C14.6382 19.2977 14.0146 18.9643 13.5251 18.4749C13.0356 17.9854 12.7023 17.3617 12.5672 16.6828C12.4322 16.0039 12.5015 15.3001 12.7664 14.6606C13.0313 14.0211 13.4799 13.4744 14.0555 13.0898C14.6311 12.7053 15.3078 12.5 16 12.5C16.9279 12.501 17.8175 12.8701 18.4737 13.5263C19.1298 14.1824 19.4989 15.0721 19.5 16ZM29.5 13.5C29.2033 13.5 28.9133 13.412 28.6666 13.2472C28.42 13.0824 28.2277 12.8481 28.1142 12.574C28.0006 12.2999 27.9709 11.9983 28.0288 11.7074C28.0867 11.4164 28.2296 11.1491 28.4393 10.9393C28.6491 10.7296 28.9164 10.5867 29.2074 10.5288C29.4983 10.4709 29.7999 10.5006 30.074 10.6142C30.3481 10.7277 30.5824 10.92 30.7472 11.1666C30.912 11.4133 31 11.7033 31 12C30.9995 12.3977 30.8413 12.7789 30.5601 13.0601C30.2789 13.3413 29.8977 13.4995 29.5 13.5Z" fill="#5D59EA"/>
<path d="M16 17.5C15.6023 17.4995 15.2211 17.3414 14.9399 17.0601C14.6586 16.7789 14.5005 16.3977 14.5 16C14.5 15.8674 14.4473 15.7402 14.3536 15.6464C14.2598 15.5527 14.1326 15.5 14 15.5C13.8674 15.5 13.7402 15.5527 13.6464 15.6464C13.5527 15.7402 13.5 15.8674 13.5 16C13.5007 16.6628 13.7644 17.2983 14.233 17.767C14.7017 18.2356 15.3372 18.4993 16 18.5C16.1326 18.5 16.2598 18.4473 16.3536 18.3536C16.4473 18.2598 16.5 18.1326 16.5 18C16.5 17.8674 16.4473 17.7402 16.3536 17.6464C16.2598 17.5527 16.1326 17.5 16 17.5ZM1.5 5.25H1.795C1.87002 5.69534 2.04527 6.11781 2.3075 6.4855L2.0985 6.6945C2.05074 6.74062 2.01265 6.7958 1.98645 6.8568C1.96024 6.9178 1.94645 6.98341 1.94587 7.0498C1.9453 7.11619 1.95795 7.18203 1.98309 7.24348C2.00823 7.30492 2.04536 7.36075 2.0923 7.4077C2.13925 7.45464 2.19507 7.49177 2.25652 7.51691C2.31797 7.54205 2.38381 7.5547 2.4502 7.55413C2.51659 7.55355 2.5822 7.53976 2.6432 7.51355C2.7042 7.48735 2.75938 7.44926 2.8055 7.4015L3.0145 7.1925C3.38219 7.45473 3.80466 7.62998 4.25 7.705V8C4.25 8.13261 4.30268 8.25979 4.39645 8.35355C4.49021 8.44732 4.61739 8.5 4.75 8.5C4.88261 8.5 5.00979 8.44732 5.10355 8.35355C5.19732 8.25979 5.25 8.13261 5.25 8V7.705C5.69534 7.62998 6.11781 7.45473 6.4855 7.1925L6.6945 7.4015C6.7888 7.49258 6.9151 7.54298 7.0462 7.54184C7.1773 7.5407 7.3027 7.48811 7.39541 7.39541C7.48811 7.3027 7.5407 7.1773 7.54184 7.0462C7.54298 6.9151 7.49258 6.7888 7.4015 6.6945L7.1925 6.4855C7.45473 6.11781 7.62998 5.69534 7.705 5.25H8C8.13261 5.25 8.25979 5.19732 8.35355 5.10355C8.44732 5.00979 8.5 4.88261 8.5 4.75C8.5 4.61739 8.44732 4.49021 8.35355 4.39645C8.25979 4.30268 8.13261 4.25 8 4.25H7.705C7.62998 3.80466 7.45473 3.38219 7.1925 3.0145L7.4015 2.8055C7.44926 2.75938 7.48735 2.7042 7.51355 2.6432C7.53976 2.5822 7.55355 2.51659 7.55413 2.4502C7.5547 2.38381 7.54205 2.31797 7.51691 2.25652C7.49177 2.19507 7.45464 2.13925 7.4077 2.0923C7.36075 2.04536 7.30492 2.00823 7.24348 1.98309C7.18203 1.95795 7.11619 1.9453 7.0498 1.94587C6.98341 1.94645 6.9178 1.96024 6.8568 1.98645C6.7958 2.01265 6.74062 2.05074 6.6945 2.0985L6.4855 2.3075C6.11781 2.04527 5.69534 1.87002 5.25 1.795V1.5C5.25 1.36739 5.19732 1.24021 5.10355 1.14645C5.00979 1.05268 4.88261 1 4.75 1C4.61739 1 4.49021 1.05268 4.39645 1.14645C4.30268 1.24021 4.25 1.36739 4.25 1.5V1.795C3.80466 1.87002 3.38219 2.04527 3.0145 2.3075L2.8055 2.0985C2.7112 2.00742 2.5849 1.95702 2.4538 1.95816C2.3227 1.9593 2.19729 2.01189 2.10459 2.10459C2.01189 2.19729 1.9593 2.3227 1.95816 2.4538C1.95702 2.5849 2.00742 2.7112 2.0985 2.8055L2.3075 3.0145C2.04527 3.38219 1.87002 3.80466 1.795 4.25H1.5C1.36739 4.25 1.24021 4.30268 1.14645 4.39645C1.05268 4.49021 1 4.61739 1 4.75C1 4.88261 1.05268 5.00979 1.14645 5.10355C1.24021 5.19732 1.36739 5.25 1.5 5.25ZM4.25 4.25C4.38261 4.25 4.50979 4.30268 4.60355 4.39645C4.69732 4.49021 4.75 4.61739 4.75 4.75C4.88261 4.75 5.00979 4.80268 5.10355 4.89645C5.19732 4.99021 5.25 5.11739 5.25 5.25C5.25 5.38261 5.19732 5.50979 5.10355 5.60355C5.00979 5.69732 4.88261 5.75 4.75 5.75C4.48486 5.74974 4.23066 5.64429 4.04319 5.45681C3.85571 5.26934 3.75026 5.01514 3.75 4.75C3.75 4.61739 3.80268 4.49021 3.89645 4.39645C3.99021 4.30268 4.11739 4.25 4.25 4.25ZM24 5.25H24.295C24.37 5.69534 24.5453 6.11781 24.8075 6.4855L24.5985 6.6945C24.5507 6.74062 24.5127 6.7958 24.4865 6.8568C24.4602 6.9178 24.4465 6.98341 24.4459 7.0498C24.4453 7.11619 24.4579 7.18203 24.4831 7.24348C24.5082 7.30492 24.5454 7.36075 24.5923 7.4077C24.6392 7.45464 24.6951 7.49177 24.7565 7.51691C24.818 7.54205 24.8838 7.5547 24.9502 7.55413C25.0166 7.55355 25.0822 7.53976 25.1432 7.51355C25.2042 7.48735 25.2594 7.44926 25.3055 7.4015L25.5145 7.1925C25.8822 7.45473 26.3047 7.62998 26.75 7.705V8C26.75 8.13261 26.8027 8.25979 26.8964 8.35355C26.9902 8.44732 27.1174 8.5 27.25 8.5C27.3826 8.5 27.5098 8.44732 27.6036 8.35355C27.6973 8.25979 27.75 8.13261 27.75 8V7.705C28.1953 7.62998 28.6178 7.45473 28.9855 7.1925L29.1945 7.4015C29.2888 7.49258 29.4151 7.54298 29.5462 7.54184C29.6773 7.5407 29.8027 7.48811 29.8954 7.39541C29.9881 7.3027 30.0407 7.1773 30.0418 7.0462C30.043 6.9151 29.9926 6.7888 29.9015 6.6945L29.6925 6.4855C29.9547 6.11781 30.13 5.69534 30.205 5.25H30.5C30.6326 5.25 30.7598 5.19732 30.8536 5.10355C30.9473 5.00979 31 4.88261 31 4.75C31 4.61739 30.9473 4.49021 30.8536 4.39645C30.7598 4.30268 30.6326 4.25 30.5 4.25H30.205C30.13 3.80466 29.9547 3.38219 29.6925 3.0145L29.9015 2.8055C29.9493 2.75938 29.9873 2.7042 30.0135 2.6432C30.0398 2.5822 30.0535 2.51659 30.0541 2.4502C30.0547 2.38381 30.0421 2.31797 30.0169 2.25652C29.9918 2.19507 29.9546 2.13925 29.9077 2.0923C29.8608 2.04536 29.8049 2.00823 29.7435 1.98309C29.682 1.95795 29.6162 1.9453 29.5498 1.94587C29.4834 1.94645 29.4178 1.96024 29.3568 1.98645C29.2958 2.01265 29.2406 2.05074 29.1945 2.0985L28.9855 2.3075C28.6178 2.04527 28.1953 1.87002 27.75 1.795V1.5C27.75 1.36739 27.6973 1.24021 27.6036 1.14645C27.5098 1.05268 27.3826 1 27.25 1C27.1174 1 26.9902 1.05268 26.8964 1.14645C26.8027 1.24021 26.75 1.36739 26.75 1.5V1.795C26.3047 1.87002 25.8822 2.04527 25.5145 2.3075L25.3055 2.0985C25.2112 2.00742 25.0849 1.95702 24.9538 1.95816C24.8227 1.9593 24.6973 2.01189 24.6046 2.10459C24.5119 2.19729 24.4593 2.3227 24.4582 2.4538C24.457 2.5849 24.5074 2.7112 24.5985 2.8055L24.8075 3.0145C24.5453 3.38219 24.37 3.80466 24.295 4.25H24C23.8674 4.25 23.7402 4.30268 23.6464 4.39645C23.5527 4.49021 23.5 4.61739 23.5 4.75C23.5 4.88261 23.5527 5.00979 23.6464 5.10355C23.7402 5.19732 23.8674 5.25 24 5.25ZM26.75 4.25C26.8826 4.25 27.0098 4.30268 27.1036 4.39645C27.1973 4.49021 27.25 4.61739 27.25 4.75C27.3826 4.75 27.5098 4.80268 27.6036 4.89645C27.6973 4.99021 27.75 5.11739 27.75 5.25C27.75 5.38261 27.6973 5.50979 27.6036 5.60355C27.5098 5.69732 27.3826 5.75 27.25 5.75C26.9849 5.74974 26.7307 5.64429 26.5432 5.45681C26.3557 5.26934 26.2503 5.01514 26.25 4.75C26.25 4.61739 26.3027 4.49021 26.3964 4.39645C26.4902 4.30268 26.6174 4.25 26.75 4.25ZM30.4897 26.7603H30.2065C30.1325 26.3112 29.9567 25.8851 29.6925 25.5145L29.8913 25.3158C29.939 25.2696 29.9771 25.2145 30.0033 25.1535C30.0295 25.0924 30.0433 25.0268 30.0439 24.9605C30.0445 24.8941 30.0318 24.8282 30.0067 24.7668C29.9815 24.7053 29.9444 24.6495 29.8974 24.6026C29.8505 24.5556 29.7947 24.5185 29.7332 24.4933C29.6718 24.4682 29.6059 24.4555 29.5395 24.4561C29.4732 24.4567 29.4076 24.4705 29.3465 24.4967C29.2855 24.5229 29.2304 24.561 29.1842 24.6087L28.9855 24.8075C28.6149 24.5433 28.1888 24.3675 27.7397 24.2935V24.0103C27.7397 23.8776 27.6871 23.7505 27.5933 23.6567C27.4995 23.5629 27.3724 23.5103 27.2397 23.5103C27.1071 23.5103 26.98 23.5629 26.8862 23.6567C26.7924 23.7505 26.7397 23.8776 26.7397 24.0103V24.2967C26.2981 24.3727 25.8793 24.5473 25.5145 24.8075L25.3055 24.5985C25.2112 24.5074 25.0849 24.457 24.9538 24.4582C24.8227 24.4593 24.6973 24.5119 24.6046 24.6046C24.5119 24.6973 24.4593 24.8227 24.4582 24.9538C24.457 25.0849 24.5074 25.2112 24.5985 25.3055L24.8075 25.5145C24.5433 25.8851 24.3675 26.3112 24.2935 26.7603H23.99C23.8574 26.7603 23.7302 26.8129 23.6364 26.9067C23.5427 27.0005 23.49 27.1276 23.49 27.2603C23.49 27.3929 23.5427 27.52 23.6364 27.6138C23.7302 27.7076 23.8574 27.7603 23.99 27.7603H24.297C24.373 28.2019 24.5476 28.6207 24.8078 28.9855L24.5885 29.2048C24.5407 29.2509 24.5027 29.306 24.4764 29.367C24.4502 29.4281 24.4365 29.4937 24.4359 29.56C24.4353 29.6264 24.4479 29.6923 24.4731 29.7537C24.4982 29.8152 24.5354 29.871 24.5823 29.9179C24.6292 29.9649 24.6851 30.002 24.7465 30.0272C24.808 30.0523 24.8738 30.065 24.9402 30.0644C25.0066 30.0638 25.0722 30.05 25.1332 30.0238C25.1942 29.9976 25.2494 29.9595 25.2955 29.9118L25.5147 29.6925C25.8796 29.9527 26.2984 30.1273 26.74 30.2033V30.5103C26.74 30.6429 26.7927 30.77 26.8864 30.8638C26.9802 30.9576 27.1074 31.0103 27.24 31.0103C27.3726 31.0103 27.4998 30.9576 27.5936 30.8638C27.6873 30.77 27.74 30.6429 27.74 30.5103V30.2065C28.189 30.1325 28.6152 29.9567 28.9858 29.6925L29.1947 29.9015C29.2885 29.9953 29.4157 30.048 29.5483 30.048C29.6809 30.048 29.8081 29.9954 29.9019 29.9016C29.9957 29.8079 30.0484 29.6807 30.0484 29.5481C30.0484 29.4155 29.9958 29.2883 29.902 29.1945L29.6928 28.9855C29.9529 28.6207 30.1275 28.2019 30.2035 27.7603H30.49C30.6226 27.7603 30.7498 27.7076 30.8436 27.6138C30.9373 27.52 30.99 27.3929 30.99 27.2603C30.99 27.1276 30.9373 27.0005 30.8436 26.9067C30.7498 26.8129 30.6224 26.7603 30.4897 26.7603ZM27.25 28.25C26.9849 28.2497 26.7307 28.1443 26.5432 27.9568C26.3557 27.7693 26.2503 27.5151 26.25 27.25C26.25 27.1174 26.3027 26.9902 26.3964 26.8964C26.4902 26.8027 26.6174 26.75 26.75 26.75C26.8826 26.75 27.0098 26.8027 27.1036 26.8964C27.1973 26.9902 27.25 27.1174 27.25 27.25C27.3826 27.25 27.5098 27.3027 27.6036 27.3964C27.6973 27.4902 27.75 27.6174 27.75 27.75C27.75 27.8826 27.6973 28.0098 27.6036 28.1036C27.5098 28.1973 27.3826 28.25 27.25 28.25ZM8 26.75H7.705C7.62998 26.3047 7.45473 25.8822 7.1925 25.5145L7.4015 25.3055C7.49258 25.2112 7.54298 25.0849 7.54184 24.9538C7.5407 24.8227 7.48811 24.6973 7.39541 24.6046C7.3027 24.5119 7.1773 24.4593 7.0462 24.4582C6.9151 24.457 6.7888 24.5074 6.6945 24.5985L6.4855 24.8075C6.11781 24.5453 5.69534 24.37 5.25 24.295V24C5.25 23.8674 5.19732 23.7402 5.10355 23.6464C5.00979 23.5527 4.88261 23.5 4.75 23.5C4.61739 23.5 4.49021 23.5527 4.39645 23.6464C4.30268 23.7402 4.25 23.8674 4.25 24V24.295C3.80466 24.37 3.38219 24.5453 3.0145 24.8075L2.8055 24.5985C2.7112 24.5074 2.5849 24.457 2.4538 24.4582C2.3227 24.4593 2.19729 24.5119 2.10459 24.6046C2.01189 24.6973 1.9593 24.8227 1.95816 24.9538C1.95702 25.0849 2.00742 25.2112 2.0985 25.3055L2.3075 25.5145C2.04527 25.8822 1.87002 26.3047 1.795 26.75H1.5C1.36739 26.75 1.24021 26.8027 1.14645 26.8964C1.05268 26.9902 1 27.1174 1 27.25C1 27.3826 1.05268 27.5098 1.14645 27.6036C1.24021 27.6973 1.36739 27.75 1.5 27.75H1.795C1.87002 28.1953 2.04527 28.6178 2.3075 28.9855L2.0985 29.1945C2.05074 29.2406 2.01265 29.2958 1.98645 29.3568C1.96024 29.4178 1.94645 29.4834 1.94587 29.5498C1.9453 29.6162 1.95795 29.682 1.98309 29.7435C2.00823 29.8049 2.04536 29.8608 2.0923 29.9077C2.13925 29.9546 2.19507 29.9918 2.25652 30.0169C2.31797 30.0421 2.38381 30.0547 2.4502 30.0541C2.51659 30.0535 2.5822 30.0398 2.6432 30.0135C2.7042 29.9873 2.75938 29.9493 2.8055 29.9015L3.0145 29.6925C3.38219 29.9547 3.80466 30.13 4.25 30.205V30.5C4.25 30.6326 4.30268 30.7598 4.39645 30.8536C4.49021 30.9473 4.61739 31 4.75 31C4.88261 31 5.00979 30.9473 5.10355 30.8536C5.19732 30.7598 5.25 30.6326 5.25 30.5V30.205C5.69534 30.13 6.11781 29.9547 6.4855 29.6925L6.6945 29.9015C6.7888 29.9926 6.9151 30.043 7.0462 30.0418C7.1773 30.0407 7.3027 29.9881 7.39541 29.8954C7.48811 29.8027 7.5407 29.6773 7.54184 29.5462C7.54298 29.4151 7.49258 29.2888 7.4015 29.1945L7.1925 28.9855C7.45473 28.6178 7.62998 28.1953 7.705 27.75H8C8.13261 27.75 8.25979 27.6973 8.35355 27.6036C8.44732 27.5098 8.5 27.3826 8.5 27.25C8.5 27.1174 8.44732 26.9902 8.35355 26.8964C8.25979 26.8027 8.13261 26.75 8 26.75ZM4.75 28.25C4.48486 28.2497 4.23066 28.1443 4.04319 27.9568C3.85571 27.7693 3.75026 27.5151 3.75 27.25C3.75 27.1174 3.80268 26.9902 3.89645 26.8964C3.99021 26.8027 4.11739 26.75 4.25 26.75C4.38261 26.75 4.50979 26.8027 4.60355 26.8964C4.69732 26.9902 4.75 27.1174 4.75 27.25C4.88261 27.25 5.00979 27.3027 5.10355 27.3964C5.19732 27.4902 5.25 27.6174 5.25 27.75C5.25 27.8826 5.19732 28.0098 5.10355 28.1036C5.00979 28.1973 4.88261 28.25 4.75 28.25Z" fill="#5D59EA"/>
</g>
<defs>
<clipPath id="clip0_102_5694">
<rect width="32" height="32" fill="white"/>
</clipPath>
</defs>
</svg>
