<svg width="43" height="50" viewBox="0 0 43 50" fill="none" xmlns="http://www.w3.org/2000/svg">
<path d="M36.3916 0C39.8289 0 42.616 2.78636 42.6162 6.22363V36.3916C42.6162 39.829 39.829 42.6162 36.3916 42.6162H6.22363C2.78638 42.616 0 39.8289 0 36.3916V6.22363C0.000170144 2.78648 2.78648 0.000195065 6.22363 0H36.3916ZM9.89551 22.9766V36.7197C13.2663 36.7774 13.843 36.6732 20.4326 34.5146C22.2973 33.8073 23.8934 33.4482 25.2363 33.4482C26.0168 33.4482 26.7876 33.5668 27.5498 33.8115C29.3328 34.3698 31.0558 35.5944 32.7207 37.4717V34.7197C28.9421 30.8723 25.0729 28.9541 21.1172 28.9541C19.9698 28.9541 18.8673 29.0992 17.8057 29.3945C17.1898 29.5675 16.4991 29.8026 15.7285 30.1162V20.4453L9.89551 22.9766ZM9.89551 20.3438L15.7285 17.8125V6.26074H9.89551V20.3438Z" fill="white"/>
<path d="M1.85061 45.5352L1.08702 49.1183H3.26669L3.09513 49.9114H0L0.933741 45.5338H1.8492L1.85061 45.5352Z" fill="white"/>
<path d="M7.26749 48.29C7.14936 48.8469 6.89062 49.2786 6.49265 49.5837C6.12984 49.8608 5.7136 49.9986 5.2411 49.9986C4.84173 49.9986 4.52251 49.8987 4.28205 49.6991C4.02189 49.4797 3.89111 49.1633 3.89111 48.7526C3.89111 48.6148 3.9094 48.4602 3.94596 48.2886C4.05986 47.7345 4.31861 47.3028 4.72079 46.9934C5.07938 46.7164 5.49422 46.5786 5.96672 46.5786C6.36609 46.5786 6.6853 46.6799 6.92577 46.8838C7.18592 47.1031 7.31671 47.4195 7.31671 47.8302C7.31671 47.9441 7.31389 48.0242 7.30686 48.072C7.30124 48.1184 7.28718 48.1916 7.26749 48.2886V48.29ZM6.38859 48.29C6.4125 48.1803 6.42515 48.0636 6.42515 47.9413C6.42515 47.75 6.38437 47.6009 6.30281 47.4955C6.20156 47.3647 6.03844 47.3 5.81484 47.3C5.52235 47.3 5.2861 47.4111 5.1061 47.6361C4.97532 47.8034 4.88251 48.02 4.82486 48.29C4.8122 48.3463 4.80236 48.4053 4.79392 48.4672C4.78548 48.5291 4.78126 48.5895 4.78126 48.65C4.78126 48.8328 4.82204 48.9777 4.90361 49.0845C5.00485 49.2153 5.16798 49.28 5.39157 49.28C5.68407 49.28 5.92031 49.1675 6.09891 48.9439C6.22969 48.7766 6.32531 48.5586 6.38578 48.29H6.38859Z" fill="white"/>
<path d="M11.247 46.6658L9.38513 49.9142H8.48795L8.01123 46.6658H8.96326L9.12778 49.0592L10.3371 46.6658H11.247Z" fill="white"/>
<path d="M13.2682 48.9608H14.1471C13.9685 49.3236 13.714 49.5936 13.3835 49.7736C13.1107 49.924 12.8154 50 12.499 50C12.0884 50 11.7748 49.9142 11.5582 49.7441C11.3093 49.5486 11.1855 49.2434 11.1855 48.8286C11.1855 48.6528 11.2095 48.4517 11.2587 48.2239C11.3318 47.8611 11.4809 47.5405 11.7044 47.2592C12.063 46.8078 12.5496 46.5814 13.1641 46.5814C13.5016 46.5814 13.773 46.656 13.9755 46.8078C14.2441 47.0075 14.3791 47.3295 14.3791 47.7725C14.3791 47.9638 14.3566 48.1634 14.3116 48.3702L14.275 48.5234H12.0462C12.0419 48.5642 12.0391 48.6022 12.0377 48.6359C12.0363 48.6711 12.0349 48.702 12.0349 48.7302C12.0349 48.8975 12.0701 49.0269 12.139 49.1211C12.236 49.2519 12.4048 49.3166 12.6452 49.3166C12.7718 49.3166 12.8927 49.2856 13.008 49.2252C13.1233 49.1633 13.2105 49.0761 13.2682 48.9622V48.9608ZM12.1938 47.9652H13.5185C13.5227 47.9328 13.5241 47.8878 13.5241 47.8316C13.5241 47.6361 13.4693 47.4913 13.3596 47.3984C13.2696 47.3211 13.1515 47.2831 13.0052 47.2831C12.8098 47.2831 12.6438 47.3422 12.5074 47.4603C12.371 47.5784 12.2669 47.7472 12.1938 47.9666V47.9652Z" fill="white"/>
<path d="M17.7498 47.9469H16.0398L15.6249 49.9128H14.7095L15.6432 45.5352H16.5587L16.2043 47.1904H17.9143L18.2687 45.5352H19.1841L18.2504 49.9128H17.3349L17.7498 47.9469Z" fill="white"/>
<path d="M22.3409 47.5194L21.9682 49.2772C21.9443 49.3995 21.9316 49.4937 21.9316 49.5584C21.9316 49.6315 21.9415 49.6836 21.9598 49.7145C21.978 49.7455 22.0076 49.768 22.0484 49.7848L22.0244 49.9128H21.1034C21.0991 49.8804 21.0963 49.8453 21.0935 49.8087C21.0921 49.7722 21.0907 49.7455 21.0907 49.73V49.5289C20.9206 49.6709 20.7729 49.775 20.6477 49.8397C20.4368 49.9451 20.2048 49.9986 19.9502 49.9986C19.7154 49.9986 19.527 49.9437 19.3863 49.834C19.2246 49.7117 19.1431 49.5303 19.1431 49.2898V49.1956C19.1431 49.1689 19.1515 49.1211 19.167 49.0522C19.2317 48.747 19.3681 48.508 19.5762 48.335C19.7843 48.162 20.036 48.0552 20.3327 48.0144L21.1259 47.8977C21.2201 47.885 21.2904 47.8653 21.3396 47.8372C21.417 47.7922 21.462 47.7359 21.4732 47.6684C21.4845 47.6009 21.4915 47.5574 21.4915 47.5377C21.4915 47.4238 21.4437 47.3492 21.348 47.3155C21.2524 47.2803 21.1357 47.2634 20.9965 47.2634C20.8052 47.2634 20.6562 47.3141 20.5507 47.4167C20.4776 47.4856 20.4199 47.5855 20.3791 47.7162H19.5551C19.6929 47.2691 19.9292 46.9555 20.2638 46.7755C20.5085 46.6447 20.8362 46.58 21.2468 46.58C21.6293 46.58 21.9204 46.6545 22.1201 46.8064C22.2832 46.9288 22.3648 47.0975 22.3648 47.3127V47.4097C22.3521 47.4589 22.3437 47.4955 22.3409 47.5194ZM21.2482 48.747L21.334 48.3322C21.2848 48.3645 21.213 48.3969 21.1174 48.4264C21.0218 48.4573 20.8798 48.4869 20.6927 48.515C20.5057 48.5431 20.3665 48.5839 20.2779 48.6373C20.1471 48.7105 20.067 48.8314 20.0346 48.9973C20.0262 49.0465 20.022 49.0817 20.022 49.1014C20.022 49.2026 20.0529 49.2772 20.1162 49.3208C20.1795 49.3658 20.2554 49.3883 20.3454 49.3883C20.5493 49.3883 20.7391 49.3292 20.9191 49.2111C21.0977 49.093 21.2074 48.9383 21.2482 48.747Z" fill="white"/>
<path d="M24.5334 45.5352L23.5996 49.9128H22.7446L23.6784 45.5352H24.5334Z" fill="white"/>
<path d="M26.0899 47.2761L25.5274 49.9142H24.6724L25.2306 47.2761H24.761L24.8903 46.6644H25.3614L25.4163 46.4028C25.4852 46.0808 25.6174 45.846 25.8128 45.6983C26.0083 45.5493 26.2614 45.4761 26.5708 45.4761H27.0053L26.8591 46.1596H26.6214C26.4878 46.1596 26.3992 46.1835 26.3556 46.2327C26.3134 46.2805 26.2769 46.3818 26.2488 46.5336L26.2178 46.6658H26.7733L26.6453 47.2761H26.0899Z" fill="white"/>
<path d="M26.7606 49.9128L27.6944 45.5352H29.8248C30.2354 45.5352 30.5364 45.6308 30.7276 45.8207C30.8823 45.9754 30.9596 46.1765 30.9596 46.424C30.9596 46.4886 30.9582 46.5379 30.954 46.5702C30.9414 46.611 30.9357 46.6391 30.9357 46.656C30.8781 46.9232 30.7642 47.1383 30.594 47.3015C30.497 47.3943 30.3662 47.4772 30.2031 47.5504C30.3747 47.6235 30.4984 47.7233 30.5757 47.8499C30.6531 47.9764 30.6911 48.1227 30.6911 48.29C30.6911 48.3955 30.6784 48.5038 30.6545 48.6135C30.5771 48.9721 30.3873 49.273 30.0864 49.5177C29.9148 49.6555 29.7447 49.7511 29.5731 49.8046C29.3453 49.8777 29.0261 49.9142 28.614 49.9142H26.7578L26.7606 49.9128ZM28.0487 47.9835L27.7984 49.1563H28.922C29.1456 49.1563 29.3298 49.1042 29.4747 49.0002C29.6195 48.8961 29.7151 48.7344 29.7643 48.515C29.7728 48.4588 29.777 48.418 29.777 48.3927C29.777 48.2577 29.7236 48.1564 29.6153 48.0875C29.507 48.0186 29.3748 47.9835 29.2159 47.9835H28.0501H28.0487ZM28.4087 46.2932L28.2076 47.2452H29.282C29.4775 47.2452 29.6378 47.2086 29.7643 47.1355C29.9064 47.0511 29.9964 46.926 30.0329 46.7601C30.0414 46.739 30.0456 46.7179 30.0456 46.694V46.6391C30.0456 46.514 29.9964 46.4254 29.8965 46.3719C29.7967 46.3199 29.6518 46.2932 29.4592 46.2932H28.4087Z" fill="white"/>
<path d="M33.0382 45.5352L32.1045 49.9128H31.2495L32.1833 45.5352H33.0382Z" fill="white"/>
<path d="M33.7583 46.6659H34.6133L33.9229 49.9143H33.0679L33.7569 46.6659H33.7583ZM34.8636 45.4874L34.6921 46.2805H33.8371L34.0086 45.4874H34.8636Z" fill="white"/>
<path d="M38.2766 47.667L37.7999 49.9142H36.9449L37.3654 47.9427C37.3865 47.8611 37.3963 47.7753 37.3963 47.6853C37.3963 47.5714 37.3682 47.4842 37.3106 47.4224C37.2374 47.3408 37.1151 47.3 36.9435 47.3C36.7439 47.3 36.5681 47.3647 36.4162 47.4955C36.2629 47.6262 36.1631 47.8105 36.1139 48.0509L35.7173 49.9128H34.8623L35.5528 46.6644H36.3712L36.2671 47.1411C36.4092 46.978 36.5371 46.8599 36.6524 46.7867C36.8634 46.6489 37.1067 46.58 37.3795 46.58C37.6523 46.58 37.8899 46.6489 38.0573 46.7867C38.2246 46.9259 38.3076 47.1256 38.3076 47.3858C38.3076 47.4631 38.2977 47.5573 38.2766 47.667Z" fill="white"/>
<path d="M42.6176 45.5352L41.6839 49.9128H40.8472L40.933 49.5036C40.7952 49.6752 40.6264 49.8031 40.4267 49.8875C40.2552 49.9606 40.0724 49.9972 39.8769 49.9972C39.5183 49.9972 39.2483 49.8819 39.0655 49.6485C38.9024 49.4403 38.8208 49.1577 38.8208 48.8005C38.8208 48.7035 38.825 48.6149 38.8335 48.5347C38.8419 48.4546 38.8574 48.3603 38.8827 48.2507C38.9966 47.7135 39.2202 47.2944 39.5549 46.9921C39.86 46.7151 40.2045 46.5772 40.587 46.5772C40.8317 46.5772 41.0272 46.6349 41.1734 46.7488C41.2789 46.8304 41.3605 46.9429 41.4181 47.0849L41.7669 45.5338H42.6219L42.6176 45.5352ZM39.7475 48.3125C39.7236 48.418 39.711 48.5291 39.711 48.6416C39.711 48.8328 39.7475 48.9833 39.8206 49.093C39.9092 49.228 40.0484 49.2941 40.2355 49.2941C40.4872 49.2941 40.7009 49.1985 40.8767 49.0072C41.0314 48.8356 41.1369 48.6205 41.1945 48.3603C41.2269 48.2099 41.2438 48.0721 41.2438 47.9455C41.2438 47.75 41.2044 47.601 41.1284 47.4997C41.0342 47.3774 40.8866 47.3169 40.6827 47.3169C40.4295 47.3169 40.22 47.4182 40.0541 47.6221C39.912 47.7936 39.8094 48.0228 39.7489 48.3125H39.7475Z" fill="white"/>
</svg>
