<svg width="94" height="50" viewBox="0 0 94 50" fill="none" xmlns="http://www.w3.org/2000/svg">
<path d="M24.3704 11.8609C23.889 11.8609 23.4075 11.8228 22.9261 11.7464C22.4447 11.681 21.9907 11.5774 21.564 11.4356C21.1372 11.2829 20.7543 11.0975 20.4151 10.8793C20.2182 10.7485 20.0814 10.5903 20.0048 10.4049C19.9282 10.2195 19.9009 10.0395 19.9228 9.86503C19.9556 9.67962 20.0267 9.52147 20.1361 9.39059C20.2565 9.24881 20.4042 9.16155 20.5792 9.12883C20.7543 9.09611 20.9458 9.14519 21.1537 9.27607C21.6351 9.55965 22.1438 9.76687 22.68 9.89775C23.2161 10.0286 23.7795 10.0941 24.3704 10.0941C25.2347 10.0941 25.8638 9.95228 26.2577 9.66871C26.6516 9.37423 26.8486 8.99796 26.8486 8.53988C26.8486 8.15815 26.7063 7.85821 26.4218 7.64008C26.1483 7.42195 25.6724 7.24199 24.994 7.1002L23.1887 6.72393C22.1493 6.50579 21.3725 6.14042 20.8582 5.62781C20.3549 5.10429 20.1033 4.41718 20.1033 3.56646C20.1033 3.03204 20.2127 2.54669 20.4315 2.11043C20.6504 1.67416 20.9567 1.29789 21.3506 0.981595C21.7554 0.665304 22.2314 0.425358 22.7784 0.261758C23.3364 0.0872528 23.9491 0 24.6165 0C25.273 0 25.8967 0.0817995 26.4875 0.245399C27.0783 0.408998 27.609 0.648943 28.0794 0.965235C28.2545 1.08521 28.3694 1.23245 28.4241 1.40695C28.4897 1.58146 28.5061 1.75596 28.4733 1.93047C28.4405 2.09407 28.3639 2.23586 28.2436 2.35583C28.1232 2.4758 27.97 2.54669 27.784 2.56851C27.609 2.59032 27.4066 2.53579 27.1768 2.40491C26.772 2.17587 26.3617 2.01227 25.9459 1.91411C25.5301 1.81595 25.0815 1.76687 24.6001 1.76687C24.0968 1.76687 23.6647 1.83776 23.3036 1.97955C22.9425 2.12134 22.6635 2.32311 22.4666 2.58487C22.2806 2.83572 22.1876 3.13565 22.1876 3.48466C22.1876 3.8773 22.3189 4.19359 22.5815 4.43354C22.8441 4.66258 23.2927 4.84254 23.9273 4.97342L25.7161 5.34969C26.7993 5.57873 27.6035 5.93865 28.1287 6.42945C28.6648 6.92025 28.9329 7.57464 28.9329 8.39264C28.9329 8.91616 28.8234 9.39059 28.6046 9.81595C28.3967 10.2413 28.0904 10.6067 27.6856 10.9121C27.2917 11.2175 26.8157 11.4519 26.2577 11.6155C25.6997 11.7791 25.0706 11.8609 24.3704 11.8609Z" fill="white"/>
<path d="M31.5564 11.8282C31.2282 11.8282 30.9766 11.741 30.8015 11.5665C30.6264 11.381 30.5389 11.1193 30.5389 10.7812V1.06339C30.5389 0.725289 30.6264 0.468984 30.8015 0.294479C30.9766 0.119972 31.2282 0.0327194 31.5564 0.0327194C31.8847 0.0327194 32.1363 0.119972 32.3114 0.294479C32.4974 0.468984 32.5904 0.725289 32.5904 1.06339V5.30061H32.3606C32.6013 4.72256 32.9733 4.2863 33.4766 3.99182C33.9909 3.68643 34.5707 3.53374 35.2163 3.53374C35.8618 3.53374 36.3924 3.65371 36.8082 3.89366C37.224 4.13361 37.5358 4.49898 37.7437 4.98977C37.9516 5.46967 38.0555 6.08044 38.0555 6.82209V10.7812C38.0555 11.1193 37.968 11.381 37.7929 11.5665C37.6179 11.741 37.3662 11.8282 37.038 11.8282C36.7097 11.8282 36.4526 11.741 36.2666 11.5665C36.0916 11.381 36.004 11.1193 36.004 10.7812V6.92025C36.004 6.29857 35.8837 5.84594 35.643 5.56237C35.4132 5.2788 35.0522 5.13701 34.5598 5.13701C33.958 5.13701 33.4766 5.32788 33.1156 5.70961C32.7654 6.08044 32.5904 6.57669 32.5904 7.19836V10.7812C32.5904 11.4792 32.2457 11.8282 31.5564 11.8282Z" fill="white"/>
<path d="M43.799 11.8609C42.9675 11.8609 42.2454 11.6919 41.6326 11.3538C41.0199 11.0157 40.544 10.5358 40.2048 9.91411C39.8656 9.28153 39.6961 8.53988 39.6961 7.68916C39.6961 7.04567 39.7891 6.47307 39.9751 5.97137C40.172 5.45876 40.451 5.0225 40.8121 4.66258C41.1731 4.29175 41.6053 4.01363 42.1086 3.82822C42.6119 3.6319 43.1754 3.53374 43.799 3.53374C44.6305 3.53374 45.3527 3.70279 45.9654 4.0409C46.5781 4.379 47.054 4.8589 47.3932 5.48057C47.7324 6.10225 47.902 6.83845 47.902 7.68916C47.902 8.33265 47.8035 8.9107 47.6065 9.42331C47.4205 9.93592 47.147 10.3776 46.786 10.7485C46.4249 11.1084 45.9927 11.3865 45.4894 11.5828C44.9861 11.7682 44.4227 11.8609 43.799 11.8609ZM43.799 10.3067C44.2038 10.3067 44.5594 10.2086 44.8658 10.0123C45.1721 9.81595 45.4074 9.52693 45.5715 9.14519C45.7465 8.75256 45.8341 8.26721 45.8341 7.68916C45.8341 6.81663 45.6481 6.16769 45.2761 5.74233C44.9041 5.30607 44.4117 5.08793 43.799 5.08793C43.3942 5.08793 43.0386 5.18609 42.7322 5.38241C42.4259 5.56783 42.1852 5.85685 42.0101 6.24949C41.846 6.63122 41.7639 7.11111 41.7639 7.68916C41.7639 8.55078 41.9499 9.20518 42.3219 9.65235C42.6939 10.0886 43.1863 10.3067 43.799 10.3067Z" fill="white"/>
<path d="M50.6127 14.773C50.2845 14.773 50.0328 14.6858 49.8578 14.5112C49.6827 14.3367 49.5952 14.0804 49.5952 13.7423V4.59714C49.5952 4.25903 49.6827 4.00273 49.8578 3.82822C50.0328 3.65372 50.279 3.56646 50.5963 3.56646C50.9246 3.56646 51.1762 3.65372 51.3513 3.82822C51.5263 4.00273 51.6138 4.25903 51.6138 4.59714V5.87321L51.4333 5.38241C51.5974 4.82618 51.9311 4.379 52.4344 4.0409C52.9487 3.70279 53.545 3.53374 54.2233 3.53374C54.9236 3.53374 55.5363 3.70279 56.0614 4.0409C56.5976 4.379 57.0133 4.8589 57.3087 5.48057C57.6042 6.09134 57.7519 6.82754 57.7519 7.68916C57.7519 8.53988 57.6042 9.28153 57.3087 9.91411C57.0133 10.5358 56.603 11.0157 56.0779 11.3538C55.5527 11.6919 54.9345 11.8609 54.2233 11.8609C53.5559 11.8609 52.9706 11.6973 52.4673 11.3701C51.964 11.032 51.6248 10.5958 51.4497 10.0613H51.6467V13.7423C51.6467 14.0804 51.5537 14.3367 51.3677 14.5112C51.1926 14.6858 50.941 14.773 50.6127 14.773ZM53.6489 10.3067C54.0537 10.3067 54.4093 10.2086 54.7157 10.0123C55.022 9.81595 55.2573 9.52693 55.4214 9.14519C55.5964 8.75256 55.684 8.26721 55.684 7.68916C55.684 6.81663 55.498 6.16769 55.126 5.74233C54.754 5.30607 54.2616 5.08793 53.6489 5.08793C53.2441 5.08793 52.8885 5.18609 52.5821 5.38241C52.2758 5.56783 52.0351 5.85685 51.86 6.24949C51.6959 6.63122 51.6138 7.11111 51.6138 7.68916C51.6138 8.55078 51.7998 9.20518 52.1718 9.65235C52.5438 10.0886 53.0362 10.3067 53.6489 10.3067Z" fill="white"/>
<path d="M60.7488 11.6973C60.3878 11.6973 60.1088 11.6046 59.9118 11.4192C59.7258 11.2229 59.6328 10.9448 59.6328 10.5849V1.27607C59.6328 0.916156 59.7258 0.64349 59.9118 0.458078C60.1088 0.261759 60.3878 0.163599 60.7488 0.163599H66.6078C66.8814 0.163599 67.0892 0.234492 67.2315 0.376278C67.3847 0.518064 67.4612 0.719837 67.4612 0.981595C67.4612 1.25426 67.3847 1.46694 67.2315 1.61963C67.0892 1.76142 66.8814 1.83231 66.6078 1.83231H61.6515V5.00614H66.2468C66.5312 5.00614 66.7446 5.07703 66.8868 5.21881C67.0291 5.3606 67.1002 5.56783 67.1002 5.84049C67.1002 6.11316 67.0291 6.32038 66.8868 6.46217C66.7446 6.60395 66.5312 6.67485 66.2468 6.67485H61.6515V10.0286H66.6078C66.8814 10.0286 67.0892 10.0995 67.2315 10.2413C67.3847 10.3831 67.4612 10.5903 67.4612 10.863C67.4612 11.1357 67.3847 11.3429 67.2315 11.4847C67.0892 11.6264 66.8814 11.6973 66.6078 11.6973H60.7488Z" fill="white"/>
<path d="M71.7906 11.8609C71.2107 11.8609 70.691 11.7519 70.2315 11.5337C69.7829 11.3047 69.4273 10.9993 69.1647 10.6176C68.9131 10.2359 68.7873 9.80504 68.7873 9.32515C68.7873 8.7362 68.9404 8.27267 69.2468 7.93456C69.5531 7.58555 70.051 7.3347 70.7403 7.182C71.4296 7.02931 72.3541 6.95296 73.5139 6.95296H74.3345V8.13088H73.5303C72.8519 8.13088 72.3103 8.1636 71.9055 8.22904C71.5007 8.29448 71.2107 8.409 71.0357 8.5726C70.8716 8.72529 70.7895 8.94342 70.7895 9.22699C70.7895 9.58691 70.9153 9.88139 71.167 10.1104C71.4186 10.3395 71.7687 10.454 72.2173 10.454C72.5784 10.454 72.8957 10.3722 73.1692 10.2086C73.4537 10.0341 73.678 9.79959 73.8421 9.50511C74.0062 9.21063 74.0883 8.87253 74.0883 8.4908V6.60941C74.0883 6.06408 73.9679 5.67144 73.7272 5.43149C73.4865 5.19155 73.0817 5.07157 72.5127 5.07157C72.1955 5.07157 71.8508 5.10975 71.4788 5.18609C71.1177 5.26244 70.7348 5.39332 70.33 5.57873C70.1221 5.67689 69.9361 5.70416 69.772 5.66053C69.6188 5.61691 69.4984 5.52965 69.4109 5.39877C69.3234 5.25699 69.2796 5.10429 69.2796 4.9407C69.2796 4.7771 69.3234 4.61895 69.4109 4.46626C69.4984 4.30266 69.6462 4.18269 69.854 4.10634C70.3573 3.89911 70.8387 3.75187 71.2983 3.66462C71.7687 3.57737 72.1954 3.53374 72.5784 3.53374C73.3662 3.53374 74.0117 3.65371 74.515 3.89366C75.0292 4.13361 75.4122 4.49898 75.6638 4.98977C75.9155 5.46967 76.0413 6.09134 76.0413 6.85481V10.7812C76.0413 11.1193 75.9592 11.381 75.7951 11.5665C75.631 11.741 75.3958 11.8282 75.0894 11.8282C74.783 11.8282 74.5423 11.741 74.3673 11.5665C74.2032 11.381 74.1211 11.1193 74.1211 10.7812V9.99591H74.2524C74.1758 10.3776 74.0226 10.7103 73.7929 10.9939C73.574 11.2665 73.295 11.4792 72.9559 11.6319C72.6167 11.7846 72.2283 11.8609 71.7906 11.8609Z" fill="white"/>
<path d="M81.0612 11.8609C80.5908 11.8609 80.093 11.8119 79.5678 11.7137C79.0426 11.6155 78.5721 11.4465 78.1564 11.2065C77.9813 11.0975 77.8555 10.9721 77.7789 10.8303C77.7132 10.6776 77.6859 10.5303 77.6968 10.3885C77.7187 10.2359 77.7734 10.105 77.8609 9.99591C77.9594 9.88684 78.0798 9.81595 78.222 9.78323C78.3752 9.75051 78.5393 9.77778 78.7144 9.86503C79.152 10.0723 79.5623 10.2195 79.9452 10.3067C80.3282 10.3831 80.7057 10.4213 81.0777 10.4213C81.6028 10.4213 81.9913 10.334 82.2429 10.1595C82.5055 9.9741 82.6368 9.73415 82.6368 9.43967C82.6368 9.18882 82.5493 8.99795 82.3742 8.86708C82.2101 8.72529 81.9584 8.62168 81.6192 8.55624L79.9781 8.2454C79.2997 8.11452 78.78 7.86912 78.4189 7.5092C78.0688 7.13838 77.8938 6.66394 77.8938 6.08589C77.8938 5.56237 78.036 5.10975 78.3205 4.72802C78.6159 4.34628 79.0207 4.05181 79.535 3.84458C80.0492 3.63736 80.64 3.53374 81.3074 3.53374C81.7888 3.53374 82.2374 3.58828 82.6532 3.69734C83.0799 3.7955 83.4902 3.95365 83.8841 4.17178C84.0482 4.25903 84.1576 4.37355 84.2123 4.51534C84.278 4.65712 84.2944 4.80436 84.2616 4.95706C84.2287 5.09884 84.1631 5.22972 84.0646 5.34969C83.9661 5.45876 83.8403 5.52965 83.6871 5.56237C83.5449 5.58419 83.3808 5.55147 83.1948 5.46421C82.8556 5.28971 82.5274 5.16428 82.2101 5.08793C81.9037 5.01159 81.6083 4.97342 81.3238 4.97342C80.7877 4.97342 80.3884 5.06612 80.1258 5.25153C79.8741 5.43695 79.7483 5.68235 79.7483 5.98773C79.7483 6.21677 79.8249 6.40763 79.9781 6.56033C80.1312 6.71302 80.3665 6.81663 80.6838 6.87117L82.325 7.182C83.0361 7.31288 83.5723 7.55283 83.9333 7.90184C84.3053 8.25085 84.4913 8.71984 84.4913 9.30879C84.4913 10.105 84.1795 10.7321 83.5558 11.1902C82.9322 11.6374 82.1007 11.8609 81.0612 11.8609Z" fill="white"/>
<path d="M88.0119 14.773C87.7712 14.773 87.5743 14.7076 87.4211 14.5767C87.2679 14.4567 87.1749 14.2931 87.1421 14.0859C87.1202 13.8787 87.1585 13.6605 87.257 13.4315L88.373 10.9611V11.8119L85.386 4.92434C85.2875 4.68439 85.2547 4.4608 85.2875 4.25358C85.3204 4.04635 85.4188 3.88275 85.583 3.76278C85.758 3.6319 85.9933 3.56646 86.2887 3.56646C86.5403 3.56646 86.7427 3.62645 86.8959 3.74642C87.0491 3.85549 87.1858 4.06817 87.3062 4.38446L89.5218 9.89775H89.0294L91.2943 4.3681C91.4146 4.06271 91.5569 3.85549 91.721 3.74642C91.8851 3.62645 92.1039 3.56646 92.3774 3.56646C92.6182 3.56646 92.8096 3.6319 92.9519 3.76278C93.0941 3.88275 93.1816 4.04635 93.2144 4.25358C93.2473 4.4499 93.209 4.66803 93.0996 4.90798L89.1115 13.9877C88.9693 14.2931 88.8161 14.5003 88.652 14.6094C88.4879 14.7185 88.2745 14.773 88.0119 14.773Z" fill="white"/>
<path fill-rule="evenodd" clip-rule="evenodd" d="M5.36531 16.8657C5.13234 16.8657 4.9089 16.7735 4.74417 16.6093C4.57943 16.445 4.48688 16.2223 4.48688 15.9901C4.48688 15.7578 4.57943 15.5351 4.74417 15.3709C4.9089 15.2067 5.13234 15.1144 5.36531 15.1144H11.9531C12.186 15.1144 12.4095 15.2067 12.5742 15.3709C12.7389 15.5351 12.8315 15.7578 12.8315 15.9901C12.8315 16.2223 12.7389 16.445 12.5742 16.6093C12.4095 16.7735 12.186 16.8657 11.9531 16.8657H5.36531ZM21.0007 36.4474H44.5526C45.8277 36.4474 47.0155 36.0425 47.9856 35.3289C48.9485 34.6203 49.6834 33.6089 50.0607 32.3896L54.5415 17.9081C54.6109 17.7342 54.649 17.5446 54.649 17.346C54.649 16.5052 53.9652 15.8236 53.1217 15.8236H17.9408L16.2803 8.96673C16.1009 8.22583 15.6871 7.60105 15.1261 7.16071C14.5623 6.71807 13.8562 6.46249 13.0952 6.46249H9.60645C8.76294 6.46249 8.0792 7.14408 8.0792 7.98492C8.0792 8.82576 8.76294 9.50734 9.60645 9.50734H13.0951C13.155 9.50734 13.2054 9.52343 13.2408 9.55134C13.2793 9.58155 13.308 9.6261 13.3212 9.68028L19.1414 33.7137C18.3236 33.9971 17.5808 34.4617 16.969 35.0724C15.9354 36.1027 15.2937 37.5253 15.2937 39.0914C15.2937 40.6574 15.9353 42.08 16.969 43.1104C17.9431 44.0815 19.2668 44.7053 20.7309 44.7739C20.727 44.8547 20.7249 44.9359 20.7249 45.0176C20.7249 47.7694 22.9627 50 25.7232 50C28.4837 50 30.7215 47.7693 30.7215 45.0176C30.7215 44.938 30.7194 44.859 30.7158 44.7804H39.2239C39.2201 44.8594 39.2182 44.9385 39.2181 45.0176C39.2181 47.7694 41.4559 50 44.2165 50C46.9771 50 49.2148 47.7693 49.2148 45.0176C49.2148 42.2658 46.9771 40.035 44.2165 40.035C42.7171 40.035 41.3722 40.6933 40.4561 41.7354H29.4838C28.5677 40.6933 27.2227 40.035 25.7233 40.035C24.224 40.035 22.879 40.6933 21.9629 41.7354H21.0007C20.2728 41.7354 19.6101 41.4375 19.1286 40.9576C18.6471 40.4777 18.3483 39.8169 18.3483 39.0914C18.3483 38.3658 18.6472 37.7051 19.1286 37.2252C19.6102 36.7453 20.2729 36.4474 21.0007 36.4474ZM19.8515 22.9645C19.7908 22.9645 19.7318 22.9717 19.6753 22.9853L18.6783 18.8684H26.9473V22.9645H19.8515ZM22.198 33.4025L21.2062 29.3066H26.9473V33.4025H22.198ZM26.9473 27.8091H21.0207C20.9613 27.8091 20.9037 27.816 20.8483 27.8291L20.0329 24.462H26.9474L26.9473 27.8091ZM28.4495 22.9645V18.8684H33.9536V22.9645H28.4495ZM28.4495 27.8091V24.462H33.9536V27.8091H28.4495ZM35.4559 22.9645V18.8684H40.96V22.9645H35.4559ZM35.4559 27.8091V24.462H40.96V27.8091H35.4559ZM42.4622 22.9645V18.8684H51.057L49.7793 22.9976C49.7076 22.9755 49.6329 22.9644 49.5579 22.9645H42.4622ZM28.4495 33.4025V29.3066H33.9536V33.4025H28.4495ZM42.4622 27.8091V24.462H49.3263L48.2803 27.8423C48.2086 27.8203 48.1339 27.8091 48.0588 27.8091H42.4622ZM35.4559 33.4025V29.3066H40.96V33.4025H35.4559ZM42.4622 33.4025V29.3066H47.8273L47.1493 31.4976C46.9694 32.0793 46.6233 32.5585 46.1721 32.8906C45.728 33.2173 45.1684 33.4027 44.5526 33.4027L42.4622 33.4025ZM42.1814 45.0176C42.1814 43.8972 43.0925 42.9889 44.2165 42.9889C45.3404 42.9889 46.2516 43.8972 46.2516 45.0176C46.2516 46.138 45.3404 47.0462 44.2165 47.0462C43.0925 47.0462 42.1814 46.138 42.1814 45.0176ZM25.7233 42.9889C26.8473 42.9889 27.7584 43.8972 27.7584 45.0176C27.7584 46.138 26.8473 47.0462 25.7233 47.0462C24.5994 47.0462 23.6883 46.138 23.6883 45.0176C23.6883 43.8972 24.5994 42.9889 25.7233 42.9889ZM4.60064 26.0343C4.36767 26.0343 4.14424 25.942 3.9795 25.7778C3.81476 25.6136 3.72221 25.3909 3.72221 25.1587C3.72221 24.9264 3.81476 24.7037 3.9795 24.5395C4.14424 24.3753 4.36767 24.283 4.60064 24.283H13.6835C13.9165 24.283 14.14 24.3753 14.3047 24.5395C14.4694 24.7037 14.562 24.9264 14.562 25.1587C14.562 25.3909 14.4694 25.6136 14.3047 25.7778C14.14 25.942 13.9165 26.0343 13.6835 26.0343H4.60064ZM0.878425 21.4501C0.645452 21.4501 0.422021 21.3578 0.257285 21.1936C0.0925481 21.0294 0 20.8067 0 20.5744C0 20.3422 0.0925481 20.1195 0.257285 19.9552C0.422021 19.791 0.645452 19.6988 0.878425 19.6988H8.02715C8.26013 19.6988 8.48356 19.791 8.64829 19.9552C8.81303 20.1195 8.90558 20.3422 8.90558 20.5744C8.90558 20.8067 8.81303 21.0294 8.64829 21.1936C8.48356 21.3578 8.26013 21.4501 8.02715 21.4501H0.878425Z" fill="white"/>
</svg>
