<svg width="48" height="50" viewBox="0 0 48 50" fill="none" xmlns="http://www.w3.org/2000/svg">
<path fill-rule="evenodd" clip-rule="evenodd" d="M22.0544 15.8379C22.0544 16.0437 22.0544 16.1703 22.0544 16.2969C22.0547 17.3897 22.0495 18.4825 22.0564 19.5753C22.073 22.1927 23.8823 24.6034 26.3807 25.3608C29.4132 26.2802 32.7061 24.7568 33.8841 21.7478C34.2153 20.9018 34.3259 20.0152 34.3247 19.1064C34.3177 13.6304 34.3232 8.15422 34.3182 2.67816C34.3172 1.72517 34.6365 0.957999 35.4615 0.422533C36.6646 -0.358259 38.4095 0.172884 38.9141 1.51191C39.0419 1.85083 39.1202 2.23067 39.1209 2.59192C39.1321 8.33218 39.1399 14.0725 39.1188 19.8127C39.112 21.6635 38.6449 23.4105 37.7118 25.0241C37.1682 25.9642 36.4634 26.7627 35.6643 27.4915C34.2769 28.757 32.6712 29.6291 30.8664 30.1054C29.7275 30.4061 28.555 30.4917 27.37 30.4003C25.2119 30.2338 23.2732 29.5001 21.5538 28.1952C20.0683 27.0678 18.9475 25.6432 18.187 23.939C17.6851 22.8143 17.372 21.6431 17.3055 20.4073C17.285 20.0267 17.4037 19.7527 17.6989 19.5038C19.089 18.332 20.4645 17.1429 21.8462 15.9608C21.88 15.9319 21.9237 15.9144 22.0544 15.8379Z" fill="white"/>
<path fill-rule="evenodd" clip-rule="evenodd" d="M25.7376 7.72963C20.0608 12.5567 14.4448 17.3323 8.75932 22.1667C8.73014 21.9734 8.69973 21.865 8.69952 21.7565C8.69663 19.9197 8.68914 18.0827 8.70982 16.2461C8.71198 16.0515 8.83605 15.8021 8.98562 15.6737C10.7637 14.1472 12.56 12.6418 14.3464 11.1249C16.4151 9.36823 18.486 7.61421 20.5425 5.84347C22.6983 3.98713 24.838 2.11207 26.9861 0.24687C27.0559 0.186277 27.1349 0.118839 27.2205 0.0963602C28.5357 -0.248249 29.8511 0.351989 30.3899 1.56839C30.507 1.83295 30.5623 2.14672 30.5628 2.43801C30.5726 8.14052 30.5757 13.8431 30.5662 19.5456C30.5639 20.9277 29.3719 22.0407 27.9982 21.9046C26.8081 21.7867 25.8103 20.9604 25.8032 19.3746C25.7972 18.0217 25.8745 16.6684 25.8677 15.3155C25.8554 12.8936 25.8079 10.4719 25.7737 8.05017C25.7725 7.97027 25.7562 7.89059 25.7376 7.72963Z" fill="white"/>
<path d="M25.1953 46.408C25.1953 46.9121 25.1255 47.3495 24.9863 47.7186C24.8472 48.0874 24.6527 48.4113 24.4023 48.6902C24.1519 48.9693 23.8593 49.2127 23.5254 49.4197C23.1916 49.6267 22.8298 49.8199 22.4404 49.9998L21.5088 48.5018C21.8612 48.3218 22.1299 48.1408 22.3154 47.9608C22.5101 47.7898 22.649 47.6143 22.7324 47.4344C22.8251 47.2635 22.8764 47.0973 22.8857 46.9354C22.9043 46.7643 22.9141 46.5974 22.9141 46.4354V37.8475H25.1953V46.408ZM29.6514 40.076C30.7551 40.076 31.5577 40.3819 32.0586 40.994C32.5687 41.6061 32.8232 42.4528 32.8232 43.533C32.8232 44.0461 32.7544 44.5236 32.6152 44.9647C32.4854 45.3966 32.2811 45.7745 32.0029 46.0984C31.7339 46.4135 31.3901 46.6653 30.9727 46.8543C30.5646 47.0343 30.0872 47.1248 29.54 47.1248C28.9835 47.1248 28.5009 47.0484 28.0928 46.8953C27.6942 46.7334 27.3651 46.5037 27.1055 46.2068C26.855 45.9098 26.665 45.5489 26.5352 45.1258C26.4146 44.6938 26.3535 44.2124 26.3535 43.6815C26.3535 43.1684 26.419 42.6909 26.5488 42.2498C26.688 41.8089 26.8922 41.431 27.1611 41.116C27.4393 40.792 27.7824 40.5402 28.1904 40.3602C28.6078 40.1711 29.0948 40.076 29.6514 40.076ZM36.8799 40.076C37.9835 40.076 38.7863 40.3819 39.2871 40.994C39.7973 41.6061 40.0518 42.4528 40.0518 43.533C40.0517 44.0461 39.9819 44.5236 39.8428 44.9647C39.7129 45.3964 39.5095 45.7746 39.2314 46.0984C38.9625 46.4135 38.6186 46.6653 38.2012 46.8543C37.7931 47.0343 37.3157 47.1248 36.7686 47.1248C36.212 47.1248 35.7294 47.0484 35.3213 46.8953C34.9226 46.7334 34.5936 46.5037 34.334 46.2068C34.0835 45.9098 33.8926 45.5489 33.7627 45.1258C33.6422 44.6938 33.582 44.2123 33.582 43.6815C33.582 43.1684 33.6475 42.6909 33.7773 42.2498C33.9165 41.8089 34.1207 41.431 34.3896 41.116C34.6679 40.792 35.0109 40.5402 35.4189 40.3602C35.8363 40.1711 36.3234 40.076 36.8799 40.076ZM47.0713 37.5643V43.7352C47.0713 44.2662 47.1084 44.7121 47.1826 45.0721C47.266 45.4319 47.3546 45.7241 47.4473 45.949C47.54 46.165 47.6284 46.318 47.7119 46.408L47.8369 46.5574L46.0693 47.0975L45.9863 47.0027C45.9307 46.9487 45.8652 46.8629 45.791 46.7459C45.7169 46.6289 45.6435 46.4889 45.5693 46.327C45.4952 46.156 45.4394 45.9628 45.4023 45.7469C45.2447 46.17 45.0121 46.4982 44.7061 46.7322C44.4 46.9572 43.9968 47.0701 43.4961 47.0701C43.0416 47.0701 42.642 46.989 42.2988 46.827C41.9652 46.665 41.6873 46.4399 41.4648 46.1522C41.2422 45.8551 41.0752 45.4989 40.9639 45.0848C40.8619 44.6708 40.8105 44.2118 40.8105 43.7078C40.8106 43.1948 40.8936 42.7172 41.0605 42.2762C41.2367 41.8353 41.4782 41.4574 41.7842 41.1424C42.0903 40.8183 42.4571 40.5666 42.8838 40.3865C43.3104 40.2065 43.7833 40.116 44.3027 40.116C44.3862 40.116 44.4746 40.1207 44.5674 40.1297C44.6693 40.1387 44.7711 40.1481 44.873 40.157V37.2127L47.0713 37.5643ZM11.9707 44.91C11.9707 45.117 12.0034 45.2569 12.0684 45.3289C12.1333 45.4007 12.2307 45.4363 12.3604 45.4363C12.4345 45.4363 12.5088 45.4317 12.583 45.4227C12.6566 45.4048 12.7029 45.3916 12.7217 45.3826L12.917 46.7195C12.9076 46.7286 12.8659 46.7511 12.792 46.7869C12.7178 46.8139 12.6196 46.8493 12.499 46.8943C12.3786 46.9303 12.2351 46.9621 12.0684 46.9891C11.9014 47.0251 11.7246 47.0438 11.5391 47.0438C11.0108 47.0437 10.5843 46.9129 10.2598 46.6522C9.93513 46.3821 9.77246 46.0035 9.77246 45.5174V40.2108H11.9707V44.91ZM9.07129 46.9891H6.74805L6.05273 44.7879H3.00488L2.28223 46.9891H0L3.57617 37.8475H5.62109L9.07129 46.9891ZM17.6074 40.117C17.8022 40.117 17.9737 40.1347 18.1221 40.1707C18.2798 40.1977 18.4097 40.2294 18.5117 40.2654L17.9414 42.3035C17.8765 42.2676 17.788 42.2368 17.6768 42.2098C17.5747 42.1738 17.4447 42.1551 17.2871 42.1551C17.1852 42.1551 17.0736 42.1822 16.9531 42.2361C16.8326 42.2902 16.7167 42.376 16.6055 42.493C16.4942 42.601 16.4013 42.7456 16.3271 42.9256C16.2531 43.0965 16.2158 43.3039 16.2158 43.5467V46.9891H14.0176V43.4783C14.0176 42.9386 13.976 42.4933 13.8926 42.1424C13.8184 41.7823 13.73 41.4895 13.6279 41.2645C13.5167 41.0126 13.3919 40.81 13.2529 40.657L15.0195 40.117C15.0937 40.207 15.1725 40.3106 15.2559 40.4276C15.3208 40.5265 15.3907 40.6525 15.4648 40.8055C15.539 40.9585 15.5992 41.1339 15.6455 41.3318C15.8774 40.8998 16.1514 40.5892 16.4668 40.4002C16.7914 40.2112 17.1715 40.117 17.6074 40.117ZM29.5264 41.6834C29.3594 41.6834 29.2197 41.7328 29.1084 41.8318C28.9973 41.9219 28.9096 42.0526 28.8447 42.2234C28.7891 42.3854 28.7466 42.5786 28.7188 42.8035C28.7002 43.0286 28.6914 43.272 28.6914 43.533C28.6914 43.803 28.7056 44.0595 28.7334 44.3026C28.7612 44.5456 28.8071 44.7573 28.8721 44.9373C28.9463 45.1173 29.0489 45.2609 29.1787 45.369C29.3085 45.4679 29.4704 45.5174 29.665 45.5174C29.832 45.5174 29.9717 45.468 30.083 45.369C30.1941 45.27 30.2774 45.1392 30.333 44.9774C30.3979 44.8064 30.4395 44.6085 30.458 44.3836C30.4858 44.1586 30.5 43.9198 30.5 43.6678C30.5 43.3888 30.4858 43.1323 30.458 42.8983C30.4302 42.6552 30.3799 42.4435 30.3057 42.2635C30.2407 42.0835 30.1425 41.9445 30.0127 41.8455C29.8829 41.7375 29.721 41.6835 29.5264 41.6834ZM36.7549 41.6834C36.5879 41.6834 36.4482 41.7328 36.3369 41.8318C36.2257 41.9219 36.1371 42.0525 36.0723 42.2234C36.0167 42.3854 35.9751 42.5788 35.9473 42.8035C35.9287 43.0286 35.9199 43.272 35.9199 43.533C35.9199 43.803 35.9331 44.0596 35.9609 44.3026C35.9888 44.5456 36.0357 44.7573 36.1006 44.9373C36.1747 45.1171 36.2766 45.261 36.4062 45.369C36.5361 45.468 36.6988 45.5174 36.8936 45.5174C37.0605 45.5174 37.1993 45.4679 37.3105 45.369C37.4219 45.2699 37.5059 45.1394 37.5615 44.9774C37.6264 44.8064 37.668 44.6085 37.6865 44.3836C37.7143 44.1586 37.7285 43.9198 37.7285 43.6678C37.7285 43.3888 37.7143 43.1323 37.6865 42.8983C37.6587 42.6552 37.6074 42.4435 37.5332 42.2635C37.4683 42.0836 37.371 41.9445 37.2412 41.8455C37.1114 41.7376 36.9495 41.6835 36.7549 41.6834ZM44.3027 41.6824C44.0801 41.6824 43.8945 41.7319 43.7461 41.8309C43.5978 41.9208 43.4775 42.0516 43.3848 42.2225C43.3013 42.3845 43.2412 42.5832 43.2041 42.8172C43.167 43.0511 43.1484 43.3031 43.1484 43.5731C43.1484 43.8249 43.1528 44.0677 43.1621 44.3016C43.1714 44.5266 43.1987 44.7299 43.2451 44.91C43.3007 45.0898 43.3751 45.2337 43.4678 45.3416C43.5605 45.4496 43.6905 45.5037 43.8574 45.5037C43.9966 45.5037 44.1265 45.445 44.2471 45.3279C44.3769 45.2109 44.4883 45.0533 44.5811 44.8553C44.6737 44.6573 44.7437 44.4324 44.79 44.1805C44.8457 43.9196 44.873 43.6451 44.873 43.3572V41.7908C44.8081 41.7638 44.7153 41.7414 44.5947 41.7234C44.4835 41.6965 44.3862 41.6824 44.3027 41.6824ZM4.34082 40.7508C4.26665 40.9847 4.18352 41.2367 4.09082 41.5067C4.00734 41.7767 3.91453 42.0518 3.8125 42.3309C3.71981 42.6097 3.62687 42.8795 3.53418 43.1404H5.53711C5.44442 42.8796 5.34707 42.6097 5.24512 42.3309C5.15236 42.0428 5.05955 41.763 4.9668 41.493C4.88338 41.2231 4.80463 40.971 4.73047 40.7371C4.65631 40.4942 4.59176 40.2917 4.53613 40.1297C4.48048 40.3007 4.41502 40.5077 4.34082 40.7508ZM10.8994 36.9568C11.289 36.9568 11.586 37.0697 11.79 37.2947C11.9939 37.5197 12.0957 37.8034 12.0957 38.1453C12.0957 38.4961 11.9894 38.7884 11.7764 39.0223C11.5723 39.2563 11.2611 39.3738 10.8438 39.3738C10.4542 39.3738 10.1528 39.261 9.93945 39.0359C9.73551 38.802 9.63382 38.5276 9.63379 38.2127C9.63379 37.8526 9.73979 37.5552 9.95312 37.3211C10.1665 37.0781 10.4821 36.9569 10.8994 36.9568Z" fill="white"/>
</svg>
