<svg width="53" height="50" viewBox="0 0 53 50" fill="none" xmlns="http://www.w3.org/2000/svg">
<path d="M4.1482 24.8621C4.1482 15.716 13.0549 8.2752 24.0022 8.2752C34.9498 8.2752 43.8564 15.7161 43.8564 24.8621C43.8564 34.0081 34.9498 41.449 24.0022 41.449C23.0817 41.449 22.1581 41.3959 21.25 41.291C17.0333 43.9596 13.9205 45.4202 11.9912 45.6337C11.9242 45.641 11.8566 45.6447 11.7905 45.6447C11.1708 45.6447 10.5972 45.3371 10.2556 44.8212C9.87384 44.2441 9.84895 43.5119 10.189 42.9142C10.2048 42.8857 11.6937 40.1796 11.2642 37.5946C6.73452 34.4368 4.1482 29.822 4.1482 24.8621ZM29.3942 27.3672C31.0186 27.3672 32.3351 26.0554 32.3351 24.4373C32.3351 22.8191 31.0186 21.5074 29.3942 21.5074C27.77 21.5074 26.453 22.8192 26.453 24.4373C26.4529 26.0554 27.77 27.3672 29.3942 27.3672ZM18.6098 27.3672C20.2345 27.3672 21.5513 26.0554 21.5513 24.4373C21.5513 22.8191 20.2345 21.5074 18.6098 21.5074C16.9857 21.5074 15.6688 22.8192 15.6688 24.4373C15.6688 26.0554 16.9857 27.3672 18.6098 27.3672Z" fill="white"/>
<path d="M39.662 38.1328C41.632 36.5078 43.1849 34.6056 44.277 32.4794C45.4284 30.2376 46.0122 27.853 46.0122 25.3917C46.0122 22.9304 45.4284 20.5458 44.277 18.304C44.1888 18.1325 44.0965 17.963 44.0025 17.7943C48.8652 20.5697 52.0576 25.2018 52.0576 30.4381C52.0576 35.1424 49.5138 39.5042 45.0697 42.4383C44.2489 45.6528 46.1536 49.0537 46.1738 49.0885C46.2873 49.2879 46.2789 49.534 46.1522 49.7254C46.0381 49.8979 45.8454 50 45.6408 50C45.6182 50 45.5956 49.9987 45.5728 49.9962C43.3494 49.7502 39.434 47.499 36.4679 45.6008C35.4689 45.7358 34.4477 45.8042 33.4288 45.8042C29.5322 45.8042 25.9119 44.8115 22.9181 43.1176C23.587 43.1709 24.2607 43.1994 24.9324 43.1994C30.4697 43.1994 35.7008 41.4 39.662 38.1328Z" fill="white"/>
<path d="M4.01113 11.3214L6.86124 9.50215L7.44371 10.4078L3.46339 12.9484L0 7.56355L1.13022 6.84213L4.01113 11.3214Z" fill="white"/>
<path d="M10.5497 9.1576C10.0785 9.35781 9.62751 9.44058 9.19672 9.4059C8.77191 9.36869 8.39028 9.21831 8.05186 8.95476C7.71344 8.69122 7.43992 8.31582 7.23132 7.82857C7.02271 7.34131 6.94006 6.88482 6.98338 6.45907C7.0267 6.03333 7.17892 5.65613 7.44005 5.32746C7.70714 4.99626 8.06138 4.73689 8.50277 4.54935C8.95609 4.35674 9.38025 4.28538 9.77524 4.33526C10.1677 4.37921 10.5148 4.52316 10.8167 4.76713C11.116 5.00516 11.3509 5.32324 11.5213 5.72136C11.5722 5.8402 11.6175 5.95437 11.6574 6.06386C11.6972 6.17335 11.729 6.27223 11.7526 6.36049L8.18275 7.8773L7.82023 7.03055L10.8533 5.74183L10.3544 6.20665C10.1941 5.83229 9.98423 5.58085 9.72475 5.45231C9.47124 5.32124 9.18941 5.3216 8.87924 5.45339C8.65258 5.54969 8.47864 5.6868 8.35742 5.86472C8.24216 6.04011 8.18857 6.2525 8.19665 6.5019C8.20219 6.74535 8.27364 7.02752 8.41102 7.34839C8.54585 7.66333 8.70252 7.90577 8.88103 8.07573C9.06296 8.23721 9.25906 8.33298 9.46932 8.36304C9.68554 8.39056 9.91295 8.35363 10.1515 8.25225C10.414 8.14074 10.6041 8.00026 10.7219 7.83082C10.8397 7.66138 10.9052 7.46852 10.9183 7.25224L12.0538 7.21222C12.0576 7.48452 11.9967 7.74567 11.8711 7.99568C11.7515 8.24316 11.5765 8.46849 11.3463 8.67167C11.1194 8.86637 10.8539 9.02834 10.5497 9.1576Z" fill="white"/>
<path d="M13.7722 1.32544L14.9962 5.91431C15.0561 6.13907 15.1567 6.28959 15.2978 6.36587C15.4435 6.43424 15.6166 6.44188 15.8172 6.3888C15.9739 6.34732 16.1059 6.28897 16.2133 6.21375C16.3191 6.13228 16.4081 6.03852 16.4805 5.93247L16.9146 6.72994C16.7959 6.88838 16.6328 7.0318 16.4255 7.16021C16.2182 7.28861 15.9892 7.38599 15.7385 7.45235C15.4252 7.53529 15.1338 7.56229 14.8644 7.53334C14.6013 7.50274 14.3733 7.40267 14.1805 7.23313C13.9939 7.06194 13.8548 6.80465 13.7632 6.46127L12.5792 2.02224L13.7722 1.32544ZM15.6585 2.36014L15.9133 3.31537L12.2564 4.28339L12.0016 3.32816L15.6585 2.36014Z" fill="white"/>
<path d="M19.8611 6.71959C19.3719 6.77907 18.9139 6.7469 18.4872 6.62308C18.0669 6.49847 17.712 6.29433 17.4224 6.01064L18.0909 5.1484C18.2737 5.36047 18.5028 5.52459 18.7784 5.64076C19.0539 5.75694 19.3687 5.7935 19.7227 5.75045C19.9738 5.71993 20.169 5.6604 20.3084 5.57186C20.4534 5.47612 20.5161 5.3481 20.4965 5.18779C20.4839 5.08519 20.4379 5.00293 20.3585 4.941C20.2782 4.87266 20.1292 4.82896 19.9113 4.80991L19.0404 4.74009C18.4662 4.69276 18.0459 4.56815 17.7795 4.36627C17.5187 4.15719 17.3655 3.86668 17.3199 3.49476C17.2877 3.23185 17.3347 2.97558 17.4609 2.72595C17.5936 2.47554 17.8089 2.26062 18.1071 2.08119C18.4044 1.89535 18.788 1.77386 19.2579 1.71673C19.7406 1.65802 20.1685 1.6841 20.5414 1.79494C20.9199 1.8986 21.2302 2.08539 21.4723 2.35531L20.7749 3.22108C20.6058 3.01386 20.3983 2.86663 20.1524 2.77938C19.9122 2.68494 19.6666 2.65299 19.4155 2.68351C19.2353 2.70543 19.0832 2.74345 18.9592 2.79758C18.8351 2.85171 18.7453 2.91795 18.6895 2.99632C18.633 3.06827 18.6111 3.15554 18.6236 3.25814C18.6362 3.36074 18.6923 3.44504 18.7918 3.51103C18.8906 3.57061 19.0622 3.61156 19.3066 3.6339L20.3162 3.71614C20.8043 3.75441 21.1655 3.87644 21.3998 4.08224C21.6332 4.28163 21.7696 4.54163 21.8089 4.86225C21.8466 5.17005 21.7967 5.45596 21.6592 5.71998C21.5274 5.97681 21.3092 6.19533 21.0046 6.37554C20.7057 6.54855 20.3245 6.66323 19.8611 6.71959Z" fill="white"/>
<path d="M32.4745 0.768698L32.3271 1.83422L30.1976 1.54182L29.4685 6.81182L28.1387 6.62924L28.8679 1.35924L26.7287 1.06552L26.8761 0L32.4745 0.768698Z" fill="white"/>
<path d="M36.1551 5.29262C36.2395 5.02787 36.228 4.79717 36.1206 4.60052C36.0194 4.40582 35.8452 4.26936 35.598 4.19114C35.3693 4.11879 35.1498 4.11373 34.9395 4.17596C34.7291 4.23819 34.5406 4.39204 34.3739 4.63753L33.3952 3.96187C33.6298 3.58875 33.9626 3.33479 34.3933 3.19997C34.8303 3.06711 35.3486 3.09552 35.9481 3.2852C36.356 3.41426 36.6907 3.59135 36.9523 3.81646C37.2159 4.03542 37.3909 4.29751 37.4773 4.60275C37.5699 4.90993 37.5553 5.25439 37.4336 5.63612L36.8359 7.51091C36.7613 7.74488 36.8353 7.89706 37.0578 7.96745C37.1628 8.0007 37.2666 8.01659 37.3691 8.01514L37.0447 8.77668C36.8585 8.80588 36.6449 8.78235 36.4038 8.70608C36.1875 8.63764 36.0046 8.5391 35.8551 8.41047C35.7056 8.28183 35.605 8.12799 35.5532 7.94893C35.5034 7.76372 35.5148 7.55721 35.5874 7.32941L35.5992 7.29246L35.8335 7.32592C35.7218 7.54815 35.556 7.71599 35.3362 7.82942C35.1183 7.93671 34.8751 7.99532 34.6065 8.00525C34.3442 8.01714 34.0863 7.983 33.8329 7.90282C33.5177 7.80309 33.2605 7.67088 33.0613 7.50617C32.864 7.33531 32.733 7.13797 32.6683 6.91415C32.6036 6.69033 32.6144 6.44297 32.7008 6.17206C32.8107 5.82727 33.0113 5.58233 33.3025 5.43724C33.5956 5.28598 33.962 5.23584 34.4016 5.28682L36.2564 5.48732L35.9968 6.26939L34.8137 6.13906C34.5898 6.11567 34.4105 6.12332 34.2757 6.16201C34.149 6.19649 34.0602 6.29377 34.0091 6.45385C33.9601 6.60778 33.9784 6.74236 34.0641 6.8576C34.156 6.97479 34.2823 7.05881 34.443 7.10965C34.5728 7.15071 34.7044 7.17541 34.8378 7.18373C34.9713 7.19206 35.0982 7.178 35.2187 7.14156C35.3392 7.10512 35.4459 7.03721 35.5388 6.93783C35.6317 6.83845 35.7046 6.70564 35.7576 6.5394L36.1551 5.29262Z" fill="white"/>
<path d="M42.1078 3.54316L39.7832 8.50412C39.6872 8.709 39.6552 8.86881 39.6873 8.98355C39.7194 9.09829 39.8177 9.19392 39.9823 9.27043C40.0822 9.31688 40.1672 9.34928 40.2373 9.36763C40.3102 9.38013 40.4034 9.39497 40.517 9.41215L40.0409 10.1532C39.9136 10.1653 39.7667 10.1504 39.6002 10.1087C39.4369 10.0755 39.2817 10.0247 39.1348 9.95641C38.7059 9.75694 38.4395 9.50831 38.3358 9.21053C38.2406 8.90963 38.3 8.53088 38.5139 8.0743L40.9003 2.98163L42.1078 3.54316Z" fill="white"/>
<path d="M47.7181 9.28811L44.5615 10.0468L44.2722 10.0117L42.1988 10.5412L42.9486 9.33952L46.4404 8.4726L47.7181 9.28811ZM45.8206 5.55661L42.0476 11.4229L40.9256 10.7067L44.6986 4.84042L45.8206 5.55661ZM45.1474 9.47711L45.1926 13.4303L43.9231 12.62L43.9578 9.63843L45.1474 9.47711Z" fill="white"/>
</svg>
