<svg width="176" height="50" viewBox="0 0 176 50" fill="none" xmlns="http://www.w3.org/2000/svg">
<g clip-path="url(#clip0_407_768)">
<path d="M0.615049 20.8169C6.75522 -3.3058 31.3166 -3.30576 42.2817 5.02748C32.8082 -0.586853 23.7144 1.22643 20.3517 2.83486C5.61489 11.2559 5.73184 24.4723 7.63243 30.0278C13.9482 46.5191 29.5623 44.5015 36.5798 41.4314H44.0359C40.1763 48.7998 30.1472 50.3495 25.615 50.2033C3.68505 49.4966 -1.40864 28.7669 0.615049 20.8169Z" fill="white"/>
<path d="M44.036 41.4311C37.7494 45.0861 18.5974 51.9574 10.7026 34.4135" stroke="white" stroke-width="0.877193"/>
<path d="M35.907 33.787V23.9925C35.907 23.3029 35.8014 22.7119 35.5903 22.2193C35.3793 21.7268 35.0486 21.3398 34.5982 21.0583C34.1479 20.7769 33.5639 20.6361 32.8462 20.6361C32.2411 20.6361 31.7133 20.7417 31.263 20.9528C30.8268 21.1639 30.489 21.4664 30.2498 21.8605C30.0246 22.2545 29.912 22.74 29.912 23.317H23.3261C23.3261 22.2897 23.5583 21.3327 24.0227 20.4462C24.4871 19.5596 25.1485 18.7786 26.0069 18.1031C26.8794 17.4276 27.9208 16.9069 29.131 16.541C30.3413 16.161 31.6993 15.9711 33.205 15.9711C34.9923 15.9711 36.5825 16.2736 37.9757 16.8788C39.3829 17.4698 40.4947 18.3634 41.3109 19.5596C42.1271 20.7417 42.5352 22.2334 42.5352 24.0347V33.597C42.5352 34.9761 42.6126 36.0597 42.7674 36.8478C42.9363 37.6218 43.1755 38.2973 43.4851 38.8743V39.2331H36.8358C36.5262 38.5717 36.294 37.7555 36.1392 36.7845C35.9844 35.7994 35.907 34.8002 35.907 33.787ZM36.7302 25.3012L36.7724 28.9319H33.5006C32.7688 28.9319 32.1355 29.0234 31.6008 29.2064C31.0801 29.3893 30.6579 29.6426 30.3342 29.9663C30.0106 30.2759 29.7713 30.6418 29.6165 31.0639C29.4758 31.4721 29.4054 31.9224 29.4054 32.4149C29.4054 32.8793 29.518 33.3015 29.7432 33.6815C29.9683 34.0473 30.2779 34.3358 30.672 34.5469C31.066 34.758 31.5234 34.8636 32.044 34.8636C32.9025 34.8636 33.6343 34.6947 34.2394 34.3569C34.8586 34.0192 35.337 33.6111 35.6748 33.1326C36.0125 32.6401 36.1814 32.1827 36.1814 31.7605L37.7646 34.5047C37.5113 35.0676 37.2017 35.6516 36.8358 36.2567C36.4699 36.8478 36.0055 37.4037 35.4426 37.9243C34.8797 38.431 34.1972 38.8461 33.395 39.1698C32.607 39.4934 31.6571 39.6553 30.5453 39.6553C29.1099 39.6553 27.8082 39.3668 26.6402 38.7898C25.4721 38.1988 24.5363 37.3896 23.8327 36.3623C23.1431 35.335 22.7983 34.1529 22.7983 32.816C22.7983 31.6198 23.0165 30.5573 23.4527 29.6285C23.889 28.6998 24.5433 27.9117 25.4158 27.2643C26.3024 26.617 27.4142 26.1315 28.7511 25.8078C30.088 25.4701 31.65 25.3012 33.4372 25.3012H36.7302Z" fill="white"/>
<path d="M50.1074 8.07635V38.7781H43.8511V8.07635H50.1074Z" fill="white"/>
<path d="M64.1907 39.6553C62.3754 39.6553 60.75 39.3668 59.3146 38.7898C57.8792 38.2128 56.6619 37.4177 55.6627 36.4045C54.6776 35.3772 53.9248 34.1951 53.4041 32.8582C52.8834 31.5213 52.623 30.0929 52.623 28.5731V27.771C52.623 26.0682 52.8623 24.4991 53.3408 23.0637C53.8192 21.6283 54.5158 20.3828 55.4305 19.3274C56.3593 18.2579 57.4992 17.4346 58.8502 16.8576C60.2011 16.2666 61.7421 15.9711 63.473 15.9711C65.0914 15.9711 66.5338 16.2384 67.8004 16.7732C69.0669 17.2939 70.1364 18.0468 71.0089 19.0319C71.8814 20.0029 72.5428 21.1779 72.9932 22.5571C73.4576 23.9221 73.6898 25.456 73.6898 27.1588V29.8607H55.2828V25.6178H67.2304V25.1112C67.2304 24.3091 67.0827 23.6055 66.7871 23.0003C66.5057 22.3952 66.0835 21.9308 65.5206 21.6072C64.9718 21.2694 64.2752 21.1005 63.4308 21.1005C62.6287 21.1005 61.9602 21.2694 61.4255 21.6072C60.8907 21.9449 60.4615 22.4234 60.1378 23.0426C59.8282 23.6477 59.6031 24.3583 59.4623 25.1746C59.3216 25.9767 59.2512 26.8422 59.2512 27.771V28.5731C59.2512 29.4597 59.3709 30.2688 59.6101 31.0006C59.8493 31.7324 60.2011 32.3586 60.6655 32.8793C61.1299 33.4 61.6928 33.8081 62.3543 34.1036C63.0157 34.3992 63.7686 34.5469 64.6129 34.5469C65.6543 34.5469 66.6464 34.3499 67.5893 33.9559C68.5321 33.5478 69.3483 32.9145 70.0379 32.0561L73.1198 35.5813C72.6554 36.2567 72.001 36.9111 71.1567 37.5444C70.3264 38.1636 69.3272 38.6702 68.1592 39.0642C66.9912 39.4583 65.6684 39.6553 64.1907 39.6553Z" fill="white"/>
<path d="M124.717 39.6553C122.902 39.6553 121.276 39.3668 119.841 38.7898C118.406 38.2128 117.188 37.4177 116.189 36.4045C115.204 35.3772 114.451 34.1951 113.93 32.8582C113.41 31.5213 113.149 30.0929 113.149 28.5731V27.771C113.149 26.0682 113.389 24.4991 113.867 23.0637C114.346 21.6283 115.042 20.3828 115.957 19.3274C116.886 18.2579 118.026 17.4346 119.377 16.8576C120.728 16.2666 122.268 15.9711 123.999 15.9711C125.618 15.9711 127.06 16.2384 128.327 16.7732C129.593 17.2939 130.663 18.0468 131.535 19.0319C132.408 20.0029 133.069 21.1779 133.52 22.5571C133.984 23.9221 134.216 25.456 134.216 27.1588V29.8607H115.809V25.6178H127.757V25.1112C127.757 24.3091 127.609 23.6055 127.314 23.0003C127.032 22.3952 126.61 21.9308 126.047 21.6072C125.498 21.2694 124.802 21.1005 123.957 21.1005C123.155 21.1005 122.487 21.2694 121.952 21.6072C121.417 21.9449 120.988 22.4234 120.664 23.0426C120.355 23.6477 120.129 24.3583 119.989 25.1746C119.848 25.9767 119.778 26.8422 119.778 27.771V28.5731C119.778 29.4597 119.897 30.2688 120.136 31.0006C120.376 31.7324 120.728 32.3586 121.192 32.8793C121.656 33.4 122.219 33.8081 122.881 34.1036C123.542 34.3992 124.295 34.5469 125.139 34.5469C126.181 34.5469 127.173 34.3499 128.116 33.9559C129.059 33.5478 129.875 32.9145 130.564 32.0561L133.646 35.5813C133.182 36.2567 132.527 36.9111 131.683 37.5444C130.853 38.1636 129.854 38.6702 128.686 39.0642C127.518 39.4583 126.195 39.6553 124.717 39.6553Z" fill="white"/>
<path d="M83.3249 20.3571V39.6553H77.1846V20.3571H83.3249Z" fill="white"/>
<path d="M82.507 18.6027C77.6774 20.6725 76.9743 15.8459 77.2299 13.0429C77.2381 12.9535 77.292 12.8757 77.375 12.8413C78.002 12.5815 78.9973 12.488 79.6124 12.4671C79.7576 12.4622 79.8745 12.3438 79.9048 12.2017C80.1965 10.8317 82.5834 8.58049 84.0094 7.40385C84.1387 7.29722 84.3318 7.34025 84.4029 7.49196C85.8256 10.529 87.2612 16.5652 82.507 18.6027Z" fill="white"/>
<path d="M102.046 32.1618L108.683 8.95355H116.118L105.897 38.7781H101.042L102.046 32.1618ZM96.0031 8.95355L102.619 32.1618L103.664 38.7781H98.7479L88.5879 8.95355H96.0031Z" fill="white"/>
<path d="M145.943 22.043V39.6553H139.465V17.2622H145.549L145.943 22.043ZM145.094 27.6723L143.48 27.7137C143.48 26.0304 143.687 24.5196 144.101 23.1812C144.515 21.8429 145.101 20.7046 145.86 19.7664C146.633 18.8144 147.55 18.09 148.612 17.5933C149.689 17.0966 150.875 16.8483 152.172 16.8483C153.221 16.8483 154.18 17 155.049 17.3036C155.918 17.6071 156.663 18.0969 157.284 18.773C157.919 19.4353 158.402 20.3183 158.733 21.4221C159.064 22.5121 159.23 23.8573 159.23 25.4578V39.6553H152.731V25.4371C152.731 24.4989 152.6 23.7745 152.338 23.264C152.076 22.7535 151.689 22.3948 151.179 22.1878C150.682 21.9809 150.075 21.8774 149.358 21.8774C148.599 21.8774 147.95 22.0292 147.412 22.3327C146.874 22.6225 146.433 23.0295 146.088 23.5538C145.743 24.0781 145.487 24.6921 145.322 25.3957C145.17 26.0994 145.094 26.8582 145.094 27.6723Z" fill="white"/>
<path d="M175.131 17.241V21.9265H161.395V17.241H175.131ZM164.904 12.9009L171.237 9.83069L171.237 32.2602C171.237 32.9021 171.315 33.3942 171.472 33.7365C171.629 34.0788 171.886 34.3213 172.242 34.4639C172.599 34.5923 173.055 34.6565 173.612 34.6565C174.011 34.6565 174.353 34.6422 174.638 34.6137C174.924 34.5851 175.188 34.5495 175.43 34.5067V39.342C174.86 39.5274 174.253 39.67 173.612 39.7699C172.97 39.884 172.271 39.941 171.515 39.941C170.074 39.941 168.826 39.7057 167.771 39.235C166.729 38.7643 165.931 38.0226 165.374 37.0099C164.818 35.9829 164.54 34.6493 164.54 33.009L164.904 12.9009Z" fill="white"/>
<path d="M92.105 30.2635C99.7073 24.5617 119.123 14.2986 135.965 25.8775C152.807 37.4565 175.438 16.082 184.649 6.14032" stroke="white" stroke-width="0.877193"/>
<path d="M92.105 34.6495C99.7073 28.9477 119.123 18.6845 135.965 30.2635C152.807 41.8424 175.438 20.4679 184.649 10.5263" stroke="white" stroke-width="0.877193"/>
</g>
<defs>
<clipPath id="clip0_407_768">
<rect width="175.439" height="50" fill="white"/>
</clipPath>
</defs>
</svg>
